<?xml version="1.0" encoding="utf-8" ?><svg xmlns="http://www.w3.org/2000/svg" xmlns:xlink="http://www.w3.org/1999/xlink" width="2048" height="2048" viewBox="0 0 2048 2048"><path fill="white" d="M386.112 562.198L386.174 436.758C386.165 410.236 383.853 369.827 389.946 345.409C398.134 313.668 419.161 288.807 447.492 272.974C478.672 255.549 514.318 258.793 548.713 258.969C575.024 259.128 601.336 259.156 627.647 259.052L919.3 258.989L1220.22 259.008L1310.58 258.794C1332.86 258.795 1368.72 256.958 1389.34 263.058C1429.44 274.924 1456.85 308.703 1465.36 349.087C1466.51 354.523 1466.43 372.517 1468.02 375.485L1474.32 377.03C1534.93 382.518 1572.69 432.902 1571.84 491.921C1606.62 494.851 1633.46 504.161 1656.72 531.855C1682.84 562.973 1683.03 591.121 1682.91 628.922L1683.14 871.651L1683.25 942.754C1683.26 950.122 1683.73 972.221 1682.95 978.481C1684.72 1115.17 1683.29 1255.47 1683.23 1392.27L1683.35 1583.51L1683.38 1664.65C1683.38 1713.81 1688.3 1751.46 1650.22 1789.44C1633.08 1806.52 1610.99 1817.76 1587.1 1821.57C1569.67 1824.29 1519.43 1823.09 1498.55 1823.1L1325.14 1823.12L723.935 1823.12C719.263 1823.09 712.072 1823.13 707.595 1822.1C686.372 1822.63 656.48 1805.48 641.797 1790.71C614.546 1763.3 610.472 1735.94 610.612 1699.29C561.946 1699.16 522.521 1678.45 503.449 1631.85C495.564 1612.58 496.581 1594.75 496.525 1574.39C466.506 1573.6 439.898 1562.66 418.589 1541.25C404.731 1527.4 394.886 1510.06 390.102 1491.06C385.129 1471.31 386.702 1431.42 386.696 1409.83L386.596 1290.45L386.658 942.463C386.578 882.189 385.816 820.048 386.825 759.854C385.52 750.691 386.482 706.616 386.502 695.547L386.112 562.198Z"/><path fill="white" d="M386.112 562.198L386.174 436.758C386.165 410.236 383.853 369.827 389.946 345.409C398.134 313.668 419.161 288.807 447.492 272.974C478.672 255.549 514.318 258.793 548.713 258.969C575.024 259.128 601.336 259.156 627.647 259.052L919.3 258.989L1220.22 259.008L1310.58 258.794C1332.86 258.795 1368.72 256.958 1389.34 263.058C1429.44 274.924 1456.85 308.703 1465.36 349.087C1466.51 354.523 1466.43 372.517 1468.02 375.485L1474.32 377.03C1534.93 382.518 1572.69 432.902 1571.84 491.921C1548.32 491.248 1522.57 491.72 1498.97 491.873C1433.98 493.335 1364.34 492.13 1298.95 492.138L920.069 492.195L776.832 492.285C758.423 492.296 719.431 491.069 702.538 493.841C678.87 497.879 657.123 509.407 640.497 526.729C608.942 559.982 610.814 592.454 610.868 634.094L610.977 695.942L611.037 1075.43L610.971 1290.61L610.818 1628.94C567.657 1629.06 564.447 1590.29 566.461 1558.13C567.246 1545.61 566.554 1530.41 566.575 1517.75C564.996 1515.64 565.595 1503.21 565.62 1499.95C543.399 1500.04 521.176 1499.98 498.956 1499.76C481.095 1496.03 463.994 1485.43 461.365 1466.41C458.798 1447.85 460.02 1425.81 460.028 1406.94L460.066 1290.35L386.596 1290.45L386.658 942.463C386.578 882.189 385.816 820.048 386.825 759.854C385.52 750.691 386.482 706.616 386.502 695.547L386.112 562.198Z"/><path fill="white" d="M603.505 376.898C629.775 377.742 658.195 377.158 684.709 377.137L827.265 377.091L1272.2 377.122L1392.29 377.025C1418.84 376.869 1447.89 375.896 1474.32 377.03C1534.93 382.518 1572.69 432.902 1571.84 491.921C1548.32 491.248 1522.57 491.72 1498.97 491.873C1433.98 493.335 1364.34 492.13 1298.95 492.138L920.069 492.195L776.832 492.285C758.423 492.296 719.431 491.069 702.538 493.841C678.87 497.879 657.123 509.407 640.497 526.729C608.942 559.982 610.814 592.454 610.868 634.094L610.977 695.942L611.037 1075.43L610.971 1290.61L610.818 1628.94C567.657 1629.06 564.447 1590.29 566.461 1558.13C567.246 1545.61 566.554 1530.41 566.575 1517.75C566.667 1487.98 567.055 1455.05 566.208 1425.44C567.336 1412.3 566.662 1386.68 566.674 1372.73L566.411 1271.49L566.264 1005.99C544.611 1005.84 521.782 1005.42 500.204 1005.91C500.221 1020.13 501.25 1059.47 499.743 1072.01C499.05 1065.15 499.361 1050.04 499.374 1042.97L499.513 989.679C499.635 939.608 499.08 888.851 499.791 838.823C497.657 826.104 499.28 794.011 499.28 779.744L499.449 649.982L499.228 529.367C499.229 514.416 498.486 480.823 500.666 468.075C504.08 447.364 513.29 428.042 527.23 412.348C547.236 390.249 573.98 378.524 603.505 376.898Z"/><path fill="#9D4EDD" d="M603.505 376.898C629.775 377.742 658.195 377.158 684.709 377.137L827.265 377.091L1272.2 377.122L1392.29 377.025C1418.84 376.869 1447.89 375.896 1474.32 377.03C1534.93 382.518 1572.69 432.902 1571.84 491.921C1548.32 491.248 1522.57 491.72 1498.97 491.873C1497.65 439.63 1449.54 445.887 1413.12 446.057L1341.03 446.111L1093.35 446.11L768.826 446.117L663.697 446.008C646.077 445.982 624.499 445.354 607.301 446.162C595.56 446.672 584.541 451.977 576.819 460.836C571.688 466.654 568.297 473.798 567.032 481.451C565.507 490.624 566.143 518.643 566.156 529.054L566.3 628.888L500.314 628.926L500.214 692.293L500.173 794.189C500.191 801.278 500.728 833.895 499.791 838.823C497.657 826.104 499.28 794.011 499.28 779.744L499.449 649.982L499.228 529.367C499.229 514.416 498.486 480.823 500.666 468.075C504.08 447.364 513.29 428.042 527.23 412.348C547.236 390.249 573.98 378.524 603.505 376.898Z"/><path fill="#7B2CBF" d="M500.314 628.926L566.3 628.888L566.269 692.226L566.264 1005.99C544.611 1005.84 521.782 1005.42 500.204 1005.91C500.221 1020.13 501.25 1059.47 499.743 1072.01C499.05 1065.15 499.361 1050.04 499.374 1042.97L499.513 989.679C499.635 939.608 499.08 888.851 499.791 838.823C500.728 833.895 500.191 801.278 500.173 794.189L500.214 692.293L500.314 628.926Z"/><path fill="#E0AAFF" d="M386.112 562.198L386.174 436.758C386.165 410.236 383.853 369.827 389.946 345.409C398.134 313.668 419.161 288.807 447.492 272.974C478.672 255.549 514.318 258.793 548.713 258.969C575.024 259.128 601.336 259.156 627.647 259.052L919.3 258.989L1220.22 259.008L1310.58 258.794C1332.86 258.795 1368.72 256.958 1389.34 263.058C1429.44 274.924 1456.85 308.703 1465.36 349.087C1466.51 354.523 1466.43 372.517 1468.02 375.485L1474.32 377.03C1447.89 375.896 1418.84 376.869 1392.29 377.025L1272.2 377.122L827.265 377.091L684.709 377.137C658.195 377.158 629.775 377.742 603.505 376.898C624.962 374.799 668.755 376.129 691.442 376.096L865.366 376.002L1398.24 376.041C1395.89 351.083 1383.05 332.728 1355.83 331.148C1337.97 330.112 1319 330.943 1301.03 330.98L1198.9 330.921L863.902 330.971L612.016 331.038L540.647 330.936C509.426 330.737 466.921 324.131 460.733 369.317C458.557 385.203 459.922 404.185 459.977 420.559L460.176 528.663C460.199 542.426 461.252 568.953 460.123 581.296C459.638 576.245 459.826 567.379 459.797 562.061C435.235 561.968 410.673 562.014 386.112 562.198Z"/><path fill="#7B2CBF" d="M386.112 562.198C410.673 562.014 435.235 561.968 459.797 562.061C459.826 567.379 459.638 576.245 460.123 581.296L460.17 691.924L460.038 942.247C437.362 943.046 409.779 942.364 386.658 942.463C386.578 882.189 385.816 820.048 386.825 759.854C385.52 750.691 386.482 706.616 386.502 695.547L386.112 562.198Z"/><path fill="#9D4EDD" d="M386.112 562.198C410.673 562.014 435.235 561.968 459.797 562.061C459.826 567.379 459.638 576.245 460.123 581.296L460.17 691.924L387.32 691.926C387.359 702.01 388.113 752.645 386.825 759.854C385.52 750.691 386.482 706.616 386.502 695.547L386.112 562.198Z"/><path fill="#5A189A" d="M386.658 942.463C409.779 942.364 437.362 943.046 460.038 942.247L460.066 1290.35L386.596 1290.45L386.658 942.463Z"/><path fill="#5A189A" d="M500.204 1005.91C521.782 1005.42 544.611 1005.84 566.264 1005.99L566.411 1271.49L566.674 1372.73C566.662 1386.68 567.336 1412.3 566.208 1425.44C565.041 1413.71 565.701 1389.82 565.702 1377.43L565.707 1290.67C543.742 1291 521.573 1290.37 499.625 1291.02C499.425 1219.2 498.458 1143.67 499.743 1072.01C501.25 1059.47 500.221 1020.13 500.204 1005.91Z"/><path fill="#360F9A" d="M499.625 1291.02C521.573 1290.37 543.742 1291 565.707 1290.67L565.702 1377.43C565.701 1389.82 565.041 1413.71 566.208 1425.44C567.055 1455.05 566.667 1487.98 566.575 1517.75C564.996 1515.64 565.595 1503.21 565.62 1499.95C543.399 1500.04 521.176 1499.98 498.956 1499.76C500.223 1494.89 499.536 1446.02 499.516 1436.68L499.625 1291.02Z"/><path fill="#7E1FE2" d="M1498.97 491.873C1522.57 491.72 1548.32 491.248 1571.84 491.921C1606.62 494.851 1633.46 504.161 1656.72 531.855C1682.84 562.973 1683.03 591.121 1682.91 628.922C1662.62 628.972 1631.12 627.877 1611.72 629.207C1611.94 602.232 1613.31 568.507 1577.01 561.272C1562.76 558.431 1542.46 559.839 1527.55 559.834L1453.51 559.836L1198.25 560.015L875.575 560.054L772.212 560.028C755.225 560.019 738.129 559.773 721.169 560.236C714.305 560.424 704.266 565.358 698.692 569.51C677.707 585.141 680.941 612.716 680.983 635.472L681.16 695.222C661.64 694.794 630.359 695.195 610.977 695.942L610.868 634.094C610.814 592.454 608.942 559.982 640.497 526.729C657.123 509.407 678.87 497.879 702.538 493.841C719.431 491.069 758.423 492.296 776.832 492.285L920.069 492.195L1298.95 492.138C1364.34 492.13 1433.98 493.335 1498.97 491.873Z"/><path fill="#3C096C" d="M386.596 1290.45L460.066 1290.35L460.028 1406.94C460.02 1425.81 458.798 1447.85 461.365 1466.41C463.994 1485.43 481.095 1496.03 498.956 1499.76C521.176 1499.98 543.399 1500.04 565.62 1499.95C565.595 1503.21 564.996 1515.64 566.575 1517.75C566.554 1530.41 567.246 1545.61 566.461 1558.13C564.447 1590.29 567.657 1629.06 610.818 1628.94C634.313 1629.17 657.81 1629.18 681.305 1628.97C681.264 1644.34 680.997 1659.82 681.197 1675.17C681.469 1696.08 677.757 1718.91 693.785 1735.36C700.624 1742.49 709.667 1747.1 719.452 1748.45C729.549 1749.76 754.774 1749.14 766.054 1749.13L851.816 1749.05L1151.83 1749.03L1151.76 1822.22L843.884 1822.1L754.642 1822.02C743.111 1821.98 718.147 1821.2 707.595 1822.1C686.372 1822.63 656.48 1805.48 641.797 1790.71C614.546 1763.3 610.472 1735.94 610.612 1699.29C561.946 1699.16 522.521 1678.45 503.449 1631.85C495.564 1612.58 496.581 1594.75 496.525 1574.39C466.506 1573.6 439.898 1562.66 418.589 1541.25C404.731 1527.4 394.886 1510.06 390.102 1491.06C385.129 1471.31 386.702 1431.42 386.696 1409.83L386.596 1290.45Z"/><path fill="#360F9A" d="M1611.82 1392.5C1624.26 1393.29 1639.64 1392.71 1652.28 1392.9C1658.97 1393 1677.05 1393.27 1683.23 1392.27L1683.35 1583.51L1683.38 1664.65C1683.38 1713.81 1688.3 1751.46 1650.22 1789.44C1633.08 1806.52 1610.99 1817.76 1587.1 1821.57C1569.67 1824.29 1519.43 1823.09 1498.55 1823.1L1325.14 1823.12L723.935 1823.12C719.263 1823.09 712.072 1823.13 707.595 1822.1C718.147 1821.2 743.111 1821.98 754.642 1822.02L843.884 1822.1L1151.76 1822.22L1151.83 1749.03L1442.32 1749.05L1526.85 1749.15C1551.25 1749.18 1580.55 1753.67 1598.65 1735.13C1615.77 1717.59 1611.82 1688.2 1611.8 1665.31L1611.79 1583.51L1611.82 1392.5Z"/><path fill="#5A189A" d="M1682.53 995.926C1682.29 988.887 1682.18 985.447 1682.95 978.481C1684.72 1115.17 1683.29 1255.47 1683.23 1392.27C1677.05 1393.27 1658.97 1393 1652.28 1392.9C1639.64 1392.71 1624.26 1393.29 1611.82 1392.5L1611.54 996.276C1631.09 994.814 1662.25 995.859 1682.53 995.926Z"/><path fill="#7B2CBF" d="M610.977 695.942C630.359 695.195 661.64 694.794 681.16 695.222L681.441 1075.32C658.074 1076.01 634.498 1074.81 611.037 1075.43L610.977 695.942Z"/><path fill="#7B2CBF" d="M1611.72 629.207C1631.12 627.877 1662.62 628.972 1682.91 628.922L1683.14 871.651L1683.25 942.754C1683.26 950.122 1683.73 972.221 1682.95 978.481C1682.18 985.447 1682.29 988.887 1682.53 995.926C1662.25 995.859 1631.09 994.814 1611.54 996.276L1611.72 629.207Z"/><path fill="#360F9A" d="M680.552 1290.51C680.897 1304.62 679.735 1337.39 681.213 1349.42C682.077 1376.15 681.28 1405.72 681.33 1432.7L681.305 1628.97C657.81 1629.18 634.313 1629.17 610.818 1628.94L610.971 1290.61L680.552 1290.51Z"/><path fill="#5A189A" d="M611.037 1075.43C634.498 1074.81 658.074 1076.01 681.441 1075.32L681.567 1258.06C681.584 1281.95 682.975 1326.68 681.213 1349.42C679.735 1337.39 680.897 1304.62 680.552 1290.51L610.971 1290.61L611.037 1075.43Z"/><path fill="#7B2CBF" d="M1434.98 692.927L1485.68 633.119C1498.76 645.504 1511.64 658.101 1524.32 670.904C1529.04 675.599 1538.98 684.729 1542.34 689.46C1540.73 692.241 1540.33 692.301 1537.85 694.248C1520.5 709.85 1499.48 726.708 1483.18 742.514C1484.88 746.72 1486.64 750.821 1487.96 755.158L1567.12 755.212L1567.11 827.879C1543.31 827.8 1519.48 827.664 1495.68 827.707C1487.43 827.722 1487.8 828.818 1484.67 836.26C1477.56 831.955 1433.16 833.64 1421.67 833.646C1400.41 852.947 1367.88 852.658 1346.95 832.983C1335.64 833.728 1288.17 832.571 1282.95 835.853C1281.93 833.725 1280.78 830.144 1279.95 827.802L1202.12 827.665L1202.2 755.192L1279.67 755.079C1281.35 750.949 1283.42 746.655 1285.28 742.574C1268.76 726.689 1248.5 709.622 1231.04 694.407L1225.18 689.445L1282.65 633.192C1298.09 650.914 1318.84 674.129 1332.99 692.7C1337.28 690.483 1342.51 688.369 1347 686.5C1363.07 683.537 1383.24 685.729 1399.81 685.209C1405.55 685.029 1415.53 687.382 1421.67 688.535C1426.3 689.74 1430.85 690.601 1434.98 692.927Z"/><path fill="white" d="M1346.95 832.983C1330.44 817.455 1325.13 793.395 1333.58 772.362C1342.02 751.328 1362.5 737.619 1385.16 737.82C1407.83 738.021 1428.05 752.091 1436.12 773.272C1444.19 794.452 1438.46 818.413 1421.67 833.646C1400.41 852.947 1367.88 852.658 1346.95 832.983Z"/><path fill="#7E1FE2" d="M1282.65 633.192C1298.09 650.914 1318.84 674.129 1332.99 692.7C1326.75 694.337 1314.67 693.333 1307.77 693.677C1285.89 694.768 1252.01 691.765 1231.04 694.407L1225.18 689.445L1282.65 633.192Z"/><path fill="#7E1FE2" d="M1434.98 692.927L1485.68 633.119C1498.76 645.504 1511.64 658.101 1524.32 670.904C1529.04 675.599 1538.98 684.729 1542.34 689.46C1540.73 692.241 1540.33 692.301 1537.85 694.248C1521.42 693.056 1443.07 695.878 1434.98 692.927Z"/><path fill="#7E1FE2" d="M1346.95 832.983C1367.88 852.658 1400.41 852.947 1421.67 833.646C1433.16 833.64 1477.56 831.955 1484.67 836.26L1484.16 838.357C1489.12 846.459 1532.69 884.191 1542.87 893.971C1525.13 911.941 1503.03 932.758 1486.45 950.954C1470.77 932.474 1452.33 909.453 1436.2 891.814C1430.11 895.016 1427.57 896.596 1420.89 898.282C1421.76 906.263 1421.27 918.354 1421.26 926.844L1421.36 977.118L1345.15 977.137C1345.1 961.671 1345.17 946.205 1345.36 930.741L1345.19 898.144C1339.3 895.466 1336.99 894.336 1331.47 890.773C1314.77 909.175 1297.63 930.31 1281.53 949.394C1263.08 930.431 1243.7 912.311 1225.32 893.103C1240.48 877.819 1267.06 856.149 1282.25 839.1C1282.48 838.018 1282.72 836.935 1282.95 835.853C1288.17 832.571 1335.64 833.728 1346.95 832.983Z"/><path fill="#5A189A" d="M1346.35 900.204C1349.63 900.542 1351.69 900.744 1355 900.84C1364.22 901.109 1373.73 899.471 1383 900.14C1387.32 900.452 1391.06 900.073 1395.37 900.462C1402.05 900.53 1408.82 900.402 1415.51 900.634C1420.19 900.811 1417.71 901.257 1420.89 898.282C1421.76 906.263 1421.27 918.354 1421.26 926.844L1421.36 977.118L1345.15 977.137C1345.1 961.671 1345.17 946.205 1345.36 930.741C1347.28 928.378 1346.22 905.348 1346.35 900.204Z"/><path fill="#9D4EDD" d="M1346.79 609.032L1421.84 609.21L1421.67 688.535C1415.53 687.382 1405.55 685.029 1399.81 685.209C1383.24 685.729 1363.07 683.537 1347 686.5L1346.79 609.032Z"/></svg>