<svg viewBox="1130.3936 1168.9984 573.44 503.808" xmlns:xlink="http://www.w3.org/1999/xlink" xmlns="http://www.w3.org/2000/svg" style="max-height: 500px" width="573.44" height="503.808"><path d="M1190.14 302.34L1506.52 302.64L1592.17 302.53C1599.61 302.515 1642.64 301.168 1645.86 305.145C1647.44 321.135 1646.31 361.087 1646.28 379.333L1646.29 516.405L1646.24 704.185C1646.23 735.183 1646.34 766.552 1646.03 797.577C1646 800.891 1645.38 802.156 1643.45 804.682C1606.82 804.348 1570.19 804.353 1533.56 804.697L1284.76 804.461C1271.33 804.43 1195.51 805.655 1188.73 803.322C1185.6 791.919 1187.12 750.558 1187.12 736.485L1187.13 609.174L1187.11 406.867L1187.03 342.225C1187.01 331.349 1186.97 320.286 1187.03 309.407C1187.05 305.456 1187.93 305.154 1190.14 302.34Z" fill="#46325D"/><path d="M1331.64 389.31C1361.42 385.963 1391.4 393.651 1415.89 410.919C1441.67 429.201 1459.14 456.975 1464.44 488.133C1471.24 529.272 1459.24 558.003 1436.1 590.416C1448.46 604.029 1470.16 624.589 1483.71 637.224L1463.83 656.509C1450.67 644.101 1437.8 631.392 1425.22 618.393C1412.75 603.882 1414.02 610.486 1398.93 617.917C1389.15 622.736 1377.31 626.508 1366.54 628.404C1334.7 633.852 1301.99 626.41 1275.64 607.72C1249.69 589.27 1232.19 561.214 1227.04 529.794C1221.42 497.778 1228.89 464.85 1247.75 438.38C1269.09 408.914 1296.51 394.958 1331.64 389.31Z" fill="#EBE0FF"/><path d="M1337.71 412.066C1391.5 407.808 1438.53 448.057 1442.63 501.869C1446.73 555.68 1406.34 602.587 1352.52 606.525C1298.92 610.448 1252.25 570.265 1248.17 516.679C1244.09 463.093 1284.13 416.307 1337.71 412.066Z" fill="#46325D"/><path d="M1339.98 421.249C1388.44 418.261 1430.2 455.028 1433.38 503.484C1436.55 551.94 1399.95 593.841 1351.5 597.202C1302.79 600.582 1260.61 563.733 1257.42 515.012C1254.23 466.291 1291.24 424.253 1339.98 421.249Z" fill="#EBE0FF"/><path d="M1394.22 471.481C1395.54 471.908 1396.82 472.255 1398 473.001C1399.13 473.716 1399.84 474.809 1400.01 476.138C1400.56 480.436 1350.94 540.868 1344.61 549.352C1343.62 550.672 1342.76 552.033 1341.56 553.172C1340.73 553.959 1339.59 554.192 1338.47 554.142C1336 554.033 1334.3 551.851 1332.85 550.086C1326.09 541.846 1318.44 533.87 1311.08 526.151C1307.13 522.217 1300.98 514.399 1310.07 513.747C1313.57 513.496 1335.17 538.491 1338.22 541.891C1354.91 520.936 1377.19 490.714 1394.22 471.481Z" fill="#46325D"/><path d="M1309.31 702.906L1413.53 703.004L1413.66 794.961C1381.27 796.086 1342.26 795.017 1309.18 795.165L1309.31 702.906Z" fill="#AC8BEE"/><path d="M1196.61 702.885L1299.87 702.873L1299.98 795.114L1196.47 795.094C1196.75 764.359 1196.8 733.621 1196.61 702.885Z" fill="#EBE0FF"/><path d="M1534.43 311.944L1637.02 312.147L1637.15 401.095L1534.32 401.101L1534.43 311.944Z" fill="#AC8BEE"/><path d="M1534.56 508.065L1637.07 508.079L1636.92 597.122L1534.6 597.116L1534.56 508.065Z" fill="#EBE0FF"/><path d="M1534.57 410.041L1636.98 410.16L1636.95 498.964L1534.75 498.946L1534.57 410.041Z" fill="#EBE0FF"/><path d="M1422.77 311.988L1525.09 312.231L1525.02 401.023L1422.96 400.931L1422.77 311.988Z" fill="#EBE0FF"/><path d="M1196.41 312.089L1299.95 312.037L1299.92 387.195C1296.58 388.413 1292.07 390.543 1288.7 392.002C1283.58 394.682 1278.67 397.98 1273.79 401.101C1248.28 401.533 1221.89 401.242 1196.31 401.293L1196.41 312.089Z" fill="#AC8BEE"/><path d="M1422.99 702.966C1442.98 703.098 1462.96 703.066 1482.94 702.871C1496.02 715.301 1512.06 732.099 1524.95 745.304L1525.08 795.041L1422.84 795.044L1422.99 702.966Z" fill="#EBE0FF"/><path d="M1196.59 606.368L1258.84 606.323C1273.99 619.104 1282.23 623.499 1300.02 631.675L1299.92 693.851L1196.59 693.95C1196.76 664.756 1196.76 635.562 1196.59 606.368Z" fill="#EBE0FF"/><path d="M1534.5 606.012C1567.71 605.849 1604.02 605.379 1637.04 606.4L1637.02 693.988L1572.11 693.891L1534.63 656.859L1534.5 606.012Z" fill="#EBE0FF"/><path d="M1499.27 635.735C1504.57 637.776 1549.82 686.406 1559.21 694.482C1569.04 702.941 1587.12 722.114 1596.91 732.02C1615.01 750.337 1600.67 777.91 1574.05 775.095C1561.53 771.542 1541.49 748.359 1531.4 738.333C1508.5 715.999 1485.92 693.332 1463.68 670.339C1473.09 659.678 1488.55 645.131 1499.27 635.735Z" fill="#AC8BEE"/><path d="M1309.27 311.928L1413.57 312.123C1413.59 323.172 1415.06 390.304 1413.01 397.071L1411.49 397.08C1377.33 378.437 1346.82 375.362 1309.15 384.639L1309.27 311.928Z" fill="#AC8BEE"/><path d="M1412.8 620.862C1413.98 626.17 1413.31 684.621 1413.27 694.081C1401.61 694.021 1312.79 694.879 1309.1 692.719L1309.08 634.317C1347.76 644.191 1377.94 640.007 1412.8 620.862Z" fill="#EBE0FF"/><path d="M1429.91 410.107L1525.19 410.095L1525.16 498.858L1475.23 498.802C1470.15 460.928 1459.31 435.79 1429.91 410.107Z" fill="#AC8BEE"/><path d="M1475.41 508.129L1525.17 508.109L1525.23 597.1L1498.5 596.999C1484.22 596.903 1469.94 596.915 1455.67 597.032C1453.16 594.572 1450.67 592.089 1448.2 589.584C1467.42 562.355 1474.37 541.487 1475.41 508.129Z" fill="#AC8BEE"/><path d="M1582.04 703.05C1598.21 702.256 1620.45 702.957 1637.09 702.959L1637.12 795.168C1625.01 795.223 1538.16 796.052 1534.74 794.127L1534.38 791.25L1534.35 754.343C1546.23 766.391 1558.97 782.696 1575.97 784.441C1585.34 785.428 1594.71 782.539 1601.89 776.445C1609.19 770.288 1613.56 761.357 1613.96 751.822C1614.78 730.394 1596.34 717.806 1582.04 703.05Z" fill="#EBE0FF"/><path d="M1196.59 410.182L1261.71 410.087C1242.42 427.477 1233.57 439.313 1223.67 463.754C1218.74 477.052 1217.96 485.242 1215.99 499.005L1196.57 498.723L1196.59 410.182Z" fill="#EBE0FF"/><path d="M1196.47 508.166L1215.72 508.117C1216.39 535.282 1222.13 558.066 1237.1 581.007C1240.84 586.741 1245.77 591.62 1249.36 597.068C1231.78 597.219 1214.2 597.26 1196.62 597.193L1196.47 508.166Z" fill="#AC8BEE"/><path d="M1422.91 629.603C1429.53 634.786 1449.81 656.133 1456.51 663.368C1456.6 663.461 1456.18 664.416 1456.15 664.46C1454.83 666.677 1454.45 668.017 1454.32 670.49C1453.97 676.941 1467.46 687.304 1472.7 692.343C1472.88 693.776 1472.59 693.993 1471.06 693.996C1454.99 694.028 1438.79 694.036 1422.73 694.054C1422.7 672.928 1422.35 650.681 1422.91 629.603Z" fill="#EBE0FF"/><path d="M1465.79 606.346C1485.03 605.795 1505.89 606.131 1525.25 606.143C1525.25 610.417 1525.92 644.963 1524.49 645.878C1523.45 645.906 1523.26 645.494 1522.35 644.709C1518.34 640.888 1513.94 636.507 1510.14 632.499C1501.31 623.185 1499.62 624.572 1490.41 631.074C1484.38 625.215 1470.21 612.58 1465.79 606.346Z" fill="#EBE0FF"/><path d="M577.008 306.184C604.514 304.726 657.87 297.842 666.173 331.781C668.536 341.139 666.911 351.058 661.685 359.173C654.814 369.657 646.42 372.948 635.016 375.443L634.629 397.737C671.279 404.918 685.252 410.376 717.553 429.638C726.073 420.881 734.719 412.247 743.488 403.739L739.934 399.142C739.183 395.51 739.091 395.749 740.023 392.195C746.561 389.05 778.584 424.918 785.467 429.808C788.688 432.097 791.58 436.109 789.798 440.238C786.932 441.581 785.196 440.973 781.976 440.572L780.631 440.395C772.788 447.143 764.252 456.79 757.055 464.48C783.607 494.134 800.815 530.966 806.522 570.359C813.958 625.033 799.245 680.411 765.653 724.184C729.786 771.37 683.934 794.679 626.234 802.771C572.079 807.999 520.121 794.844 477.178 760.747C434.178 726.821 406.361 677.249 399.808 622.87C392.907 560.94 410.923 512.272 449.177 464.712C441.642 456.554 433.97 447.816 425.644 440.526C422.393 441.165 421.225 441.297 417.907 441.519C415.046 439.627 415.973 440.918 415.222 437.387C417.162 431.279 457.05 395.572 464.611 391.651C467.353 392.587 466.057 391.902 468.096 394.773C468.456 399.738 467.702 398.327 464.629 403.66C466.459 406.728 485.678 425.638 489.69 429.692C518.669 410.927 545.655 401.649 579.823 397.193L579.725 376.158C564.242 372.363 551.876 365.702 547.479 348.976C545.102 339.906 546.573 330.257 551.544 322.307C557.774 312.534 566.348 308.704 577.008 306.184Z" fill="#46325D"/><path d="M590.359 404.907C698.147 397.708 791.304 479.381 798.264 587.184C805.224 694.988 723.344 787.963 615.526 794.684C508.045 801.384 415.425 719.816 408.486 612.351C401.547 504.886 482.91 412.084 590.359 404.907Z" fill="#EBE0FF"/><path d="M584.99 433.144C677.106 423.084 759.922 489.641 769.917 581.764C779.911 673.888 713.295 756.656 621.164 766.585C529.126 776.504 446.459 709.97 436.475 617.939C426.491 525.908 492.966 443.194 584.99 433.144Z" fill="#46325D"/><path d="M597.132 441.479C658.696 439.108 716.05 472.649 744.168 527.467C772.286 582.286 766.067 648.436 728.225 697.053C683.156 754.954 604.222 774.323 537.47 743.862C470.718 713.401 433.624 641.083 447.827 569.098C462.031 497.112 523.813 444.303 597.132 441.479Z" fill="#EBE0FF"/><path d="M597.132 441.479C658.696 439.108 716.05 472.649 744.168 527.467C772.286 582.286 766.067 648.436 728.225 697.053C726.339 692.453 712.253 679.436 707.702 676.512C703.748 674.854 703.972 674.902 701.248 671.502C700.94 668.248 682.375 652.055 678.693 648.671C675.755 647.921 676.353 647.988 673.595 646.434C672.806 645.055 671.507 643.263 672.345 641.768C697.127 597.559 674.774 542.56 626.12 528.188C621.425 526.801 606.606 525.636 603.835 523.045C602.596 519.365 602.996 520.472 603.966 516.114C604.816 511.681 604.985 486.89 604.473 481.864C602.275 477.768 602.468 477.362 603.579 473.158C605.103 469.979 605.186 445.413 604.078 442.191L597.132 441.479Z" fill="#AC8BEE"/><path d="M604.473 481.864C636.794 482.197 665.406 493.999 688.157 517.158C710.809 540.31 723.184 571.608 722.491 603.99C721.862 637.828 713.685 644.884 701.248 671.502C700.94 668.248 682.375 652.055 678.693 648.671C675.755 647.921 676.353 647.988 673.595 646.434C672.806 645.055 671.507 643.263 672.345 641.768C697.127 597.559 674.774 542.56 626.12 528.188C621.425 526.801 606.606 525.636 603.835 523.045C602.596 519.365 602.996 520.472 603.966 516.114C604.816 511.681 604.985 486.89 604.473 481.864Z" fill="#AC8BEE"/><path d="M603.966 516.114C628.294 516.259 649.448 524.581 666.623 541.997C683.17 558.569 692.307 581.131 691.953 604.547C691.754 619.485 687.125 636.249 678.693 648.671C675.755 647.921 676.353 647.988 673.595 646.434C672.806 645.055 671.507 643.263 672.345 641.768C697.127 597.559 674.774 542.56 626.12 528.188C621.425 526.801 606.606 525.636 603.835 523.045C602.596 519.365 602.996 520.472 603.966 516.114Z" fill="#46325D"/><path d="M603.579 473.158C630.244 470.456 663.318 483.795 683.812 500.465C711.152 522.79 728.331 555.199 731.46 590.357C734.032 618.136 726.968 652.962 709.122 674.853C708.661 675.417 708.187 675.97 707.702 676.512C703.748 674.854 703.972 674.902 701.248 671.502C713.685 644.884 721.862 637.828 722.491 603.99C723.184 571.608 710.809 540.31 688.157 517.158C665.406 493.999 636.794 482.197 604.473 481.864C602.275 477.768 602.468 477.362 603.579 473.158Z" fill="#46325D"/><path d="M578.112 315.317C594.233 315.031 627.437 313.648 643.003 317.835C654.759 320.997 661.625 341.559 654.895 351.999C651.207 357.721 643.839 366.466 635.147 364.598C634.46 364.428 634.73 352.992 634.363 350.697C623.088 347.431 594.435 349.597 581.961 350.578C577.335 350.941 580.889 365.489 578.148 365.386C568.077 365.008 559.46 356.313 556.823 347.008C555.01 340.428 555.997 333.391 559.551 327.564C563.794 320.522 570.499 317.338 578.112 315.317Z" fill="#F5F5F9"/><path d="M588.876 358.972C601.097 358.866 613.318 358.83 625.539 358.863L625.665 396.936C612.329 396.374 602.278 396.171 588.85 396.737L588.876 358.972Z" fill="#AC8BEE"/><path d="M456.137 409.689C459.198 411.282 477.369 430.42 482.16 434.638C473.474 442.038 465.98 448.687 457.468 456.22C457.251 456.372 456.033 457.278 455.88 457.161C450.787 453.264 435.842 437.018 431.825 432.978C439.979 425.267 448.083 417.504 456.137 409.689Z" fill="#AC8BEE"/><path d="M749.896 409.683C755.062 413.071 768.606 427.292 774.718 432.607L750.532 457.683L724.851 434.861C734.66 425.367 740.648 420.028 749.896 409.683Z" fill="#AC8BEE"/><path d="M1210.64 1234.5L1299.43 1234.4L1349.45 1330.03C1362.29 1303.04 1387.02 1261.56 1402.05 1234.52L1629.89 1234.47L1629.79 1478.34C1629.83 1516.74 1628.89 1555.11 1629.67 1593.52L1521.6 1593.64L1401.3 1593.57C1383.93 1562.99 1365.26 1527.77 1348.83 1496.59C1332.18 1523.19 1310.95 1565.14 1295.62 1593.37C1263.73 1594.12 1231.47 1592.97 1199.47 1593.61C1231.95 1533.27 1268 1472.42 1301.34 1412.19C1295.3 1402.98 1288.09 1389.16 1282.61 1379.26L1249.97 1319.79C1237.21 1296.45 1214.65 1258.15 1204.63 1235.9L1205.59 1234.77L1210.64 1234.5Z" fill="#46325D"/><path d="M1486.88 1248.91L1614.56 1248.89C1615.73 1358.64 1613.45 1469.22 1614.78 1578.52L1528.25 1578.34L1488.42 1578.32C1459.73 1524.09 1426.78 1466.72 1396.93 1412.73C1400.77 1404.71 1405.78 1395.98 1410.18 1388.2C1436.24 1342.15 1460.77 1294.88 1486.88 1248.91Z" fill="#916DD5"/><path d="M1228.45 1249.04C1248.58 1248.48 1270.16 1248.95 1290.39 1249.04C1309.54 1286.74 1329.04 1324.26 1348.89 1361.59C1369.42 1324.22 1391.71 1286.75 1411.3 1249.01C1430.72 1248.98 1450.14 1249.06 1469.57 1249.24C1439.1 1301.64 1409.76 1359.13 1379.62 1412.63C1401.71 1449.85 1446.32 1535.05 1470.31 1576.09C1470.2 1576.73 1470.09 1577.38 1469.98 1578.02L1467.25 1578.41L1410.43 1578.32C1390.55 1540.53 1367.52 1502.04 1348.59 1464.2C1328.45 1499.65 1305.47 1542.06 1286.43 1578.26L1225.29 1578.31C1256.71 1523.41 1287.69 1468.26 1318.21 1412.86C1308.72 1393.14 1294.96 1369.93 1284.18 1350.51C1265.42 1316.79 1246.84 1282.97 1228.45 1249.04Z" fill="#916DD5"/><path d="M558.894 1212.74L558.891 1250.94C558.902 1256.21 560.847 1278.03 552.866 1278.05C549.526 1274.85 549.12 1268.79 549.291 1264.55C549.768 1252.65 547.534 1213.84 551.091 1204.71C557.241 1201.76 576.263 1203.16 584.08 1203.18L637.88 1203.16C655.253 1203.15 762.694 1201.24 772.423 1205.31C774.331 1212.82 773.737 1234.34 773.738 1243.25L773.699 1307.2C787.362 1307.15 854.873 1305.93 863.276 1308.74C864.356 1311.56 864.902 1315.79 864.892 1319.74C864.658 1413.52 866.166 1508.04 864.106 1601.62C864.084 1602.62 862.072 1603.77 861.112 1604.49C850.986 1605.8 821.89 1605.15 810.387 1605.15L710.352 1605.12C608.62 1605.1 503.774 1605.15 401.74 1605.09C393.935 1605.09 389.406 1605.12 389.531 1595.24C390.184 1543.53 383.416 1503.42 420.598 1461.54C442.641 1437.08 473.615 1422.54 506.516 1421.21C532.264 1419.91 559.559 1427.31 580.739 1442.11C580.645 1435.46 579.392 1407.6 582.08 1403.77C587.613 1401.4 619.092 1398.97 620.328 1403.9C622.379 1412.07 622.608 1434.98 619.636 1442.72C615.293 1445.75 590.538 1444.28 583.915 1444.16C640.948 1487.74 635.079 1531.62 635.218 1595.66L691.681 1595.74C691.265 1563.43 691.19 1531.11 691.454 1498.8C678.881 1498.95 652.962 1500.05 639.91 1498C639.134 1497.33 638.358 1496.67 637.581 1496.01L637.01 1493.88C641.469 1487.37 660.445 1489.25 668.043 1489.36C677.784 1489.52 689.699 1488.97 699.192 1489.94C701.702 1485 698.74 1451.03 700.69 1440.07C701.573 1434.2 699.34 1402.96 704.02 1402.25C709.892 1401.36 735.473 1400.25 740.521 1402.13L741.883 1402.6C748.708 1403.47 757.152 1403.24 764.16 1403.25L764.155 1212.67L558.894 1212.74Z" fill="#46325D"/><path d="M700.69 1440.07C701.573 1434.2 699.34 1402.96 704.02 1402.25C709.892 1401.36 735.473 1400.25 740.521 1402.13L741.883 1402.6C748.708 1403.47 757.152 1403.24 764.16 1403.25L764.203 1595.89C743.348 1595.83 721.661 1595.45 700.871 1595.82C700.969 1581.36 702.944 1497.42 699.192 1489.94C701.702 1485 698.74 1451.03 700.69 1440.07Z" fill="#AC8BEE"/><path d="M700.69 1440.07C701.573 1434.2 699.34 1402.96 704.02 1402.25C709.892 1401.36 735.473 1400.25 740.521 1402.13L741.883 1402.6C742.191 1407.98 745.838 1445.83 737.523 1443.94C726.328 1441.4 707.929 1448.76 700.69 1440.07Z" fill="#46325D"/><path d="M711.095 1410.98L733.001 1410.94C733.019 1418.76 733.151 1426.97 732.951 1434.74C725.651 1434.81 718.35 1434.79 711.051 1434.68L711.095 1410.98Z" fill="#F7F7F7"/><path d="M509.663 1430.42C541.432 1430.65 570.741 1441.21 593.198 1464.08C632.076 1503.66 625.935 1545.48 625.731 1595.93L518.031 1595.78L398.981 1595.7C398.968 1548.98 393.156 1506.05 426.754 1468.45C449.757 1442.7 475.933 1432.57 509.663 1430.42Z" fill="#EBE0FF"/><path d="M773.458 1316.16L855.486 1316.41L855.687 1459.44C855.756 1483.43 856.614 1514.74 855.204 1538.34C855.922 1555.9 855.535 1577.97 855.595 1595.76C828.292 1595.53 800.987 1595.54 773.684 1595.79L773.859 1517.12L773.458 1316.16Z" fill="#AC8BEE"/><path d="M773.859 1517.12C778.341 1517.03 788.913 1516.45 792.839 1517.45C798.795 1519.89 827.553 1520.05 833.488 1517.41C840.298 1517.22 848.025 1517.35 854.901 1517.34C854.879 1524.44 854.667 1531.27 855.204 1538.34C855.922 1555.9 855.535 1577.97 855.595 1595.76C828.292 1595.53 800.987 1595.54 773.684 1595.79L773.859 1517.12Z" fill="#EBE0FF"/><path d="M792.839 1517.45C794.366 1469.94 782.015 1476.76 827.498 1476.82C829.098 1476.82 831.302 1477.06 832.907 1477.17C833.704 1488.9 833.362 1505.26 833.488 1517.41C827.553 1520.05 798.795 1519.89 792.839 1517.45Z" fill="#46325D"/><path d="M802.404 1486.24L823.95 1486.24C823.93 1494.02 824.017 1502.02 823.856 1509.78L802.337 1509.84L802.404 1486.24Z" fill="#F7F7F7"/><path d="M795.191 1406.18C800.272 1406.05 833.312 1403.36 832.848 1409.43C832.103 1419.16 835.604 1440.35 830.959 1447.97C826.197 1448.04 793.083 1449.94 793.258 1445.49C793.646 1435.64 790.283 1413.72 795.191 1406.18Z" fill="#46325D"/><path d="M802.51 1415.04L824.036 1414.97C824.022 1421.73 824.191 1431.61 823.748 1438.26L802.26 1438.57C802.257 1430.96 802.096 1422.58 802.51 1415.04Z" fill="#F7F7F7"/><path d="M794.848 1337.17L798.452 1337.09C802.69 1337.01 830.067 1335.9 832.263 1338.79C834.341 1341.52 832.778 1367.65 833.425 1373.02C833.714 1375.42 832.372 1376.9 830.753 1378.44C821.529 1378.83 803.141 1379.52 794.996 1377.83C791.214 1377.05 792 1341.57 794.848 1337.17Z" fill="#46325D"/><path d="M802.456 1346.67C809.62 1346.69 816.784 1346.65 823.948 1346.57L823.882 1369.24L802.341 1369.4L802.456 1346.67Z" fill="#F7F7F7"/><path d="M590.202 1411L611.89 1411.03L611.85 1434.3L590.02 1434.42C590.024 1426.61 590.085 1418.81 590.202 1411Z" fill="#F7F7F7"/><path d="M577.843 1355.08C569.353 1390.75 535.299 1414.26 498.932 1409.55C462.565 1404.84 435.624 1373.43 436.504 1336.77C437.384 1300.11 465.8 1270.03 502.351 1267.07C538.903 1264.11 571.79 1289.22 578.558 1325.26C580.024 1333.06 580.182 1341.05 579.028 1348.91C578.723 1350.98 578.328 1353.04 577.843 1355.08Z" fill="#46325D"/><path d="M502.056 1276.45C536.238 1273.07 566.705 1298 570.143 1332.18C573.58 1366.36 548.691 1396.86 514.519 1400.35C480.273 1403.85 449.688 1378.89 446.242 1344.64C442.797 1310.39 467.8 1279.84 502.056 1276.45Z" fill="#EBE0FF"/><path d="M837.584 547.574C839.507 547.774 843.032 547.787 843.832 549.708C851.826 568.916 850 611.969 846.617 629.837C831.398 710.217 791.361 766.258 726.525 812.49C723.243 812.589 723.473 812.644 720.6 811.053C717.964 803.94 738.485 792.012 744.121 787.361C766.122 769.491 785.052 748.142 800.16 724.16C825.476 684.596 842.393 633.292 839.756 585.864C839.251 576.79 834.753 554.715 837.584 547.574Z" fill="#46325D"/><path d="M582.087 1324.15C585.647 1321.94 620.486 1321.01 621.023 1324.92C621.529 1328.61 624.701 1364.65 619.023 1364.83C608.214 1365.16 590.404 1367.37 580.318 1363.71C580.129 1363 579.936 1362.28 579.739 1361.57C578.974 1357.63 579.843 1358.32 577.843 1355.08C578.328 1353.04 578.723 1350.98 579.028 1348.91C580.182 1341.05 580.024 1333.06 578.558 1325.26C580.016 1324.88 580.687 1324.65 582.087 1324.15Z" fill="#46325D"/><path d="M582.087 1324.15C580.591 1329.63 581.22 1341.18 581.11 1347.41L579.028 1348.91C580.182 1341.05 580.024 1333.06 578.558 1325.26C580.016 1324.88 580.687 1324.65 582.087 1324.15Z" fill="#8586B1"/><path d="M579.028 1348.91L581.11 1347.41C580.963 1353.4 581.183 1357.75 580.318 1363.71C580.129 1363 579.936 1362.28 579.739 1361.57C578.974 1357.63 579.843 1358.32 577.843 1355.08C578.328 1353.04 578.723 1350.98 579.028 1348.91Z" fill="#DAC7FF"/><path d="M590.375 1331.97L612.159 1332.12C612.167 1339.89 612.253 1348.01 612.052 1355.76L590.203 1355.86C590.203 1347.89 590.26 1339.93 590.375 1331.97Z" fill="#F7F7F7"/><path d="M644.599 1401.43C655.254 1401.25 665.854 1401.3 676.538 1401.36C683.579 1400.63 682.711 1412.38 682.139 1417.08C681.23 1424.53 685.019 1439.46 678.964 1444.27C666.506 1444.28 653.084 1444.63 640.754 1444.11C640.437 1434.79 640.306 1413.42 641.241 1403.63C641.331 1402.69 643.731 1401.77 644.599 1401.43Z" fill="#46325D"/><path d="M650.025 1410.77L672.618 1410.64L672.622 1434.88C665.666 1435.23 657.159 1434.99 650.099 1434.99L650.025 1410.77Z" fill="#AC8BEE"/><path d="M642.293 1322.92C646.824 1322.54 681.766 1320.57 681.737 1325.53C681.692 1333.03 683.716 1358.79 680.741 1364.1L680.028 1365.46C676.286 1365.72 641.335 1367.57 641.297 1363.47C641.205 1353.65 639.182 1331.3 642.293 1322.92Z" fill="#46325D"/><path d="M650.296 1331.97L672.715 1331.99C672.791 1339.81 672.918 1347.9 672.677 1355.71L650.279 1355.77C650.227 1347.84 650.233 1339.91 650.296 1331.97Z" fill="#F7F7F7"/><path d="M702.318 1322.94C712.047 1322.12 731.261 1321.82 740.438 1323.61C743.449 1324.2 744.276 1359.87 739.721 1365.56C735.89 1365.59 701.9 1367.11 701.747 1363.13C701.38 1353.57 699.59 1331.38 702.318 1322.94Z" fill="#46325D"/><path d="M711.099 1332.09L732.801 1332.2L732.836 1355.9L711.102 1355.85L711.099 1332.09Z" fill="#F7F7F7"/><path d="M643.439 1241.03C648.186 1240.93 682.318 1238.53 681.897 1244.44C681.385 1251.63 684.218 1277.68 680.543 1282.39L679.652 1283.61C667.47 1283.55 653.044 1283.97 641.051 1282.94C640.93 1276.67 639.795 1246.45 642.501 1242.48L643.439 1241.03Z" fill="#46325D"/><path d="M651.177 1250.5L672.846 1250.44C672.888 1258.23 672.889 1266.02 672.849 1273.82L650.534 1273.85C650.535 1268.62 650.146 1255.06 651.177 1250.5Z" fill="#F7F7F7"/><path d="M583.066 1241.11C591.859 1240.87 612.026 1239.86 619.48 1241.97C623.602 1243.13 623.045 1278.26 619.509 1283.39C614.574 1283.52 580.834 1286.08 581.205 1280.06C581.809 1270.22 578.27 1248.63 583.066 1241.11Z" fill="#46325D"/><path d="M590.398 1250.58C597.671 1250.55 604.945 1250.58 612.217 1250.67L612.197 1273.8C604.908 1274.04 597.615 1274.15 590.322 1274.13C590.294 1266.28 590.319 1258.43 590.398 1250.58Z" fill="#F7F7F7"/><path d="M704.009 1241.16C708.602 1241.02 743.309 1238.06 742.698 1244.97C741.791 1255.21 745.296 1275.42 740.363 1283.75C735.783 1283.86 701.547 1285.28 702.03 1280.06C702.665 1273.19 700.083 1246.68 703.171 1242.39L704.009 1241.16Z" fill="#46325D"/><path d="M711.494 1250.64C718.7 1250.62 725.906 1250.67 733.111 1250.79C733.153 1258.52 733.139 1266.25 733.069 1273.98L711.314 1273.96C711.286 1266.19 711.346 1258.41 711.494 1250.64Z" fill="#F7F7F7"/><path d="M1282.8 892.338C1293.38 892.393 1306.24 890.608 1308.95 905.005C1310.05 910.855 1307.96 914.137 1304.76 918.791C1296.52 923.906 1293.07 922.427 1282.77 922.711C1282.74 912.837 1282.55 902.149 1282.8 892.338Z" fill="#040407"/><path d="M1287.96 896.94C1299.06 897.027 1308.75 901.138 1301.81 914.247L1301.12 915.633C1283.21 924.13 1287.79 911.001 1287.96 896.94Z" fill="#F5F5F9"/><path d="M1348.18 921.617C1334.35 926.223 1336.04 917.744 1335.6 907.171C1335.57 906.44 1327.51 903.705 1334.89 900.743C1336.04 900.279 1334.72 893.117 1340.05 896.177C1342.18 897.398 1337.86 901.235 1344.9 901.127C1347.76 901.102 1350.58 900.721 1353.45 900.784C1370.1 901.503 1366.86 904.347 1367.33 920.552C1367.45 924.749 1363.18 921.418 1362.02 921.335C1356.3 924.276 1354.71 923.312 1349.03 920.149C1348.36 920.88 1348.35 920.76 1348.18 921.617Z" fill="#F5F5F9"/><path d="M1353.45 900.784C1370.1 901.503 1366.86 904.347 1367.33 920.552C1367.45 924.749 1363.18 921.418 1362.02 921.335C1356.3 924.276 1354.71 923.312 1349.03 920.149C1349.4 903.921 1359.96 913.148 1362.23 907.477L1361.66 906.307C1355.67 904.062 1347.26 908.028 1353.45 900.784Z" fill="#040407"/><path d="M1355.05 912.697C1361.64 912.903 1363.83 912.165 1360.42 919.264C1354.41 918.716 1352.95 919.04 1355.05 912.697Z" fill="#F5F5F9"/><path d="M1348.18 921.617C1334.35 926.223 1336.04 917.744 1335.6 907.171C1335.57 906.44 1327.51 903.705 1334.89 900.743C1336.04 900.279 1334.72 893.117 1340.05 896.177C1342.18 897.398 1337.86 901.235 1344.9 901.127C1347.67 910.052 1336.2 900.501 1341.11 917.02C1341.88 919.585 1344.74 916.718 1348.18 921.617Z" fill="#040407"/><path d="M565.091 902.265C570.638 900.552 567.614 899.467 569.125 897.09C571.067 894.034 573.391 895.172 574.526 898.719L575.097 900.404C583.798 899.056 580.757 900.424 587.807 900.558C588.662 906.653 589.015 915.921 587.922 922.023C587.743 923.026 584.298 922.437 583.604 922.377C581.9 922.461 581.553 922.297 580.25 922.975C574.77 922.842 572.237 923.601 568.841 918.753L567.877 917.425C566.757 916.27 566.508 914.546 566.596 913.004C567.094 904.305 565.135 909.037 562.101 907.156C562.553 904.902 562.485 904.138 562.176 901.882C563.209 901.998 564.063 902.091 565.091 902.265Z" fill="#F5F5F9"/><path d="M565.091 902.265C570.638 900.552 567.614 899.467 569.125 897.09C571.067 894.034 573.391 895.172 574.526 898.719L575.097 900.404C575.238 900.851 575.359 901.575 575.984 901.618C576.478 901.648 576.973 901.678 577.467 901.708C578.665 901.594 579.384 903.14 579.002 904.176C578.511 906.013 574.843 905.369 574.297 906.681C573.254 909.187 573.78 913.847 574.145 916.497C574.504 919.106 578.018 918.223 579.187 919.609C579.708 920.227 580.026 922.168 580.25 922.975C574.77 922.842 572.237 923.601 568.841 918.753L567.877 917.425C566.757 916.27 566.508 914.546 566.596 913.004C567.094 904.305 565.135 909.037 562.101 907.156C562.553 904.902 562.485 904.138 562.176 901.882C563.209 901.998 564.063 902.091 565.091 902.265Z" fill="#040407"/><path d="M562.176 901.882C563.209 901.998 564.063 902.091 565.091 902.265C565.849 908.229 572.409 904.661 567.877 917.425C566.757 916.27 566.508 914.546 566.596 913.004C567.094 904.305 565.135 909.037 562.101 907.156C562.553 904.902 562.485 904.138 562.176 901.882Z" fill="#F5F5F9"/><path d="M583.604 922.377C583.73 916.404 581.505 903.263 586.394 901.191L587.807 900.558C588.662 906.653 589.015 915.921 587.922 922.023C587.743 923.026 584.298 922.437 583.604 922.377Z" fill="#040407"/><path d="M502.442 1714.2C504.227 1714.82 507.047 1715.33 506.793 1717.41C506.292 1721.51 507.728 1744.33 506.612 1746.7C505.813 1747.12 491.928 1747.84 490.287 1747.62C486.108 1743.01 483.949 1738.09 486.599 1731.79C487.526 1729.6 489.293 1727.88 491.504 1727.01C496.367 1725.08 496.387 1726.26 500.342 1727.63L501.651 1727.19L501.241 1727.51C501.969 1726.98 501.926 1717.3 502.442 1714.2Z" fill="#040407"/><path d="M492.67 1730.6C503.381 1730.77 504.402 1735.77 499.281 1744.51C497.604 1744.28 495.709 1744.32 494.136 1743.6C492.601 1742.91 491.421 1741.61 490.877 1740.02C489.691 1736.59 491.22 1733.63 492.67 1730.6Z" fill="#F5F5F9"/><path d="M593.436 1714.21C593.876 1714.36 597.688 1715.46 597.608 1716.37C596.991 1723.27 599.12 1741.31 597.503 1747.02C596.956 1747.2 582.175 1747.58 581.508 1747.49C575.409 1740.99 573.582 1733.66 581.425 1727.46C585.344 1724.36 590.883 1727.99 592.509 1727.54C592.874 1726.91 592.974 1717.16 593.436 1714.21Z" fill="#040407"/><path d="M586.403 1730.8C589.816 1730.31 592.988 1732.65 593.539 1736.05C594.09 1739.45 591.817 1742.67 588.426 1743.29C586.172 1743.7 583.872 1742.86 582.412 1741.1C580.952 1739.33 580.56 1736.91 581.388 1734.78C582.216 1732.64 584.134 1731.12 586.403 1730.8Z" fill="#F7F7F7"/><path d="M758.585 889.216C759.036 889.371 762.633 890.301 762.689 891.226C763.253 901.026 763.29 911.597 762.82 921.389C762.694 924.016 757.496 920.822 756.64 921.339C753.213 923.41 750.455 923.003 746.677 922.429C740.21 915.027 739.135 906.122 749.035 901.229C752.881 899.327 756.685 903.334 757.679 902.699C758.099 901.793 758.1 892.411 758.585 889.216Z" fill="#040407"/><path d="M750.798 904.453C760.346 906.866 760.404 913.027 754.137 919.607C744.522 917.147 745.518 911.293 750.798 904.453Z" fill="#F5F5F9"/><path d="M679.748 901.435C685.352 900.789 689.414 900.059 692.713 906.058C697.355 914.497 690.594 926.548 680.509 922.01C679.115 921.383 679.51 921.409 677.931 921.513C677.923 924.054 678.488 928.788 677.418 931.154C676.905 932.291 673.845 932.179 673.47 931.224C672.823 930.273 672.591 921.813 672.903 921.224C674.11 918.945 669.794 898.833 675.973 901.767C678.022 902.74 678.083 903.292 679.748 901.435Z" fill="#040407"/><path d="M681.724 904.469C690.959 907.36 691.496 912.538 685.198 919.375C677.13 917.455 674.421 911.939 680.535 905.71L681.724 904.469Z" fill="#F5F5F9"/><path d="M1393.7 892.508C1394.17 892.536 1398.73 892.462 1399.07 893.225C1403.19 902.406 1406.94 912.062 1410.75 921.388C1410.87 921.673 1410.29 922.231 1410.06 922.264C1405.4 924.552 1404.33 917.536 1402.82 914.62C1399.25 914.614 1394.5 914.309 1391.04 914.843C1389.12 915.14 1388.33 920.935 1386.41 921.831C1382.83 923.499 1381.6 921.873 1383.03 918.476C1386.65 909.83 1389.99 901.142 1393.7 892.508Z" fill="#040407"/><path d="M1396 899.509C1398.13 901.732 1401.98 908.455 1398.28 910.93L1397.04 911.794C1389.83 908.426 1392.69 907.842 1396 899.509Z" fill="#F7F7F7"/><path d="M518.688 1726.47C524.47 1724.81 530.52 1728.05 532.356 1733.77C534.193 1739.5 531.153 1745.65 525.488 1747.67C521.66 1749.03 517.393 1748.2 514.354 1745.5C511.315 1742.8 509.987 1738.66 510.89 1734.7C511.792 1730.74 514.781 1727.58 518.688 1726.47Z" fill="#040407"/><path d="M520.932 1730.85C524.275 1730.4 527.391 1732.63 528.057 1735.93C528.722 1739.24 526.709 1742.5 523.453 1743.38C521.148 1744 518.687 1743.29 517.069 1741.53C515.451 1739.78 514.945 1737.27 515.757 1735.02C516.57 1732.77 518.564 1731.17 520.932 1730.85Z" fill="#F5F5F9"/><path d="M779.795 1726.44C783.696 1725.51 787.795 1726.76 790.514 1729.71C793.233 1732.66 794.147 1736.84 792.906 1740.66C791.664 1744.47 788.46 1747.32 784.526 1748.1C778.6 1749.28 772.821 1745.49 771.531 1739.59C770.241 1733.69 773.916 1727.84 779.795 1726.44Z" fill="#040407"/><path d="M779.429 1731.77C781.416 1730.65 783.852 1730.69 785.801 1731.88C787.75 1733.06 788.909 1735.2 788.831 1737.48C788.753 1739.76 787.452 1741.82 785.427 1742.87C782.371 1744.45 778.611 1743.29 776.976 1740.27C775.34 1737.24 776.431 1733.46 779.429 1731.77Z" fill="#F5F5F9"/><path d="M599.851 901.525C603.639 900.311 607.788 901.237 610.7 903.947C613.612 906.657 614.834 910.729 613.894 914.594C612.955 918.46 610.001 921.517 606.17 922.588C600.398 924.202 594.397 920.898 592.675 915.158C590.952 909.417 594.144 903.355 599.851 901.525Z" fill="#040407"/><path d="M601.944 905.755C604.212 905.279 606.561 906.061 608.092 907.801C609.623 909.541 610.099 911.97 609.339 914.159C608.579 916.349 606.699 917.96 604.419 918.376C600.957 919.009 597.63 916.741 596.952 913.287C596.275 909.834 598.499 906.477 601.944 905.755Z" fill="#F7F7F7"/><path d="M1367.05 1717.87C1370.27 1717.84 1389.13 1716.23 1388.4 1719.96C1386.97 1727.17 1368.45 1715.36 1372.67 1729.1C1373.51 1731.83 1384.52 1729.19 1385.82 1730.6C1391.3 1736.54 1374.54 1734.63 1372.5 1734.63C1372.43 1742.94 1371.19 1743.37 1378.53 1743.14C1379.89 1743.24 1386.93 1742.67 1387.75 1743.35C1395.73 1750.04 1369.84 1747.78 1367.03 1747.79L1367.05 1717.87Z" fill="#040407"/><path d="M444.282 892.349C448.777 892.38 463.583 891.003 465.529 894.158C465.464 895.473 465.595 894.97 464.894 896.075C462.354 898.248 455.423 896.589 451.964 897.039C448.761 897.086 449.744 901.836 450.075 904.495C450.37 906.869 467.377 902.614 463.297 908.571C462.682 909.468 451.35 909.052 449.672 909.048C449.917 924.475 450.523 915.772 464.671 918.388C465.469 918.535 466.756 921.906 464.96 922.107C458.363 922.843 450.95 922.478 444.206 922.488C444.148 912.651 444.055 902.142 444.282 892.349Z" fill="#040407"/><path d="M823.331 501.466C835.64 502.974 831.995 511.467 837.601 522.276C840.107 527.108 840.833 531.504 838.638 536.53L837.598 536.424C835.643 536.244 831.758 535.738 831.407 533.407C829.732 522.256 819.471 512.025 823.331 501.466Z" fill="#46325D"/><path d="M726.827 901.051C734.771 901.284 738.331 901.59 739.602 910.198C740.043 913.448 739.344 913.657 736.514 913.992C733.297 914.373 726.472 912.427 724.775 915.374C726.028 920.151 733.113 918.626 736.492 917.933C739.283 916.939 738.224 921.01 736.969 921.609C722.237 928.634 710.59 909.242 726.827 901.051Z" fill="#040407"/><path d="M724.793 906.156L725.996 906.011C730.602 905.428 733.501 904.574 734.84 909.689C729.029 910.051 725.012 912.119 724.793 906.156Z" fill="#F5F5F9"/><path d="M445.698 1726.05L446.642 1726.07C451.656 1726.17 455.438 1726.06 457.974 1730.99C465.261 1745.15 445.754 1735.54 443.869 1740.58C446.568 1744.88 450.327 1743.99 454.757 1743.61C462.342 1742.07 454.712 1750.78 446.486 1747.94C435.637 1744.19 436.616 1732 445.698 1726.05Z" fill="#040407"/><path d="M446.474 1729.38C449.759 1730.17 455.645 1731.06 452.844 1735.68C445.243 1735.28 441.953 1736.96 446.474 1729.38Z" fill="#F7F7F7"/><path d="M703.844 900.952C710.477 901.292 715.247 902.148 716.443 910.087C716.557 910.845 716.451 912.839 715.756 913.244C713.86 914.905 705.357 913.368 704.404 913.852C697.255 917.482 707.554 919.022 713.706 917.411C721.606 921.58 701.642 927.365 697.655 917.65C694.271 909.403 696.176 905.342 703.844 900.952Z" fill="#040407"/><path d="M705.775 904.265C708.782 905.635 714.026 907.377 709.89 910.709C702.83 909.966 698.411 910.934 705.775 904.265Z" fill="#F7F7F7"/><path d="M1442.99 1726C1449.42 1726.22 1457.01 1727.73 1455.58 1737.84C1455.13 1741.04 1437.01 1735.92 1441.93 1742.07C1444.02 1744.68 1449.7 1743.86 1452.35 1743.77C1460.95 1740.18 1446.55 1756.21 1437.22 1743.85C1433.16 1738.48 1435.42 1730.84 1441.28 1727.12L1442.99 1726Z" fill="#040407"/><path d="M1443.48 1729.37C1446.49 1730.16 1452.36 1731.15 1449.74 1735.52C1442.06 1735.29 1438.63 1736.88 1443.48 1729.37Z" fill="#F5F5F9"/><path d="M410.705 1717.26C411.061 1717.31 415.832 1717.83 416.048 1718.15C420.222 1724.23 422.605 1733.46 425.735 1740.47C428.184 1733.89 431.451 1724.46 435.016 1718.63C435.555 1717.74 441.596 1715.8 438.308 1722.23L437.649 1723.84C431.445 1738.78 426.577 1763.84 418.057 1735.18C416.457 1729.8 412.873 1722.68 410.705 1717.26Z" fill="#040407"/><path d="M611.234 1725.99C617.665 1727.11 622.121 1728.87 621.683 1737.16C621.478 1741.05 609.728 1737.69 607.641 1739.55C607.325 1739.84 607.159 1740.25 607.192 1740.68C607.579 1745.77 618.217 1743.25 620.543 1742.76C621.019 1749.29 611.643 1749.17 608.466 1747.5C596.922 1741.45 599.187 1730.89 611.234 1725.99Z" fill="#040407"/><path d="M610.63 1729.52C613.194 1730.48 620.569 1733.06 614.811 1736.07C608.606 1735.54 603.149 1736.29 610.63 1729.52Z" fill="#F7F7F7"/><path d="M1526.61 900.223C1528.53 899.488 1539.18 899.171 1540.65 900.661C1533.55 903.344 1538.07 904.203 1539.57 910.829C1536.8 910.279 1536.84 908.919 1535.54 906.559L1535.42 906.599C1532.95 915.983 1521.27 895.278 1524.61 918.832C1525.82 918.775 1532.7 917.603 1532.03 917.245C1538.35 921.179 1526.63 924.493 1523.13 922.606C1511.24 916.194 1514.26 905.937 1524.82 901.061L1526.61 900.223Z" fill="#040407"/><path d="M1526.61 900.223C1528.53 899.488 1539.18 899.171 1540.65 900.661C1533.55 903.344 1538.07 904.203 1539.57 910.829C1536.8 910.279 1536.84 908.919 1535.54 906.559L1535.42 906.599C1532.95 915.983 1521.27 895.278 1524.61 918.832C1518.48 913.107 1519.46 903.743 1529.56 905.707C1531.64 906.112 1534.15 908.356 1533.47 903.645C1533.24 902.045 1527.62 900.587 1526.61 900.223Z" fill="#F5F5F9"/><path d="M1317.01 900.997C1322.97 901.306 1330.05 900.958 1329.85 908.991C1329.78 911.929 1331.03 921.31 1328.48 922.367C1327.85 922.637 1327.12 922.599 1326.52 922.262C1322.49 920.055 1324.47 923.302 1314.9 922.927C1312.15 919.222 1310.02 916.251 1313.09 911.568C1315.93 907.252 1327.27 911.334 1323.48 906.515C1321.96 904.591 1316.52 906.059 1314.97 905.822C1311.01 905.22 1316.14 901.657 1317.01 900.997Z" fill="#040407"/><path d="M1317.83 913.37C1318.75 912.364 1320.15 911.957 1321.47 912.315C1322.79 912.673 1323.79 913.735 1324.08 915.069C1324.37 916.403 1323.89 917.786 1322.83 918.653C1321.35 919.87 1319.18 919.736 1317.87 918.345C1316.55 916.955 1316.53 914.781 1317.83 913.37Z" fill="#F7F7F7"/><path d="M727.988 1725.95C744.749 1726.56 740.808 1730.89 740.934 1746.5C740.949 1748.29 738.104 1747.69 737.31 1747.47C733.573 1746.42 731.887 1748.24 726.022 1747.73C717.146 1735.64 729.552 1735.17 735.63 1733.77C737.569 1733.32 734.037 1729.41 730.004 1730.93C724.784 1732.9 722.49 1730.58 727.988 1725.95Z" fill="#040407"/><path d="M728.989 1737.78C735.735 1738.15 737.492 1737.44 734.599 1744.55C729.154 1743.73 727.155 1743.74 728.989 1737.78Z" fill="#F7F7F7"/><path d="M1496.16 901.968C1507.83 900.384 1515.28 899.278 1511.77 921.927C1511.37 924.476 1505.47 919.119 1504.54 922.408C1494.9 927.01 1489.44 911.297 1500.93 909.507C1502.7 909.23 1510.59 909.679 1505.57 905.761C1503.77 904.503 1499.22 906.074 1495.78 905.195C1495.92 904.121 1496.05 903.046 1496.16 901.968Z" fill="#040407"/><path d="M1500.72 913.362C1501.66 912.424 1503.05 912.083 1504.32 912.478C1505.58 912.873 1506.53 913.938 1506.77 915.244C1507.01 916.551 1506.51 917.883 1505.47 918.705C1503.98 919.878 1501.83 919.687 1500.58 918.27C1499.32 916.853 1499.38 914.701 1500.72 913.362Z" fill="#F7F7F7"/><path d="M527.682 901.076C531.884 901.175 536.707 900.648 540.017 904.003C542.275 906.292 542.305 920.2 541.326 921.707C541.788 921.526 526.485 922.791 526.787 922.796C515.518 907.527 535.833 910.135 536.359 909.145C540.793 900.794 520.444 911.282 527.682 901.076Z" fill="#040407"/><path d="M529.879 913.337C530.841 912.375 532.276 912.06 533.552 912.533C534.829 913.006 535.713 914.179 535.816 915.537C535.919 916.894 535.221 918.187 534.031 918.846C532.512 919.688 530.606 919.282 529.561 917.896C528.516 916.51 528.652 914.565 529.879 913.337Z" fill="#F7F7F7"/><path d="M655.744 892.104C658.368 892.102 668.529 891.493 667.184 896.638C665.304 898.375 662.688 896.627 659.974 896.885C653.033 896.949 654.866 903.822 659.509 904.958C668.354 907.122 673.273 917.933 662.875 922.465L661.364 923.147C659.218 922.984 652.12 922.589 651.272 920.765C646.026 910.737 663.387 923.678 663.029 915.427C662.721 908.311 638.867 905.322 655.744 892.104Z" fill="#040407"/><path d="M1539.57 910.829C1538.07 904.203 1533.55 903.344 1540.65 900.661C1543.34 905.818 1545.32 911.079 1547.57 916.424L1547.95 915.502C1549.51 911.739 1551.72 904.576 1554.54 902.049C1555 901.643 1558.33 901.641 1557.91 903.023C1556.52 907.574 1554.23 912.321 1552.33 916.713C1550.01 921.751 1548.7 927.674 1544.36 931.359C1540.03 935.03 1531.29 930.279 1539.94 927.979C1548.86 925.605 1541.71 914.492 1539.57 910.829Z" fill="#040407"/><path d="M636.974 1726.26C648.816 1727.83 644.54 1746.09 644.618 1746.02C635.326 1754.08 644.348 1732.57 636.114 1730.65L633.687 1730.1C627.972 1738.24 632.105 1738.51 629.972 1747.4C626.92 1748.9 625.129 1747.24 625.321 1743.94C626.807 1718.4 620.697 1731.04 636.974 1726.26Z" fill="#040407"/><path d="M1456.17 901.111C1465.8 902.986 1459.1 907.106 1461.22 915.499C1461.55 916.771 1462.38 917.852 1463.53 918.483C1471.61 922.857 1469.75 903.122 1470.37 902.649C1473.18 900.508 1474.74 901.548 1474.98 904.75C1474.95 910.105 1475.27 916.126 1474.72 921.361C1473.21 924.499 1470.16 920.496 1468.77 921.391C1462.31 925.541 1455.65 921.946 1456.05 914.005C1456.24 910.387 1456.12 905.062 1456.17 901.111Z" fill="#040407"/><path d="M625.169 901.423C630.13 900.9 635.439 900.093 636.296 906.974C636.388 907.709 638.192 925.858 633.488 922.427C627.471 918.037 636.317 912.791 627.863 903.934C627.315 904.341 626.761 904.74 626.2 905.131C619.056 910.07 625.41 918.447 622.39 921.798C618.941 925.627 616.028 917.502 617.813 914.013C618.616 912.442 615.372 899.995 620.828 901.715C623.451 902.541 623.269 903.342 625.169 901.423Z" fill="#040407"/><path d="M473.504 1726.56C483.243 1723.91 482.597 1741.75 481.311 1746.87C481.08 1747.78 478.388 1748.23 477.647 1747.06C475.828 1744.2 477.317 1739.72 476.816 1736.49C476.502 1732.3 475.713 1731.77 472.74 1729.07C462.398 1738.39 471.799 1744.09 466.135 1748.16C463.043 1747.95 462.356 1743.86 462.975 1742C464.325 1737.96 459.357 1723.92 467.439 1727.34C469.337 1728.15 471.745 1727.07 473.504 1726.56Z" fill="#040407"/><path d="M808.3 1726.14C819.777 1729.22 815.071 1734.69 815.958 1745.55C814.314 1749.38 810.947 1749.12 811.048 1743.47C811.208 1734.54 813.329 1731.66 804.965 1729.65C799.146 1738.85 805.461 1746.2 799.291 1747.88C796.147 1748.73 794.823 1722.84 800.969 1727.16C803.089 1728.65 805.318 1726.92 808.3 1726.14Z" fill="#040407"/><path d="M469.744 901.557C479.695 901.923 475.404 905.779 479.41 907.036C481.146 906.144 481.667 903.075 483.94 901.741C485.269 900.96 488.217 901.308 488.084 902.554C487.84 904.827 483.938 909.499 482.567 911.419C485.511 915.705 490.136 919.28 487.172 923.466L486.144 922.885C481.947 920.562 482.112 917.659 479.582 916.067C477.268 916.179 475.768 921.017 474.568 921.554C463.732 926.409 475.137 912.758 476.14 911.241C473.76 907.877 471.944 904.98 469.744 901.557Z" fill="#040407"/><path d="M1392.33 1726.64C1405.89 1727.47 1398.43 1738.83 1406.51 1727.57C1407.31 1726.45 1410.17 1726.52 1410.99 1727.67C1411.03 1729.28 1406.3 1735.4 1405.22 1736.98C1408.06 1740.94 1413.47 1745.12 1410.03 1748.71C1403.67 1745.84 1406.2 1744.28 1402.56 1741.53C1399.91 1741.46 1398.57 1747.33 1395.63 1747.82C1387.69 1749.13 1398.05 1738.74 1399.43 1736.88C1397.06 1733.36 1394.65 1730.32 1392.33 1726.64Z" fill="#040407"/><path d="M684.417 1714.63C688.459 1715.56 691.918 1717.09 685.619 1719.39C682.922 1719.32 682.176 1725.53 683.384 1725.87C689.911 1727.71 691.558 1730.02 683.59 1731.3C682.697 1731.44 683.037 1742.57 683.033 1745.99C682.194 1747.15 680.552 1748.79 679.373 1747.46C676.56 1744.28 679.055 1736.04 678.072 1732.03C677.936 1730.56 675.632 1730.88 675.18 1730.02C673.518 1726.88 677.124 1726.71 677.262 1726.35C679.805 1719.67 676.277 1720.07 682.815 1715.74L684.417 1714.63Z" fill="#040407"/><path d="M709.89 1725.92C712.451 1726.1 719.617 1726.34 720.081 1730.28C720.542 1734.2 710.589 1727.51 708.327 1732.73C703.946 1742.83 710.054 1744.78 718.39 1743.23C719.035 1742.8 718.805 1742.9 719.148 1742.79C724.422 1745.95 714.618 1748.76 710.001 1747.95C707.299 1747.49 704.909 1745.92 703.398 1743.64C698.514 1736.19 703.408 1729.83 709.89 1725.92Z" fill="#040407"/><path d="M1420.81 900.922L1423.54 900.971C1433.11 901.149 1431.95 907.105 1427.98 906.381C1425.67 905.962 1421.05 904.35 1419.5 907.5C1414.91 916.829 1421.39 919.548 1430.07 917.819C1435.01 918.821 1427.63 925.003 1421.5 922.798C1409.78 918.585 1410.57 907.189 1420.81 900.922Z" fill="#040407"/><path d="M652.171 1720.55C652.256 1720.57 654.323 1721.09 654.482 1721.27C657.719 1724.9 653.308 1727.08 660.402 1727.33C662.473 1728.73 660.997 1730.92 658.97 1730.9C657.99 1730.89 656.243 1731.36 656.101 1732.5C655.822 1735.09 655.375 1740.32 656.45 1742.65C656.766 1743.33 660.665 1743.55 663.316 1746.55C660.417 1747.68 657.384 1748.81 653.893 1747.26C648.046 1745.15 653.106 1731.93 649.453 1731.17C645.682 1730.4 646.704 1727.18 649.745 1726.64C650.632 1726.48 651.797 1721.69 652.171 1720.55Z" fill="#040407"/><path d="M748.63 1720.22C749.901 1720.72 752.669 1721.42 752.368 1723.46C751.569 1728.9 757.526 1726.31 758.243 1727.49C761.039 1732.07 753.748 1730.57 753.323 1731.36C752.247 1733.37 752.514 1739.68 753.177 1742.06C754.002 1743.68 757.625 1744.35 759.713 1745.55C756.509 1748.9 753.323 1749.03 749.154 1745.81C747.145 1744.25 747.61 1738.61 747.64 1736.5C747.716 1731.14 748.083 1732.49 744.265 1730.03C742.022 1728.37 746.926 1726.19 746.446 1726.72C747.658 1725.38 748.102 1721.94 748.63 1720.22Z" fill="#040407"/><path d="M1441.79 900.864C1456.29 901.658 1451.84 907.146 1448.96 906.347C1435.05 902.5 1435.58 921.796 1450.29 917.889C1454.22 917.291 1451.51 925.018 1443.5 922.949C1431.29 919.793 1431.13 907.073 1441.79 900.864Z" fill="#040407"/><path d="M562.101 907.156C550.974 903.451 546.549 909.845 553.107 917.927C555.845 921.301 564.983 913.189 562.23 921.174C561.298 923.877 550.623 923.63 548.469 920.115C540.122 906.492 547.468 900.373 562.176 901.882C562.485 904.138 562.553 904.902 562.101 907.156Z" fill="#040407"/><path d="M1422.58 1726.05L1424.05 1726.13C1435.49 1726.65 1432.63 1732.47 1429.96 1731.54C1417.3 1727.14 1413.02 1745.25 1430.76 1743.44C1433.09 1744.47 1431.71 1746.84 1430.6 1747.2C1414.87 1752.26 1407.54 1734.89 1422.58 1726.05Z" fill="#040407"/><path d="M496.009 895.365C500.816 896.371 498.263 896.995 499.557 900.831C499.915 901.894 502.935 901.327 504.007 901.96C505.7 902.961 505.354 905.968 502.998 905.672C501.811 905.518 499.036 905.494 499.173 907.451C499.383 910.438 498.182 915.2 500.185 917.786C500.966 918.613 504.165 918.422 506.467 919.661C504.392 923.115 502.139 923.806 497.989 922.274C491.931 919.441 495.823 911.414 494.294 906.454C492.651 905.717 488.604 903.563 492.517 901.864C495.717 900.474 494.868 899.348 496.009 895.365Z" fill="#040407"/><path d="M1459.62 1714.5C1460.16 1714.65 1464.38 1715.47 1464.38 1716.36C1464.41 1726.57 1465.15 1738.63 1464.22 1748.73C1463.96 1748.66 1460.22 1747.75 1460.16 1747.3C1458.87 1737.64 1459.41 1724.29 1459.62 1714.5Z" fill="#040407"/><path d="M1493.1 900.597C1494.12 901.054 1495.14 901.511 1496.16 901.968C1496.05 903.046 1495.92 904.121 1495.78 905.195C1494.28 904.947 1493.9 904.702 1492.68 905.067C1479.25 906.92 1487.86 915.87 1484.63 920.922C1477.74 931.687 1479.55 903.126 1480.44 901.994C1482.19 899.763 1485.09 902.815 1485.61 902.821C1487.03 901.871 1488.15 901.251 1489.84 901.02L1493.1 900.597Z" fill="#040407"/><path d="M1493.1 900.597C1494.12 901.054 1495.14 901.511 1496.16 901.968C1496.05 903.046 1495.92 904.121 1495.78 905.195C1494.28 904.947 1493.9 904.702 1492.68 905.067C1492.89 903.51 1492.99 902.156 1493.1 900.597Z" fill="#F5F5F9"/><path d="M566.383 1717.25C566.878 1717.36 570.746 1718.02 570.787 1718.7C571.281 1726.84 571.936 1741.11 570.572 1748.8C570.256 1748.68 566.589 1747.51 566.545 1746.89C565.902 1737.82 565.821 1726.36 566.383 1717.25Z" fill="#040407"/><path d="M545.649 1726.91C550.538 1724.13 550.652 1731.13 543.801 1731.77C540.723 1732.06 541.679 1744.14 540.814 1749.07C540.291 1748.85 536.387 1747.5 536.44 1746.58C536.646 1742.93 535.487 1730.16 536.517 1727.25C539.662 1724.97 539.487 1729.27 545.649 1726.91Z" fill="#040407"/><path d="M509.579 900.635C511.494 901.133 514.77 903.038 515.927 902.191C516.823 900.377 524.142 901.499 522.129 904.076C519.327 907.664 515.226 902.97 514.128 910.812C514.128 912.436 514.644 921.117 513.402 922.102C506.485 927.579 509.096 904.268 509.579 900.635Z" fill="#040407"/><path d="M762.705 1725.99C766.262 1726.98 767.605 1726.42 767.621 1730.44L767.537 1747.83C766.826 1747.83 763.483 1747.98 763.284 1747.36C762.111 1743.7 762.662 1729.46 762.705 1725.99Z" fill="#040407"/><path d="M666.389 1726.24C666.94 1726.4 670.417 1727.23 670.521 1727.85C671.442 1733.35 671.269 1743.52 670.417 1748.77C670.088 1748.65 666.545 1747.54 666.481 1747.14C665.668 1742.12 665.869 1731.14 666.389 1726.24Z" fill="#040407"/><path d="M692.973 1726.19C693.359 1726.3 697.015 1727.09 697.118 1727.67C698.178 1733.65 697.576 1741.7 697.568 1747.9C696.715 1747.82 693.723 1747.71 693.473 1747.11C692.234 1744.15 692.907 1729.09 692.973 1726.19Z" fill="#040407"/><path d="M583.863 892.507C584.736 891.666 586.018 891.406 587.15 891.84C588.282 892.274 589.061 893.324 589.149 894.533C589.236 895.743 588.617 896.894 587.559 897.487C586.187 898.255 584.457 897.885 583.52 896.622C582.583 895.36 582.73 893.597 583.863 892.507Z" fill="#040407"/><path d="M694.105 1717.46C695.502 1716.72 697.227 1717.2 698.049 1718.55C698.872 1719.89 698.509 1721.65 697.221 1722.55C696.308 1723.2 695.113 1723.28 694.121 1722.77C693.129 1722.26 692.504 1721.23 692.501 1720.12C692.497 1719 693.116 1717.97 694.105 1717.46Z" fill="#040407"/><path d="M763.995 1717.51C764.975 1717.02 766.144 1717.11 767.042 1717.74C767.94 1718.36 768.423 1719.43 768.3 1720.52C768.178 1721.61 767.47 1722.54 766.455 1722.96C764.967 1723.56 763.268 1722.88 762.607 1721.42C761.946 1719.95 762.559 1718.23 763.995 1717.51Z" fill="#040407"/><path d="M667.103 1717.46C668.499 1716.75 670.206 1717.25 670.998 1718.6C671.79 1719.95 671.392 1721.69 670.091 1722.56C669.177 1723.17 668 1723.23 667.033 1722.7C666.066 1722.18 665.47 1721.16 665.485 1720.06C665.5 1718.96 666.123 1717.96 667.103 1717.46Z" fill="#040407"/></svg>