<?xml version="1.0" encoding="utf-8" ?><svg xmlns="http://www.w3.org/2000/svg" xmlns:xlink="http://www.w3.org/1999/xlink" width="2048" height="2048" viewBox="0 0 2048 2048"><path fill="#9EA1EB" fill-opacity="0.98823529" d="M835.422 1071.74C833.68 1069.54 831.684 1067.55 829.475 1065.81C821.071 1059.13 811.277 1043.87 803.85 1035.42C783.214 1011.95 761.319 992.34 735.597 974.622C725.097 967.389 702.946 955.813 696.339 944.76C678.315 914.61 692.481 877.412 722.287 861.259C732.764 855.579 745.057 854.257 756.502 857.58C787.336 866.221 838.24 918.275 860.337 942.307C867.441 950.033 873.703 964.037 882.969 966.668C889.495 961.484 893.677 950.316 898.632 943.499C907.974 930.648 922.492 915.374 933.201 903.239C955.503 877.966 980.964 856.473 1005.82 833.864C1027.49 814.156 1105.51 758.017 1132.34 754.364C1144.8 752.667 1152.76 758.182 1164.27 759.896C1171.6 760.987 1184.14 776.672 1187.07 782.922C1189.43 787.987 1190.1 795.528 1193.61 799.644C1193.96 800.053 1194.42 800.37 1194.72 800.821C1196.4 803.393 1195.97 808.079 1195.69 810.951C1194.08 827 1186.26 841.782 1173.89 852.141C1169.18 856.059 1169.22 855.776 1163.76 855.255C1159.5 854.69 1121.25 873.055 1115.89 876.388C1108.16 879.293 1100.02 883.848 1092.62 887.611C1029.8 919.575 976.197 963.566 923.405 1009.63C907.221 1023.73 890.797 1037.55 874.142 1051.09C868.893 1055.33 857.309 1064.98 851.854 1068.38C848.604 1068.44 843.145 1071 842.535 1070.83C838.605 1069.71 849.185 1064.43 846.212 1064.62C837.565 1065.15 842.584 1069.17 835.422 1071.74Z"/><path fill="#934ADD" fill-opacity="0.98823529" d="M851.854 1068.38C857.309 1064.98 868.893 1055.33 874.142 1051.09C890.797 1037.55 907.221 1023.73 923.405 1009.63C976.197 963.566 1029.8 919.575 1092.62 887.611C1100.02 883.848 1108.16 879.293 1115.89 876.388C1120.23 878.499 1123.18 877.74 1128.11 877.25L1127.03 879.021C1122.66 879.769 1105.86 891.338 1101.3 894.475C1030.52 943.106 970.33 1007.75 927.316 1082.11C919.853 1095.03 896.028 1142.29 895.253 1154.08C892.437 1154.97 893.889 1154.71 890.537 1153.81C887.783 1151.24 888.91 1151.58 887.545 1148.85C874.86 1123.44 857.407 1099.38 838.266 1078.43C836.727 1076.74 836.314 1075.39 836.37 1073.29C836.621 1073.51 839.852 1076.66 840 1076.64C843.436 1076.21 849.533 1070.59 851.854 1068.38Z"/><path fill="#934ADD" d="M1115.89 876.388C1121.25 873.055 1159.5 854.69 1163.76 855.255C1162.65 856.28 1155.61 863.661 1153.84 863.49C1150.84 863.202 1148.17 863.52 1145.37 865.928C1140.94 873.355 1139.99 869.842 1133.12 873.151C1131.01 874.166 1129.17 875.899 1128.11 877.25C1123.18 877.74 1120.23 878.499 1115.89 876.388Z"/><path fill="#9EA1EB" fill-opacity="0.97254902" d="M835.422 1071.74C842.584 1069.17 837.565 1065.15 846.212 1064.62C849.185 1064.43 838.605 1069.71 842.535 1070.83C843.145 1071 848.604 1068.44 851.854 1068.38C849.533 1070.59 843.436 1076.21 840 1076.64C839.852 1076.66 836.621 1073.51 836.37 1073.29C835.736 1072.14 836.062 1072.65 835.422 1071.74Z"/><defs><linearGradient id="gradient_0" gradientUnits="userSpaceOnUse" x1="1046.5137" y1="1934.9221" x2="520.82434" y2="1230.9989"><stop offset="0" stop-color="#4004E3"/><stop offset="1" stop-color="#BE07ED"/></linearGradient></defs><path fill="url(#gradient_0)" d="M490.194 1512.82C503.961 1516.06 500.279 1499.55 500.495 1491.74C501.678 1449.06 498.196 1404.16 500.681 1361.73C501.293 1376.22 501.423 1417.4 504.583 1428.83C509.025 1432.1 525.071 1435.1 530.893 1434.97C532.255 1434.93 532.805 1433.81 533.951 1432.59C536.508 1424.89 532.46 1420.51 535.967 1410.66L535.983 1411.45C537.271 1400.54 537.261 1388.82 537.506 1377.78C537.881 1405.58 538.084 1433.39 538.113 1461.19C538.131 1467.5 537.794 1496.12 538.864 1500.34C537.417 1503.87 537.039 1504.05 537.4 1507.93C539.201 1511.56 539.308 1511.35 542.824 1513.66C553.565 1513.88 563.935 1512.66 574.619 1512.58C595.869 1512.44 617.177 1512.25 638.425 1512.19C654.773 1512.15 671.1 1510.87 687.268 1513.62C695.752 1515.15 700.482 1513.51 701.434 1504.01C702.696 1507.18 702.362 1508.82 702.49 1512.36L703.745 1511.08C711.944 1512.02 728.179 1511.53 736.989 1511.51C736.792 1507.25 737.312 1498.88 739.705 1495.3C739.672 1500.68 739.655 1505.93 739.412 1511.32C743.678 1513.13 746.346 1514.16 750.949 1513.76C788.431 1510.49 830.094 1511.59 867.895 1512.02C875.904 1512.11 892.998 1514.64 899.726 1513.56C901.415 1513.28 904.127 1511.59 905.301 1510.35C908.245 1507.22 901.684 1444.77 904.883 1438.12C905.713 1436.39 905.497 1436.72 907.091 1436.51C913.505 1435.68 919.689 1436.38 926.07 1435.9C931.689 1435.49 939.524 1433.29 944.967 1433.93C945.699 1434.02 946.322 1434.52 947 1434.81C950.848 1445.88 943.988 1505.47 949.453 1511.58C958.13 1513.96 962.136 1512.95 970.867 1512.73C1004.38 1511.89 1038.17 1512.59 1071.67 1512.22C1081.33 1512.11 1098.75 1514.91 1105.87 1514.33C1112.39 1507.87 1109.12 1491.07 1108.9 1481.87L1108.18 1432.6C1108.07 1423.88 1106.05 1403.25 1112.76 1396.88C1117.87 1392.04 1128.98 1389.49 1135.49 1386.85C1140.12 1384.89 1140.95 1381.68 1147.36 1380.33C1149.42 1381.12 1149.45 1381.23 1150.31 1383.19C1152.93 1389.16 1151.9 1473.9 1151.52 1486.48C1151.31 1493.37 1149.63 1501.23 1150.24 1508C1150.44 1510.17 1150.19 1510.27 1152.29 1511.25C1167.14 1518.19 1270.78 1508.24 1280.71 1513.47C1289.1 1517.89 1308.59 1540.86 1316.67 1549.01C1326.16 1558.58 1345.85 1577.18 1351.71 1587.27C1351.41 1603.69 1352.79 1714.17 1350.5 1719.98C1353.73 1724.61 1352.87 1725.13 1357.01 1726.24C1372.06 1722.31 1403.17 1726.64 1420.68 1725.36C1438.18 1724.07 1459.85 1726.21 1477.8 1725.5C1493.52 1724.87 1503.23 1743.63 1513.12 1753.36C1516.15 1756.34 1521.79 1758.49 1523.63 1762.41L1522.11 1767.32C1516.43 1768.57 1474.05 1767.46 1466.22 1767.43L1302.53 1766.88L899.694 1766.92L791.56 1766.99C780.381 1766.98 755.324 1767.77 745.267 1766.87C646.705 1769.05 546.162 1762.72 448.737 1766.84C380.203 1769.74 321.389 1742.72 295.721 1678.54C282.745 1634.91 288.654 1586.97 288.223 1541.34C287.946 1512.01 286.276 1475.61 288.022 1446.82C290.093 1446.45 290.34 1444.69 291.178 1442.82C300.579 1421.94 317.101 1383.52 331.558 1366.48C332.266 1385.07 329.915 1504.48 332.548 1511.06C334.653 1512.37 336.149 1513.12 337.973 1514.79C342.091 1518.77 377.817 1517.6 385.517 1517.9L384.986 1518.09C393.496 1520.02 450.776 1518.73 461.092 1517.77C457.299 1517.48 456.252 1518.11 453.955 1516.13C459.767 1514.79 483.699 1513.01 490.194 1512.82ZM1311.78 1713.64C1310.04 1707.87 1310.65 1694.12 1310.63 1687.25L1310.75 1607.32C1310.67 1596.93 1311.79 1562.75 1304.55 1556.82C1300.61 1556.03 1155.07 1554.74 1154.54 1554.88C1149.04 1563.03 1151.48 1579.32 1151.56 1589.5L1151.69 1669.12C1151.72 1679.04 1153.31 1705.71 1149.55 1713.74C1148.42 1716.13 1148.43 1718.91 1149.58 1721.29C1150.52 1723.21 1153.74 1724.13 1155.73 1724.47C1172.72 1723.07 1197.82 1725.08 1215.79 1724.97C1238.76 1725.17 1261.79 1725.04 1284.75 1724.38C1291.3 1724.19 1305.77 1726.54 1310.09 1723.85C1312.24 1720.58 1311.75 1717.66 1311.78 1713.64ZM739.712 1723.35C755.545 1726.2 798.695 1724.33 818.048 1724.49L881.784 1724.68C888.527 1724.73 899.836 1727.12 905.154 1724.09C909.9 1718.23 905.758 1714.44 906.125 1708.3C909.098 1658.64 902.202 1609.01 906.384 1559.39C906.492 1558.11 902.174 1555.31 901.005 1554.4C893.647 1553.63 876.216 1556 865.862 1555.79L773.427 1554.3C764.332 1554.17 753.67 1552.94 745.431 1553.11C743.653 1555.24 742.771 1556.34 740.728 1558.27C739.062 1568.01 739.949 1597.41 739.847 1608.97C739.508 1646.93 740.43 1685.39 739.712 1723.35ZM947.485 1558.37C948.53 1610.98 948.344 1671.29 947.538 1724.02C963.785 1724.87 977.83 1724.37 993.991 1724.47L1082.7 1724.49C1087.15 1724.49 1105.83 1726.05 1107.72 1725.55C1110.9 1721.39 1110.47 1722.79 1109.89 1716.64C1108.49 1701.65 1108.87 1685.4 1108.78 1670.25C1108.52 1638.4 1108.51 1606.56 1108.77 1574.71C1108.77 1569.3 1110.82 1558.63 1110.15 1556.13C1103.75 1551.51 1089.93 1555.41 1081 1555.53C1049.65 1555.94 1018.4 1555.6 987.064 1555.26C977.275 1555.15 960.827 1552.98 953.476 1553.19C951.655 1554.78 949.345 1556.94 947.485 1558.37ZM697.707 1726.16C701.565 1719.83 700.19 1697.01 700.142 1688.6C699.888 1666.65 699.748 1644.7 699.724 1622.75C699.775 1609.16 699.926 1595.56 700.176 1581.97C700.295 1576.78 701.349 1561.09 700.496 1556.89C696.711 1553.74 697.293 1553.86 691.376 1553.75C673.273 1553.43 654.947 1555.11 636.804 1554.99C617.191 1554.81 597.58 1554.52 577.971 1554.11C566.773 1553.81 552.427 1552.94 541.504 1553.23L540.278 1555.93C536.951 1563.18 539.72 1581.57 539.768 1591.07L539.576 1693.2C539.572 1698.11 538.582 1718.34 539.235 1721.4C542.077 1723.86 542.539 1724.07 547.113 1724.13C559.778 1724.31 572.633 1724.25 585.293 1724.28L665.043 1724.25C675.611 1724.24 688.709 1726.98 697.707 1726.16ZM500.294 1710.74C499.527 1700.79 500.363 1681.37 500.279 1670.47C500.005 1634.71 500.452 1598.75 500.546 1562.99C500.559 1558.19 501.058 1558.31 498.576 1555.94C497.241 1554.2 497.759 1554.15 494.5 1553.97C476.803 1552.98 458.495 1554.71 440.611 1554.6L371.47 1553.76C361.637 1553.63 345.242 1552.75 336.044 1553.63C332.787 1556.62 331.269 1561.66 331.491 1565.99C332.565 1588.24 330.538 1612.32 331.919 1634.34C333.179 1654.44 345.15 1681.51 358.589 1696.52C388.838 1730.31 432.334 1726.96 473.542 1724.38C481.609 1723.88 490.805 1729.04 497.892 1724.52C501.662 1719.67 500.771 1717.11 500.294 1710.74Z"/><path fill="#7400B8" d="M1342.31 1715.2C1343.59 1711.54 1344.41 1708.8 1346.23 1705.39C1348.83 1710.6 1346.31 1722.02 1348.58 1725.79C1349.01 1724.02 1349.4 1721.09 1350.5 1719.98C1353.73 1724.61 1352.87 1725.13 1357.01 1726.24C1372.06 1722.31 1403.17 1726.64 1420.68 1725.36C1438.18 1724.07 1459.85 1726.21 1477.8 1725.5C1493.52 1724.87 1503.23 1743.63 1513.12 1753.36C1516.15 1756.34 1521.79 1758.49 1523.63 1762.41L1522.11 1767.32C1516.43 1768.57 1474.05 1767.46 1466.22 1767.43L1302.53 1766.88L899.694 1766.92L791.56 1766.99C780.381 1766.98 755.324 1767.77 745.267 1766.87C742.013 1766.62 735.094 1766.63 732.701 1765.34C737.69 1764.06 766.157 1764.51 773.178 1764.5L862.017 1764.5C944.859 1764.5 1027.99 1766.13 1110.65 1762.43C1134.7 1761.35 1158.69 1762.05 1182.66 1761.22C1185.07 1759.37 1184.07 1760.5 1185.12 1757.36L1186.2 1757.04C1188.84 1749.78 1186.62 1746.29 1187.72 1739.12C1187.93 1737.8 1190.93 1737.39 1191.34 1732.89C1186.43 1727.97 1176.69 1733.56 1172.96 1731.61C1167.68 1728.85 1156.86 1728.83 1154.21 1725.53L1155.73 1724.47C1172.72 1723.07 1197.82 1725.08 1215.79 1724.97C1238.76 1725.17 1261.79 1725.04 1284.75 1724.38C1291.3 1724.19 1305.77 1726.54 1310.09 1723.85C1312.24 1720.58 1311.75 1717.66 1311.78 1713.64C1314.71 1719.46 1314.48 1719.06 1314.18 1725.36L1316.16 1718.88C1317.99 1718.3 1316.94 1718.6 1319.36 1717.99L1319.97 1714.76C1322.03 1715.72 1322.38 1716.26 1324.2 1717.71L1325.52 1717.61L1325.64 1714.48C1325.98 1714.39 1338.69 1715.55 1342.31 1715.2Z"/><path fill="#B1DDF6" fill-opacity="0.027450981" d="M498.576 1555.94C501.058 1558.31 500.559 1558.19 500.546 1562.99C500.452 1598.75 500.005 1634.71 500.279 1670.47C500.363 1681.37 499.527 1700.79 500.294 1710.74C497.946 1710.61 496.903 1710.4 494.58 1709.95C492.144 1701.7 494.478 1588.17 494.487 1572.32C494.488 1571.08 495.231 1568.99 496.003 1567.88C499.138 1563.41 498.809 1561.38 498.576 1555.94Z"/><defs><linearGradient id="gradient_1" gradientUnits="userSpaceOnUse" x1="1962.5553" y1="1378.5248" x2="1397.3514" y2="541.18799"><stop offset="0" stop-color="#2E03E2"/><stop offset="1" stop-color="#B705EC"/></linearGradient></defs><path fill="url(#gradient_1)" d="M1449.44 298.165C1454.09 294.22 1605.51 296.804 1623.77 297.431C1687.34 299.615 1733.14 343.672 1751.5 402.883L1751.04 404.819C1755.25 428.619 1755.58 441.482 1755.63 465.755L1755.66 528.481L1755.57 712.582L1755.02 1108.08C1755.45 1186.31 1755.37 1264.54 1754.79 1342.77C1754.17 1397.2 1754.22 1453.02 1754.88 1507.5C1754.93 1512.12 1757.28 1524.33 1754.99 1528.12C1752.05 1528.17 1748.79 1527.46 1747.09 1525.02C1738.96 1513.42 1729.44 1505.09 1718.9 1495.72C1714.32 1491.66 1712.68 1484.86 1712.63 1479.02C1712.32 1442.25 1712.87 1405.47 1712.27 1368.69C1712.2 1364.03 1714.42 1358.78 1713.34 1354.53L1707.7 1349.43C1697.92 1352.13 1687.84 1351.9 1677.76 1351.79C1636.91 1351.32 1595.76 1352.42 1554.95 1351.71C1547.42 1346.78 1510.95 1310.11 1505.65 1302.28L1504.53 1300.64C1503.42 1282.57 1504.36 1269.55 1504.07 1245.21C1503.84 1226.36 1503.56 1177.19 1505.31 1155.22C1505.31 1155.22 1501.5 1150.54 1500.91 1149.82C1489.62 1150.62 1394.69 1153.59 1388.13 1151.33C1385.78 1144.34 1400.79 1114.16 1406.91 1109.65C1426.25 1107.46 1457.58 1109.93 1478.02 1109.07C1483.27 1108.85 1498.28 1110.7 1502.1 1109.81C1508.13 1095.83 1501.1 1014.27 1503.79 994.783C1503.83 994.447 1504.35 951.77 1504.95 953.753C1492.02 941.88 1454.78 955.705 1445.71 949.843C1444.01 943.982 1442.52 917.001 1444.72 911.892C1454.15 902.105 1494.83 914.291 1502.69 908.481C1504.49 895.914 1503.9 878.445 1503.89 865.343L1503.87 797.544C1503.86 791.047 1504.43 753.906 1503.7 750.096C1501.48 747.58 1498.77 747.063 1495.56 746.793C1481.83 745.633 1409.74 751.334 1403.98 744.467C1398.92 738.427 1398.78 728.605 1395.72 721.55C1394.26 718.183 1392.06 715.112 1390.16 711.984C1389.42 710.768 1389.21 709.746 1389.08 708.346C1392.11 704.895 1395.12 704.465 1399.58 704.197C1415.92 703.217 1493.9 707.934 1502.39 703.687C1505.21 697.207 1504.33 558.45 1503.05 543.747L1504.47 542.838C1506.64 538.986 1505.97 510.543 1505.18 504.755L1502.93 503.553C1504.36 496.315 1504.01 486.044 1504.02 478.438L1504.03 396.258C1504.07 383.53 1505.12 351.528 1502.42 340.236C1499.63 338.136 1357.37 338.674 1354.9 339.738L1352.36 340.243L1351.46 339.109C1351.96 335.509 1353.53 333.462 1355.37 330.316C1363.28 328.402 1373.92 324.387 1381.82 321.661C1393.13 317.994 1441.42 303.082 1449.44 298.165ZM1712.57 425.647C1713.26 405.345 1699.78 382.435 1686.31 367.988C1670.15 350.396 1647.62 339.997 1623.75 339.106C1611.18 338.759 1555.14 336.799 1547.37 342.118C1546.31 347.545 1547.2 372.944 1547.24 380.338L1547.45 465.127C1547.49 474.979 1544.62 496.815 1549.99 502.953C1557.62 503.957 1585.44 503.472 1594.67 503.535C1633.94 503.806 1672.15 502.781 1711.5 504.184C1714.27 486.425 1710.32 447.009 1712.57 425.647ZM1704.65 706.488C1706.8 706.74 1708.79 707.064 1710.14 705.16C1714.1 699.596 1712.19 678.722 1712.13 672.759L1711.99 622.465L1712.05 575.587C1712.08 568.559 1713.18 549.437 1710.17 543.995C1701.2 542.535 1659.22 542.976 1647.35 543.322C1617.43 544.196 1581.23 541.942 1552.1 543.374C1547.08 547.182 1545.05 548.881 1546.29 555.848C1547.44 562.287 1547.62 567.412 1547.65 573.911L1547.56 665.129C1547.59 670.314 1546.36 699.361 1547.14 702.304C1554.16 707.766 1574.14 704.952 1583.74 704.995C1611.69 705.31 1639.65 705.294 1667.6 704.95C1676.16 704.888 1698.39 703.76 1704.65 706.488ZM1555.12 908.165C1594.89 908.769 1634.67 908.942 1674.44 908.686C1681.8 908.626 1704.87 909.435 1710.54 908.643C1713.05 901.113 1713.34 753.953 1711.53 749.98C1710.74 748.244 1709.72 746.949 1707.71 746.579C1707.06 746.46 1706.39 746.561 1705.73 746.553C1688.68 747.973 1551.44 745.673 1549.33 748.47C1547.45 750.957 1547.49 755.808 1547.4 758.787C1546.3 796.838 1547.54 835.468 1547.73 873.575C1547.76 880.369 1546.39 899.676 1547.34 904.622C1547.61 906.028 1547.75 906.147 1548.33 907.238C1552.05 908.998 1550.64 908.529 1555.12 908.165ZM1708.97 1111.96C1711.45 1109.36 1711.45 1109.37 1713.18 1106.22C1710.68 1063.98 1713.7 1020.41 1711.95 978.036C1711.58 969.08 1716.96 958.186 1710.96 951.812C1708 948.674 1705.66 949.772 1701.69 949.879C1675.26 952.928 1648.12 949.877 1621.19 949.954C1601.3 950.011 1577.32 952.52 1557.88 949.292C1556.19 949.011 1556.8 948.881 1554.68 949.192C1552.33 950.424 1548.48 952.204 1548.01 954.86C1545.8 967.354 1547.65 983.09 1547.67 995.597L1547.49 1069.14C1547.52 1079.49 1547.09 1095.78 1547.43 1106.5C1547.46 1107.51 1549.74 1108.45 1551.01 1109.2L1646.84 1109.28C1670.07 1109.23 1685.98 1107.55 1708.97 1111.96ZM1547.41 1308.41C1554.74 1308.46 1558.25 1308.71 1565.51 1309.72C1583.91 1307.77 1603.62 1308.58 1622.17 1308.59C1649.54 1308.59 1676.87 1308.19 1704.19 1309.88C1706.54 1310.03 1709.88 1310.04 1711.49 1308.43C1712.88 1300.25 1712.12 1285.66 1712.39 1276.73C1713.29 1246.78 1712.65 1216.68 1712.34 1186.72C1712.29 1181.05 1713.53 1157.6 1713.16 1154.39C1708.56 1148.54 1706.05 1149.81 1699.18 1150.51C1665.58 1153.13 1627.03 1150.4 1593.08 1151.29C1581.98 1151.58 1559.27 1150.42 1549.78 1153.17C1546.03 1157.7 1547.52 1194.47 1547.46 1202.35C1547.26 1237.7 1547.24 1273.06 1547.41 1308.41Z"/><path fill="#934ADD" d="M1449.44 298.165C1454.09 294.22 1605.51 296.804 1623.77 297.431C1687.34 299.615 1733.14 343.672 1751.5 402.883L1751.04 404.819C1749.07 422.09 1751.57 441.501 1749.81 460.375L1749.03 460.356C1748.29 454.029 1747.25 448.005 1745.02 442.019C1744.1 443.561 1744.31 448.249 1744.24 450.449C1735.9 450.808 1733.27 452.159 1725.8 448.386C1718.97 452.012 1719.13 456.72 1715.79 463.165C1715.2 452.525 1716.77 438.668 1713.43 429.33C1713.14 428.545 1712.74 426.424 1712.57 425.647C1713.26 405.345 1699.78 382.435 1686.31 367.988C1670.15 350.396 1647.62 339.997 1623.75 339.106C1611.18 338.759 1555.14 336.799 1547.37 342.118C1546.31 347.545 1547.2 372.944 1547.24 380.338L1547.45 465.127L1544.08 463.286C1543.01 458.229 1543.59 451.969 1541.77 448.506C1537.1 447.723 1534.21 453.045 1529.4 454.355C1522.25 456.303 1520.71 466.143 1517.88 471.934C1517.54 472.625 1513.32 472.145 1512.87 474.144C1511.53 480.156 1512.87 490.695 1511.29 496.276C1507.14 490.57 1508.58 465.751 1507.72 456.332C1507.59 463.545 1508.61 473.525 1504.02 478.438L1504.03 396.258C1504.07 383.53 1505.12 351.528 1502.42 340.236C1499.63 338.136 1357.37 338.674 1354.9 339.738L1352.36 340.243L1351.46 339.109C1351.96 335.509 1353.53 333.462 1355.37 330.316C1363.28 328.402 1373.92 324.387 1381.82 321.661C1393.13 317.994 1441.42 303.082 1449.44 298.165Z"/><path fill="#934ADD" d="M1507.44 537.749C1507.46 534.191 1506.87 514.128 1507.54 512.208L1507.73 512.189C1508.9 513.338 1507.69 515.524 1509.81 518.122C1509.31 521.923 1508.49 539.742 1508.03 541.351L1507.79 541.478C1506.9 540.703 1507.34 538.701 1507.44 537.749Z"/><path fill="#934ADD" d="M1509.81 518.122C1509.79 515.257 1509.11 513.089 1511.91 514.875L1512.12 515.991C1512.6 518.316 1512 518.324 1509.81 518.122Z"/><defs><linearGradient id="gradient_2" gradientUnits="userSpaceOnUse" x1="1484.88" y1="1508.9796" x2="984.37659" y2="999.26715"><stop offset="0" stop-color="#4304E4"/><stop offset="1" stop-color="#A505ED"/></linearGradient></defs><path fill="url(#gradient_2)" d="M1228.93 748.16C1250.81 743.039 1273.3 736.304 1295.18 730.597C1304.64 728.129 1339.39 721.224 1346.03 718.375L1345.86 714.731L1347.85 713.691C1349.89 724.51 1364.4 739.453 1363.46 751.816C1370.26 757.378 1377.92 791.661 1381.77 801.39C1388.92 819.446 1391.35 840.936 1395.31 860.198C1396.8 867.487 1395.22 880.272 1396.36 887.996C1404.2 975.496 1383.35 1069.14 1337.77 1145.5C1330.72 1157.4 1323.3 1169.1 1315.54 1180.55C1309.91 1188.83 1291.44 1214.18 1288.78 1221.88C1294.05 1227.13 1298.38 1230.06 1303.16 1234.71C1310.03 1241.38 1315.61 1249.07 1323.02 1255.8C1334.31 1252.11 1340.01 1226.07 1349.43 1232.69C1359.58 1239.83 1370.46 1256.4 1379.55 1265.66C1430.06 1317.06 1482.21 1368.35 1532.29 1420.09C1579.43 1466.39 1626.41 1515.93 1672.95 1563.17L1716.92 1607.8C1740.66 1631.89 1762.82 1650.95 1762.78 1687.89C1762.75 1710.74 1753.52 1733.35 1737.4 1749.6C1720.98 1766.46 1698.42 1775.95 1674.88 1775.89C1643.51 1775.89 1623.64 1757.54 1602.86 1736.42C1588.39 1721.7 1573.65 1707.05 1559.1 1692.39L1433.66 1565.77L1398.22 1529.78C1393.02 1524.53 1383.39 1515.42 1379.1 1510.13C1373.43 1507.02 1355.84 1487 1350.24 1481.33C1337.16 1468.11 1228.06 1355.72 1223.57 1354.91C1223.04 1354.81 1222.5 1354.77 1221.97 1354.7L1220.73 1352.77C1219.98 1338 1254.31 1335.29 1251.83 1318.2C1250.55 1316.33 1223.36 1289.62 1221.17 1288.16C1212.93 1286.86 1187.74 1308.26 1179.43 1313.64C1027.28 1412.35 829.456 1411.69 676.616 1314.88C668.345 1309.64 656.21 1304.38 650.907 1296.39C665.173 1305.84 721.933 1310.07 740.895 1310.01C774.314 1309.91 816.705 1307.88 849.417 1301.5C869.178 1301.36 931.273 1281.96 950.119 1273.62C955.799 1271.38 966.595 1267.38 970.927 1263.62C974.899 1261.46 984.351 1261.21 989.673 1260.25C1079.51 1243.32 1159 1191.51 1210.75 1116.15C1250.51 1058.61 1274.55 987.155 1272.53 916.935C1272.14 903.464 1273.18 891.066 1271.6 877.434C1269.95 864.286 1267.6 851.235 1264.55 838.337C1262.81 831.124 1261.2 827.375 1259.81 819.78C1255.35 806.094 1235.86 760.577 1228.93 748.16Z"/><path fill="#7400B8" d="M1532.29 1420.09C1579.43 1466.39 1626.41 1515.93 1672.95 1563.17L1716.92 1607.8C1740.66 1631.89 1762.82 1650.95 1762.78 1687.89C1762.75 1710.74 1753.52 1733.35 1737.4 1749.6C1720.98 1766.46 1698.42 1775.95 1674.88 1775.89C1643.51 1775.89 1623.64 1757.54 1602.86 1736.42C1588.39 1721.7 1573.65 1707.05 1559.1 1692.39L1433.66 1565.77L1398.22 1529.78C1393.02 1524.53 1383.39 1515.42 1379.1 1510.13C1380.38 1510.2 1383.35 1510.29 1384.25 1510.99C1397.53 1521.37 1405.76 1534.59 1419.32 1544.05C1419.52 1544.7 1420.11 1547.2 1420.97 1547.4C1426.79 1548.72 1429.32 1559.99 1436.99 1555.4C1438.07 1550.14 1435.53 1545.13 1430.33 1543.39C1429.2 1540.13 1429.18 1540.38 1429.66 1536.98L1431 1536.33L1436.41 1538.18L1437.48 1537.25C1436.71 1534.28 1435.97 1531.31 1435.26 1528.34L1433.47 1527.51L1429.92 1528.88C1426.04 1527.86 1427.46 1528.9 1425.16 1526.17C1426.2 1523.12 1429.04 1520.95 1431.5 1518.49C1430.81 1493.82 1442.63 1496.09 1455.48 1480.47C1456.46 1479.28 1454.23 1476.76 1457.88 1472.85C1462.36 1471.69 1465.9 1472.61 1470.54 1473.25C1471.8 1467.91 1471.18 1468.16 1476.08 1467.15C1482.05 1468.59 1480.39 1473.98 1486.5 1473.41C1488.47 1469.57 1487.01 1466.68 1487.82 1460.9C1495.92 1453.79 1494.91 1471.65 1514.11 1449.1C1520.63 1446.69 1525.45 1450.63 1531.59 1452.21C1538.45 1453.97 1542.12 1447.91 1547.84 1446.85C1550.44 1446.37 1550.33 1445.95 1551.53 1444.09C1546.46 1441.27 1544.09 1442.71 1541.42 1441.2C1541.92 1426.24 1532.99 1433.48 1532.29 1420.09Z"/><path fill="#9876E4" d="M1228.93 748.16C1250.81 743.039 1273.3 736.304 1295.18 730.597C1304.64 728.129 1339.39 721.224 1346.03 718.375L1345.86 714.731L1347.85 713.691C1349.89 724.51 1364.4 739.453 1363.46 751.816C1324.49 788.265 1305.97 796.496 1259.81 819.78C1255.35 806.094 1235.86 760.577 1228.93 748.16Z"/><path fill="#7400B8" d="M1492.97 1454.68C1493.06 1454.63 1493.16 1454.59 1493.25 1454.54C1493.49 1454.42 1493.97 1454.06 1494.3 1454.14C1494.55 1454.19 1494.71 1454.8 1494.75 1454.9C1494.51 1455.09 1494.12 1455.43 1493.83 1455.51C1493.35 1455.41 1493.36 1455.23 1492.97 1454.68Z"/><defs><linearGradient id="gradient_3" gradientUnits="userSpaceOnUse" x1="1093.4305" y1="1176.0922" x2="675.11566" y2="535.09332"><stop offset="0" stop-color="#C487EC" stop-opacity="0.98039216"/><stop offset="1" stop-color="#AFF0F7"/></linearGradient></defs><path fill="url(#gradient_3)" d="M884.315 458.759C901.589 456.701 951.41 454.622 968.538 459.679C988.158 465.472 1001.67 462.745 1021.5 465.077C1026.63 465.68 1035.73 470.657 1039.78 472.321C1041.44 472.999 1048.23 471.122 1053.99 472.834C1060.84 474.87 1066.35 481.608 1070.99 480.407C1080.74 477.886 1086.23 486.84 1093.75 488.268C1096 488.696 1097.72 487.147 1102.31 489.334C1125.32 500.309 1148.22 510.5 1170.36 523.432C1206.57 544.587 1239.7 572.408 1268.59 602.781C1273.81 607.645 1278.32 615.977 1283.3 620.735C1301.92 638.563 1316.55 660.45 1330.44 682.105C1334.69 688.725 1345.87 706.55 1347.85 713.691L1345.86 714.731L1346.03 718.375C1339.39 721.224 1304.64 728.129 1295.18 730.597C1273.3 736.304 1250.81 743.039 1228.93 748.16C1211.88 719.829 1191.07 691.46 1166.88 668.854C1158.97 661.459 1149.98 655.205 1142.01 647.859C1134.85 647.024 1130.35 636.941 1123.1 633.041C1117.13 629.831 1117.86 632.577 1112.73 629.103C1109.22 619.255 1103.7 627.503 1098.35 619.342C1095.94 615.659 1085.83 612.932 1082.05 610.359C1048.59 593.17 1010.12 579.274 972.62 575.057C961.276 573.782 946.776 574.285 934.501 573.194L949.412 572.843C864.48 564.624 768.289 599.98 703.987 653.852C624.235 720.666 574.989 827.095 579.338 931.246C579.912 944.99 581.121 961.113 584.14 974.501C591.429 981.957 584.573 988.449 590.194 1002.53C596.185 1017.53 600.88 1036.84 607.444 1051.77C639.276 1122.87 692.978 1181.94 760.727 1220.39C772.156 1226.85 785.192 1233.43 796.982 1239.42C798.529 1240.21 802.24 1239.35 805.176 1240.52C810.095 1242.49 815.978 1248.22 820.969 1248.68C822.079 1248.79 825.92 1248.3 827.52 1248.54C834.247 1249.55 839.802 1254.83 846.444 1255.98C854.861 1257.44 888.374 1259.58 894.284 1262.56L890.779 1263.82L892.738 1261.71L892.909 1264.34C913.347 1266.19 951.054 1266.73 970.927 1263.62C966.595 1267.38 955.799 1271.38 950.119 1273.62C949.044 1272.68 947.529 1271.63 946.078 1271.67C939.459 1271.86 885.56 1271.06 882.845 1272.51L884.795 1275.6C882.227 1276.57 881.126 1276.42 878.381 1276.55C877.526 1278.32 877.633 1277.37 878.229 1279.42C872.693 1283.97 853.136 1284.35 846.591 1286.5C836.247 1289.89 830.707 1294.44 819.251 1296.8C829.499 1297.17 837.739 1295.6 846.661 1296.12C840.132 1297.81 829.768 1298.65 822.762 1299.42L823.102 1300.42C833.161 1301.8 841.878 1300.07 849.417 1301.5C816.705 1307.88 774.314 1309.91 740.895 1310.01C721.933 1310.07 665.173 1305.84 650.907 1296.39C641.221 1288.6 630.356 1281.81 621.001 1273.76C606.813 1261.54 589.576 1243.51 576.857 1229.59C569.648 1221.7 563.33 1212.57 556.879 1204.05C526.035 1163.32 501.594 1120.57 484.041 1072.47C480.509 1062.79 476.174 1052.74 474.568 1042.54C474.349 1041.15 474.095 1039.8 473.834 1038.42C473.32 1035.7 472.994 1031.63 471.414 1029.38C466.667 1022.62 463.747 992.422 462.324 983.005L462.046 983.383C460.801 975.121 461.56 956.781 460.234 951.987C453.725 928.469 456.905 912.72 460.493 889.001C461.648 881.367 460.372 871 461.506 862.886C468.885 811.302 484.691 761.281 508.292 714.822C563.204 607.737 667.547 517.426 783.626 480.669C789.691 478.748 795.785 477.02 801.868 475.062L801.037 475.138C804.665 473.331 812.666 472.063 816.903 470.549C832.405 465.011 850.408 464.147 866.766 462.64C864.578 462.342 865.167 462.58 863.195 461.702L885.055 460.439L884.546 460.277L894.486 459.473L884.315 458.759Z"/><path fill="#B1DDF6" fill-opacity="0.98431373" d="M288.854 765.871C287.828 755.326 288.604 725.504 288.585 713.425L288.647 598.436L288.607 483.012C288.534 460.713 287.023 432.149 290.36 410.326C298.071 359.886 340.371 317.87 387.981 302.864C395.044 300.637 404.237 299.673 411.532 298.747L409.702 298.076C413.454 297.261 431.691 297.688 436.646 297.698L500.745 297.788L638.358 297.602C660.552 297.597 686.452 296.923 708.319 297.891C717.968 301.43 870.851 299.373 893.676 299.491L1259.37 302.422C1295.87 302.577 1332.34 303.395 1368.83 303.535C1375.57 303.561 1382.29 303.624 1389.02 303.121C1389.25 301.578 1389.24 302.395 1388.98 300.671C1395.2 300.326 1412 299.15 1416.67 302.266C1408.57 303 1397.44 302.338 1390.52 303.833L1390.22 304.881C1393.72 306.597 1395.18 307.037 1398.94 308.194C1401.93 307.527 1406.84 306.015 1409.48 306.806C1407.87 310.099 1387.53 318.049 1383.86 318.272C1365.99 324.275 1334.47 333.635 1318.78 339.99C1313.53 338.928 1310.37 332.596 1307.2 333.39C1302.75 334.505 1299.91 335.881 1295.11 336.127C1275.46 337.137 1159.81 333.268 1148.56 337.201C1146.92 339.658 1147.1 340.293 1146.73 343.22C1145.04 344.531 1144.68 344.217 1144.7 346.109C1144.79 352.521 1145.12 358.388 1145.03 364.897C1144.73 382.9 1144.53 400.905 1144.44 418.911C1144.4 425.268 1143.93 440.121 1144.95 445.868L1146.99 447.89L1146.83 451.861L1145.71 452.216C1143.69 450.786 1140.64 448.738 1139 447.289C1130.32 439.603 1115.93 446.711 1115.39 432.955C1114.56 411.773 1115.61 390.21 1114.83 369.018C1115.24 358.835 1115.47 348.647 1115.52 338.457L1108.59 332.049C1099.1 333.529 1081.23 332.609 1070.86 332.585L992.327 332.495C981.492 332.488 961.83 331.866 951.521 332.798L951.944 335.174L949.974 335.354C948.142 335.481 944.687 336.276 944.741 338.649C944.8 341.221 940.366 341.707 940.499 343.427C941.711 359.191 939.961 374.773 940.752 390.503C940.822 391.891 939.378 401.107 942.334 397.674C942.472 397.624 942.611 397.575 942.749 397.526C943.202 397.987 943.128 398.844 943.357 399.447C944.293 399.95 945.864 400.29 946.931 400.647C946.805 414.321 931.533 410.484 921.583 410.949C917.944 411.12 909.496 409.523 906.525 406.464C901.612 397.98 905.065 360.97 906.34 352.423L906.507 352.854C906.655 345.902 906.707 344.697 902.212 339.147C881.288 337.689 842.92 339.158 820.15 339.163L773.951 339.183C766.466 339.196 753.542 338.854 746.635 339.881C742.445 343.696 739.712 344.673 739.76 351.111C739.922 373.014 740.38 394.531 740.289 416.483C740.259 423.75 742.403 437.491 737.63 443.825C734.9 447.448 728.915 447.688 724.573 447.797L722.344 449.372L721.414 449.347C720.524 446.952 720.964 447.663 719.435 445.64L717.685 447.018C712.681 445.11 713.065 446.266 707.836 446.228C698.014 426.599 705.156 368.462 706.667 345.511C707.083 339.196 706.452 338.215 702.002 334.294C698.7 334.178 682.698 333.555 681.522 334.438C672.005 341.576 618.853 334.493 613.332 338.868C603.142 339.048 548.318 338.043 542.429 339.523C541.715 342.533 540.004 344.01 538.034 346.267C536.841 350.601 538.403 353.376 539.156 357.653C540.908 367.594 539.942 380.537 539.883 390.91L539.939 467.511C539.989 473.969 538.336 495.65 541.6 499.818C547.13 502 551.376 500.004 555.723 500.657C566.933 502.343 621.962 498.93 627.741 501.713C626.148 501.828 619.897 502.134 618.817 502.599L629.229 503.187L630.613 504.777C629.525 510.43 619.179 519.633 613.15 519.663C607.196 518.606 605.129 515.909 601.106 520.592C593.958 526.444 602.237 525.848 606.041 525.868L606.607 526.142L606.303 527.475C598.447 529.685 592.784 541.367 587.345 542.894C576.474 545.946 561.809 544.46 550.466 545.203C531.218 546.465 540.421 564.079 539.917 578.038C537.968 581.675 536.183 586.052 532.928 588.346C530.653 588.44 530.364 588.325 528.452 589.909L528.441 589.956C528.001 588.661 527.77 586.756 526.393 586.122C525.737 586.359 509.94 602.852 512.594 601.774C511.742 601.28 507.268 594.364 505.323 598.236C502.85 603.16 505.203 613.657 506.423 618.558C506.373 621.582 506.827 620.249 504.967 622.68C502.922 622.098 501.735 621.9 499.61 621.842C500.214 623.983 500.737 555.234 500.79 552.267C498.089 548.805 495.213 543.711 491.332 543.529C471.36 542.592 453.344 545.09 432.963 544.503L439.315 543.488C404.892 543.413 369.915 543.73 336.054 544.633C333.027 544.713 331.023 555.578 331.394 558.048C334.61 579.426 326.991 690.968 332.775 704.421L333.716 702.879C354.269 707.813 450.894 701.056 459.181 705.058C461.339 713.032 447.122 739.045 442.329 746.558C426.882 747.186 341.789 745.28 335.235 747.48L334.613 749.915L332.091 750.983C330.584 758.224 331.796 764.229 331.583 771.536C329.74 777.656 296.395 802.467 289.341 809.014C288.949 795.367 290.048 779.221 288.854 765.871ZM413.25 500.953C435.414 500.661 457.626 500.315 479.799 500.217C486.901 500.185 489.483 503.681 494.08 502.144L500.635 494.82L500.617 399.575C500.622 388.681 502.285 347.889 497.202 340.061C487.777 337.838 423.764 338.859 411.801 339.55L409.891 340.729L411.215 341.188C405.103 343.779 384.13 348.727 379.075 352.745C369.035 360.727 356.157 371.02 348.42 381.294C325.793 416.354 332.3 458.238 331.596 497.633C331.581 498.47 332.336 499.778 332.744 500.566C359.577 501.02 386.414 501.149 413.25 500.953ZM924.683 398.188C936.501 399.743 937.854 392.599 930.022 388.793C927.719 389.222 923.235 389.581 921.995 392.042C922.501 393.356 924.733 392.38 925.455 393.425C925.473 395.327 922.745 395.49 922.396 396.372C922.683 397.163 924.029 397.741 924.683 398.188Z"/><path fill="#A3CDF1" fill-opacity="0.87843138" d="M930.022 388.793C937.854 392.599 936.501 399.743 924.683 398.188C924.029 397.741 922.683 397.163 922.396 396.372C922.745 395.49 925.473 395.327 925.455 393.425C924.733 392.38 922.501 393.356 921.995 392.042C923.235 389.581 927.719 389.222 930.022 388.793Z"/><path fill="#9876E4" d="M288.854 765.871C290.048 779.221 288.949 795.367 289.341 809.014C296.395 802.467 329.74 777.656 331.583 771.536L331.778 871.637C331.805 877.31 331.239 900.51 332.188 904.411C332.881 904.841 338.451 908.294 338.452 908.294C360.32 908.912 390.529 909.059 411.371 907.31C411.342 920.332 411.857 938.598 411.054 951.194C397.352 951.587 341.933 949.305 333.815 952.55C330.997 955.768 331.215 959.612 331.116 963.772C333.888 986.351 328.489 1099.34 333.138 1107.5C347.442 1110.82 397.431 1108.3 415.419 1108.84C422.494 1109.05 433.937 1107.68 441.32 1109.04C443.988 1109.53 448.039 1114.65 449.39 1116.91C452.034 1121.33 452.062 1122.86 451.617 1127.73L452.477 1128.39L453.709 1128.21C459.376 1134.63 457.787 1139.04 463.316 1146.23C462.956 1149.99 463.642 1148.36 461.133 1151.25C457.095 1152.38 448.101 1151.5 443.532 1151.6C410.836 1152.39 378.088 1151.32 345.389 1151.81C337.976 1151.92 336.199 1152.29 331.843 1158.56L331.935 1266.77C331.938 1273.43 331.296 1302.52 332.35 1307.16C333.749 1308.33 359.107 1308.29 363.466 1308.32C395.744 1308.49 428.022 1308.45 460.299 1308.22C465.989 1308.22 493.892 1311.51 497.38 1306.53C504.517 1296.35 497.459 1213.08 500.271 1209.98C507.523 1210.28 513.113 1226.34 517.825 1231.49C521.3 1235.28 538.597 1257.18 539.334 1261.49C541.618 1274.85 539.704 1294.36 539.79 1308.43C557.289 1308.18 584.547 1304.69 599.373 1312.48C601.789 1313.75 631.701 1338.07 631.931 1338.57C632.394 1341.21 635.362 1344.89 632.014 1345.45C626.269 1346.4 623.752 1343.24 623.111 1350L622.919 1350.74L623.219 1351.3C600.919 1355.2 568.081 1349.88 544.88 1352.25C542.643 1352.48 541.928 1353.76 540.572 1355.2C538.397 1363.6 540.193 1373.64 539.914 1382.3C539.324 1400.62 540.979 1424.52 539.987 1442.17C539.33 1453.85 541.794 1492.1 538.864 1500.34C537.794 1496.12 538.131 1467.5 538.113 1461.19C538.084 1433.39 537.881 1405.58 537.506 1377.78C537.261 1388.82 537.271 1400.54 535.983 1411.45L535.967 1410.66C532.46 1420.51 536.508 1424.89 533.951 1432.59C532.805 1433.81 532.255 1434.93 530.893 1434.97C525.071 1435.1 509.025 1432.1 504.583 1428.83C501.423 1417.4 501.293 1376.22 500.681 1361.73C500.571 1357.06 501.28 1357.63 499.166 1354.22C496.953 1352.67 495.763 1352.09 492.935 1352.08C441.644 1351.87 390.265 1351.78 338.984 1352.33C332.161 1352.4 331.197 1361.44 331.558 1366.48C317.101 1383.52 300.579 1421.94 291.178 1442.82C290.34 1444.69 290.093 1446.45 288.022 1446.82L287.75 1429.14L286.524 1435.94C285.795 1430.12 285.911 1427.96 286.178 1422.22L287.531 1422.02L286.164 1422.36L286.676 1419.83L287.249 1422.81L287.618 1421.04L286.329 1421.31L287.611 1421.21C288.348 1364.77 288.482 1308.33 288.014 1251.89L288.299 948.871L288.04 832.239C288.004 812.038 287.293 785.488 288.854 765.871Z"/><path fill="#9EA1EB" d="M289.341 809.014C296.395 802.467 329.74 777.656 331.583 771.536L331.778 871.637C331.805 877.31 331.239 900.51 332.188 904.411C332.881 904.841 338.451 908.294 338.452 908.294C360.32 908.912 390.529 909.059 411.371 907.31C411.342 920.332 411.857 938.598 411.054 951.194C397.352 951.587 341.933 949.305 333.815 952.55C330.997 955.768 331.215 959.612 331.116 963.772C330.038 971.982 330.516 990.091 330.541 999.223C315.578 994.798 304.206 991.045 289.57 985.707C289.241 927.064 290.268 867.538 289.341 809.014Z"/><path fill="#9876E4" fill-opacity="0.98823529" d="M1306.99 339.104C1311.58 339.18 1312.79 341.345 1314.03 341.563C1323.03 343.153 1345.06 332.655 1353.58 330.707L1355.37 330.316C1353.53 333.462 1351.96 335.509 1351.46 339.109L1352.36 340.243L1354.9 339.738C1354.29 342.431 1353.39 343.1 1351.6 345.081C1350.72 353.702 1351.34 365.423 1351.44 374.24C1351.91 414.333 1351.12 454.429 1351.57 494.513C1351.64 500.077 1355.63 504.805 1361.64 502.71L1362.57 501.304C1365.77 500.955 1377.54 503.041 1383.94 503.122C1413.3 503.49 1442.66 503.151 1472.01 503.148C1478.29 503.147 1498.72 504.532 1502.93 503.553L1505.18 504.755C1505.97 510.543 1506.64 538.986 1504.47 542.838L1503.05 543.747C1497.57 542.333 1471.83 543.595 1464.16 543.471C1430.5 542.927 1394.33 545.297 1360.98 544.152L1361.41 544.01L1358.4 543.757C1354.59 546.658 1354.11 547.337 1351.31 551.258C1352.19 575.936 1350.25 600.598 1352.92 625.227C1353.33 629.018 1352.28 630.95 1348.92 632.17C1342.04 629.53 1343.08 622.068 1338.13 615.9C1328.42 603.792 1317.99 592.152 1308.83 579.637C1307.43 577.733 1308.6 565.02 1308.4 562.042C1308.03 556.674 1312.14 552.089 1310.03 547.044C1310.19 547.115 1304.05 544.103 1306.6 544.636C1283.78 539.96 1271.07 551.466 1254.61 527.528C1250.06 520.915 1228.31 513.571 1227.36 501.402C1229.78 500.391 1274.56 501.257 1280.74 501.591L1272.04 502.443C1280.49 502.825 1299.66 504.334 1306.82 503.018C1310.31 499.112 1307.8 375.213 1309.83 355.909L1310.07 358.483C1310.5 354.893 1312.36 344.153 1309.78 342.002C1307.35 341.926 1308.12 341.881 1305.69 340.487L1306.99 339.104Z"/><path fill="#934ADD" d="M701.434 1504.01C700.335 1501.15 700.104 1380.84 700.35 1380.37C701.98 1379.71 704.296 1378.63 705.916 1379.96C716.328 1388.49 726.007 1389.95 738.295 1393.97C741.062 1402.26 739.787 1481.73 739.705 1495.3C737.312 1498.88 736.792 1507.25 736.989 1511.51C728.179 1511.53 711.944 1512.02 703.745 1511.08L702.49 1512.36C702.362 1508.82 702.696 1507.18 701.434 1504.01Z"/><path fill="#9EA1EB" fill-opacity="0.92156863" d="M708.319 297.891C732.464 296.674 762.341 297.507 787.015 297.513L928.255 297.595L1331.5 297.488C1326.42 297.52 1309.14 298.305 1305.78 296.603C1326.86 295.976 1349.21 296.328 1370.39 296.163C1384.52 296.053 1407.82 295.217 1421 297.087L1419.01 297.274C1430.4 298.295 1438 298.753 1449.44 298.165C1441.42 303.082 1393.13 317.994 1381.82 321.661L1383.86 318.272C1387.53 318.049 1407.87 310.099 1409.48 306.806C1406.84 306.015 1401.93 307.527 1398.94 308.194C1395.18 307.037 1393.72 306.597 1390.22 304.881L1390.52 303.833C1397.44 302.338 1408.57 303 1416.67 302.266C1412 299.15 1395.2 300.326 1388.98 300.671C1389.24 302.395 1389.25 301.578 1389.02 303.121C1382.29 303.624 1375.57 303.561 1368.83 303.535C1332.34 303.395 1295.87 302.577 1259.37 302.422L893.676 299.491C870.851 299.373 717.968 301.43 708.319 297.891Z"/><path fill="#9EA1EB" fill-opacity="0.97647059" d="M1114.83 369.018C1115.61 390.21 1114.56 411.773 1115.39 432.955C1115.93 446.711 1130.32 439.603 1139 447.289C1140.64 448.738 1143.69 450.786 1145.71 452.216L1146.83 451.861L1146.99 447.89L1144.95 445.868C1143.93 440.121 1144.4 425.268 1144.44 418.911C1144.53 400.905 1144.73 382.9 1145.03 364.897C1145.12 358.388 1144.79 352.521 1144.7 346.109C1144.68 344.217 1145.04 344.531 1146.73 343.22C1147.1 340.293 1146.92 339.658 1148.56 337.201C1159.81 333.268 1275.46 337.137 1295.11 336.127C1299.91 335.881 1302.75 334.505 1307.2 333.39C1310.37 332.596 1313.53 338.928 1318.78 339.99C1334.47 333.635 1365.99 324.275 1383.86 318.272L1381.82 321.661C1373.92 324.387 1363.28 328.402 1355.37 330.316L1353.58 330.707C1345.06 332.655 1323.03 343.153 1314.03 341.563C1312.79 341.345 1311.58 339.18 1306.99 339.104L1203.52 339.143C1191.73 339.178 1166.53 338.534 1155.61 339.527C1155.15 342.265 1150.1 346.094 1150.41 349.613C1153.31 382.768 1151.39 416.466 1151.94 449.749C1152 453.485 1151.35 454.071 1148.88 456.349C1141.15 458.09 1136.7 449.281 1127.7 446.916C1117.73 449.963 1117.5 441.658 1109.34 437.799C1107.31 434.417 1105.84 428.835 1109.79 426.316L1110.27 427.029C1111.46 425.171 1110.54 417.754 1110.39 414.948L1109.47 423.812C1108.28 405.788 1109.2 387.336 1108.79 369.271C1108.5 356.494 1113.92 351.106 1105.68 340.504L1106.94 339.129C1111.41 339.661 1110.6 338.883 1113.44 341.357C1116.16 349.614 1114.03 359.191 1114.83 369.018Z"/><path fill="#9EA1EB" fill-opacity="0.68235296" d="M819.251 1296.8C830.707 1294.44 836.247 1289.89 846.591 1286.5C853.136 1284.35 872.693 1283.97 878.229 1279.42C877.633 1277.37 877.526 1278.32 878.381 1276.55C881.126 1276.42 882.227 1276.57 884.795 1275.6L882.845 1272.51C885.56 1271.06 939.459 1271.86 946.078 1271.67C947.529 1271.63 949.044 1272.68 950.119 1273.62C931.273 1281.96 869.178 1301.36 849.417 1301.5C841.878 1300.07 833.161 1301.8 823.102 1300.42L822.762 1299.42C829.768 1298.65 840.132 1297.81 846.661 1296.12C837.739 1295.6 829.499 1297.17 819.251 1296.8ZM887.737 1290.6C891.215 1290.28 897.55 1288.63 889.869 1286.73C886.742 1285.95 878.76 1286.62 875.459 1286.95C873.87 1287.7 869.154 1289.23 869.572 1291.63C872.287 1294.84 883.914 1291.26 887.737 1290.6ZM913.283 1282.17C926.084 1279.16 927.407 1274.82 912.832 1275C903.231 1279.07 898.877 1283.58 913.283 1282.17Z"/><path fill="#9EA1EB" fill-opacity="0.58823532" d="M875.459 1286.95C878.76 1286.62 886.742 1285.95 889.869 1286.73C897.55 1288.63 891.215 1290.28 887.737 1290.6C883.914 1291.26 872.287 1294.84 869.572 1291.63C869.154 1289.23 873.87 1287.7 875.459 1286.95Z"/><path fill="#9EA1EB" fill-opacity="0.56078434" d="M912.832 1275C927.407 1274.82 926.084 1279.16 913.283 1282.17C898.877 1283.58 903.231 1279.07 912.832 1275Z"/><path fill="#A3CDF1" fill-opacity="0.98039216" d="M951.944 335.174L951.521 332.798C961.83 331.866 981.492 332.488 992.327 332.495L1070.86 332.585C1081.23 332.609 1099.1 333.529 1108.59 332.049L1115.52 338.457C1115.47 348.647 1115.24 358.835 1114.83 369.018C1114.03 359.191 1116.16 349.614 1113.44 341.357C1110.6 338.883 1111.41 339.661 1106.94 339.129C1091.57 338.38 958.956 337.779 952.652 339.656L951.944 335.174Z"/><path fill="#934ADD" fill-opacity="0.98039216" d="M337.973 1514.79C368.123 1510.12 401.667 1512.79 432.449 1512.15C447.09 1511.85 476.62 1510.72 490.194 1512.82C483.699 1513.01 459.767 1514.79 453.955 1516.13C456.252 1518.11 457.299 1517.48 461.092 1517.77C450.776 1518.73 393.496 1520.02 384.986 1518.09L385.517 1517.9C377.817 1517.6 342.091 1518.77 337.973 1514.79Z"/><path fill="#A6EAF6" d="M702.002 334.294C706.452 338.215 707.083 339.196 706.667 345.511C705.156 368.462 698.014 426.599 707.836 446.228C713.065 446.266 712.681 445.11 717.685 447.018L719.435 445.64C720.964 447.663 720.524 446.952 721.414 449.347L722.344 449.372L722.743 450.674C721.329 451.643 720.6 452.154 718.764 451.963C711.769 451.234 710.379 457.126 704.94 457.695C695.843 449.57 705.303 350.261 700.381 342.559C692.393 337.113 676.867 339.074 666.998 339.087C649.109 339.181 631.219 339.108 613.332 338.868C618.853 334.493 672.005 341.576 681.522 334.438C682.698 333.555 698.7 334.178 702.002 334.294Z"/><path fill="#A3CDF1" fill-opacity="0.97254902" d="M946.931 400.647C945.864 400.29 944.293 399.95 943.357 399.447C943.128 398.844 943.202 397.987 942.749 397.526C942.611 397.575 942.472 397.624 942.334 397.674C939.378 401.107 940.822 391.891 940.752 390.503C939.961 374.773 941.711 359.191 940.499 343.427C940.366 341.707 944.8 341.221 944.741 338.649C944.687 336.276 948.142 335.481 949.974 335.354L951.944 335.174L952.652 339.656C952.425 341.575 950.096 343.538 948.351 344.047C948.146 343.971 947.94 343.894 947.735 343.818C944.852 343.957 946.195 351.722 946.316 353.996C947.131 369.265 945.727 385.51 946.931 400.647Z"/><path fill="#C7FFFF" fill-opacity="0.92941177" d="M506.423 618.558C505.203 613.657 502.85 603.16 505.323 598.236C507.268 594.364 511.742 601.28 512.594 601.774C509.94 602.852 525.737 586.359 526.393 586.122C527.77 586.756 528.001 588.661 528.441 589.956L528.452 589.909C530.364 588.325 530.653 588.44 532.928 588.346C531.272 590.417 527.793 593.777 526.934 595.534L526.701 593.78C525.907 586.282 520.885 593.448 519.535 595.62C517.73 598.522 520.496 599.069 522.316 600.116C521.598 601.171 519.454 603.449 519.437 604.693L519.485 604.767C519.51 605.232 519.365 605.691 519.079 606.058C518.602 606.68 517.547 606.318 516.969 606.237C517.265 604.721 518.694 600.559 517.946 599.831C515.756 597.701 506.67 606.983 515.997 606.273C513.986 611.352 510.077 612.695 506.423 618.558Z"/><path fill="#9876E4" fill-opacity="0.97254902" d="M631.931 1338.57L635.984 1341.05C639.285 1343.05 645.026 1343.69 644.229 1348.37C643.311 1353.75 635.823 1352.97 631.118 1351.19L632.927 1350.83C630.831 1350.08 625.593 1350.14 623.111 1350C623.752 1343.24 626.269 1346.4 632.014 1345.45C635.362 1344.89 632.394 1341.21 631.931 1338.57Z"/><path fill="#A6EAF6" d="M601.106 520.592C605.129 515.909 607.196 518.606 613.15 519.663C610.207 522.451 608.966 523.013 606.607 526.142L606.041 525.868C602.237 525.848 593.958 526.444 601.106 520.592Z"/><path fill="#A6EAF6" d="M522.316 600.116C520.496 599.069 517.73 598.522 519.535 595.62C520.885 593.448 525.907 586.282 526.701 593.78L526.934 595.534C525.435 597.102 523.896 598.63 522.316 600.116Z"/><path fill="#A6EAF6" d="M515.997 606.273C506.67 606.983 515.756 597.701 517.946 599.831C518.694 600.559 517.265 604.721 516.969 606.237L515.997 606.273Z"/></svg>