<?xml version="1.0" encoding="utf-8" ?><svg xmlns="http://www.w3.org/2000/svg" xmlns:xlink="http://www.w3.org/1999/xlink" width="1024" height="1024" viewBox="0 0 1024 1024"><defs><linearGradient id="gradient_0" gradientUnits="userSpaceOnUse" x1="591.82214" y1="-41.274635" x2="847.05548" y2="910.56067"><stop offset="0" stop-color="#45215F"/><stop offset="1" stop-color="#D59FFF"/></linearGradient></defs><path fill="url(#gradient_0)" d="M489.659 0L533.257 0L533.847 0.0905017C543.076 1.42084 557.103 1.52775 567.158 2.47398C588.106 4.51448 608.909 7.83917 629.45 12.4293C716.552 31.9226 796.835 74.413 861.937 135.475C875.577 148.059 889.205 161.87 901.29 176.071C901.497 176.366 901.704 176.661 901.912 176.956C905.792 179.906 921.668 201.114 925.123 205.843C958.658 250.844 984.406 301.152 1001.3 354.672C1006.2 370.013 1012.37 393.086 1014.7 409.127C1018.33 419.618 1020.65 443.207 1022.38 454.852C1023.04 459.279 1022.96 466.494 1024 470.644L1024 558.229C1020.73 580.393 1017.75 605.809 1012.71 627.604C986.845 742.004 922.2 843.933 829.742 916.097C830.592 913.056 832.824 911.102 830.037 908.336C828.263 907.938 825.75 909.133 823.56 909.659L822.91 909.109C823.222 907.547 823.646 907.063 824.4 905.629C825.316 904.688 830.23 900.913 831.475 899.915C837.112 895.4 842.45 891.146 847.792 886.267C870.224 866.166 890.814 844.1 909.318 820.335C982.752 726.301 1019.85 608.962 1013.83 489.805C1013.06 472.901 1011.38 455.227 1009.09 438.455C1007.86 429.381 1005.34 419.755 1004.2 410.704C992.026 349.622 968.386 291.4 934.53 239.122C924.579 223.915 914.585 211.427 904.124 197.057C903.477 196.662 893.593 184.708 892.372 183.309C883.091 172.831 873.49 162.641 863.581 152.755C855.747 144.817 846.974 137.315 838.455 130.121C805.29 101.845 768.562 78.04 729.209 59.3135C620.043 8.37883 496.497 -2.75671 379.983 27.8368C360.025 32.9968 344.816 38.9886 325.611 45.7983L325.26 45.4765C323.421 45.34 321.37 46.8668 319.042 47.4425C311.69 44.9706 314.724 47.5609 312.338 47.4902C312.67 43.42 312.669 43.2591 312.103 39.4272C313.227 38.9654 314.339 38.4741 315.437 37.954L315.355 37.2762C318.068 35.667 333.206 30.2485 336.52 29.0932C373.585 16.0683 412.012 7.30878 451.06 2.98422C462.814 1.62351 478.949 1.61308 489.118 0.0866329L489.659 0Z"/><path fill="#9D4EDD" d="M173.743 124.895C178.123 120.631 186.254 114.424 191.253 110.462C222.492 85.548 256.521 64.3498 292.655 47.2937C299.452 44.1055 308.379 39.763 315.355 37.2762L315.437 37.954C314.339 38.4741 313.227 38.9654 312.103 39.4272C312.669 43.2591 312.67 43.42 312.338 47.4902C314.724 47.5609 311.69 44.9706 319.042 47.4425C321.37 46.8668 323.421 45.34 325.26 45.4765L325.611 45.7983C317.239 49.613 308.477 52.7939 300.174 56.6726C258.964 75.923 219.952 100.847 185.322 130.352C183.788 131.658 180.422 134.686 178.851 135.636C165.726 148.12 151.908 160.381 139.782 173.925C59.6994 262.505 13.9167 376.793 10.6961 496.163C9.87345 528.425 11.8805 560.698 16.6943 592.61C17.9406 601.111 19.4472 609.573 21.212 617.981C21.6664 620.173 23.8529 629.617 23.9687 631.333C23.7427 636.507 26.4616 644.223 27.7888 649.357C34.0615 673.618 43.4522 696.49 52.921 719.567C56.2385 727.652 64.6998 737.461 61.5954 745.928C60.8483 747.965 60.3458 750.791 59.8739 753.02L59.3767 753.192C57.5793 751.692 54.6658 745.132 53.5 742.797C41.4384 718.537 31.3346 693.352 23.2849 667.483C22.0283 663.361 13.7211 631.786 12.4371 630.317C11.7119 628.755 9.56392 617.609 9.15376 615.382C6.22897 599.424 3.91076 583.36 2.20413 567.227C1.4743 560.025 1.10911 547.515 0 541.305L0 480.174C0.837406 475.715 1.1791 466.37 1.56679 461.278C2.2556 452.677 3.23381 444.102 4.49973 435.567C18.318 337.922 60.4521 246.468 125.692 172.513C136.4 160.243 147.079 149.201 159.054 138.158C163.402 134.148 169.123 128.35 173.743 124.895Z"/><path fill="#7B2CBF" d="M173.743 124.895C178.123 120.631 186.254 114.424 191.253 110.462C222.492 85.548 256.521 64.3498 292.655 47.2937C299.452 44.1055 308.379 39.763 315.355 37.2762L315.437 37.954C314.339 38.4741 313.227 38.9654 312.103 39.4272C312.669 43.2591 312.67 43.42 312.338 47.4902C314.724 47.5609 311.69 44.9706 319.042 47.4425C321.37 46.8668 323.421 45.34 325.26 45.4765L325.611 45.7983C317.239 49.613 308.477 52.7939 300.174 56.6726C258.964 75.923 219.952 100.847 185.322 130.352C183.788 131.658 180.422 134.686 178.851 135.636L178.042 135.335C179.218 133.674 186.698 127.823 188.612 126.243C224.803 96.3551 265.203 70.884 308.195 52.0002C308.411 51.6747 308.627 51.3491 308.843 51.0236C308.394 51.0282 307.06 51.6303 306.214 51.8096L305.418 51.1228C303.974 46.1414 306.82 45.6258 306.153 42.3689C302.173 43.3569 287.933 50.6907 283.639 52.8476C255.418 66.7543 228.575 83.2983 203.468 102.259C193.422 109.759 184.463 117.811 174.788 125.116L173.743 124.895Z"/><defs><linearGradient id="gradient_1" gradientUnits="userSpaceOnUse" x1="361.45346" y1="852.38568" x2="293.16479" y2="976.78448"><stop offset="0" stop-color="#8057EA"/><stop offset="1" stop-color="#D6A0F2"/></linearGradient></defs><path fill="url(#gradient_1)" d="M12.4371 630.317C13.7211 631.786 22.0283 663.361 23.2849 667.483C31.3346 693.352 41.4384 718.537 53.5 742.797C54.6658 745.132 57.5793 751.692 59.3767 753.192L59.8739 753.02C60.3458 750.791 60.8483 747.965 61.5954 745.928C64.6998 737.461 56.2385 727.652 52.921 719.567C43.4522 696.49 34.0615 673.618 27.7888 649.357C26.4616 644.223 23.7427 636.507 23.9687 631.333C28.7241 649.86 33.6344 667.455 40.2489 685.434C79.8296 793.482 155.478 884.563 254.424 943.304C339.213 993.684 436.977 1017.94 535.482 1013.03C549.197 1012.44 562.182 1011.67 575.768 1009.69L596.342 1006.56C598.559 1006.22 604.913 1005.08 606.899 1005.02C610.882 1005.58 626.486 1002.04 631.081 1000.78C632.911 1003.02 636.451 1003.65 637.213 1005.92C636.133 1006.32 636.107 1006.24 635.263 1007.02L635.609 1008.75C632.104 1012.18 620.368 1010.96 617.803 1014.11C614.94 1015.13 605.954 1016.69 602.818 1017.24C589.759 1019.66 576.588 1021.45 563.354 1022.58C559.604 1022.88 547.657 1023.39 544.776 1024L480.071 1024C477.183 1023.38 465.75 1022.82 461.838 1022.44C449.286 1021.26 436.782 1019.6 424.352 1017.49C349.805 1004.31 288.525 980.339 225.348 938.423C138.301 880.573 71.303 797.188 33.5601 699.724C25.9111 679.999 16.6622 651.203 12.4371 630.317Z"/><path fill="#9D4EDD" d="M824.4 905.629C823.646 907.063 823.222 907.547 822.91 909.109L823.56 909.659C825.75 909.133 828.263 907.938 830.037 908.336C832.824 911.102 830.592 913.056 829.742 916.097C776.068 958.527 709.594 991.759 643.071 1008.61C636.92 1010.17 623.993 1013.3 617.803 1014.11C620.368 1010.96 632.104 1012.18 635.609 1008.75L635.263 1007.02C636.107 1006.24 636.133 1006.32 637.213 1005.92C636.451 1003.65 632.911 1003.02 631.081 1000.78C626.486 1002.04 610.882 1005.58 606.899 1005.02C614.616 1002.94 625.938 1000.77 634.076 998.908C635.438 998.31 649.61 994.697 651.955 994.046C663.028 991.009 673.972 987.522 684.761 983.592C737.633 964.502 780.091 939.853 824.4 905.629Z"/><path fill="#E0AAFF" d="M359.209 78.4889C486.147 33.9204 626.236 47.1863 742.552 114.79C858.867 182.394 939.736 297.551 963.843 429.908C988.367 564.556 951.628 703.131 863.618 807.944C781.785 905.401 663.218 964.581 536.143 971.397C409.068 978.212 284.851 932.053 193.064 843.908C78.3023 733.701 28.679 571.992 61.8696 416.384C95.0602 260.775 206.346 133.387 356.087 79.5975C357.127 79.2243 358.167 78.8547 359.209 78.4889Z"/><path fill="#E1E0E4" d="M425.575 222.254C503.132 212.092 594.838 237.066 657.107 283.848C717.362 329.118 764.154 403.123 773.021 478.498C784.798 578.602 732.595 683.772 660.715 750.801C651.85 759.022 642.809 767.05 633.598 774.88C629.393 778.393 611.091 791.504 609.386 794.218C589.898 804.694 569.668 813.725 548.858 821.238C545.618 821.972 519.937 815.835 515.657 814.767C449.374 798.547 388.771 764.555 340.373 716.45C281.232 657.011 248.719 581.975 248.887 497.975L249.199 488.844C249.924 486.151 249.976 477.353 250.284 474.101C252.292 452.878 257.014 432.584 263.459 412.363C289.883 329.854 348.276 261.379 425.575 222.254Z"/><path fill="#3C096C" d="M511.978 272.475C580.441 313.309 648.661 354.549 716.635 396.193C716.908 412.824 716.661 429.956 716.743 446.645L716.658 627.879C710.928 631.942 702.155 636.649 695.763 640.539C679.352 650.582 662.861 660.497 646.294 670.281L512.28 750.924C506.531 747.957 499.121 743.135 493.35 739.681L455.839 717.287L306.988 627.718L306.986 395.979C326.253 383.962 346.343 372.426 365.852 360.732L455.839 306.276C473.184 295.795 495.789 283.462 511.978 272.475Z"/><path fill="#E1E0E4" d="M511.44 303.894C514.504 304.847 522.893 310.192 525.995 312.083L553.023 328.602L653.259 388.848C665.608 396.364 678.429 403.804 690.575 411.545C689.584 477.674 690.408 546.139 690.48 612.43L587.689 674.42C562.603 689.266 537.64 704.319 512.802 719.577C508.888 719.171 348.728 621.443 333.491 612.364L333.38 411.58C343.162 405.483 353.179 399.757 363.026 393.757L470.308 328.869C484.102 320.682 497.813 312.357 511.44 303.894Z"/><path fill="#3C096C" d="M507.645 450.108C541.855 447.718 571.552 473.451 574.056 507.653C576.559 541.855 550.925 571.638 516.732 574.255C482.377 576.885 452.423 551.104 449.907 516.74C447.392 482.377 473.273 452.508 507.645 450.108Z"/><path fill="#9D4EDD" d="M193.064 843.908C191.788 840.911 178.811 826.41 175.68 822.444C167.876 812.674 160.42 802.63 153.326 792.333C108.005 725.735 84.3014 644.464 90.6317 563.87C97.9588 465.126 144.237 373.344 219.274 308.74C268.385 266.461 327.948 238.146 391.741 226.753C398.24 225.569 420.091 221.808 425.575 222.254C348.276 261.379 289.883 329.854 263.459 412.363C257.014 432.584 252.292 452.878 250.284 474.101C249.976 477.353 249.924 486.151 249.199 488.844L248.887 497.975C248.719 581.975 281.232 657.011 340.373 716.45C388.771 764.555 449.374 798.547 515.657 814.767C519.937 815.835 545.618 821.972 548.858 821.238C553.287 823.3 570.328 824.888 575.638 825.275C746.987 837.766 913.253 715.762 954.153 549.022C957.72 534.479 960.071 518.95 961.791 504.089C963.274 490.807 963.961 477.449 963.85 464.085C963.811 459.661 962.304 432.141 963.843 429.908C988.367 564.556 951.628 703.131 863.618 807.944C781.785 905.401 663.218 964.581 536.143 971.397C409.068 978.212 284.851 932.053 193.064 843.908Z"/><path fill="#7B2CBF" d="M963.843 429.908C988.367 564.556 951.628 703.131 863.618 807.944C860.706 808.687 852.336 817.279 849.684 819.721C844.135 824.79 838.429 829.684 832.573 834.396C802.925 858.337 775.754 874.426 740.737 888.715C671.006 917.463 594.088 923.932 520.535 907.233C408.904 882.69 313.222 803.533 268.324 698.438C246.146 646.129 236.957 589.23 241.543 532.6C242.382 523.081 243.719 510.949 245.778 501.607C246.116 498.112 247.864 491.588 248.747 487.953L249.199 488.844L248.887 497.975C248.719 581.975 281.232 657.011 340.373 716.45C388.771 764.555 449.374 798.547 515.657 814.767C519.937 815.835 545.618 821.972 548.858 821.238C553.287 823.3 570.328 824.888 575.638 825.275C746.987 837.766 913.253 715.762 954.153 549.022C957.72 534.479 960.071 518.95 961.791 504.089C963.274 490.807 963.961 477.449 963.85 464.085C963.811 459.661 962.304 432.141 963.843 429.908Z"/><path fill="#5A189A" d="M359.209 78.4889C486.147 33.9204 626.236 47.1863 742.552 114.79C858.867 182.394 939.736 297.551 963.843 429.908C962.304 432.141 963.811 459.661 963.85 464.085C963.961 477.449 963.274 490.807 961.791 504.089C960.071 518.95 957.72 534.479 954.153 549.022C913.253 715.762 746.987 837.766 575.638 825.275C570.328 824.888 553.287 823.3 548.858 821.238C569.668 813.725 589.898 804.694 609.386 794.218C622.205 788.685 647.742 772.539 659.355 764.738C727.316 719.087 785.531 652.904 819.875 578.29C859.433 492.352 868.018 391.598 834.619 302.045C801.035 210.463 732.115 136.181 643.301 95.8415C567.099 61.3079 481.805 52.2178 400.036 69.9158C390.831 71.8571 368.873 76.563 360.656 79.6346L359.209 78.4889Z"/><path fill="#82508D" d="M359.209 78.4889L360.656 79.6346C357.393 80.4033 358.676 79.9605 356.087 79.5975C357.127 79.2243 358.167 78.8547 359.209 78.4889Z"/></svg>