<svg xmlns="http://www.w3.org/2000/svg" viewBox="0 0 128 128" role="img" aria-hidden="true">
  <defs>
    <linearGradient id="ax-export" x1="24" y1="18" x2="104" y2="110" gradientUnits="userSpaceOnUse">
      <stop stop-color="#C77DFF"/>
      <stop offset="1" stop-color="#441F84"/>
    </linearGradient>
  </defs>
  <path fill="url(#ax-export)" d="M34 20h39l21 21v67a10 10 0 0 1-10 10H34a10 10 0 0 1-10-10V30a10 10 0 0 1 10-10Zm37 8v16h16L71 28Z"/>
  <path fill="#fff" fill-opacity=".96" d="M64 43a5 5 0 0 1 5 5v23l8-8a5 5 0 0 1 7 7L67.5 86.5a5 5 0 0 1-7 0L44 70a5 5 0 1 1 7-7l8 8V48a5 5 0 0 1 5-5Z"/>
  <path fill="#fff" fill-opacity=".78" d="M43 96a5 5 0 0 1 5-5h32a5 5 0 0 1 0 10H48a5 5 0 0 1-5-5Z"/>
</svg>