<?xml version="1.0" encoding="UTF-8"?>
<svg id="Layer_1" xmlns="http://www.w3.org/2000/svg" width="800" height="600" xmlns:xlink="http://www.w3.org/1999/xlink" version="1.1" viewBox="0 0 800 600">
  <!-- Generator: Adobe Illustrator 29.6.0, SVG Export Plug-In . SVG Version: 2.1.1 Build 207)  -->
  <defs>
    <clipPath id="clippath">
      <circle cx="351.9" cy="199.4" r="31" fill="none"/>
    </clipPath>
    <clipPath id="clippath-1">
      <rect x="516.6" y="317.2" width="119.3" height="41.9" rx="4.8" ry="4.8" fill="none" stroke="#171d38" stroke-miterlimit="10"/>
    </clipPath>
  </defs>
  <path d="M385.1,150.2c-.1-.3-.2-.6-.4-.9-5.9-15.8-15-30-26.6-41.9-.2-.2-.3-.4-.5-.5-.1-.1-.3-.3-.4-.4-.2-.2-.3-.3-.5-.5-11.8-11.8-26-21.2-41.9-27.3-.3-.1-.6-.2-.9-.4-13.2-5-27.5-7.7-42.4-7.8h-.9c-14.9,0-29.2,2.8-42.4,7.9-.3.1-.6.2-.9.4-15.8,6.1-29.9,15.5-41.7,27.2l-.7.7-.2.2c-.2.2-.5.5-.7.7-11.4,11.8-20.5,26-26.4,41.7-.1.3-.2.6-.4.9-4.7,13-7.3,27-7.3,41.6v1.7c.2,14.9,3.1,29.2,8.3,42.4.1.3.2.6.4.9,5.9,14.7,14.6,28,25.4,39.2.3.3.6.6.9.9.8.8,1.5,1.5,2.3,2.3.3.3.7.6,1,.9,11.2,10.5,24.5,19,39.1,24.7.3.1.6.3.9.4,13.2,5,27.5,7.8,42.4,7.9h.9c14.9,0,29.2-2.8,42.4-7.8.3-.1.6-.2.9-.4,14.7-5.7,28-14.2,39.3-24.7.3-.3.7-.6,1-.9.7-.7,1.4-1.4,2.1-2.1.3-.3.6-.6.9-.9,10.9-11.2,19.6-24.6,25.6-39.3.1-.3.3-.6.4-.9,5.2-13.2,8.1-27.4,8.3-42.4v-1.7c0-14.6-2.5-28.6-7.3-41.6h0ZM183.9,274.7c-10.3-10.9-18.7-23.7-24.4-37.8h24.4v37.8ZM183.9,236h-24.8c-5.2-13.2-8.2-27.4-8.4-42.4h33.1v42.4ZM183.9,192.7h-33.1v-.8c0-14.6,2.6-28.6,7.4-41.6h25.8v42.4h0ZM183.9,149.3h-25.4c5.7-15.1,14.4-28.8,25.4-40.4v40.4h0ZM227.3,303.9c-14-5.5-26.8-13.6-37.7-23.7h37.7v23.7ZM227.3,279.3h-38.7c-1.2-1.2-2.5-2.4-3.7-3.6v-38.8h42.4v42.4h0ZM227.3,236h-42.4v-42.4h42.4v42.4ZM227.3,192.7h-42.4v-42.4h42.4v42.4ZM227.3,149.3h-42.4v-41.3c.4-.4.7-.7,1.1-1.1h41.3v42.4ZM227.3,106h-40.4c11.5-11.3,25.2-20.3,40.4-26.2v26.2ZM270.6,312.2c-14.9,0-29.2-2.9-42.4-7.9v-24.1h42.4v32ZM270.6,279.3h-42.4v-42.4h42.4v42.4h0ZM270.6,236h-42.4v-42.4h42.4v42.4ZM270.6,192.7h-42.4v-42.4h42.4v42.4ZM270.6,149.3h-42.4v-42.4h42.4v42.4ZM270.6,106h-42.4v-26.6c13.2-5,27.5-7.9,42.4-7.9v34.5ZM313.9,304.3c-13.2,5-27.5,7.8-42.4,7.8v-32h42.4v24.1h0ZM313.9,279.3h-42.4v-42.4h42.4v42.4h0ZM313.9,236h-42.4v-42.4h42.4v42.4h0ZM313.9,192.7h-42.4v-42.4h42.4v42.4h0ZM313.9,149.3h-42.4v-42.4h42.4v42.4h0ZM313.9,106h-42.4v-34.5c14.9,0,29.2,2.8,42.4,7.8v26.7h0ZM314.8,79.7c15.3,6,29.1,15,40.6,26.3h-40.6v-26.3ZM314.8,304v-23.8h37.9c-10.9,10.1-23.8,18.2-37.9,23.8ZM357.2,275.9c-1.1,1.2-2.3,2.3-3.5,3.4h-38.9v-42.4h42.4v39h0ZM357.2,236h-42.4v-42.4h42.4v42.4ZM357.2,192.7h-42.4v-42.4h42.4v42.4ZM357.2,149.3h-42.4v-42.4h41.5c.3.3.6.6.9.9v41.5ZM358.2,108.8c11.1,11.6,19.8,25.3,25.6,40.5h-25.6v-40.5h0ZM358.2,274.9v-38h24.6c-5.8,14.2-14.2,27.1-24.6,38ZM383.1,236h-25v-42.4h33.3c-.2,14.9-3.2,29.2-8.4,42.4ZM391.5,192.7h-33.3v-42.4h25.9c4.8,13,7.4,27,7.4,41.6,0,.3,0,.5,0,.8Z" fill="#70758c"/>
  <g>
    <path d="M259.7,511.1l.6-.3-.7.2c-4.4,1.3-9.1-.9-11-5.2l-.3-.6.2.7c1.3,4.4-.9,9.1-5.2,11l-.6.3.7-.2c4.4-1.3,9.1.9,11,5.2l.3.6-.2-.7c-1.3-4.4.9-9.1,5.2-11Z" fill="#41a42f"/>
    <path d="M310.6,517.8l.6-.3-.7.2c-4.4,1.3-9.1-.9-11-5.2l-.3-.6.2.7c1.3,4.4-.9,9.1-5.2,11l-.6.3.7-.2c4.4-1.3,9.1.9,11,5.2l.3.6-.2-.7c-1.3-4.4.9-9.1,5.2-11Z" fill="#41a42f"/>
    <path d="M237.1,461.8l.6-.3-.7.2c-4.4,1.3-9.1-.9-11-5.2l-.3-.6.2.7c1.3,4.4-.9,9.1-5.2,11l-.6.3.7-.2c4.4-1.3,9.1.9,11,5.2l.3.6-.2-.7c-1.3-4.4.9-9.1,5.2-11Z" fill="#41a42f"/>
  </g>
  <g>
    <rect x="281.8" y="131" width="279.8" height="355.8" rx="11.8" ry="11.8" fill="#70758c" stroke="#171d38" stroke-linecap="round" stroke-linejoin="round"/>
    <rect x="303.4" y="153" width="236.7" height="311.8" rx="2.4" ry="2.4" fill="#fff" stroke="#171d38" stroke-linecap="round" stroke-linejoin="round"/>
    <g>
      <g>
        <rect x="320.9" y="380.7" width="77" height="9.3" rx="3.7" ry="3.7" fill="#e8ebe4" stroke="#171d38" stroke-linecap="round" stroke-linejoin="round"/>
        <rect x="320.9" y="399.4" width="77" height="9.3" rx="3.7" ry="3.7" fill="#e8ebe4" stroke="#171d38" stroke-linecap="round" stroke-linejoin="round"/>
        <rect x="320.9" y="418" width="77" height="9.3" rx="3.7" ry="3.7" fill="#e8ebe4" stroke="#171d38" stroke-linecap="round" stroke-linejoin="round"/>
      </g>
      <g>
        <rect x="444.6" y="380.7" width="77" height="9.3" rx="3.7" ry="3.7" fill="#e8ebe4" stroke="#171d38" stroke-linecap="round" stroke-linejoin="round"/>
        <rect x="444.6" y="399.4" width="77" height="9.3" rx="3.7" ry="3.7" fill="#e8ebe4" stroke="#171d38" stroke-linecap="round" stroke-linejoin="round"/>
        <rect x="444.6" y="418" width="77" height="9.3" rx="3.7" ry="3.7" fill="#e8ebe4" stroke="#171d38" stroke-linecap="round" stroke-linejoin="round"/>
      </g>
      <g>
        <rect x="446.3" y="277.6" width="75.3" height="9.3" rx="4.7" ry="4.7" fill="#f9c57a" stroke="#171d38" stroke-linecap="round" stroke-linejoin="round"/>
        <rect x="446.3" y="296.2" width="75.3" height="9.3" rx="4.7" ry="4.7" fill="#f9c57a" stroke="#171d38" stroke-linecap="round" stroke-linejoin="round"/>
        <rect x="446.3" y="314.9" width="75.3" height="9.3" rx="4.7" ry="4.7" fill="#f9c57a" stroke="#171d38" stroke-linecap="round" stroke-linejoin="round"/>
        <rect x="459.2" y="209.3" width="49.6" height="9.3" rx="4.7" ry="4.7" fill="#9aa6e2" stroke="#171d38" stroke-linecap="round" stroke-linejoin="round"/>
        <rect x="446.3" y="228" width="75.3" height="9.3" rx="4.7" ry="4.7" fill="#9aa6e2" stroke="#171d38" stroke-linecap="round" stroke-linejoin="round"/>
        <rect x="446.3" y="246.6" width="75.3" height="9.3" rx="4.7" ry="4.7" fill="#9aa6e2" stroke="#171d38" stroke-linecap="round" stroke-linejoin="round"/>
      </g>
      <line x1="320.2" y1="352.4" x2="523.3" y2="352.4" fill="none" stroke="#171d38" stroke-linecap="round" stroke-linejoin="round"/>
      <g>
        <rect x="412.6" y="214.6" width="15.3" height="113" fill="#41a42f" stroke="#171d38" stroke-linecap="round" stroke-linejoin="round"/>
        <rect x="388" y="243" width="15.3" height="84.6" fill="#41a42f" stroke="#171d38" stroke-linecap="round" stroke-linejoin="round"/>
        <rect x="363.4" y="269.2" width="15.3" height="58.5" fill="#21635e" stroke="#171d38" stroke-linecap="round" stroke-linejoin="round"/>
        <rect x="338.7" y="287.4" width="15.3" height="40.3" fill="#21635e" stroke="#171d38" stroke-linecap="round" stroke-linejoin="round"/>
      </g>
      <g>
        <g clip-path="url(#clippath)">
          <circle cx="351.9" cy="199.4" r="32.1" fill="#419f9b"/>
          <polygon points="385.6 231.8 352.9 231.8 352.9 199.1 383.7 216 385.6 231.8" fill="#9aa6e2"/>
          <polygon points="385.6 231.8 352.9 199.1 385.6 199.1 385.6 231.8" fill="#f9c57a"/>
          <circle cx="351.9" cy="199.4" r="7.2" fill="#fff" stroke="#171d38" stroke-linecap="round" stroke-linejoin="round"/>
        </g>
        <circle cx="351.9" cy="199.4" r="31.1" fill="none" stroke="#171d38" stroke-linecap="round" stroke-linejoin="round"/>
      </g>
    </g>
    <path d="M363.5,131h116.4v21c0,6.5-5.3,11.8-11.8,11.8h-92.8c-6.5,0-11.8-5.3-11.8-11.8v-21h0Z" fill="#45495d" stroke="#171d38" stroke-linecap="round" stroke-linejoin="round"/>
    <path d="M421.7,123.2c-3.9,0-7.1-3.2-7.1-7.1s3.2-7.1,7.1-7.1,7.1,3.2,7.1,7.1-3.2,7.1-7.1,7.1ZM421.7,102.9c-9.7,0-17.5,7.9-17.5,17.5v25.2h35.1v-25.2c0-9.7-7.9-17.5-17.5-17.5Z" fill="#45495d" stroke="#171d38" stroke-linecap="round" stroke-linejoin="round"/>
  </g>
  <g>
    <rect x="502.3" y="300.8" width="147.8" height="208.4" rx="11.8" ry="11.8" fill="#419f9b" stroke="#171d38" stroke-linecap="round" stroke-linejoin="round"/>
    <rect x="516.6" y="317.2" width="119.3" height="41.9" rx="4.8" ry="4.8" fill="#21635e" stroke="#171d38" stroke-linecap="round" stroke-linejoin="round"/>
    <g>
      <rect x="516.4" y="370.7" width="26.6" height="26.6" rx="4.7" ry="4.7" fill="#30817c" stroke="#171d38" stroke-linecap="round" stroke-linejoin="round"/>
      <rect x="547.4" y="370.7" width="26.6" height="26.6" rx="4.7" ry="4.7" fill="#30817c" stroke="#171d38" stroke-linecap="round" stroke-linejoin="round"/>
      <rect x="578.3" y="370.7" width="26.6" height="26.6" rx="4.7" ry="4.7" fill="#30817c" stroke="#171d38" stroke-linecap="round" stroke-linejoin="round"/>
      <rect x="609.3" y="370.7" width="26.6" height="26.6" rx="4.7" ry="4.7" fill="#30817c" stroke="#171d38" stroke-linecap="round" stroke-linejoin="round"/>
      <rect x="516.4" y="404.1" width="26.6" height="26.6" rx="4.7" ry="4.7" fill="#30817c" stroke="#171d38" stroke-linecap="round" stroke-linejoin="round"/>
      <rect x="547.4" y="404.1" width="26.6" height="26.6" rx="4.7" ry="4.7" fill="#30817c" stroke="#171d38" stroke-linecap="round" stroke-linejoin="round"/>
      <rect x="578.3" y="404.1" width="26.6" height="26.6" rx="4.7" ry="4.7" fill="#30817c" stroke="#171d38" stroke-linecap="round" stroke-linejoin="round"/>
      <rect x="609.3" y="404.1" width="26.6" height="26.6" rx="4.7" ry="4.7" fill="#30817c" stroke="#171d38" stroke-linecap="round" stroke-linejoin="round"/>
      <rect x="516.4" y="437.5" width="26.6" height="26.6" rx="4.7" ry="4.7" fill="#30817c" stroke="#171d38" stroke-linecap="round" stroke-linejoin="round"/>
      <rect x="547.4" y="437.5" width="26.6" height="26.6" rx="4.7" ry="4.7" fill="#30817c" stroke="#171d38" stroke-linecap="round" stroke-linejoin="round"/>
      <rect x="578.3" y="437.5" width="26.6" height="26.6" rx="4.7" ry="4.7" fill="#30817c" stroke="#171d38" stroke-linecap="round" stroke-linejoin="round"/>
      <rect x="516.4" y="470.9" width="26.6" height="26.6" rx="4.7" ry="4.7" fill="#db4d52" stroke="#171d38" stroke-linecap="round" stroke-linejoin="round"/>
      <rect x="547.4" y="470.9" width="26.6" height="26.6" rx="4.7" ry="4.7" fill="#30817c" stroke="#171d38" stroke-linecap="round" stroke-linejoin="round"/>
      <rect x="578.3" y="470.9" width="26.6" height="26.6" rx="4.7" ry="4.7" fill="#30817c" stroke="#171d38" stroke-linecap="round" stroke-linejoin="round"/>
      <path d="M630,437.5h-14.8c-3.3,0-5.9,2.6-5.9,5.9v48.2c0,3.3,2.6,5.9,5.9,5.9h14.8c3.3,0,5.9-2.6,5.9-5.9v-48.2c0-3.3-2.6-5.9-5.9-5.9Z" fill="#21635e" stroke="#171d38" stroke-linecap="round" stroke-linejoin="round"/>
    </g>
    <g opacity=".3">
      <g clip-path="url(#clippath-1)">
        <rect x="501.3" y="332.2" width="145.2" height="12.7" transform="translate(-92.4 332.3) rotate(-30)" fill="#fff"/>
        <rect x="513.3" y="344.3" width="145.2" height="12.7" transform="translate(-96.8 339.9) rotate(-30)" fill="#fff"/>
      </g>
      <rect x="516.6" y="317.2" width="119.3" height="41.9" rx="4.8" ry="4.8" fill="none" stroke="#171d38" stroke-miterlimit="10"/>
    </g>
  </g>
  <g>
    <g>
      <circle cx="614.2" cy="183.7" r="18.8" fill="#f9c57a" stroke="#171d38" stroke-linecap="round" stroke-linejoin="round"/>
      <circle cx="614.2" cy="183.7" r="14.1" fill="none" stroke="#171d38" stroke-dasharray="3" stroke-linecap="round" stroke-linejoin="round"/>
      <path d="M609.5,186.4h1.6s.1,0,.1.1c0,.4.2.8.6,1.2.4.4.9.7,1.6.8,0,0,0,0,0,0v-4.2s0,0,0,0c-.8-.1-1.4-.3-2.1-.6-.4-.2-.7-.4-.9-.6-.5-.5-.8-1.2-.8-2.2s.5-1.9,1.2-2.5c.7-.6,1.6-.9,2.6-1,0,0,0,0,0,0v-1.4c0,0,0,0,0,0h1.2c0,0,0,0,0,0v1.5s0,0,0,0c1.8.3,3.4,1.4,3.5,3.5,0,0,0,0,0,0h-1.6c0,0,0,0,0,0,0-.9-.7-1.7-1.7-2,0,0,0,0,0,0v3.7c0,0,0,0,0,0,.9.1,1.6.3,2.3.7.4.2.6.4.9.7.5.5.8,1.3.8,2.3s-.3,1.6-.9,2.3c-.6.7-1.7,1.2-3,1.3,0,0,0,0,0,0v1.5c0,0,0,0,0,0h-1.2s0,0,0,0v-1.5c0,0,0,0,0,0-1.3-.1-2.2-.5-2.9-1.2-.7-.7-1.1-1.5-1.1-2.4s0,0,0,0ZM613.4,182.5c0,0,0,0,0,0v-3.6s0,0,0,0c-.6,0-1.1.3-1.4.7s-.6.8-.6,1.3c0,.9.7,1.5,2,1.7ZM614.9,188.4c0,0,0,.1,0,0,.7-.1,1.2-.4,1.6-.8.4-.4.6-.8.6-1.4s-.2-1.1-.6-1.4c-.4-.3-.9-.5-1.5-.6,0,0,0,0,0,0v3.9Z" fill="#171d38"/>
    </g>
    <g>
      <circle cx="542.2" cy="194.2" r="25.7" fill="#f9c57a" stroke="#171d38" stroke-linecap="round" stroke-linejoin="round"/>
      <circle cx="542.2" cy="194.2" r="20.3" fill="none" stroke="#171d38" stroke-dasharray="3" stroke-linecap="round" stroke-linejoin="round"/>
      <path d="M535.8,197.9h2.2c0,0,.1,0,.1.2,0,.6.3,1.2.8,1.7.5.6,1.3.9,2.2,1.1,0,0,.1,0,.1-.1v-5.7s0,0,0,0c-1.1-.2-2-.4-2.9-.9-.5-.2-.9-.5-1.2-.8-.7-.7-1.1-1.7-1.1-3s.6-2.6,1.6-3.4c1-.8,2.2-1.3,3.6-1.4,0,0,.1,0,.1-.1v-1.9c0,0,0-.1,0-.1h1.7c0,0,.1,0,.1.1v2s0,0,0,0c2.5.4,4.6,2,4.8,4.8,0,0,0,.1-.1.1h-2.2c0,0-.1,0-.1-.1,0-1.2-.9-2.3-2.3-2.7,0,0-.1,0-.1,0v5.1c0,0,0,.1.1.1,1.2.2,2.1.4,3.1.9.5.2.9.5,1.2.9.6.7,1.1,1.8,1.1,3.2s-.4,2.2-1.2,3.2c-.8,1-2.3,1.6-4.1,1.8,0,0-.1,0-.1.1v2c0,0,0,.1-.1.1h-1.7c0,0,0,0,0-.1v-2c0,0,0-.1-.1-.1-1.7-.2-3.1-.7-4-1.6-1-.9-1.5-2-1.5-3.3s0-.1.1-.1ZM541.1,192.6c0,0,.1,0,.1,0v-4.9c0,0,0-.1-.1,0-.8.1-1.5.4-2,.9-.5.5-.8,1.1-.8,1.8,0,1.3.9,2.1,2.7,2.4ZM543.1,200.7c0,.1,0,.1.1.1.9-.2,1.6-.5,2.2-1,.5-.5.8-1.2.8-1.9s-.3-1.5-.9-1.9c-.6-.4-1.2-.6-2.1-.8,0,0-.1,0-.1,0v5.4Z" fill="#171d38"/>
    </g>
    <g>
      <circle cx="205.8" cy="291.2" r="25.7" fill="#f9c57a" stroke="#171d38" stroke-linecap="round" stroke-linejoin="round"/>
      <circle cx="205.8" cy="291.2" r="20.3" fill="none" stroke="#171d38" stroke-dasharray="3" stroke-linecap="round" stroke-linejoin="round"/>
      <path d="M199.5,294.9h2.2c0,0,.1,0,.1.2,0,.6.3,1.2.8,1.7.5.6,1.3.9,2.2,1.1,0,0,.1,0,.1-.1v-5.7s0,0,0,0c-1.1-.2-2-.4-2.9-.9-.5-.2-.9-.5-1.2-.8-.7-.7-1.1-1.7-1.1-3s.6-2.6,1.6-3.4c1-.8,2.2-1.3,3.6-1.4,0,0,.1,0,.1-.1v-1.9c0,0,0-.1,0-.1h1.7c0,0,.1,0,.1.1v2s0,0,0,0c2.5.4,4.6,2,4.8,4.8,0,0,0,.1-.1.1h-2.2c0,0-.1,0-.1-.1,0-1.2-.9-2.3-2.3-2.7,0,0-.1,0-.1,0v5.1c0,0,0,.1.1.1,1.2.2,2.1.4,3.1.9.5.2.9.5,1.2.9.6.7,1.1,1.8,1.1,3.2s-.4,2.2-1.2,3.2c-.8,1-2.3,1.6-4.1,1.8,0,0-.1,0-.1.1v2c0,0,0,.1-.1.1h-1.7c0,0,0,0,0-.1v-2c0,0,0-.1-.1-.1-1.7-.2-3.1-.7-4-1.6-1-.9-1.5-2-1.5-3.3s0-.1.1-.1ZM204.8,289.6c0,0,.1,0,.1,0v-4.9c0,0,0-.1-.1,0-.8.1-1.5.4-2,.9-.5.5-.8,1.1-.8,1.8,0,1.3.9,2.1,2.7,2.4ZM206.8,297.7c0,.1,0,.1.1.1.9-.2,1.6-.5,2.2-1,.5-.5.8-1.2.8-1.9s-.3-1.5-.9-1.9c-.6-.4-1.2-.6-2.1-.8,0,0-.1,0-.1,0v5.4Z" fill="#171d38"/>
    </g>
    <g>
      <circle cx="583.1" cy="117.1" r="35.4" fill="#f9c57a" stroke="#171d38" stroke-linecap="round" stroke-linejoin="round"/>
      <circle cx="583.1" cy="117.1" r="29.7" fill="none" stroke="#171d38" stroke-dasharray="3" stroke-linecap="round" stroke-linejoin="round"/>
      <path d="M574.4,122.2h3c0,0,.2,0,.2.2,0,.8.4,1.6,1.1,2.3.7.8,1.7,1.3,3.1,1.5.1,0,.2,0,.2-.2v-7.8c0,0,0,0,0,0-1.5-.2-2.7-.5-4-1.2-.7-.3-1.2-.7-1.7-1.2-.9-.9-1.5-2.3-1.5-4.1s.8-3.6,2.2-4.7c1.3-1.1,3.1-1.8,4.9-2,.1,0,.2,0,.2-.2v-2.7c0-.1,0-.2.1-.2h2.3c.1,0,.2,0,.2.2v2.8s0,0,.1.1c3.5.6,6.4,2.7,6.5,6.6,0,.1,0,.2-.2.2h-3c-.1,0-.2,0-.2-.2,0-1.7-1.2-3.1-3.1-3.7,0,0-.2,0-.2.1v6.9c0,.1,0,.2.2.2,1.7.3,2.9.6,4.3,1.3.7.3,1.2.7,1.6,1.2.8.9,1.5,2.5,1.5,4.4s-.6,3.1-1.7,4.4c-1.1,1.3-3.1,2.2-5.7,2.5-.1,0-.2,0-.2.1v2.8c0,.1,0,.2-.2.2h-2.3c0,0-.1,0-.1-.2v-2.7c0-.1,0-.2-.2-.2-2.4-.2-4.2-1-5.5-2.2-1.3-1.3-2-2.8-2-4.5s0-.2.2-.2ZM581.7,114.9c.1,0,.2,0,.2-.1v-6.7c0,0-.1-.2-.2-.1-1.1.2-2,.6-2.7,1.3-.7.7-1.1,1.5-1.1,2.5,0,1.8,1.3,2.9,3.8,3.2ZM584.5,126c0,.1,0,.2.2.2,1.3-.2,2.2-.7,3-1.4.7-.7,1.1-1.6,1.1-2.5s-.4-2.1-1.2-2.6c-.8-.5-1.6-.8-2.8-1.1,0,0-.2,0-.2,0v7.4Z" fill="#171d38"/>
    </g>
  </g>
  <g id="Arrow">
    <polyline points="156.3 389.5 205.6 334.4 245.9 370.1 421.1 188.2" fill="none" stroke="#171d38" stroke-linecap="round" stroke-linejoin="round"/>
    <polyline points="411 187.4 421.7 187.4 421.7 198.1" fill="none" stroke="#171d38" stroke-linecap="round" stroke-linejoin="round"/>
  </g>
</svg>