<?xml version="1.0" encoding="UTF-8"?>
<svg id="Layer_1" xmlns="http://www.w3.org/2000/svg" width="800" height="600" xmlns:xlink="http://www.w3.org/1999/xlink" version="1.1" viewBox="0 0 800 600">
  <!-- Generator: Adobe Illustrator 29.6.0, SVG Export Plug-In . SVG Version: 2.1.1 Build 207)  -->
  <defs>
    <clipPath id="clippath">
      <rect x="353.3" y="302.5" width="40.6" height="128.5" fill="none"/>
    </clipPath>
    <clipPath id="clippath-1">
      <rect x="405" y="312.5" width="40.6" height="118.5" fill="none"/>
    </clipPath>
  </defs>
  <path d="M658.9,153.9c0-5.5-2-10.3-5.9-14.3-3-3.1-6.1-6.1-9.2-9.2-3.4-3.4-7.5-5.3-12.3-5.8-.5,0-1.1,0-1.7,0h-150.2c-.7,0-1.2,0-1.7,0-1.8.2-3.5.6-5.1,1.2-.5.2-1.1.4-1.6.7-1,.5-2,1.1-3,1.7-.5.3-.9.7-1.4,1.1-.5.4-.9.8-1.3,1.2-3.1,3-6.1,6.1-9.2,9.2-1,1-1.8,2-2.6,3.1-.7,1.1-1.4,2.2-1.9,3.4-.2.6-.5,1.2-.6,1.8-.6,1.9-.9,3.8-.9,5.9v174.4c0,.7,0,1.2,0,1.8.1,1.2.3,2.4.6,3.5.9,3.3,2.6,6.3,5.2,8.9,1,1,2,2,3,3l3,3c1,1,2.1,2.1,3.1,3.1,1,1,2,1.8,3.1,2.6s2.2,1.4,3.4,1.9c2.4,1,5,1.5,7.7,1.5h144.9c1.7,0,3.4,0,5.1,0,1.4,0,2.7-.2,4-.4,1.3-.2,2.5-.6,3.7-1.1,1.2-.5,2.3-1.1,3.4-1.9,1.1-.7,2.1-1.6,3.1-2.6,3.1-3,6.1-6.1,9.2-9.2.4-.4.8-.9,1.2-1.3,1.9-2.2,3.2-4.8,4-7.6.3-1.1.5-2.2.6-3.4,0-.6,0-1.2,0-1.8v-174.4h0ZM657.8,240.4h-50.6v-61.7h50.6v61.7ZM606,240.4h-50.8v-61.7h50.8v61.7ZM555.2,177.6v-51.9h50.8v51.9h-50.8ZM554,177.6h-50.8v-51.9h50.8v51.9ZM554,178.8v61.7h-50.8v-61.7h50.8ZM502.1,240.4h-50.6v-61.7h50.6v61.7ZM451.5,241.6h50.6v61.7h-50.6v-61.7h0ZM503.2,241.6h50.8v61.7h-50.8v-61.7h0ZM554,304.4v51.9h-50.8v-51.9h50.8ZM555.2,304.4h50.8v51.9h-50.8v-51.9h0ZM555.2,303.3v-61.7h50.8v61.7h-50.8ZM607.2,241.6h50.6v61.7h-50.6v-61.7h0ZM615,125.7h14.7c.6,0,1.1,0,1.6,0,4.5.5,8.4,2.3,11.6,5.5,3.1,3,6.1,6.1,9.2,9.2,3.7,3.7,5.5,8.2,5.6,13.4v23.7h-50.6v-51.9h7.9ZM451.5,153.9c0-2,.3-3.8.8-5.6.2-.6.4-1.2.6-1.7.5-1.1,1.1-2.2,1.7-3.2.7-1,1.5-2,2.4-2.9,3-3.1,6.1-6.1,9.2-9.2.4-.4.8-.8,1.2-1.1.4-.4.9-.7,1.3-1,.9-.6,1.8-1.2,2.8-1.6.5-.2,1-.4,1.5-.6,1.5-.5,3.1-.9,4.8-1.1.5,0,1,0,1.6,0h22.6v51.9h-50.6v-16.9c0-2.3,0-4.5,0-6.8h0ZM479.7,356.3c-2.6,0-5-.5-7.3-1.4-1.1-.5-2.2-1.1-3.2-1.7-1-.7-2-1.5-2.9-2.4-1.1-1-2.1-2.1-3.1-3.1l-3-3c-1-1-2-2-3-3-2.4-2.4-4-5.2-4.9-8.4-.3-1-.5-2.1-.6-3.3,0-.5,0-1,0-1.6v-23.9h50.6v51.9h-22.4ZM657.7,329.9c-.1,1.1-.3,2.2-.6,3.3-.7,2.6-2,5-3.7,7.1-.4.4-.7.9-1.1,1.2-3,3.1-6.1,6.1-9.2,9.2-.9.9-1.9,1.7-2.9,2.4s-2.1,1.3-3.2,1.7c-1.1.5-2.3.8-3.5,1.1-1.2.2-2.5.4-3.8.4h-22.4v-51.9h50.6v23.8c0,.5,0,1.1,0,1.6h0Z" fill="#70758c"/>
  <g>
    <path d="M159.6,328.8s-16.3-13.3-27.9-8.5c-9,3.7,2.8,22.3,3.5,31.5" fill="#f9c57a" stroke="#171d38" stroke-linecap="round" stroke-linejoin="round"/>
    <path d="M132,340.1s-3.5-15.2,3.5-13.8c6.9,1.4,15.4,9.7,15.4,9.7l-15.9,12.2-3-8.1Z" fill="#b3862d" stroke="#171d38" stroke-linecap="round" stroke-linejoin="round"/>
    <ellipse cx="183.1" cy="450.3" rx="9.4" ry="18.9" fill="#b3862d" stroke="#171d38" stroke-linecap="round" stroke-linejoin="round"/>
    <path d="M204.6,316.8c-49,0-88.7,31.2-88.7,69.8s8.9,55.5,49.9,64.3c.2,10.2,4.3,18.4,9.4,18.4s8.5-6.8,9.3-15.7c5.9.5,12.3.8,19.2.8,73.9,0,89.5-29.2,89.5-67.8s-39.7-69.8-88.7-69.8Z" fill="#f9c57a" stroke="#171d38" stroke-linecap="round" stroke-linejoin="round"/>
    <path d="M206.8,327.6c12.5,0,23.6,1.9,30.6,4.8-4.5-5.1-16.5-8.7-30.6-8.7s-25,2.9-29.6,7.9c7.1-2.9,17.1-4,29.6-4Z" fill="#6e83e8" stroke="#171d38" stroke-linecap="round" stroke-linejoin="round"/>
    <path d="M164,332.5s4.9-17.7,12.7-17.7,28.7,14.4,28.7,35.7" fill="#f9c57a" stroke="#171d38" stroke-linecap="round" stroke-linejoin="round"/>
    <path d="M167,336.4s4.6-16.6,9.4-16.8c4.8-.2,13.6,12.2,15.4,35.7,0,0-5.8-14.7-24.9-18.9Z" fill="#b3862d" stroke="#171d38" stroke-linecap="round" stroke-linejoin="round"/>
    <ellipse cx="131.6" cy="376.5" rx="23.5" ry="20.1" fill="#b3862d" stroke="#171d38" stroke-linecap="round" stroke-linejoin="round"/>
    <ellipse cx="128.8" cy="375.1" rx="23.5" ry="20.1" fill="#f9c57a" stroke="#171d38" stroke-linecap="round" stroke-linejoin="round"/>
    <ellipse cx="119.9" cy="375.9" rx="3.8" ry="7.6" transform="translate(-11 3.7) rotate(-1.7)" fill="#171d38"/>
    <ellipse cx="135.4" cy="376.3" rx="3.8" ry="7.6" transform="translate(-11 4.1) rotate(-1.7)" fill="#171d38"/>
    <circle cx="155.3" cy="354" r="4.3" fill="#171d38"/>
    <circle cx="137.3" cy="351.6" r="4.3" fill="#171d38"/>
  </g>
  <g>
    <g>
      <rect x="173" y="154.3" width="168.2" height="68.2" transform="translate(315.1 -125.1) rotate(64.2)" fill="#399465" stroke="#171d38" stroke-linecap="round" stroke-linejoin="round"/>
      <path d="M305.1,249.2c-2-4.2-.3-9.3,4-11.3,0,0,.1,0,.2,0l-58.3-120.9c0,0-.1,0-.2,0-4.2,2-9.3.3-11.3-4,0,0,0-.1,0-.2l-30.2,14.6c0,0,0,.1,0,.2,2,4.2.3,9.3-4,11.3,0,0-.1,0-.2,0l58.3,120.9c0,0,.1,0,.2,0,4.2-2,9.3-.3,11.3,4,0,0,0,.1,0,.2l30.2-14.6c0,0,0-.1,0-.2Z" fill="#50cb87" stroke="#171d38" stroke-linecap="round" stroke-linejoin="round"/>
      <circle cx="257.1" cy="188.4" r="16.6" fill="#399465" stroke="#171d38" stroke-linecap="round" stroke-linejoin="round"/>
    </g>
    <g>
      <rect x="139.8" y="178.8" width="168.2" height="68.2" transform="translate(181.7 -93.1) rotate(38.6)" fill="#399465" stroke="#171d38" stroke-linecap="round" stroke-linejoin="round"/>
      <path d="M293.4,247c-3.7-2.9-4.3-8.3-1.3-11.9,0,0,0,0,.1-.1l-104.9-83.7s0,0-.1.1c-2.9,3.7-8.3,4.3-11.9,1.3,0,0,0,0-.1-.1l-20.9,26.2s0,0,.1.1c3.7,2.9,4.3,8.3,1.3,11.9s0,0-.1.1l104.9,83.7s0,0,.1-.1c2.9-3.7,8.3-4.3,11.9-1.3,0,0,0,0,.1.1l20.9-26.2s0,0-.1-.1Z" fill="#50cb87" stroke="#171d38" stroke-linecap="round" stroke-linejoin="round"/>
      <circle cx="223.9" cy="212.9" r="16.6" fill="#399465" stroke="#171d38" stroke-linecap="round" stroke-linejoin="round"/>
    </g>
    <g>
      <rect x="122.4" y="213.5" width="168.2" height="68.2" transform="translate(49.2 -33.9) rotate(10.6)" fill="#399465" stroke="#171d38" stroke-linecap="round" stroke-linejoin="round"/>
      <path d="M283.9,245c-4.6-.9-7.6-5.3-6.8-9.9s0-.1,0-.2l-131.9-24.8c0,0,0,.1,0,.2-.9,4.6-5.3,7.6-9.9,6.8s-.1,0-.2,0l-6.2,33c0,0,.1,0,.2,0,4.6.9,7.6,5.3,6.8,9.9s0,.1,0,.2l131.9,24.8c0,0,0-.1,0-.2.9-4.6,5.3-7.6,9.9-6.8,0,0,.1,0,.2,0l6.2-33c0,0-.1,0-.2,0Z" fill="#50cb87" stroke="#171d38" stroke-linecap="round" stroke-linejoin="round"/>
      <circle cx="206.5" cy="247.5" r="16.6" fill="#399465" stroke="#171d38" stroke-linecap="round" stroke-linejoin="round"/>
    </g>
  </g>
  <g>
    <path d="M625.5,100.2l-.3.6.2-.7c1.4-4.3-.6-8.9-4.7-10.8l-.6-.3.7.2c4.3,1.4,8.9-.6,10.8-4.7l.3-.6-.2.7c-1.4,4.3.6,8.9,4.7,10.8l.6.3-.7-.2c-4.3-1.4-8.9.6-10.8,4.7Z" fill="#b3862d"/>
    <path d="M675.3,110.2l-.4.6.2-.7c1.6-4.2-.2-8.9-4.2-11l-.6-.4.7.2c4.2,1.6,8.9-.2,11-4.2l.4-.6-.2.7c-1.6,4.2.2,8.9,4.2,11l.6.4-.7-.2c-4.2-1.6-8.9.2-11,4.2Z" fill="#b3862d"/>
    <path d="M683.6,163.8l-.4.6.2-.7c1.5-4.2-.2-8.9-4.2-11l-.6-.4.7.2c4.2,1.5,8.9-.2,11-4.2l.4-.6-.2.7c-1.5,4.2.2,8.9,4.2,11l.6.4-.7-.2c-4.2-1.5-8.9.2-11,4.2Z" fill="#b3862d"/>
  </g>
  <g>
    <rect x="226.4" y="236" width="345" height="235.9" fill="#45495d" stroke="#171d38" stroke-linecap="round" stroke-linejoin="round"/>
    <g>
      <rect x="346.3" y="282.1" width="105.1" height="189.2" fill="#45495d" stroke="#171d38" stroke-linecap="round" stroke-linejoin="round"/>
      <rect x="404.5" y="292.5" width="41.6" height="168.5" fill="#596ecb" stroke="#171d38" stroke-linecap="round" stroke-linejoin="round"/>
      <rect x="352.8" y="292.5" width="41.6" height="168.5" fill="#596ecb" stroke="#171d38" stroke-linecap="round" stroke-linejoin="round"/>
      <line x1="398.9" y1="282.4" x2="398.9" y2="472.4" fill="#45495d" stroke="#171d38" stroke-linecap="round" stroke-linejoin="round"/>
      <rect x="340.6" y="271.7" width="116.5" height="12.1" fill="#50cb87" stroke="#171d38" stroke-linecap="round" stroke-linejoin="round"/>
      <g clip-path="url(#clippath)">
        <rect x="315" y="326.6" width="132.9" height="13" transform="translate(-102 182.2) rotate(-23.8)" fill="#fff" opacity=".3"/>
        <rect x="321.8" y="342.2" width="132.9" height="13" transform="translate(-107.7 186.3) rotate(-23.8)" fill="#fff" opacity=".3"/>
      </g>
      <g clip-path="url(#clippath-1)">
        <rect x="366.7" y="326.6" width="132.9" height="13" transform="translate(-97.6 203.1) rotate(-23.8)" fill="#fff" opacity=".3"/>
        <rect x="373.6" y="342.2" width="132.9" height="13" transform="translate(-103.3 207.2) rotate(-23.8)" fill="#fff" opacity=".3"/>
      </g>
    </g>
    <polygon points="398.9 141 248.5 221.4 549.2 221.4 398.9 141" fill="#596ecb" stroke="#171d38" stroke-linecap="round" stroke-linejoin="round"/>
    <rect x="226.4" y="217.1" width="345" height="12.1" fill="#70758c" stroke="#171d38" stroke-linecap="round" stroke-linejoin="round"/>
    <g>
      <rect x="479" y="259" width="31.3" height="198.3" fill="#70758c" stroke="#171d38" stroke-linecap="round" stroke-linejoin="round"/>
      <rect x="474" y="456.1" width="41.2" height="7.7" fill="#70758c" stroke="#171d38" stroke-linecap="round" stroke-linejoin="round"/>
      <rect x="469.9" y="463.6" width="49.5" height="7.7" fill="#70758c" stroke="#171d38" stroke-linecap="round" stroke-linejoin="round"/>
      <rect x="474" y="252.5" width="41.2" height="7.7" transform="translate(989.2 512.7) rotate(180)" fill="#70758c" stroke="#171d38" stroke-linecap="round" stroke-linejoin="round"/>
      <rect x="469.9" y="245.1" width="49.5" height="7.7" transform="translate(989.2 497.8) rotate(180)" fill="#70758c" stroke="#171d38" stroke-linecap="round" stroke-linejoin="round"/>
    </g>
    <g>
      <rect x="547.3" y="259" width="31.3" height="198.3" fill="#70758c" stroke="#171d38" stroke-linecap="round" stroke-linejoin="round"/>
      <rect x="542.4" y="456.1" width="41.2" height="7.7" fill="#70758c" stroke="#171d38" stroke-linecap="round" stroke-linejoin="round"/>
      <rect x="538.2" y="463.6" width="49.5" height="7.7" fill="#70758c" stroke="#171d38" stroke-linecap="round" stroke-linejoin="round"/>
      <rect x="542.4" y="252.5" width="41.2" height="7.7" transform="translate(1125.9 512.7) rotate(180)" fill="#70758c" stroke="#171d38" stroke-linecap="round" stroke-linejoin="round"/>
      <rect x="538.2" y="245.1" width="49.5" height="7.7" transform="translate(1125.9 497.8) rotate(180)" fill="#70758c" stroke="#171d38" stroke-linecap="round" stroke-linejoin="round"/>
    </g>
    <g>
      <rect x="289.7" y="259" width="31.3" height="198.3" fill="#70758c" stroke="#171d38" stroke-linecap="round" stroke-linejoin="round"/>
      <rect x="284.8" y="456.1" width="41.2" height="7.7" fill="#70758c" stroke="#171d38" stroke-linecap="round" stroke-linejoin="round"/>
      <rect x="280.6" y="463.6" width="49.5" height="7.7" fill="#70758c" stroke="#171d38" stroke-linecap="round" stroke-linejoin="round"/>
      <rect x="284.8" y="252.5" width="41.2" height="7.7" transform="translate(610.7 512.7) rotate(180)" fill="#70758c" stroke="#171d38" stroke-linecap="round" stroke-linejoin="round"/>
      <rect x="280.6" y="245.1" width="49.5" height="7.7" transform="translate(610.7 497.8) rotate(180)" fill="#70758c" stroke="#171d38" stroke-linecap="round" stroke-linejoin="round"/>
    </g>
    <g>
      <rect x="221.4" y="259" width="31.3" height="198.3" fill="#70758c" stroke="#171d38" stroke-linecap="round" stroke-linejoin="round"/>
      <rect x="216.5" y="456.1" width="41.2" height="7.7" fill="#70758c" stroke="#171d38" stroke-linecap="round" stroke-linejoin="round"/>
      <rect x="212.3" y="463.6" width="49.5" height="7.7" fill="#70758c" stroke="#171d38" stroke-linecap="round" stroke-linejoin="round"/>
      <rect x="216.5" y="252.5" width="41.2" height="7.7" transform="translate(474.1 512.7) rotate(180)" fill="#70758c" stroke="#171d38" stroke-linecap="round" stroke-linejoin="round"/>
      <rect x="212.3" y="245.1" width="49.5" height="7.7" transform="translate(474.1 497.8) rotate(180)" fill="#70758c" stroke="#171d38" stroke-linecap="round" stroke-linejoin="round"/>
    </g>
    <rect x="201.1" y="228.5" width="395.5" height="17.3" fill="#70758c" stroke="#171d38" stroke-linecap="round" stroke-linejoin="round"/>
    <g>
      <circle cx="396.9" cy="160.3" r="45.6" fill="#50cb87" stroke="#171d38" stroke-linecap="round" stroke-linejoin="round"/>
      <circle cx="396.9" cy="160.3" r="38.8" fill="#45495d" stroke="#171d38" stroke-linecap="round" stroke-linejoin="round"/>
      <path d="M378.8,171.1h4.2c.2,0,.3.1.3.4,0,4.3,3.7,8.6,10.2,9.7.3,0,.5,0,.5-.3v-19.1c0-.2-.1-.4-.4-.4-7.4-1.1-14.6-4-14.6-13s7-12.6,14.6-13.5c.2,0,.3-.2.4-.3v-5.7c0-.2.1-.3.3-.3h4.3c.2,0,.3.1.3.3v5.7c0,.2.1.4.4.4,7.5,1.2,14.1,5.4,14.2,14,0,.2-.1.3-.3.4h-4.2c-.2,0-.3-.1-.4-.4,0-2.8-.9-5-2.6-6.7-1.7-1.6-3.9-2.6-6.6-3.1-.3-.1-.5,0-.5.3v17.7c0,.3.2.4.5.4,7.9.9,16,3.1,16,13.8s-6.7,13.5-16.1,14.2c-.2,0-.3.1-.3.4v5.8c0,.2-.1.3-.3.3h-4.3c-.2,0-.3-.1-.3-.3v-5.9c0-.2-.1-.3-.4-.4-9.5-1.1-15.2-7-15.2-14.1s.1-.3.3-.4ZM393.6,157c.3.1.4,0,.4-.3v-17.2c0-.2-.1-.3-.4-.3-5.3.9-9.6,4.4-9.6,9.2,0,3.7,1.6,7.2,9.5,8.6ZM399,181.2c0,.3.2.4.6.4,5.9-.8,11-4.2,11-10s-5.4-8.8-11.1-9.6c-.3,0-.4.1-.4.3v18.9Z" fill="#fff"/>
    </g>
  </g>
  <g>
    <rect x="148.3" y="469.9" width="501.2" height="19.2" fill="#50cb87" stroke="#171d38" stroke-linecap="round" stroke-linejoin="round"/>
    <rect x="126.1" y="488.5" width="545.6" height="27.1" fill="#50cb87" stroke="#171d38" stroke-linecap="round" stroke-linejoin="round"/>
  </g>
  <g>
    <g>
      <rect x="545.8" y="307.1" width="141.2" height="84.7" rx="5.9" ry="5.9" transform="translate(-68 165.8) rotate(-14.5)" fill="#70758c" stroke="#171d38" stroke-linecap="round" stroke-linejoin="round"/>
      <rect x="539.2" y="317.9" width="141.1" height="11.8" transform="translate(-61.7 163.4) rotate(-14.5)" fill="#45495d"/>
      <rect x="559.9" y="369.7" width="19.1" height="6.1" rx="3" ry="3" transform="translate(-75.3 154.8) rotate(-14.5)" fill="#6e83e8" stroke="#171d38" stroke-linecap="round" stroke-linejoin="round"/>
      <rect x="583.8" y="363.5" width="19.1" height="6.1" rx="3" ry="3" transform="translate(-73 160.6) rotate(-14.5)" fill="#6e83e8" stroke="#171d38" stroke-linecap="round" stroke-linejoin="round"/>
      <rect x="607.7" y="357.3" width="19.1" height="6.1" rx="3" ry="3" transform="translate(-70.7 166.4) rotate(-14.5)" fill="#6e83e8" stroke="#171d38" stroke-linecap="round" stroke-linejoin="round"/>
      <rect x="631.6" y="351.1" width="19.1" height="6.1" rx="3" ry="3" transform="translate(-68.3 172.2) rotate(-14.5)" fill="#e9ece4" stroke="#171d38" stroke-linecap="round" stroke-linejoin="round"/>
      <rect x="562.7" y="379.2" width="56.1" height="4" rx="2" ry="2" transform="translate(-76.8 160.4) rotate(-14.5)" fill="#f26476" stroke="#171d38" stroke-linecap="round" stroke-linejoin="round"/>
      <rect x="564.2" y="384.6" width="63.1" height="4" rx="2" ry="2" transform="translate(-77.9 161.8) rotate(-14.5)" fill="#db4d52" stroke="#171d38" stroke-linecap="round" stroke-linejoin="round"/>
      <rect x="665.6" y="343.3" width="12.1" height="4" rx="2" ry="2" transform="translate(-65.2 179.6) rotate(-14.5)" fill="#e9ece4" stroke="#171d38" stroke-linecap="round" stroke-linejoin="round"/>
      <rect x="555.5" y="347.5" width="57" height="12.1" transform="translate(-70 157.9) rotate(-14.5)" fill="#f9c57a" stroke="#171d38" stroke-linecap="round" stroke-linejoin="round"/>
      <rect x="662.4" y="325.6" width="12.1" height="12.1" transform="translate(-61.8 178.3) rotate(-14.5)" fill="#e9ece4" stroke="#171d38" stroke-linecap="round" stroke-linejoin="round"/>
      <rect x="616.9" y="337.4" width="12.1" height="12.1" transform="translate(-66.2 167.3) rotate(-14.5)" fill="#e9ece4" stroke="#171d38" stroke-linecap="round" stroke-linejoin="round"/>
      <rect x="545.8" y="307.1" width="141.2" height="84.7" rx="5.9" ry="5.9" transform="translate(-68 165.8) rotate(-14.5)" fill="none" stroke="#171d38" stroke-linecap="round" stroke-linejoin="round"/>
    </g>
    <g>
      <rect x="536.8" y="339.3" width="141.2" height="84.7" rx="5.9" ry="5.9" transform="translate(101.6 -127) rotate(13)" fill="#70758c" stroke="#171d38" stroke-linecap="round" stroke-linejoin="round"/>
      <rect x="542.8" y="350" width="141.1" height="11.8" transform="translate(95.9 -129) rotate(13)" fill="#45495d"/>
      <rect x="545.4" y="377.6" width="19.1" height="6.1" rx="3" ry="3" transform="translate(100 -115.2) rotate(13)" fill="#6e83e8" stroke="#171d38" stroke-linecap="round" stroke-linejoin="round"/>
      <rect x="569.5" y="383.1" width="19.1" height="6.1" rx="3" ry="3" transform="translate(101.9 -120.5) rotate(13)" fill="#6e83e8" stroke="#171d38" stroke-linecap="round" stroke-linejoin="round"/>
      <rect x="593.5" y="388.7" width="19.1" height="6.1" rx="3" ry="3" transform="translate(103.7 -125.8) rotate(13)" fill="#6e83e8" stroke="#171d38" stroke-linecap="round" stroke-linejoin="round"/>
      <rect x="617.6" y="394.2" width="19.1" height="6.1" rx="3" ry="3" transform="translate(105.6 -131.1) rotate(13)" fill="#e9ece4" stroke="#171d38" stroke-linecap="round" stroke-linejoin="round"/>
      <rect x="541.9" y="396" width="56.1" height="4" rx="2" ry="2" transform="translate(104.3 -118.2) rotate(13)" fill="#f26476" stroke="#171d38" stroke-linecap="round" stroke-linejoin="round"/>
      <rect x="540.4" y="403.1" width="63.1" height="4" rx="2" ry="2" transform="translate(105.9 -118.4) rotate(13)" fill="#db4d52" stroke="#171d38" stroke-linecap="round" stroke-linejoin="round"/>
      <rect x="652.2" y="401.6" width="12.1" height="4" rx="2" ry="2" transform="translate(107.8 -137.9) rotate(13)" fill="#e9ece4" stroke="#171d38" stroke-linecap="round" stroke-linejoin="round"/>
      <rect x="548.3" y="364.3" width="57" height="12.1" transform="translate(98.2 -120.4) rotate(13)" fill="#f9c57a" stroke="#171d38" stroke-linecap="round" stroke-linejoin="round"/>
      <rect x="655.7" y="383.9" width="12.1" height="12.1" transform="translate(104.8 -139) rotate(13)" fill="#e9ece4" stroke="#171d38" stroke-linecap="round" stroke-linejoin="round"/>
      <rect x="609.9" y="373.4" width="12.1" height="12.1" transform="translate(101.3 -129) rotate(13)" fill="#e9ece4" stroke="#171d38" stroke-linecap="round" stroke-linejoin="round"/>
      <rect x="536.8" y="339.3" width="141.2" height="84.7" rx="5.9" ry="5.9" transform="translate(101.6 -127) rotate(13)" fill="none" stroke="#171d38" stroke-linecap="round" stroke-linejoin="round"/>
    </g>
  </g>
</svg>