<?xml version="1.0" encoding="UTF-8"?>
<svg xmlns="http://www.w3.org/2000/svg" width="423" height="505" version="1.1" viewBox="0 0 423 505">
  <defs>
    <style>
      .cls-1 {
        stroke-dasharray: 1.7 1.7;
      }

      .cls-1, .cls-2, .cls-3, .cls-4, .cls-5, .cls-6, .cls-7, .cls-8, .cls-9, .cls-10, .cls-11, .cls-12, .cls-13, .cls-14, .cls-15, .cls-16, .cls-17, .cls-18, .cls-19, .cls-20, .cls-21, .cls-22, .cls-23, .cls-24, .cls-25, .cls-26, .cls-27, .cls-28, .cls-29, .cls-30, .cls-31 {
        stroke-linejoin: round;
      }

      .cls-1, .cls-2, .cls-3, .cls-4, .cls-5, .cls-6, .cls-7, .cls-8, .cls-9, .cls-10, .cls-11, .cls-12, .cls-13, .cls-14, .cls-16, .cls-17, .cls-18, .cls-19, .cls-20, .cls-21, .cls-22, .cls-23, .cls-24, .cls-25, .cls-26, .cls-27, .cls-28, .cls-29, .cls-30, .cls-31 {
        stroke-linecap: round;
      }

      .cls-1, .cls-5, .cls-14, .cls-19, .cls-22, .cls-25, .cls-26, .cls-30, .cls-31, .cls-32 {
        fill: none;
      }

      .cls-1, .cls-5, .cls-19, .cls-25, .cls-31 {
        stroke: #1ba39c;
      }

      .cls-2, .cls-3, .cls-33, .cls-4, .cls-6, .cls-7, .cls-8, .cls-9, .cls-10, .cls-11, .cls-12, .cls-13, .cls-14, .cls-15, .cls-17, .cls-18, .cls-34, .cls-35, .cls-20, .cls-21, .cls-22, .cls-23, .cls-24, .cls-36, .cls-26, .cls-27, .cls-28, .cls-29, .cls-30, .cls-32, .cls-37 {
        stroke: #171c3a;
      }

      .cls-2, .cls-15, .cls-27, .cls-28 {
        fill: #e9ece4;
      }

      .cls-3 {
        fill: #9b9c98;
      }

      .cls-33, .cls-34, .cls-35 {
        fill: #48ffd3;
      }

      .cls-33, .cls-32, .cls-37 {
        stroke-miterlimit: 10;
      }

      .cls-4 {
        stroke-width: 1px;
      }

      .cls-4, .cls-17 {
        fill: #ffc56d;
      }

      .cls-5 {
        stroke-dasharray: 2 2;
      }

      .cls-6 {
        stroke-width: .4px;
      }

      .cls-6, .cls-7, .cls-8, .cls-9, .cls-10, .cls-11, .cls-12, .cls-13, .cls-18 {
        fill: #171c3a;
      }

      .cls-7 {
        stroke-width: .4px;
      }

      .cls-8 {
        stroke-width: .4px;
      }

      .cls-9 {
        stroke-width: .4px;
      }

      .cls-10 {
        stroke-width: .4px;
      }

      .cls-11 {
        stroke-width: .4px;
      }

      .cls-12 {
        stroke-width: .4px;
      }

      .cls-13 {
        stroke-width: .4px;
      }

      .cls-14 {
        stroke-dasharray: 4.1 4.1;
      }

      .cls-16 {
        fill: #00fa6c;
        stroke: #00fa6c;
      }

      .cls-19 {
        stroke-dasharray: 2;
      }

      .cls-34 {
        stroke-miterlimit: 10;
        stroke-width: 1px;
      }

      .cls-35 {
        stroke-miterlimit: 10;
      }

      .cls-35, .cls-24 {
        stroke-width: 1px;
      }

      .cls-20 {
        fill: #e73c4e;
      }

      .cls-38, .cls-24, .cls-29 {
        fill: #fff;
      }

      .cls-21 {
        fill: #ff5574;
      }

      .cls-22 {
        stroke-dasharray: 4;
      }

      .cls-23 {
        fill: #ffe3bb;
      }

      .cls-36 {
        stroke-miterlimit: 10;
      }

      .cls-36, .cls-28 {
        stroke-width: 1px;
      }

      .cls-36, .cls-37 {
        fill: #00d181;
      }

      .cls-26 {
        stroke-width: 3px;
      }

      .cls-27 {
        stroke-width: 1px;
      }

      .cls-31 {
        stroke-dasharray: 1.9 1.9;
      }

      .cls-39 {
        display: none;
      }
    </style>
  </defs>
  <!-- Generator: Adobe Illustrator 28.7.1, SVG Export Plug-In . SVG Version: 1.2.0 Build 142)  -->
  <g>
    <g id="Layer_1">
      <g id="Layer_1-2" data-name="Layer_1">
        <g>
          <rect class="cls-15" x="177.7" y="175.4" width="63.4" height="29.6"/>
          <rect class="cls-15" x="241.2" y="175.4" width="63.4" height="29.6"/>
          <rect class="cls-15" x="304.7" y="175.4" width="63.4" height="29.6"/>
        </g>
        <g>
          <rect class="cls-15" x="211.1" y="204.9" width="63.4" height="29.6"/>
          <rect class="cls-15" x="274.6" y="204.9" width="63.4" height="29.6"/>
          <rect class="cls-15" x="338.1" y="204.9" width="63.4" height="29.6"/>
        </g>
        <g>
          <polygon class="cls-29" points="242.1 212.3 240.9 214.4 290.9 217.5 241.3 288.1 159.5 317.5 117.1 281.1 168.2 188.1 200 204.8 203.8 199.4 242.1 212.3"/>
          <polygon class="cls-30" points="242.2 212.3 241 214.5 291 217.5 241.4 288.2 159.6 317.6 117.3 281.1 168.3 188.1 200.1 204.9 203.9 199.4 242.2 212.3"/>
          <g>
            <path class="cls-35" d="M134.6,271.3l38.8,21.7c1.2.7,1.6,2.2,1,3.4h0c-.7,1.2-2.2,1.6-3.4,1l-38.8-21.7c-1.2-.7-1.6-2.2-1-3.4h0c.7-1.2,2.2-1.6,3.4-1Z"/>
            <path class="cls-35" d="M141,284l22.1,12.3c1.2.7,1.6,2.2,1,3.4h0c-.7,1.2-2.2,1.6-3.4,1l-22.1-12.3c-1.2-.7-1.6-2.2-1-3.4h0c.7-1.2,2.2-1.6,3.4-1Z"/>
            <path class="cls-34" d="M246.5,223.8l23.6,9.1c1.3.5,1.9,1.9,1.4,3.2h0c-.5,1.3-1.9,1.9-3.2,1.4l-23.6-9.1c-1.3-.5-1.9-1.9-1.4-3.2h0c.5-1.3,1.9-1.9,3.2-1.4Z"/>
            <path class="cls-34" d="M242.9,230.8l23.6,9.1c1.3.5,1.9,1.9,1.4,3.2h0c-.5,1.3-1.9,1.9-3.2,1.4l-23.6-9.1c-1.3-.5-1.9-1.9-1.4-3.2h0c.5-1.3,1.9-1.9,3.2-1.4Z"/>
            <line class="cls-30" x1="225" y1="241.2" x2="240.9" y2="214.5"/>
            <line class="cls-30" x1="194.3" y1="214.6" x2="200.4" y2="204.5"/>
            <g>
              <g>
                <polygon class="cls-29" points="188 289.4 180 284.9 214 223.9 218.3 235.1 188 289.4"/>
                <rect class="cls-24" x="146.8" y="228.8" width="69.9" height="34.5" transform="translate(-121.7 284.7) rotate(-60.8)"/>
              </g>
              <g>
                <polygon class="cls-29" points="210.4 301.9 204.7 298.7 228.9 255.3 232 263.2 210.4 301.9"/>
                <rect class="cls-24" x="181.2" y="258.7" width="49.7" height="24.6" transform="translate(-131 318.6) rotate(-60.8)"/>
              </g>
              <g>
                <g>
                  <line class="cls-25" x1="225" y1="223.1" x2="224.5" y2="224"/>
                  <line class="cls-31" x1="223.6" y1="225.6" x2="213.2" y2="244.3"/>
                  <line class="cls-25" x1="212.7" y1="245.1" x2="212.2" y2="246"/>
                </g>
                <g>
                  <line class="cls-25" x1="188" y1="289.3" x2="187.5" y2="290.2"/>
                  <line class="cls-1" x1="186.7" y1="291.6" x2="185.5" y2="293.8"/>
                  <line class="cls-25" x1="185.1" y1="294.6" x2="184.6" y2="295.4"/>
                </g>
                <line class="cls-19" x1="175.2" y1="202.2" x2="230.7" y2="233.2"/>
                <line class="cls-19" x1="201.7" y1="240.1" x2="242" y2="262.6"/>
                <g>
                  <line class="cls-25" x1="141.2" y1="263.2" x2="142" y2="263.7"/>
                  <line class="cls-5" x1="143.8" y1="264.7" x2="219.5" y2="307"/>
                  <line class="cls-25" x1="220.3" y1="307.5" x2="221.2" y2="307.9"/>
                </g>
                <line class="cls-19" x1="238.8" y1="251.4" x2="207.8" y2="306.9"/>
                <g>
                  <line class="cls-25" x1="233.1" y1="248.3" x2="232.6" y2="249.2"/>
                  <line class="cls-5" x1="231.7" y1="250.9" x2="203.1" y2="302"/>
                  <line class="cls-25" x1="202.7" y1="302.9" x2="202.2" y2="303.7"/>
                </g>
                <line class="cls-19" x1="211.7" y1="236.3" x2="180.8" y2="291.8"/>
                <g>
                  <line class="cls-25" x1="217" y1="218.6" x2="216.5" y2="219.5"/>
                  <line class="cls-5" x1="215.5" y1="221.3" x2="178.3" y2="288.1"/>
                  <line class="cls-25" x1="177.8" y1="289" x2="177.3" y2="289.8"/>
                </g>
                <g>
                  <line class="cls-25" x1="187" y1="201.9" x2="186.5" y2="202.7"/>
                  <line class="cls-5" x1="185.5" y1="204.5" x2="148.2" y2="271.3"/>
                  <line class="cls-25" x1="147.7" y1="272.2" x2="147.2" y2="273.1"/>
                </g>
                <line class="cls-19" x1="211" y1="216.1" x2="220.3" y2="240.4"/>
                <g>
                  <line class="cls-25" x1="227.8" y1="252" x2="228.2" y2="252.9"/>
                  <line class="cls-31" x1="228.9" y1="254.7" x2="232.7" y2="264.7"/>
                  <line class="cls-25" x1="233" y1="265.7" x2="233.4" y2="266.6"/>
                </g>
              </g>
              <rect class="cls-24" x="179.7" y="232.3" width="6.9" height="24.3" transform="translate(-119.6 285.1) rotate(-60.8)"/>
              <rect class="cls-24" x="174.1" y="242.4" width="6.9" height="24.3" transform="translate(-131.3 285.4) rotate(-60.8)"/>
              <polygon class="cls-29" points="175.9 282.6 154.7 270.8 163.1 255.7 173.4 261.5 184.3 267.6 175.9 282.6"/>
              <rect class="cls-24" x="185.5" y="222.2" width="6.9" height="24.3" transform="translate(-107.8 284.9) rotate(-60.8)"/>
              <rect class="cls-24" x="191.2" y="211.9" width="6.9" height="24.3" transform="translate(-95.9 284.6) rotate(-60.8)"/>
              <rect class="cls-24" x="203" y="263.2" width="5.6" height="18.2" transform="translate(-132.2 319.1) rotate(-60.8)"/>
              <rect class="cls-24" x="207.6" y="255" width="5.6" height="18.2" transform="translate(-122.8 318.9) rotate(-60.8)"/>
              <rect class="cls-24" x="212.1" y="246.8" width="5.6" height="18.2" transform="translate(-113.3 318.7) rotate(-60.8)"/>
              <rect class="cls-24" x="190" y="280.9" width="16.9" height="8.9" transform="translate(-147.5 319.3) rotate(-60.8)"/>
              <line class="cls-30" x1="165.5" y1="276.3" x2="173.7" y2="261.7"/>
            </g>
          </g>
          <g id="Head">
            <path class="cls-23" d="M139.6,199.6l9.7-44.2-43-9.5-11.1,50.2c-.9,4.1-.6,8.2.7,11.9,1.4,4.1,4,7.8,7.5,10.4,1.5,1.2,3.2,2.1,5.1,2.9,1.1.4,2.3.8,3.5,1.1,2.1.5,4.2.6,6.2.5,8.9-.6,16.8-6.6,19.5-15.4l1.8-7.8h.1Z"/>
            <path class="cls-17" d="M153.7,145.6l-36.8-8.1c-8.8-1.9-17.4,3.6-19.4,12.4l-11.2,50.7,39.7,8.7,9.8-44.3c.8-3.5,4.3-5.8,7.8-5l6.2,1.4c4.2.9,8.7-1.4,9.9-5.6,1.3-4.5-1.5-9.2-6.1-10.2h.1Z"/>
            <g>
              <path class="cls-23" d="M135.1,172c-4-.9-7.9,1.6-8.8,5.5-.9,4,1.6,7.9,5.5,8.8"/>
              <path class="cls-23" d="M134.3,175.5c-2-.5-4.1.8-4.5,2.8s.8,4.1,2.8,4.5"/>
            </g>
          </g>
          <g id="Hand">
            <path class="cls-23" d="M206.8,296.5c8-6.3,29.6-7.8,29.6-7.8l-5.3,8.2c1-.5,4.8-2.5,6.3-3.6,1.7-1.3,1.4-4.3,3.1-11.1,1.7-6.8,4.4-5.6,5.9-4.2s-1.3,9.7-3.5,14.1-8.5,11.9-19.5,16.7c-4.8,1.9-29.7,9.4-29.7,9.4,0,0-10.6-2.6-10.9-4l-1.1-5.6s17.2-5.8,25.1-12.1h0Z"/>
            <g class="cls-39">
              <path class="cls-18" d="M221.5,300.2l44.5-24.8c1.9-1.1,2-3.9,0-5l-17.2-9.9c-.9-.5-1.9-.5-2.8,0l-41.9,23.6c-1.8,1-2,3.5-.3,4.8l14.5,11.1c.9.7,2.1.8,3.1.2h0Z"/>
              <path class="cls-18" d="M221.9,302.5l44.5-24.8c1.9-1.1,2-3.9,0-5l-17.2-9.9c-.9-.5-1.9-.5-2.8,0l-41.9,23.6c-1.8,1-2,3.5-.3,4.8l14.5,11.1c.9.7,2.1.8,3.1.2h0Z"/>
              <path class="cls-29" d="M264.2,271.1l-15.7-9.1c-.6-.4-1.4-.4-2,0l-40.6,22.9c-1.3.7-1.4,2.5-.2,3.4l13.3,10.2c.6.5,1.5.6,2.2.2l43.1-24c1.4-.8,1.4-2.7,0-3.5h-.1Z"/>
              <polygon class="cls-16" points="223 293.5 257.1 274.4 244.9 267.1 211.7 285.7 223 293.5"/>
            </g>
            <path class="cls-23" d="M215.8,301.5s4.6-1.5,7.8-3.6c1.9-1.3,5.6-4.1,7.3-11,1.7-6.8,4.4-5.6,5.9-4.2s-.5,8.2-2.7,12.6-6.5,7.7-10.9,9.8"/>
          </g>
          <g>
            <path class="cls-37" d="M120,260.2v69.8c0,17.8,18.8,29.4,34.7,21.4l3-1.5,42.3-21.4s-2.6-13.5-6.9-22.4c-4.4-8.9-11-6.1-11-6.1l-24.5,11.5v-67.9s.2-23.8-24.5-29.3l-31.5-7c-20.8-4.6-40.5,11.2-40.5,32.5v149s4.9,17.1,35.6,16.9c40.4-.2,60.6-16.9,60.6-16.9v-38.8"/>
            <g>
              <rect class="cls-10" x="80" y="225.1" width="1.8" height="9" transform="translate(-161.5 251.8) rotate(-75.8)"/>
              <rect class="cls-8" x="73.1" y="239.3" width="9" height="1.8" transform="translate(-102.5 63.3) rotate(-27.6)"/>
              <polygon class="cls-12" points="77.9 220.7 72.6 214.7 71.3 216 76.5 221.9 77.9 220.7"/>
              <rect class="cls-7" x="80.1" y="213.8" width="9" height="1.8" transform="translate(-56.9 32.4) rotate(-16.3)"/>
              <rect class="cls-6" x="67.7" y="223.2" width="1.8" height="9" transform="translate(-17.3 5.9) rotate(-4.4)"/>
              <polygon class="cls-12" points="66 240.7 61.7 234.3 61.4 237.2 64.5 241.7 66 240.7"/>
              <rect class="cls-10" x="80" y="258.7" width="1.8" height="9" transform="translate(-194.1 277.1) rotate(-75.8)"/>
              <polygon class="cls-12" points="64.7 247.6 63.1 246.7 61.3 250.2 61.3 254.2 64.7 247.6"/>
              <rect class="cls-8" x="73" y="271.6" width="9" height="1.8" transform="translate(-117.4 66.9) rotate(-27.6)"/>
              <rect class="cls-13" x="76.3" y="249.4" width="1.8" height="9" transform="translate(-148.3 114.1) rotate(-41.3)"/>
              <rect class="cls-7" x="79.4" y="246.4" width="9" height="1.8" transform="translate(-66 33.5) rotate(-16.3)"/>
              <rect class="cls-6" x="67.6" y="255.4" width="1.8" height="9" transform="translate(-19.7 6) rotate(-4.4)"/>
              <polygon class="cls-12" points="66 273 61.2 266 61.3 269.3 64.5 274 66 273"/>
              <rect class="cls-10" x="80" y="291" width="1.8" height="9" transform="translate(-225.4 301.5) rotate(-75.8)"/>
              <polygon class="cls-12" points="64.7 279.9 63.1 279 61.3 282.5 61.2 286.7 64.7 279.9"/>
              <rect class="cls-8" x="73.1" y="304" width="9" height="1.8" transform="translate(-132.4 70.6) rotate(-27.6)"/>
              <rect class="cls-13" x="76.4" y="281.7" width="1.8" height="9" transform="translate(-169.7 122.2) rotate(-41.3)"/>
              <rect class="cls-7" x="79.4" y="278.7" width="9" height="1.8" transform="translate(-75.1 34.8) rotate(-16.3)"/>
              <rect class="cls-6" x="67.7" y="287.7" width="1.8" height="9" transform="translate(-22.2 6.1) rotate(-4.4)"/>
              <polygon class="cls-12" points="66 305.3 61.3 298.3 61.4 301.7 64.5 306.3 66 305.3"/>
              <rect class="cls-10" x="80.1" y="323.2" width="1.8" height="9" transform="translate(-256.6 325.8) rotate(-75.8)"/>
              <polygon class="cls-12" points="64.7 312.1 63.1 311.3 61.3 314.7 61.3 318.8 64.7 312.1"/>
              <rect class="cls-8" x="73" y="336.2" width="9" height="1.8" transform="translate(-147.3 74.3) rotate(-27.6)"/>
              <rect class="cls-13" x="76.3" y="313.9" width="1.8" height="9" transform="translate(-191 130.2) rotate(-41.3)"/>
              <rect class="cls-7" x="79.4" y="311" width="9" height="1.8" transform="translate(-84.2 36.1) rotate(-16.3)"/>
              <rect class="cls-6" x="67.7" y="319.9" width="1.8" height="9" transform="translate(-24.7 6.2) rotate(-4.4)"/>
              <polygon class="cls-12" points="66 337.6 61.2 330.5 61.3 333.8 64.5 338.6 66 337.6"/>
              <rect class="cls-10" x="80.1" y="355.5" width="1.8" height="9" transform="translate(-287.9 350.2) rotate(-75.8)"/>
              <polygon class="cls-12" points="64.7 344.4 63.1 343.6 61.3 347 61.2 351.1 64.7 344.4"/>
              <rect class="cls-8" x="73.1" y="368.5" width="9" height="1.8" transform="translate(-162.3 78) rotate(-27.6)"/>
              <rect class="cls-13" x="76.3" y="346.2" width="1.8" height="9" transform="translate(-212.2 138.2) rotate(-41.3)"/>
              <rect class="cls-7" x="79.5" y="343.3" width="9" height="1.8" transform="translate(-93.2 37.4) rotate(-16.3)"/>
              <rect class="cls-6" x="67.8" y="352.2" width="1.8" height="9" transform="translate(-27.2 6.3) rotate(-4.4)"/>
              <rect class="cls-13" x="76.3" y="378.5" width="1.8" height="9" transform="translate(-233.5 146.2) rotate(-41.3)"/>
              <rect class="cls-7" x="79.4" y="375.6" width="9" height="1.8" transform="translate(-102.3 38.7) rotate(-16.3)"/>
              <rect class="cls-10" x="67.2" y="383.2" width="1.8" height="9" transform="translate(-324.5 358.6) rotate(-75.8)"/>
              <polygon class="cls-12" points="72.3 394.2 71.5 392.6 65.8 395.6 67.2 396.9 72.3 394.2"/>
              <polygon class="cls-12" points="66.2 382 61.3 376.4 61.4 379.3 64.8 383.2 66.2 382"/>
              <polygon class="cls-12" points="78.6 402.3 78.1 400.5 74.6 401.6 77.3 402.7 78.6 402.3"/>
              <polygon class="cls-12" points="107.2 208.5 101.9 211.2 102.8 212.8 109.9 209.1 107.2 208.5"/>
              <polygon class="cls-12" points="98.3 208.4 97 206.5 94.9 206.6 96.8 209.4 98.3 208.4"/>
              <rect class="cls-10" x="112.3" y="226.4" width="1.8" height="9" transform="translate(-138.4 284.1) rotate(-75.8)"/>
              <rect class="cls-11" x="89.6" y="218.2" width="9" height="1.8" transform="translate(-143.7 201.9) rotate(-62.6)"/>
              <rect class="cls-8" x="105.3" y="239.4" width="9" height="1.8" transform="translate(-98.8 78.2) rotate(-27.6)"/>
              <rect class="cls-13" x="108.7" y="217.1" width="1.8" height="9" transform="translate(-119 127.4) rotate(-41.3)"/>
              <rect class="cls-7" x="111.6" y="214.1" width="9" height="1.8" transform="translate(-55.7 41.2) rotate(-16.3)"/>
              <rect class="cls-6" x="100" y="223.1" width="1.8" height="9" transform="translate(-17.2 8.4) rotate(-4.4)"/>
              <rect class="cls-9" x="94.2" y="232.9" width="1.8" height="9" transform="translate(-117 94.5) rotate(-34.2)"/>
              <rect class="cls-10" x="112.3" y="258.7" width="1.8" height="9" transform="translate(-169.6 308.4) rotate(-75.8)"/>
              <rect class="cls-11" x="89.6" y="250.5" width="9" height="1.8" transform="translate(-172.4 219.2) rotate(-62.6)"/>
              <rect class="cls-8" x="105.3" y="271.6" width="9" height="1.8" transform="translate(-113.8 81.9) rotate(-27.6)"/>
              <rect class="cls-13" x="108.7" y="249.4" width="1.8" height="9" transform="translate(-140.3 135.5) rotate(-41.3)"/>
              <rect class="cls-7" x="108.9" y="244.9" width="9" height="1.8" transform="translate(-64.4 41.7) rotate(-16.3)"/>
              <rect class="cls-6" x="100" y="255.4" width="1.8" height="9" transform="translate(-19.6 8.5) rotate(-4.4)"/>
              <rect class="cls-9" x="94.2" y="265.2" width="1.8" height="9" transform="translate(-135.1 100.1) rotate(-34.2)"/>
              <rect class="cls-10" x="112.4" y="291" width="1.8" height="9" transform="translate(-201 332.8) rotate(-75.8)"/>
              <rect class="cls-11" x="89.5" y="282.8" width="9" height="1.8" transform="translate(-201.1 236.6) rotate(-62.6)"/>
              <rect class="cls-8" x="105.3" y="303.9" width="9" height="1.8" transform="translate(-128.7 85.6) rotate(-27.6)"/>
              <rect class="cls-13" x="108.7" y="281.7" width="1.8" height="9" transform="translate(-161.6 143.5) rotate(-41.3)"/>
              <polygon class="cls-12" points="120.1 277.6 111.4 280.1 111.9 281.9 120 279.5 120.1 277.6"/>
              <rect class="cls-6" x="100" y="287.7" width="1.8" height="9" transform="translate(-22.1 8.6) rotate(-4.4)"/>
              <rect class="cls-9" x="94.1" y="297.4" width="1.8" height="9" transform="translate(-153.3 105.6) rotate(-34.2)"/>
              <rect class="cls-10" x="112.4" y="323.2" width="1.8" height="9" transform="translate(-232.2 357.1) rotate(-75.8)"/>
              <rect class="cls-11" x="89.5" y="315" width="9" height="1.8" transform="translate(-229.8 254) rotate(-62.6)"/>
              <rect class="cls-8" x="105.3" y="336.3" width="9" height="1.8" transform="translate(-143.7 89.2) rotate(-27.6)"/>
              <rect class="cls-13" x="108.7" y="313.9" width="1.8" height="9" transform="translate(-182.9 151.5) rotate(-41.3)"/>
              <polygon class="cls-12" points="120 311.2 112.6 313.3 113.1 315.1 120 313.1 120 311.2"/>
              <rect class="cls-6" x="100" y="319.9" width="1.8" height="9" transform="translate(-24.6 8.7) rotate(-4.4)"/>
              <rect class="cls-9" x="94.2" y="329.7" width="1.8" height="9" transform="translate(-171.4 111.2) rotate(-34.2)"/>
              <rect class="cls-10" x="112.4" y="355.5" width="1.8" height="9" transform="translate(-263.5 381.5) rotate(-75.8)"/>
              <rect class="cls-11" x="89.6" y="347.4" width="9" height="1.8" transform="translate(-258.5 271.5) rotate(-62.6)"/>
              <rect class="cls-8" x="105.2" y="368.6" width="9" height="1.8" transform="translate(-158.7 92.9) rotate(-27.6)"/>
              <rect class="cls-13" x="108.7" y="346.2" width="1.8" height="9" transform="translate(-204.2 159.6) rotate(-41.3)"/>
              <rect class="cls-7" x="111.8" y="343.2" width="9" height="1.8" transform="translate(-91.9 46.5) rotate(-16.3)"/>
              <rect class="cls-6" x="100.1" y="352.2" width="1.8" height="9" transform="translate(-27.1 8.8) rotate(-4.4)"/>
              <rect class="cls-9" x="94.2" y="362" width="1.8" height="9" transform="translate(-189.6 116.8) rotate(-34.2)"/>
              <rect class="cls-10" x="112.4" y="387.8" width="1.8" height="9" transform="translate(-294.8 405.9) rotate(-75.8)"/>
              <rect class="cls-11" x="89.5" y="379.7" width="9" height="1.8" transform="translate(-287.1 288.9) rotate(-62.6)"/>
              <rect class="cls-8" x="105.3" y="400.8" width="9" height="1.8" transform="translate(-173.6 96.6) rotate(-27.6)"/>
              <rect class="cls-13" x="108.7" y="378.4" width="1.8" height="9" transform="translate(-225.5 167.6) rotate(-41.3)"/>
              <rect class="cls-7" x="111.7" y="375.5" width="9" height="1.8" transform="translate(-101 47.8) rotate(-16.3)"/>
              <rect class="cls-6" x="100.1" y="384.5" width="1.8" height="9" transform="translate(-29.5 8.9) rotate(-4.4)"/>
              <rect class="cls-9" x="94.2" y="394.3" width="1.8" height="9" transform="translate(-207.7 122.4) rotate(-34.2)"/>
              <rect class="cls-10" x="147.5" y="226.4" width="1.8" height="9" transform="translate(-111.9 318.1) rotate(-75.8)"/>
              <rect class="cls-11" x="121.9" y="218.1" width="9" height="1.8" transform="translate(-126.2 230.5) rotate(-62.6)"/>
              <rect class="cls-13" x="141" y="217.1" width="1.8" height="9" transform="translate(-111 148.7) rotate(-41.3)"/>
              <polygon class="cls-12" points="133.2 214.3 131.8 214.7 132.3 216.4 136.6 215.1 133.2 214.3"/>
              <rect class="cls-6" x="132.3" y="223.1" width="1.8" height="9" transform="translate(-17.1 10.9) rotate(-4.4)"/>
              <rect class="cls-9" x="126.5" y="232.9" width="1.8" height="9" transform="translate(-111.4 112.6) rotate(-34.2)"/>
              <rect class="cls-11" x="121.9" y="250.5" width="9" height="1.8" transform="translate(-155 247.9) rotate(-62.6)"/>
              <rect class="cls-7" x="146.4" y="238" width="9" height="1.8" transform="translate(-61 52) rotate(-16.3)"/>
              <rect class="cls-10" x="144.6" y="355.6" width="1.8" height="9" transform="translate(-239.3 412.8) rotate(-75.8)"/>
              <polygon class="cls-12" points="126.3 346.3 123.5 351.6 125.1 352.5 127.7 347.5 126.3 346.3"/>
              <rect class="cls-8" x="137.6" y="368.5" width="9" height="1.8" transform="translate(-155 107.9) rotate(-27.6)"/>
              <rect class="cls-6" x="132.4" y="352.1" width="1.8" height="9" transform="translate(-27 11.3) rotate(-4.4)"/>
              <rect class="cls-9" x="126.4" y="362" width="1.8" height="9" transform="translate(-184 134.9) rotate(-34.2)"/>
              <polygon class="cls-12" points="150.2 392.7 141.4 390.5 140.9 392.3 148.6 394.2 150 393.4 150.2 392.7"/>
              <rect class="cls-11" x="121.8" y="379.7" width="9" height="1.8" transform="translate(-269.7 317.6) rotate(-62.6)"/>
              <rect class="cls-13" x="141" y="378.4" width="1.8" height="9" transform="translate(-217.4 188.9) rotate(-41.3)"/>
              <rect class="cls-7" x="145.1" y="372.5" width="9" height="1.8" transform="translate(-98.8 57) rotate(-16.3)"/>
              <rect class="cls-6" x="132.4" y="384.4" width="1.8" height="9" transform="translate(-29.4 11.4) rotate(-4.4)"/>
              <polygon class="cls-12" points="130 401.3 125.5 394.7 124 395.7 128.1 401.7 130 401.3"/>
              <polygon class="cls-12" points="157.5 359.1 155.1 355.6 153.6 356.6 157.6 362.4 157.5 359.1"/>
              <polygon class="cls-12" points="157.5 379.6 155.2 384.2 156.8 385 157.5 383.7 157.5 379.6"/>
              <rect class="cls-9" x="81.2" y="390.1" width="1.8" height="9" transform="translate(-207.6 114.4) rotate(-34.2)"/>
              <rect class="cls-11" x="62.7" y="368.7" width="9" height="1.8" transform="translate(-291.9 259.2) rotate(-62.6)"/>
              <g>
                <polygon class="cls-12" points="129.4 296.9 120 294.5 120.1 296.7 128.9 298.9 129.4 296.9"/>
                <polygon class="cls-12" points="125.3 305.7 124.4 303.8 120 306.1 120.1 308.4 125.3 305.7"/>
                <polygon class="cls-12" points="124 289.2 120.1 284.7 120.1 287.8 122.5 290.5 124 289.2"/>
                <rect class="cls-7" x="122.2" y="277.3" width="10.3" height="2.1" transform="translate(-73 46.9) rotate(-16.3)"/>
              </g>
              <g>
                <polygon class="cls-12" points="129.4 333.8 120.1 331.5 120.4 333.7 128.9 335.8 129.4 333.8"/>
                <polygon class="cls-12" points="125.3 342.6 124.4 340.7 122.9 341.5 124 343.2 125.3 342.6"/>
                <polygon class="cls-12" points="120.1 321.5 117.2 318.3 115.7 319.7 120.1 324.7 120.1 321.5"/>
                <rect class="cls-7" x="122.3" y="314.2" width="10.3" height="2.1" transform="translate(-83.4 48.4) rotate(-16.3)"/>
              </g>
              <g>
                <polygon class="cls-12" points="157.7 257.8 156.3 257.5 155.8 259.5 157.8 260 157.7 257.8"/>
                <rect class="cls-11" x="134.1" y="245" width="10.3" height="2.1" transform="translate(-143.3 256.4) rotate(-62.6)"/>
                <polygon class="cls-12" points="157.8 268.8 152.1 271.7 153.1 273.6 157.8 271.1 157.8 268.8"/>
                <polygon class="cls-12" points="157.8 248.6 154.1 244.5 152.6 245.9 157.8 251.8 157.8 248.6"/>
                <rect class="cls-6" x="145.8" y="250.6" width="2.1" height="10.3" transform="translate(-19.2 12) rotate(-4.4)"/>
                <rect class="cls-9" x="139.3" y="261.8" width="2.1" height="10.3" transform="translate(-125.8 125) rotate(-34.2)"/>
              </g>
              <rect class="cls-11" x="122.1" y="264.1" width="10.3" height="2.1" transform="translate(-166.7 256.1) rotate(-62.6)"/>
              <rect class="cls-13" x="124.6" y="222" width="2.1" height="10.3" transform="translate(-118.7 139.4) rotate(-41.3)"/>
              <g>
                <polygon class="cls-12" points="157.8 294.8 156.3 294.4 155.8 296.4 157.8 296.9 157.8 294.8"/>
                <rect class="cls-11" x="134" y="281.9" width="10.3" height="2.1" transform="translate(-176.1 276.3) rotate(-62.6)"/>
                <polygon class="cls-12" points="157.8 305.7 152.1 308.6 153.1 310.5 157.8 308 157.8 305.7"/>
                <polygon class="cls-12" points="157.8 285.5 154.1 281.4 152.6 282.8 157.7 288.6 157.8 285.5"/>
                <rect class="cls-6" x="145.8" y="287.6" width="2.1" height="10.3" transform="translate(-22 12.1) rotate(-4.4)"/>
                <rect class="cls-9" x="139.2" y="298.6" width="2.1" height="10.3" transform="translate(-146.5 131.4) rotate(-34.2)"/>
              </g>
              <g>
                <rect class="cls-10" x="159.9" y="328.2" width="2.1" height="10.3" transform="translate(-201.7 407.7) rotate(-75.8)"/>
                <rect class="cls-11" x="134" y="318.8" width="10.3" height="2.1" transform="translate(-208.9 296.2) rotate(-62.6)"/>
                <rect class="cls-8" x="152" y="343" width="10.3" height="2.1" transform="translate(-141.5 112) rotate(-27.6)"/>
                <rect class="cls-13" x="155.8" y="317.5" width="2.1" height="10.3" transform="translate(-174 183.8) rotate(-41.3)"/>
                <rect class="cls-7" x="159.2" y="314.2" width="10.3" height="2.1" transform="translate(-81.9 58.8) rotate(-16.3)"/>
                <rect class="cls-6" x="145.9" y="324.5" width="2.1" height="10.3" transform="translate(-24.9 12.2) rotate(-4.4)"/>
                <rect class="cls-9" x="139.2" y="335.5" width="2.1" height="10.3" transform="translate(-167.2 137.8) rotate(-34.2)"/>
              </g>
              <g>
                <polygon class="cls-12" points="193.3 306.4 189 308.6 190 310.5 194.2 308.2 193.3 306.4"/>
                <polygon class="cls-12" points="180.9 307.7 177.2 302.3 175.3 303.3 179.1 308.9 180.9 307.7"/>
              </g>
              <rect class="cls-10" x="135.4" y="344.3" width="2.1" height="10.3" transform="translate(-235.8 396) rotate(-75.8)"/>
              <rect class="cls-11" x="171" y="318.9" width="10.3" height="2.1" transform="translate(-189 329) rotate(-62.6)"/>
              <rect class="cls-13" x="192.6" y="317.6" width="2.1" height="10.3" transform="translate(-164.8 208.1) rotate(-41.3)"/>
              <polygon class="cls-12" points="196.8 315.5 197.5 317.5 196.5 317.8 195.9 315.8 196.8 315.5"/>
              <rect class="cls-6" x="182.9" y="324.4" width="2.1" height="10.3" transform="translate(-24.7 15.1) rotate(-4.4)"/>
              <polygon class="cls-12" points="176.5 340.4 171.7 333.4 170 334.5 174.6 341.3 176.5 340.4"/>
            </g>
          </g>
          <path class="cls-38" d="M249.5,276l-8.8,12.5-4.2,1.3s1-3.5.9-5,0-2.3-1.7-2.9-2.5,0-3.2.9-2.3,6.6-2.3,6.6l-4.1.6,1.7-7.7,18.1-8.5,3.6,2.2Z"/>
          <path class="cls-32" d="M250,275.8l-9.3,12.6-4.2,1.3s1-3.5.9-5,0-2.3-1.7-2.9-2.5,0-3.2.9-2.3,6.6-2.3,6.6l-4.1.6"/>
        </g>
        <g>
          <path class="cls-37" d="M395,100.7h-71.1c-3.6,0-6.5-2.9-6.5-6.5h0c0-3.6,2.9-6.5,6.5-6.5h71.1c3.6,0,6.5,2.9,6.5,6.5h0c0,3.6-2.9,6.5-6.5,6.5Z"/>
          <path class="cls-33" d="M395,79.2h-111.1c-3.6,0-6.5-2.9-6.5-6.5h0c0-3.6,2.9-6.5,6.5-6.5h111.1c3.6,0,6.5,2.9,6.5,6.5h0c0,3.6-2.9,6.5-6.5,6.5Z"/>
          <path class="cls-17" d="M395,57.7h-93.3c-3.6,0-6.5-2.9-6.5-6.5h0c0-3.6,2.9-6.5,6.5-6.5h93.3c3.6,0,6.5,2.9,6.5,6.5h0c0,3.6-2.9,6.5-6.5,6.5Z"/>
        </g>
        <g>
          <g>
            <rect class="cls-15" x="21.5" y="352.7" width="63.4" height="29.6"/>
            <rect class="cls-15" x="85" y="352.7" width="63.4" height="29.6"/>
            <rect class="cls-15" x="148.4" y="352.7" width="63.4" height="29.6"/>
          </g>
          <g>
            <rect class="cls-15" x="54.9" y="382.2" width="63.4" height="29.6"/>
            <rect class="cls-15" x="118.4" y="382.2" width="63.4" height="29.6"/>
            <rect class="cls-15" x="181.9" y="382.2" width="63.4" height="29.6"/>
            <rect class="cls-15" x="308.7" y="382.2" width="63.4" height="29.6"/>
          </g>
          <g>
            <rect class="cls-15" x="21.5" y="411.8" width="63.4" height="29.6"/>
            <rect class="cls-15" x="85" y="411.8" width="63.4" height="29.6"/>
          </g>
          <g>
            <rect class="cls-15" x="54.9" y="441.3" width="63.4" height="29.6"/>
            <rect class="cls-15" x="118.4" y="441.3" width="63.4" height="29.6"/>
            <rect class="cls-15" x="181.9" y="441.3" width="63.4" height="29.6"/>
            <rect class="cls-15" x="245.4" y="441.3" width="63.4" height="29.6"/>
          </g>
        </g>
        <g>
          <polygon class="cls-21" points="259.7 119.5 217.5 119.5 204 151.4 212.2 151.4 222.5 126.3 254.7 126.3 265.1 151.4 273.2 151.4 259.7 119.5"/>
          <path class="cls-2" d="M284.2,120.5c1.2-4,0-8.2-2.8-11l-2.4,8.3-5.9,1.4-4.2-4.4,2.4-8.3c-3.8.8-7.1,3.7-8.3,7.7-1.3,4.6.4,9.3,4,12l-7.7,26.3,7.4,2.2,7.7-26.3c4.5-.3,8.5-3.4,9.8-7.9Z"/>
          <g>
            <rect class="cls-27" x="248.6" y="112.9" width="4.6" height="35.7" transform="translate(-9.9 21) rotate(-4.7)"/>
            <path class="cls-33" d="M253.9,123.6c.9-.7,1.4-1.9,1.3-3.1l-2.2-26.4c-.2-2-1.9-3.5-3.9-3.3l-3.1.3c-2,.2-3.5,1.9-3.3,3.9l2.2,26.4c.1,1.2.8,2.2,1.8,2.8l-3.6.3.3,4.1,14.3-1.2-.3-4.1-3.6.3h.1Z"/>
            <g>
              <line class="cls-30" x1="247.8" y1="91.2" x2="248" y2="93.2"/>
              <line class="cls-14" x1="248.2" y1="97.2" x2="249.7" y2="119.5"/>
              <line class="cls-30" x1="249.8" y1="121.6" x2="250" y2="123.6"/>
            </g>
            <line class="cls-22" x1="245.7" y1="91.4" x2="247.9" y2="123.7"/>
            <line class="cls-22" x1="250.3" y1="91" x2="252.4" y2="123.4"/>
          </g>
          <g>
            <rect class="cls-4" x="203.6" y="110.6" width="10.8" height="56.9" transform="translate(-18.6 33.2) rotate(-8.7)"/>
            <line class="cls-30" x1="200.4" y1="115.8" x2="205.4" y2="115"/>
            <line class="cls-30" x1="202.7" y1="130.8" x2="207.7" y2="130.1"/>
            <line class="cls-26" x1="205" y1="145.9" x2="210" y2="145.1"/>
            <line class="cls-26" x1="207.3" y1="160.9" x2="212.3" y2="160.2"/>
            <line class="cls-30" x1="201" y1="119.6" x2="203.7" y2="119.2"/>
            <line class="cls-30" x1="203.3" y1="134.6" x2="206" y2="134.2"/>
            <line class="cls-26" x1="205.6" y1="149.7" x2="208.3" y2="149.3"/>
            <line class="cls-26" x1="207.9" y1="164.7" x2="210.7" y2="164.3"/>
            <line class="cls-30" x1="201.6" y1="123.4" x2="204.3" y2="123"/>
            <line class="cls-26" x1="203.9" y1="138.5" x2="206.6" y2="138"/>
            <line class="cls-26" x1="206.2" y1="153.5" x2="208.9" y2="153.1"/>
            <line class="cls-30" x1="202.2" y1="127.2" x2="204.9" y2="126.8"/>
            <line class="cls-26" x1="204.5" y1="142.3" x2="207.2" y2="141.8"/>
            <line class="cls-26" x1="206.8" y1="157.3" x2="209.5" y2="156.9"/>
          </g>
          <g>
            <rect class="cls-28" x="222.8" y="118.4" width="19.5" height="5.6" transform="translate(72.8 329.1) rotate(-80)"/>
            <path class="cls-3" d="M245.1,108.7c-.8-1.3-2-2-3.4-2.2s-12.6-2.2-12.6-2.2h0c-2.4,2.6-3.8-.7-3.9-.7h0l-6-1.1h0l-1.7,9.6h0l6,1.1h0c1.8-2.3,3.1-2,3.9.7h0l12.4,2.2,1-5.8c1,0,1.9.7,2.4,1.6.6,1.1.9,1.6.2,3.3,2.2-1.3,2.9-4.2,1.6-6.4h.1Z"/>
            <rect class="cls-36" x="220.5" y="129.3" width="19.5" height="8.9" transform="translate(58.5 337.3) rotate(-80)"/>
          </g>
          <rect class="cls-20" x="198.2" y="144.6" width="80.4" height="30.7"/>
          <polygon class="cls-21" points="280.6 137.3 196.3 137.3 196.3 145.4 198.2 145.4 198.2 175.3 278.6 175.3 278.6 145.4 280.6 145.4 280.6 137.3"/>
          <line class="cls-30" x1="198.3" y1="144.8" x2="279.2" y2="144.8"/>
        </g>
      </g>
    </g>
  </g>
</svg>