<?xml version="1.0" encoding="UTF-8"?>
<svg id="Layer_1" xmlns="http://www.w3.org/2000/svg" width="800" height="600" version="1.1" viewBox="0 0 800 600">
  <!-- Generator: Adobe Illustrator 29.0.1, SVG Export Plug-In . SVG Version: 2.1.0 Build 192)  -->
  <ellipse cx="400" cy="518.5" rx="242.2" ry="31.5" fill="#48ffd3" stroke="#171c3a" stroke-linecap="round" stroke-linejoin="round"/>
  <path d="M626.2,271.7c0-.4-.3-.7-.4-1-6.6-17.5-16.7-33.3-29.5-46.5-.2-.2-.4-.4-.5-.6-.2-.2-.3-.3-.4-.4s-.4-.4-.5-.5c-13.1-13.1-28.9-23.5-46.5-30.3-.4,0-.7-.3-1-.4-14.6-5.6-30.5-8.6-47.1-8.6h-1c-16.5,0-32.4,3.1-47.1,8.7-.4,0-.7.3-1,.4-17.5,6.8-33.2,17.2-46.3,30.2l-.8.8-.3.3c-.3.3-.5.5-.8.8-12.7,13.1-22.7,28.8-29.3,46.3,0,.4-.3.7-.4,1-5.3,14.5-8.2,30-8.2,46.2v1.9c.3,16.6,3.5,32.4,9.3,47.1,0,.4.3.7.4,1,6.6,16.3,16.2,31.1,28.2,43.5.4.4.7.7,1,1.1.9.9,1.7,1.7,2.6,2.6.4.4.7.7,1.1,1,12.5,11.7,27.2,21.1,43.4,27.4.4.2.7.3,1,.4,14.6,5.6,30.5,8.6,47.1,8.7h1c16.5,0,32.4-3.1,47.1-8.6.4,0,.7-.3,1-.4,16.3-6.3,31.1-15.7,43.7-27.5.4-.4.7-.7,1.1-1,.8-.8,1.6-1.5,2.4-2.3.4-.4.7-.7,1-1.1,12.1-12.5,21.8-27.3,28.4-43.7.2-.4.3-.7.4-1,5.7-14.6,9-30.4,9.3-47.1v-1.9c0-16.3-2.8-31.8-8.1-46.3h0ZM402.8,410c-11.5-12-20.7-26.3-27.1-42h27.1v42ZM402.8,367h-27.5c-5.7-14.6-9.1-30.4-9.3-47.1h36.8v47.1h0ZM402.8,318.8h-36.8v-.9c0-16.3,2.9-31.8,8.3-46.2h28.6v47.1h0ZM402.8,270.7h-28.2c6.4-16.8,16.1-32,28.2-44.8v44.8h0ZM451,442.4c-15.6-6.1-29.8-15.1-41.9-26.3h41.9v26.3ZM451,415h-43c-1.3-1.3-2.8-2.6-4-4v-43h47.1v47.1h0ZM451,367h-47.1v-47.1h47.1v47.1h0ZM451,318.8h-47.1v-47.1h47.1v47.1ZM451,270.7h-47.1v-45.9c.4-.4.8-.8,1.2-1.2h45.9s0,47.1,0,47.1ZM451,222.6h-44.8c12.8-12.5,27.9-22.5,44.8-29.1v29.1ZM499.1,451.6c-16.6,0-32.4-3.2-47.1-8.8v-26.7h47.1v35.5h0ZM499.1,415h-47.1v-47.1h47.1v47.1h0ZM499.1,367h-47.1v-47.1h47.1v47.1h0ZM499.1,318.8h-47.1v-47.1h47.1v47.1h0ZM499.1,270.7h-47.1v-47.1h47.1v47.1h0ZM499.1,222.6h-47.1v-29.6c14.6-5.6,30.5-8.7,47.1-8.8v38.4h0ZM547.2,442.9c-14.6,5.6-30.5,8.6-47.1,8.7v-35.5h47.1v26.8h0ZM547.2,415h-47.1v-47.1h47.1v47.1h0ZM547.2,367h-47.1v-47.1h47.1v47.1h0ZM547.2,318.8h-47.1v-47.1h47.1v47.1h0ZM547.2,270.7h-47.1v-47.1h47.1v47.1h0ZM547.2,222.6h-47.1v-38.4c16.5,0,32.4,3.1,47.1,8.7v29.6h0ZM548.3,193.3c17,6.6,32.2,16.6,45.1,29.2h-45.1v-29.2h0ZM548.3,442.5v-26.4h42.1c-12.1,11.2-26.4,20.3-42.1,26.4ZM595.3,411.2c-1.3,1.3-2.6,2.6-3.9,3.8h-43.2v-47.1h47.1v43.3h0ZM595.3,367h-47.1v-47.1h47.1v47.1h0ZM595.3,318.8h-47.1v-47.1h47.1v47.1ZM595.3,270.7h-47.1v-47.1h46.1c.4.4.6.7,1,1v46.1ZM596.4,225.7c12.3,12.8,22,28.1,28.4,45h-28.4v-45h0ZM596.4,410.2v-42.2h27.3c-6.4,15.8-15.7,30.1-27.3,42.2ZM624.1,367h-27.8v-47.1h37c-.3,16.6-3.5,32.4-9.3,47.1h0ZM633.4,318.8h-37v-47.1h28.7c5.3,14.4,8.3,30,8.3,46.2v.9Z" fill="#70748f"/>
  <g>
    <rect x="297.4" y="86.4" width="205.5" height="430" rx="30.4" ry="30.4" fill="#e9ece4"/>
    <rect x="297.4" y="86.4" width="205.5" height="430" rx="30.4" ry="30.4" fill="#e9ece4"/>
    <path d="M502.9,485.9c0,16.8-13.6,30.4-30.4,30.4h-144.6c-16.8,0-30.4-13.6-30.4-30.4" fill="#e9ece4"/>
    <path d="M502.9,232.2v253.6c0,16.8-13.6,30.4-30.4,30.4h-144.6c-16.8,0-30.4-13.6-30.4-30.4v-121.5" fill="#7081f0" stroke="#171c3a" stroke-linecap="round" stroke-linejoin="round"/>
    <path d="M470.6,90c15.1,0,27.4,12.3,27.4,27.4v368.5c0,15.1-12.3,27.4-27.4,27.4h-141.3c-15.1,0-27.4-12.3-27.4-27.4V117.5c0-15.1,12.3-27.4,27.4-27.4h141.3M470.6,82.3h-141.3c-19.5,0-35.2,15.7-35.2,35.2v368.5c0,19.5,15.7,35.2,35.2,35.2h141.3c19.5,0,35.2-15.7,35.2-35.2V117.5c0-19.5-15.7-35.2-35.2-35.2h0Z" fill="#151d3a"/>
    <path d="M377.2,97.7h45.4c5.1,0,9.3,4.1,9.3,9.3h0c0,5.1-4.1,9.3-9.3,9.3h-45.4c-5.1,0-9.3-4.1-9.3-9.3h0c0-5.1,4.1-9.3,9.3-9.3Z" fill="#151d3a"/>
    <path d="M366.7,501.9h66.5c1.5,0,2.7,1.2,2.7,2.7h0c0,1.5-1.2,2.7-2.7,2.7h-66.5c-1.5,0-2.7-1.2-2.7-2.7h0c0-1.5,1.2-2.7,2.7-2.7Z" fill="#151d3a"/>
  </g>
  <g>
    <g>
      <g>
        <path d="M430.3,254.3l.9.8c5.6,5.2,9.1,12.2,9.7,19.8v1.7c.3,2-1.3,3.7-3.3,3.7h-36.7s24.6-25.9,24.6-25.9c1.3-1.4,3.4-1.4,4.8-.2Z" fill="#1fc199" stroke="#171c3a" stroke-linecap="round" stroke-linejoin="round"/>
        <g>
          <line x1="409.3" y1="274.5" x2="410.6" y2="273.8" fill="none" stroke="#171c3a" stroke-linecap="round" stroke-linejoin="round"/>
          <line x1="412.8" y1="272.6" x2="420.3" y2="268.6" fill="none" stroke="#171c3a" stroke-dasharray="2.4 2.4" stroke-linecap="round" stroke-linejoin="round"/>
          <line x1="421.4" y1="268" x2="422.7" y2="267.3" fill="none" stroke="#171c3a" stroke-linecap="round" stroke-linejoin="round"/>
        </g>
        <g>
          <line x1="409.5" y1="277.3" x2="410.9" y2="277.1" fill="none" stroke="#171c3a" stroke-linecap="round" stroke-linejoin="round"/>
          <line x1="413.9" y1="276.5" x2="430.4" y2="273.6" fill="none" stroke="#171c3a" stroke-dasharray="3 3" stroke-linecap="round" stroke-linejoin="round"/>
          <line x1="431.9" y1="273.3" x2="433.4" y2="273" fill="none" stroke="#171c3a" stroke-linecap="round" stroke-linejoin="round"/>
        </g>
      </g>
      <g>
        <path d="M369.7,254.3l-.9.8c-5.6,5.2-9.1,12.2-9.7,19.8v1.7c-.3,2,1.3,3.7,3.3,3.7h36.7l-24.6-25.9c-1.3-1.4-3.4-1.4-4.8-.2Z" fill="#1fc199" stroke="#171c3a" stroke-linecap="round" stroke-linejoin="round"/>
        <g>
          <line x1="390.7" y1="274.5" x2="389.4" y2="273.8" fill="none" stroke="#171c3a" stroke-linecap="round" stroke-linejoin="round"/>
          <line x1="387.2" y1="272.6" x2="379.7" y2="268.6" fill="none" stroke="#171c3a" stroke-dasharray="2.4 2.4" stroke-linecap="round" stroke-linejoin="round"/>
          <line x1="378.6" y1="268" x2="377.3" y2="267.3" fill="none" stroke="#171c3a" stroke-linecap="round" stroke-linejoin="round"/>
        </g>
        <g>
          <line x1="390.5" y1="277.3" x2="389.1" y2="277.1" fill="none" stroke="#171c3a" stroke-linecap="round" stroke-linejoin="round"/>
          <line x1="386.2" y1="276.6" x2="370.3" y2="273.9" fill="none" stroke="#171c3a" stroke-dasharray="2.9 2.9" stroke-linecap="round" stroke-linejoin="round"/>
          <line x1="368.8" y1="273.7" x2="367.4" y2="273.4" fill="none" stroke="#171c3a" stroke-linecap="round" stroke-linejoin="round"/>
        </g>
      </g>
    </g>
    <rect x="353.5" y="287.5" width="93" height="93" fill="#ffc56d" stroke="#171c3a" stroke-linecap="round" stroke-linejoin="round"/>
    <rect x="391.5" y="287.5" width="16.9" height="93" fill="#1fc199" stroke="#171c3a" stroke-linecap="round" stroke-linejoin="round"/>
    <rect x="347.9" y="279.6" width="104.2" height="28.4" fill="#ffc56d" stroke="#171c3a" stroke-linecap="round" stroke-linejoin="round"/>
    <rect x="391.5" y="278.9" width="16.9" height="29" fill="#1fc199" stroke="#171c3a" stroke-linecap="round" stroke-linejoin="round"/>
    <rect x="390.3" y="267.2" width="19.4" height="18.1" rx="3" ry="3" fill="#1fc199" stroke="#171c3a" stroke-linecap="round" stroke-linejoin="round"/>
  </g>
  <g>
    <path d="M254.7,123.8l.7.4-.7-.2c-4.6-1.5-9.6.7-11.7,5.1l-.4.7.2-.7c1.5-4.6-.7-9.6-5.1-11.7l-.7-.4.7.2c4.6,1.5,9.6-.7,11.7-5.1l.4-.7-.2.7c-1.5,4.6.7,9.6,5.1,11.7Z" fill="#0a0"/>
    <path d="M265.5,69.9l.7.4-.7-.2c-4.5-1.7-9.6.2-11.9,4.5l-.4.7.2-.7c1.7-4.5-.2-9.6-4.5-11.9l-.7-.4.7.2c4.5,1.7,9.6-.2,11.9-4.5l.4-.7-.2.7c-1.7,4.5.2,9.6,4.5,11.9Z" fill="#0a0"/>
    <path d="M323.4,60.9l.7.4-.7-.2c-4.5-1.7-9.6.3-11.9,4.5l-.4.7.2-.7c1.7-4.5-.3-9.6-4.5-11.9l-.7-.4.7.2c4.5,1.7,9.6-.3,11.9-4.5l.4-.7-.2.7c-1.7,4.5.3,9.6,4.5,11.9Z" fill="#0a0"/>
  </g>
  <g>
    <g>
      <path d="M225.4,387.9v-43.5c0-1,.8-1.8,1.8-1.8h38.2c1,0,1.8.8,1.8,1.8v43.5" fill="none" stroke="#171c3a" stroke-linecap="round" stroke-linejoin="round" stroke-width="3"/>
      <polygon points="296.3 538.9 180 538.9 195 370.6 311.3 370.6 296.3 538.9" fill="#b8860b" stroke="#171c3a" stroke-linecap="round" stroke-linejoin="round"/>
      <polygon points="228.6 538.9 180 538.9 203.4 521.3 201.7 370.6 217.8 370.6 228.6 538.9" fill="none" stroke="#171c3a" stroke-linecap="round" stroke-linejoin="round"/>
      <polygon points="342.3 538.9 226 538.9 206 370.6 322.3 370.6 342.3 538.9" fill="#ffc56d" stroke="#171c3a" stroke-linecap="round" stroke-linejoin="round"/>
      <g>
        <circle cx="244.7" cy="383" r="3.4" fill="#b8860b" stroke="#171c3a" stroke-linecap="round" stroke-linejoin="round"/>
        <circle cx="286.5" cy="383" r="3.4" fill="#b8860b" stroke="#171c3a" stroke-linecap="round" stroke-linejoin="round"/>
      </g>
      <path d="M244.6,382.5v-43.5c0-1,.8-1.8,1.8-1.8h38.2c1,0,1.8.8,1.8,1.8v43.5" fill="none" stroke="#171c3a" stroke-linecap="round" stroke-linejoin="round" stroke-width="3"/>
    </g>
    <g>
      <path d="M137.2,450.1v-25.6c0-.6.5-1.1,1.1-1.1h22.5c.6,0,1.1.5,1.1,1.1v25.6" fill="none" stroke="#171c3a" stroke-linecap="round" stroke-linejoin="round" stroke-width="3"/>
      <polygon points="178.9 538.9 110.5 538.9 119.4 439.9 187.7 439.9 178.9 538.9" fill="#1fc199" stroke="#171c3a" stroke-linecap="round" stroke-linejoin="round"/>
      <polygon points="139.1 538.9 110.7 538.9 124.3 528.6 123.3 439.9 132.8 439.9 139.1 538.9" fill="none" stroke="#171c3a" stroke-linecap="round" stroke-linejoin="round"/>
      <polygon points="206 538.9 137.6 538.9 125.8 439.9 194.2 439.9 206 538.9" fill="#48ffd3" stroke="#171c3a" stroke-linecap="round" stroke-linejoin="round"/>
      <g>
        <circle cx="148.6" cy="447.2" r="2" fill="#b8860b" stroke="#171c3a" stroke-linecap="round" stroke-linejoin="round"/>
        <circle cx="173.2" cy="447.2" r="2" fill="#b8860b" stroke="#171c3a" stroke-linecap="round" stroke-linejoin="round"/>
      </g>
      <path d="M148.5,446.9v-25.6c0-.6.5-1.1,1.1-1.1h22.5c.6,0,1.1.5,1.1,1.1v25.6" fill="none" stroke="#171c3a" stroke-linecap="round" stroke-linejoin="round" stroke-width="3"/>
    </g>
    <g>
      <path d="M208.4,475.5v-18.3c0-.4.3-.8.8-.8h16.1c.4,0,.8.3.8.8v18.3" fill="none" stroke="#171c3a" stroke-linecap="round" stroke-linejoin="round" stroke-width="3"/>
      <polygon points="238.2 538.9 189.4 538.9 195.7 468.2 244.5 468.2 238.2 538.9" fill="#7081f0" stroke="#171c3a" stroke-linecap="round" stroke-linejoin="round"/>
      <polygon points="209.8 538.9 189.4 538.9 199.2 531.5 198.5 468.2 205.3 468.2 209.8 538.9" fill="none" stroke="#171c3a" stroke-linecap="round" stroke-linejoin="round"/>
      <polygon points="257.6 538.9 208.7 538.9 200.3 468.2 249.2 468.2 257.6 538.9" fill="#9ba6e8" stroke="#171c3a" stroke-linecap="round" stroke-linejoin="round"/>
      <g>
        <circle cx="216.6" cy="473.4" r="1.4" fill="#b8860b" stroke="#171c3a" stroke-linecap="round" stroke-linejoin="round"/>
        <circle cx="234.1" cy="473.4" r="1.4" fill="#b8860b" stroke="#171c3a" stroke-linecap="round" stroke-linejoin="round"/>
      </g>
      <path d="M216.5,473.2v-18.3c0-.4.3-.8.8-.8h16.1c.4,0,.8.3.8.8v18.3" fill="none" stroke="#171c3a" stroke-linecap="round" stroke-linejoin="round" stroke-width="3"/>
    </g>
    <g>
      <path d="M593.5,450.1v-25.6c0-.6-.5-1.1-1.1-1.1h-22.5c-.6,0-1.1.5-1.1,1.1v25.6" fill="none" stroke="#171c3a" stroke-linecap="round" stroke-linejoin="round" stroke-width="3"/>
      <polygon points="551.8 538.9 620.2 538.9 611.4 439.9 543 439.9 551.8 538.9" fill="#7081f0" stroke="#171c3a" stroke-linecap="round" stroke-linejoin="round"/>
      <polygon points="591.6 538.9 620.1 538.9 606.4 528.6 607.4 439.9 597.9 439.9 591.6 538.9" fill="none" stroke="#171c3a" stroke-linecap="round" stroke-linejoin="round"/>
      <polygon points="524.7 538.9 593.1 538.9 604.9 439.9 536.5 439.9 524.7 538.9" fill="#9ba6e8" stroke="#171c3a" stroke-linecap="round" stroke-linejoin="round"/>
      <g>
        <circle cx="582.1" cy="447.2" r="2" fill="#b8860b" stroke="#171c3a" stroke-linecap="round" stroke-linejoin="round"/>
        <circle cx="557.5" cy="447.2" r="2" fill="#b8860b" stroke="#171c3a" stroke-linecap="round" stroke-linejoin="round"/>
      </g>
      <path d="M582.2,446.9v-25.6c0-.6-.5-1.1-1.1-1.1h-22.5c-.6,0-1.1.5-1.1,1.1v25.6" fill="none" stroke="#171c3a" stroke-linecap="round" stroke-linejoin="round" stroke-width="3"/>
    </g>
  </g>
  <g>
    <path d="M343.1,191.8c0,0,0-.1,0-.1h2.1s0,0,0,0l3.4,10.4c0,0,.1,0,.2,0l3.4-10.4s0,0,0,0h2.1c0,0,.1,0,0,.1l-4,12.5c0,0,0,0-.1,0h-3.1s0,0-.1,0l-4.1-12.5Z" fill="#171c3a"/>
    <path d="M355.7,191.7c0,0,0,0,0,0h2c0,0,0,0,0,0v12.5c0,0,0,0,0,0h-2c0,0,0,0,0,0v-12.5Z" fill="#171c3a"/>
    <path d="M360.2,191.7c0,0,0,0,0,0h5.3c2,0,3.8,1.7,3.8,3.9s-1.8,3.9-3.8,3.9h-3.1s0,0,0,0v4.7c0,0,0,0,0,0h-2c0,0,0,0,0,0v-12.5ZM362.4,197.4c0,0,0,0,0,0h2.9c1,0,1.8-.9,1.8-1.9s-.9-1.9-1.8-1.9h-3s0,0,0,0v3.7Z" fill="#171c3a"/>
    <path d="M374.6,191.7c0,0,0,0,0,0h5.3c2,0,3.8,1.7,3.8,3.9s-.2,1.4-.5,2-.8,1.1-1.4,1.4c0,0,0,0,0,0l2.3,5.2c0,0,0,.1,0,.1h-2.1s0,0,0,0l-2.1-4.7c0,0,0,0,0,0h-2.8s0,0,0,0v4.7c0,0,0,0,0,0h-2c0,0,0,0,0,0v-12.5ZM376.8,197.4c0,0,0,0,0,0h3c.9,0,1.8-.9,1.8-1.9s-.9-1.9-1.8-1.9h-3s0,0,0,0v3.7Z" fill="#171c3a"/>
    <path d="M385.6,191.7c0,0,0,0,0,0h8.8c0,0,0,0,0,0v1.8c0,0,0,0,0,0h-6.6c0,0,0,0,0,0v3.1c0,0,0,0,0,0h5.7c0,0,0,0,0,0v1.8c0,0,0,0,0,0h-5.7c0,0,0,0,0,0v3.3c0,0,0,0,0,0h6.6c0,0,0,0,0,0v1.8c0,0,0,0,0,0h-8.8c0,0,0,0,0,0v-12.5Z" fill="#171c3a"/>
    <path d="M395.6,191.8c0,0,0-.1,0-.1h2.2c0,0,0,0,.1,0l1.8,10.4c0,.1.2,0,.2,0l2.1-10.4c0,0,0,0,.1,0h3.5c0,0,0,0,.1,0l2.1,10.4c0,.1.1.1.2,0l1.8-10.4c0,0,0,0,.1,0h2.2c0,0,.1,0,0,.1l-2.5,12.5c0,0,0,0-.1,0h-3.5c0,0,0,0-.1,0l-2.1-10.4c0-.1-.2-.1-.2,0l-2.1,10.4c0,0,0,0,0,0h-3.5c0,0,0,0-.1,0l-2.5-12.5Z" fill="#171c3a"/>
    <path d="M416.2,191.7c0,0,0,0,.1,0h2.9s0,0,.1,0l4.2,12.5c0,0,0,.1,0,.1h-2.1s0,0-.1,0l-.8-2.4c0,0,0,0-.1,0h-5.1c0,0-.1,0-.1,0l-.8,2.4c0,0,0,0-.1,0h-2.1c0,0-.1,0,0-.1l4.2-12.5ZM415.7,199.7c0,0,0,0,0,0h3.9c0,0,0,0,0,0l-1.9-5.9c0,0-.1-.1-.2,0l-1.9,5.9Z" fill="#171c3a"/>
    <path d="M424.6,191.7c0,0,0,0,0,0h5.3c2,0,3.8,1.7,3.8,3.9s-.2,1.4-.5,2-.8,1.1-1.4,1.4c0,0,0,0,0,0l2.3,5.2c0,0,0,.1,0,.1h-2.1s0,0,0,0l-2.1-4.7c0,0,0,0,0,0h-2.8s0,0,0,0v4.7c0,0,0,0,0,0h-2c0,0,0,0,0,0v-12.5ZM426.8,197.4c0,0,0,0,0,0h3c.9,0,1.8-.9,1.8-1.9s-.9-1.9-1.8-1.9h-3s0,0,0,0v3.7Z" fill="#171c3a"/>
    <path d="M435.7,191.7c0,0,0,0,0,0h4.6c3.8,0,5.7,2.7,5.7,6.5s-1.9,6.2-5.7,6.2h-4.6c0,0,0,0,0,0v-12.5ZM437.8,202.3c0,0,0,0,0,0h2.5c2.2,0,3.4-1.5,3.4-4.2s-1.3-4.5-3.4-4.5h-2.5s0,0,0,0v8.5Z" fill="#171c3a"/>
    <path d="M447.2,200.8h2.1c0,0,0,0,0,0,0,.9,1.2,1.7,2.7,1.7s2.6-.9,2.6-1.9-.2-.8-.6-1.1c-.4-.3-1.1-.5-2-.6-3-.2-4.8-1.2-4.8-3.7s2.2-3.7,4.5-3.7,4.6,1.3,4.6,3.6,0,0,0,0h-2.1c0,0,0,0,0,0,0-.8-.8-1.7-2.3-1.7s-2.2.8-2.2,1.8,1.4,1.4,2.6,1.5c1.9.2,4.9.6,4.9,3.9s-1.8,3.9-4.9,3.9c-3.6,0-4.9-2-4.9-3.6,0,0,0,0,0,0Z" fill="#171c3a"/>
    <path d="M361.9,213.3c0,0,0,0,0,0h8.8c0,0,0,0,0,0v1.8c0,0,0,0,0,0h-6.6c0,0,0,0,0,0v3.1c0,0,0,0,0,0h5.7c0,0,0,0,0,0v1.8c0,0,0,0,0,0h-5.7c0,0,0,0,0,0v3.3c0,0,0,0,0,0h6.6c0,0,0,0,0,0v1.8c0,0,0,0,0,0h-8.8c0,0,0,0,0,0v-12.5Z" fill="#171c3a"/>
    <path d="M372.7,213.3c0,0,0,0,0,0h2.7s0,0,.1,0l4.9,9.5c0,.1.2,0,.2,0v-9.5c0,0,0,0,0,0h2c0,0,0,0,0,0v12.5c0,0,0,0,0,0h-2.7c0,0-.1,0-.1,0l-4.9-9.5c0-.1-.2-.1-.2,0v9.5c0,0,0,0,0,0h-2s0,0,0,0v-12.5Z" fill="#171c3a"/>
    <path d="M388.2,213.3c0,0,0,0,.1,0h2.9s0,0,.1,0l4.2,12.5c0,0,0,.1,0,.1h-2.1s0,0-.1,0l-.8-2.4c0,0,0,0-.1,0h-5.1c0,0-.1,0-.1,0l-.8,2.4c0,0,0,0-.1,0h-2.1c0,0-.1,0,0-.1l4.2-12.5ZM387.8,221.3c0,0,0,0,0,0h3.9c0,0,0,0,0,0l-1.9-5.9c0,0-.1-.1-.2,0l-1.9,5.9Z" fill="#171c3a"/>
    <path d="M396.7,213.3c0,0,0,0,0,0h6c2,0,3.4,1.7,3.4,3.7s-.7,2.1-1.4,2.5c0,0-.1.1,0,.2.9.4,1.7,1.5,1.7,2.6,0,2.2-1.5,3.7-3.7,3.7h-6c0,0,0,0,0,0v-12.5ZM398.9,218.4c0,0,0,0,0,0h3.5c.8,0,1.6-.7,1.6-1.5s-.5-1.7-1.5-1.7h-3.7s0,0,0,0v3.1ZM398.9,223.9c0,0,0,0,0,0h3.5c.9,0,1.9-.8,1.9-1.7s-.8-1.7-1.7-1.7h-3.7s0,0,0,0v3.3Z" fill="#171c3a"/>
    <path d="M408.3,213.3c0,0,0,0,0,0h2c0,0,0,0,0,0v10.5s0,0,0,0h6.1c0,0,0,0,0,0v1.8c0,0,0,0,0,0h-8.3c0,0,0,0,0,0v-12.5Z" fill="#171c3a"/>
    <path d="M418,213.3c0,0,0,0,0,0h8.8c0,0,0,0,0,0v1.8c0,0,0,0,0,0h-6.6c0,0,0,0,0,0v3.1c0,0,0,0,0,0h5.7c0,0,0,0,0,0v1.8c0,0,0,0,0,0h-5.7c0,0,0,0,0,0v3.3c0,0,0,0,0,0h6.6c0,0,0,0,0,0v1.8c0,0,0,0,0,0h-8.8c0,0,0,0,0,0v-12.5Z" fill="#171c3a"/>
    <path d="M428.7,213.3c0,0,0,0,0,0h4.6c3.8,0,5.7,2.7,5.7,6.5s-1.9,6.2-5.7,6.2h-4.6c0,0,0,0,0,0v-12.5ZM430.9,223.9c0,0,0,0,0,0h2.5c2.2,0,3.4-1.5,3.4-4.2s-1.3-4.5-3.4-4.5h-2.5s0,0,0,0v8.5Z" fill="#171c3a"/>
  </g>
</svg>