<?xml version="1.0" encoding="UTF-8" standalone="no"?>
<!DOCTYPE svg PUBLIC "-//W3C//DTD SVG 1.1//EN"
	"http://www.w3.org/Graphics/SVG/1.1/DTD/svg11.dtd">
<svg width="800" height="600" viewBox="0 0 800 600" fill="none" xmlns="http://www.w3.org/2000/svg">
<path d="M305.283 292.426L269.283 305.706L252.203 273.566L265.133 269.066L305.283 292.426Z" fill="#B0B3CB" stroke="#171C3A" stroke-linecap="round" stroke-linejoin="round"/>
<path d="M448.953 264.847L314.243 314.557L273.883 314.357L269.283 305.707L305.283 292.427L418.313 250.717C430.673 246.157 444.393 252.488 448.953 264.847Z" fill="#B0B3CB" stroke="#171C3A" stroke-linecap="round" stroke-linejoin="round"/>
<path d="M320.37 291.709L303.076 298.044L341.128 304.632L371.321 293.491L320.37 291.709Z" fill="#B0B3CB" stroke="#171C3A" stroke-linecap="round" stroke-linejoin="round"/>
<path d="M368.272 294.615L350.355 301.226C348.487 301.916 347.531 303.989 348.22 305.858C348.91 307.726 350.983 308.682 352.852 307.992L370.769 301.381C372.637 300.692 373.593 298.618 372.904 296.75C372.214 294.882 370.141 293.926 368.272 294.615Z" fill="#B0B3CB" stroke="#171C3A" stroke-linecap="round" stroke-linejoin="round"/>
<path d="M421.414 262.767L442.214 255.091C440.119 253.276 437.722 251.861 435.154 250.869L419.196 256.757C417.537 257.369 416.688 259.211 417.301 260.87C417.914 262.529 419.755 263.38 421.414 262.767Z" fill="#B0B3CB" stroke="#171C3A" stroke-linecap="round" stroke-linejoin="round"/>
<path d="M568.385 226.939V329.349C568.385 331.289 566.815 332.849 564.885 332.849C562.945 332.849 561.385 331.289 561.385 329.349V289.659C539.305 288.669 473.895 291.249 403.135 314.489C403.085 314.509 403.045 314.519 402.995 314.539V462.599C402.995 464.529 401.435 466.099 399.495 466.099C397.565 466.099 395.995 464.529 395.995 462.599V316.899C316.675 344.269 242.225 391.419 230.615 398.929V491.119C230.615 493.059 229.055 494.619 227.115 494.619C225.185 494.619 223.615 493.059 223.615 491.119V192.088C204.985 205.628 194.065 215.978 193.915 216.118C193.235 216.758 192.365 217.088 191.495 217.088C190.575 217.088 189.655 216.718 188.965 215.998C187.635 214.598 187.685 212.388 189.085 211.048C189.755 210.408 202.255 198.548 223.615 183.448C225.395 182.188 227.235 180.918 229.135 179.618C234.125 176.208 239.525 172.668 245.315 169.098C277.125 149.458 326.775 125.068 382.665 120.408C382.765 120.398 382.865 120.398 382.965 120.398V127.418C328.635 131.998 280.205 155.798 249.145 174.968C242.455 179.098 236.255 183.198 230.615 187.118V390.628C250.375 378.108 321.245 334.908 395.995 309.498V226.938H402.995V307.178C473.505 284.368 538.645 281.708 561.385 282.648V226.938L568.385 226.939Z" fill="#E9ECE4" stroke="#171C3A" stroke-linecap="round" stroke-linejoin="round"/>
<path d="M470.405 493.849V505.089C470.405 530.359 410.715 550.849 337.085 550.849C263.455 550.849 203.755 530.359 203.755 505.089V493.849C203.755 495.749 204.095 497.629 204.755 499.469C212.815 522.099 268.985 539.619 337.085 539.619C405.185 539.619 461.345 522.099 469.405 499.469C470.065 497.629 470.405 495.749 470.405 493.849Z" fill="#7080E2" stroke="#171C3A" stroke-linecap="round" stroke-linejoin="round"/>
<path d="M470.405 493.849C470.405 495.749 470.065 497.629 469.405 499.469C461.345 522.099 405.175 539.619 337.085 539.619C268.995 539.619 212.814 522.099 204.755 499.469C204.095 497.629 203.755 495.749 203.755 493.849C203.755 468.578 263.445 448.089 337.085 448.089C410.725 448.089 470.405 468.579 470.405 493.849Z" fill="#BFC9FF" stroke="#171C3A" stroke-linecap="round" stroke-linejoin="round"/>
<path d="M304.623 451.339C304.623 453.159 296.712 454.649 286.953 454.649C277.495 454.649 269.775 453.249 269.303 451.509C269.293 451.449 269.283 451.399 269.283 451.339C269.283 449.509 277.194 448.029 286.953 448.029C296.712 448.029 304.623 449.509 304.623 451.339Z" fill="#FF8DA9" stroke="#171C3A" stroke-linecap="round" stroke-linejoin="round"/>
<path d="M304.593 431.199L298.273 486.549C298.273 488.119 293.203 489.389 286.953 489.389C280.703 489.389 275.643 488.119 275.643 486.549L269.313 431.199C269.843 433.529 277.543 435.379 286.953 435.379C296.363 435.379 304.063 433.529 304.593 431.199Z" fill="#FF5574" stroke="#171C3A" stroke-linecap="round" stroke-linejoin="round"/>
<path d="M306.389 427.47V431.508L306.358 431.788C305.768 434.324 297.298 436.334 286.954 436.334C276.61 436.334 268.13 434.325 267.55 431.788L267.519 431.508V427.47L267.55 427.75C267.643 428.174 267.964 428.578 268.482 428.961C271.019 430.907 278.329 432.295 286.954 432.295C295.579 432.295 302.889 430.898 305.426 428.961C305.944 428.578 306.254 428.174 306.358 427.75L306.389 427.47Z" fill="#FFB2C9" stroke="#171C3A" stroke-linecap="round" stroke-linejoin="round"/>
<path d="M306.389 427.47L306.358 427.75C306.254 428.174 305.944 428.578 305.426 428.961C302.889 430.897 295.569 432.295 286.954 432.295C278.339 432.295 271.019 430.908 268.482 428.961C267.964 428.578 267.643 428.174 267.55 427.75L267.519 427.47C267.519 424.809 276.217 422.645 286.954 422.645C297.691 422.645 306.389 424.809 306.389 427.47Z" fill="#FFB2C9" stroke="#171C3A" stroke-linecap="round" stroke-linejoin="round"/>
<path d="M300.605 427.468L300.597 427.536C300.456 428.148 298.412 428.633 295.913 428.633C293.414 428.633 291.37 428.147 291.229 427.536L291.221 427.468C291.221 426.825 293.321 426.303 295.913 426.303C298.505 426.303 300.605 426.825 300.605 427.468Z" fill="#171C3A" stroke="#171C3A" stroke-linecap="round" stroke-linejoin="round"/>
<path d="M304.623 451.339L303.223 463.069H303.203C303.203 464.769 295.893 466.139 286.883 466.139C277.873 466.139 270.563 464.769 270.563 463.069L269.303 451.509C269.773 453.249 277.463 454.649 286.883 454.649C296.603 454.649 304.483 453.159 304.483 451.339H304.623Z" fill="#FF8DA9" stroke="#171C3A" stroke-linecap="round" stroke-linejoin="round"/>
<path d="M385.891 491.818C386.205 490.849 388.296 490.501 390.561 491.04C391.372 491.233 392.089 491.515 392.668 491.84L395.904 489.364C394.017 488.763 392.775 487.696 393.057 486.829C393.371 485.86 395.462 485.511 397.727 486.05C398.367 486.202 398.943 486.413 399.446 486.653L402.296 484.472C400.623 483.855 399.557 482.876 399.819 482.067C400.133 481.098 402.224 480.75 404.489 481.289C404.988 481.408 405.447 481.564 405.867 481.739L409.561 478.913L345.148 462.988L342.459 464.871C343.867 465.488 344.717 466.366 344.479 467.099C344.165 468.068 342.074 468.416 339.809 467.877C339.403 467.781 339.03 467.656 338.675 467.521L335.674 469.623C337.095 470.241 337.955 471.122 337.716 471.859C337.402 472.828 335.311 473.176 333.046 472.637C332.632 472.538 332.251 472.411 331.89 472.273L328.536 474.623C329.941 475.24 330.788 476.116 330.55 476.849C330.236 477.818 328.145 478.166 325.88 477.627C325.477 477.531 325.105 477.408 324.752 477.274L320.613 480.173L385.469 497.347L389.208 494.486C387.062 493.922 385.586 492.754 385.89 491.817L385.891 491.818Z" fill="#FAFAF9" stroke="#171C3A" stroke-linecap="round" stroke-linejoin="round"/>
<path d="M337.191 479.358L352.062 468.942" stroke="#171C3A" stroke-linecap="round" stroke-linejoin="round"/>
<path d="M345.006 481.669L359.877 471.253" stroke="#171C3A" stroke-linecap="round" stroke-linejoin="round"/>
<path d="M352.454 483.867L367.325 473.451" stroke="#171C3A" stroke-linecap="round" stroke-linejoin="round"/>
<path d="M360.024 485.678L374.895 475.262" stroke="#171C3A" stroke-linecap="round" stroke-linejoin="round"/>
<path d="M368.32 487.892L383.191 477.476" stroke="#171C3A" stroke-linecap="round" stroke-linejoin="round"/>
<path d="M376.676 490.123L391.547 479.707" stroke="#171C3A" stroke-linecap="round" stroke-linejoin="round"/>
<path d="M580.839 94H387.993C385.213 94 382.96 96.2534 382.96 99.033V221.909C382.96 224.689 385.213 226.942 387.993 226.942H580.839C583.618 226.942 585.872 224.689 585.872 221.909V99.033C585.872 96.2534 583.618 94 580.839 94Z" fill="#E9ECE4" stroke="#171C3A" stroke-linecap="round" stroke-linejoin="round"/>
<path d="M441.095 129.615C441.095 117.583 431.341 107.829 419.309 107.829C407.277 107.829 397.523 117.583 397.523 129.615C397.523 141.647 407.277 151.401 419.309 151.401C431.341 151.401 441.095 141.647 441.095 129.615Z" fill="#2E314F" stroke="#171C3A" stroke-linecap="round" stroke-linejoin="round"/>
<path d="M407.599 130.312L414.054 138.252C415.606 140.161 418.536 140.112 420.024 138.153L433.402 120.529" stroke="#00FA6C" stroke-width="3" stroke-linecap="round" stroke-linejoin="round"/>
<path d="M441.095 191.328C441.095 179.296 431.341 169.542 419.309 169.542C407.277 169.542 397.523 179.296 397.523 191.328C397.523 203.36 407.277 213.114 419.309 213.114C431.341 213.114 441.095 203.36 441.095 191.328Z" fill="#2E314F" stroke="#171C3A" stroke-linecap="round" stroke-linejoin="round"/>
<path d="M407.599 192.024L414.054 199.964C415.606 201.873 418.536 201.824 420.024 199.865L433.402 182.241" stroke="#00FA6C" stroke-width="3" stroke-linecap="round" stroke-linejoin="round"/>
<path d="M568.109 107.829H524.537V151.401H568.109V107.829Z" stroke="#171C3A" stroke-linecap="round" stroke-linejoin="round"/>
<path d="M533.261 125.518C533.261 119.444 539.16 114.52 546.436 114.52C553.712 114.52 559.611 119.444 559.611 125.518H533.262H533.261Z" stroke="#171C3A" stroke-linecap="round" stroke-linejoin="round"/>
<path d="M560.787 127.997H531.859C530.84 127.997 530.015 128.823 530.015 129.841V130.339C530.015 131.357 530.84 132.183 531.859 132.183H560.787C561.805 132.183 562.631 131.357 562.631 130.339V129.841C562.631 128.823 561.805 127.997 560.787 127.997Z" stroke="#171C3A" stroke-linecap="round" stroke-linejoin="round"/>
<path d="M556.328 134.663V136.681C556.328 137.285 555.838 137.775 555.234 137.775C554.63 137.775 554.14 137.285 554.14 136.681V134.663H552.492C552.492 134.683 552.498 134.7 552.498 134.72V137.638C552.498 138.444 551.845 139.097 551.039 139.097C550.233 139.097 549.58 138.444 549.58 137.638V134.72C549.58 134.7 549.585 134.683 549.586 134.663H533.262C533.262 140.212 539.161 144.71 546.437 144.71C553.713 144.71 559.612 140.212 559.612 134.663H556.33H556.328Z" stroke="#171C3A" stroke-linecap="round" stroke-linejoin="round"/>
<path d="M539.901 121.2C540.323 121.2 540.665 120.858 540.665 120.436C540.665 120.014 540.323 119.672 539.901 119.672C539.479 119.672 539.137 120.014 539.137 120.436C539.137 120.858 539.479 121.2 539.901 121.2Z" stroke="#171C3A" stroke-linecap="round" stroke-linejoin="round"/>
<path d="M543.925 118.978C544.347 118.978 544.689 118.636 544.689 118.214C544.689 117.792 544.347 117.45 543.925 117.45C543.503 117.45 543.161 117.792 543.161 118.214C543.161 118.636 543.503 118.978 543.925 118.978Z" stroke="#171C3A" stroke-linecap="round" stroke-linejoin="round"/>
<path d="M544.689 122.728C545.111 122.728 545.453 122.386 545.453 121.964C545.453 121.542 545.111 121.2 544.689 121.2C544.267 121.2 543.925 121.542 543.925 121.964C543.925 122.386 544.267 122.728 544.689 122.728Z" stroke="#171C3A" stroke-linecap="round" stroke-linejoin="round"/>
<path d="M548.564 120.783C548.986 120.783 549.328 120.441 549.328 120.019C549.328 119.597 548.986 119.255 548.564 119.255C548.142 119.255 547.8 119.597 547.8 120.019C547.8 120.441 548.142 120.783 548.564 120.783Z" stroke="#171C3A" stroke-linecap="round" stroke-linejoin="round"/>
<path d="M552.212 118.978C552.634 118.978 552.976 118.636 552.976 118.214C552.976 117.792 552.634 117.45 552.212 117.45C551.79 117.45 551.448 117.792 551.448 118.214C551.448 118.636 551.79 118.978 552.212 118.978Z" stroke="#171C3A" stroke-linecap="round" stroke-linejoin="round"/>
<path d="M553.261 122.728C553.683 122.728 554.025 122.386 554.025 121.964C554.025 121.542 553.683 121.2 553.261 121.2C552.839 121.2 552.497 121.542 552.497 121.964C552.497 122.386 552.839 122.728 553.261 122.728Z" stroke="#171C3A" stroke-linecap="round" stroke-linejoin="round"/>
<path d="M524.538 169.542V213.114H568.11V169.542H524.538Z" stroke="#171C3A" stroke-linecap="round" stroke-linejoin="round"/>
<path d="M558.843 178.363C557.653 177.173 555.725 177.173 554.536 178.363L550.35 182.549L538.175 180.961L545.056 187.842L541.15 191.748L532.912 190.175L539.971 197.235C541.161 198.425 543.09 198.425 544.279 197.235L558.842 182.672C560.032 181.482 560.032 179.553 558.842 178.364L558.843 178.363Z" stroke="#171C3A" stroke-linecap="round" stroke-linejoin="round"/>
<path d="M532.462 203.818H560.185" stroke="#171C3A" stroke-linecap="round" stroke-linejoin="round"/>
<path d="M495.487 117.523H452.269C450.163 117.523 448.456 119.23 448.456 121.335C448.456 123.441 450.163 125.148 452.269 125.148H495.487C497.593 125.148 499.3 123.441 499.3 121.335C499.3 119.23 497.593 117.523 495.487 117.523Z" fill="#FFCD82" stroke="#171C3A" stroke-linecap="round" stroke-linejoin="round"/>
<path d="M475.302 131.197H452.269C450.163 131.197 448.456 132.904 448.456 135.009C448.456 137.115 450.163 138.822 452.269 138.822H475.302C477.408 138.822 479.115 137.115 479.115 135.009C479.115 132.904 477.408 131.197 475.302 131.197Z" fill="#A6B3FF" stroke="#171C3A" stroke-linecap="round" stroke-linejoin="round"/>
<path d="M495.487 179.654H452.269C450.163 179.654 448.456 181.361 448.456 183.466C448.456 185.572 450.163 187.279 452.269 187.279H495.487C497.593 187.279 499.3 185.572 499.3 183.466C499.3 181.361 497.593 179.654 495.487 179.654Z" fill="#FF8DA9" stroke="#171C3A" stroke-linecap="round" stroke-linejoin="round"/>
<path d="M475.302 193.328H452.269C450.163 193.328 448.456 195.035 448.456 197.141C448.456 199.246 450.163 200.953 452.269 200.953H475.302C477.408 200.953 479.115 199.246 479.115 197.141C479.115 195.035 477.408 193.328 475.302 193.328Z" fill="#48FFD3" stroke="#171C3A" stroke-linecap="round" stroke-linejoin="round"/>
<path d="M451.151 496.507C451.151 496.507 423.402 496.196 415.936 496.507C408.471 496.818 387.559 500.808 386.176 507.264C385.846 508.802 386.228 510.698 387.442 511.738C386.584 512.89 386.158 514.125 386.297 515.42C386.503 517.344 387.686 518.053 389.206 518.111C387.738 520.672 389.151 522.994 392.329 523.675C396.624 524.597 398.863 519.758 408.309 516.994C417.755 514.229 422.363 516.764 427.37 516.994C432.377 517.224 458.997 516.994 458.997 516.994L451.151 496.507Z" fill="#FFE3BB" stroke="#171C3A" stroke-linecap="round" stroke-linejoin="round"/>
<path d="M451.151 496.507C451.151 496.507 423.402 496.196 415.936 496.507C408.471 496.818 387.559 500.808 386.175 507.264C385.846 508.802 386.223 510.701 387.436 511.741" stroke="#171C3A" stroke-linecap="round" stroke-linejoin="round"/>
<path d="M458.997 516.994C458.997 516.994 432.378 517.224 427.37 516.994C422.363 516.764 417.755 514.229 408.308 516.994C398.862 519.759 396.623 524.597 392.328 523.676C388.033 522.754 386.946 518.838 391.867 515.382C396.788 511.926 408.312 507.012 416.372 507.511L423.807 507.972" stroke="#171C3A" stroke-linecap="round" stroke-linejoin="round"/>
<path d="M389.197 518.113C387.68 518.054 386.502 517.341 386.296 515.42C385.758 510.403 393.643 506.281 402.602 504.489C411.562 502.697 423.03 503.593 423.03 503.593" stroke="#171C3A" stroke-linecap="round" stroke-linejoin="round"/>
<path d="M456.253 468.409C462.558 469.46 494.385 472.462 494.385 472.462C494.385 472.462 506.545 466.757 506.545 464.956V457.9C506.545 457.9 484.404 455.105 473.256 449.447C462.108 443.788 435.605 447.309 435.605 447.309L456.253 468.409Z" fill="#FFE3BB" stroke="#171C3A" stroke-linecap="round" stroke-linejoin="round"/>
<path d="M455.971 461.447L396.318 441.864C393.725 441.013 393.086 437.568 395.176 435.708L413.84 419.09C414.791 418.244 416.096 417.965 417.274 418.358L473.439 437.092C475.83 437.89 476.598 440.951 474.897 442.908L459.721 460.375C458.776 461.463 457.302 461.884 455.971 461.447Z" fill="#171C3A" stroke="#171C3A" stroke-linecap="round" stroke-linejoin="round"/>
<path d="M455.96 458.635L396.304 439.058C393.711 438.207 393.076 434.751 395.169 432.881L413.863 416.18C414.815 415.329 416.122 415.048 417.3 415.441L473.467 434.17C475.858 434.967 476.622 438.039 474.918 440.005L459.712 457.554C458.765 458.647 457.291 459.072 455.96 458.635Z" fill="#171C3A" stroke="#171C3A" stroke-linecap="round" stroke-linejoin="round"/>
<path d="M397.796 432.828L414.569 418.012C415.227 417.431 416.143 417.24 416.979 417.51L471.617 435.181C473.313 435.73 473.897 437.833 472.726 439.177L459.169 454.74C458.518 455.487 457.486 455.776 456.542 455.476L398.687 437.057C396.848 436.472 396.349 434.105 397.796 432.827V432.828Z" fill="white" stroke="#171C3A" stroke-linecap="round" stroke-linejoin="round"/>
<path d="M453.065 449.723L407.231 435.068L420.109 423.261L464.727 437.526L453.065 449.723Z" fill="#00FA6C" stroke="#00FA6C" stroke-linecap="round" stroke-linejoin="round"/>
<path d="M439.594 462.216C433.289 461.165 426.983 457.262 423.23 452.458C419.477 447.654 415.423 439.998 416.925 437.896C418.426 435.794 421.351 433.636 425.097 441.465C428.843 449.294 433.139 452.04 435.541 453.15C437.943 454.26 444.398 456.031 444.398 456.031" fill="#FFE3BB"/>
<path d="M439.594 462.216C433.289 461.165 426.983 457.262 423.23 452.458C419.477 447.654 415.423 439.998 416.925 437.896C418.426 435.794 421.351 433.636 425.097 441.465C428.843 449.294 433.139 452.04 435.541 453.15C437.943 454.26 444.398 456.031 444.398 456.031" stroke="#171C3A" stroke-linecap="round" stroke-linejoin="round"/>
<path d="M447.371 465.152C441.066 464.101 434.76 460.198 431.007 455.394C427.254 450.59 423.2 442.934 424.702 440.832C426.203 438.73 429.128 436.572 432.874 444.401C436.62 452.23 440.916 454.976 443.318 456.086C445.72 457.196 452.175 458.967 452.175 458.967" fill="#FFE3BB"/>
<path d="M447.371 465.152C441.066 464.101 434.76 460.198 431.007 455.394C427.254 450.59 423.2 442.934 424.702 440.832C426.203 438.73 429.128 436.572 432.874 444.401C436.62 452.23 440.916 454.976 443.318 456.086C445.72 457.196 452.175 458.967 452.175 458.967" stroke="#171C3A" stroke-linecap="round" stroke-linejoin="round"/>
<path d="M461.057 462.224C461.057 462.224 454.602 460.453 452.2 459.343C449.798 458.233 445.502 455.487 441.756 447.658C438.01 439.829 435.085 441.987 433.584 444.089C432.083 446.191 436.136 453.847 439.889 458.651C443.642 463.455 449.947 467.358 456.253 468.409" fill="#FFE3BB"/>
<path d="M461.057 462.224C461.057 462.224 454.602 460.453 452.2 459.343C449.798 458.233 445.502 455.487 441.756 447.658C438.01 439.829 435.085 441.987 433.584 444.089C432.083 446.191 436.136 453.847 439.889 458.651C443.642 463.455 449.947 467.358 456.253 468.409" stroke="#171C3A" stroke-linecap="round" stroke-linejoin="round"/>
<path d="M506.206 487.403L486.687 481.222C486.687 481.222 484.819 470.925 485.684 462.932C486.819 452.442 495.11 449.019 495.11 449.019L517.276 452.444L506.206 487.403Z" fill="#E9ECE4"/>
<mask id="mask0_7376_150639" style="mask-type:luminance" maskUnits="userSpaceOnUse" x="485" y="449" width="33" height="39">
<path d="M506.206 487.403L486.687 481.222C486.687 481.222 484.819 470.925 485.684 462.932C486.819 452.442 495.11 449.019 495.11 449.019L517.276 452.444L506.206 487.403Z" fill="white"/>
</mask>
<g mask="url(#mask0_7376_150639)">
<path d="M485.922 468.217L476.155 470.693L476.651 472.65L486.419 470.174L485.922 468.217Z" fill="#171C3A" stroke="#171C3A" stroke-width="0.36" stroke-linecap="round" stroke-linejoin="round"/>
<path d="M488.035 455.555L481.388 463.128L482.905 464.46L489.552 456.887L488.035 455.555Z" fill="#171C3A" stroke="#171C3A" stroke-width="0.36" stroke-linecap="round" stroke-linejoin="round"/>
</g>
<path d="M506.206 487.403L486.687 481.222C486.687 481.222 484.819 470.925 485.684 462.932C486.819 452.442 495.11 449.019 495.11 449.019L517.276 452.444L506.206 487.403Z" stroke="#171C3A" stroke-linecap="round" stroke-linejoin="round"/>
<path d="M520.222 317.898L509.375 268.616L557.3 258.067L569.622 314.049C570.626 318.609 570.286 323.158 568.883 327.279C567.291 331.86 564.375 335.927 560.467 338.87C558.754 340.184 556.86 341.263 554.796 342.089C553.565 342.586 552.264 342.985 550.923 343.281C548.597 343.793 546.277 343.965 544.011 343.801C534.063 343.147 525.249 336.415 522.228 326.581L520.22 317.897L520.222 317.898Z" fill="#FFE3BB" stroke="#171C3A" stroke-linecap="round" stroke-linejoin="round"/>
<path d="M504.454 257.709L545.491 248.677C555.26 246.527 564.923 252.703 567.073 262.472L579.524 319.042L535.261 328.785L524.387 279.382C523.516 275.424 519.601 272.921 515.643 273.793L508.692 275.323C503.957 276.365 499.017 273.708 497.692 269.044C496.254 263.979 499.388 258.825 504.453 257.71L504.454 257.709Z" fill="#FFCD82" stroke="#171C3A" stroke-linecap="round" stroke-linejoin="round"/>
<path d="M525.163 287.128C529.586 286.111 533.996 288.871 535.014 293.294C536.031 297.717 533.271 302.127 528.848 303.145" fill="#FFE3BB"/>
<path d="M525.163 287.128C529.586 286.111 533.996 288.871 535.014 293.294C536.031 297.717 533.271 302.127 528.848 303.145" stroke="#171C3A" stroke-linecap="round" stroke-linejoin="round"/>
<path d="M526.058 291.019C528.332 290.496 530.599 291.915 531.122 294.189C531.645 296.463 530.226 298.73 527.952 299.253" fill="#FFE3BB"/>
<path d="M526.058 291.019C528.332 290.496 530.599 291.915 531.122 294.189C531.645 296.463 530.226 298.73 527.952 299.253" stroke="#171C3A" stroke-linecap="round" stroke-linejoin="round"/>
<path d="M504.199 518.03V550.947H553.735C585.636 550.947 611.498 525.086 611.498 493.184V368.195C611.498 344.465 589.523 326.839 566.359 331.987L531.245 339.792C515.443 343.305 504.2 357.321 504.2 373.509V518.03H504.199Z" fill="#E9ECE4"/>
<mask id="mask1_7376_150639" style="mask-type:luminance" maskUnits="userSpaceOnUse" x="504" y="331" width="108" height="220">
<path d="M504.199 518.03V550.947H553.735C585.636 550.947 611.498 525.086 611.498 493.184V368.195C611.498 344.465 589.523 326.839 566.359 331.987L531.245 339.792C515.443 343.305 504.2 357.321 504.2 373.509V518.03H504.199Z" fill="white"/>
</mask>
<g mask="url(#mask1_7376_150639)">
<path d="M589.085 333.441L588.149 335.231L597.078 339.9L598.013 338.111L589.085 333.441Z" fill="#171C3A" stroke="#171C3A" stroke-width="0.36" stroke-linecap="round" stroke-linejoin="round"/>
<path d="M593.922 360.217L584.155 362.693L584.651 364.65L594.418 362.174L593.922 360.217Z" fill="#171C3A" stroke="#171C3A" stroke-width="0.36" stroke-linecap="round" stroke-linejoin="round"/>
<path d="M589.084 369.442L588.148 371.231L597.077 375.9L598.013 374.111L589.084 369.442Z" fill="#171C3A" stroke="#171C3A" stroke-width="0.36" stroke-linecap="round" stroke-linejoin="round"/>
<path d="M596.034 347.555L589.388 355.128L590.905 356.46L597.552 348.887L596.034 347.555Z" fill="#171C3A" stroke="#171C3A" stroke-width="0.36" stroke-linecap="round" stroke-linejoin="round"/>
<path d="M581.656 342.328L581.091 344.266L590.764 347.087L591.329 345.148L581.656 342.328Z" fill="#171C3A" stroke="#171C3A" stroke-width="0.36" stroke-linecap="round" stroke-linejoin="round"/>
<path d="M602.687 353.596L601.922 363.643L603.935 363.796L604.701 353.749L602.687 353.596Z" fill="#171C3A" stroke="#171C3A" stroke-width="0.36" stroke-linecap="round" stroke-linejoin="round"/>
<path d="M611.638 364.866L605.978 373.202L607.648 374.336L613.309 366.001L611.638 364.866Z" fill="#171C3A" stroke="#171C3A" stroke-width="0.36" stroke-linecap="round" stroke-linejoin="round"/>
<path d="M593.921 396.218L584.154 398.693L584.65 400.65L594.417 398.175L593.921 396.218Z" fill="#171C3A" stroke="#171C3A" stroke-width="0.36" stroke-linecap="round" stroke-linejoin="round"/>
<path d="M609.217 379.921L607.424 380.849L612.055 389.798L613.848 388.87L609.217 379.921Z" fill="#171C3A" stroke="#171C3A" stroke-width="0.36" stroke-linecap="round" stroke-linejoin="round"/>
<path d="M589.084 405.442L588.148 407.231L597.077 411.9L598.013 410.111L589.084 405.442Z" fill="#171C3A" stroke="#171C3A" stroke-width="0.36" stroke-linecap="round" stroke-linejoin="round"/>
<path d="M596.034 383.554L589.388 391.127L590.905 392.459L597.552 384.886L596.034 383.554Z" fill="#171C3A" stroke="#171C3A" stroke-width="0.36" stroke-linecap="round" stroke-linejoin="round"/>
<path d="M581.656 378.327L581.091 380.266L590.764 383.086L591.33 381.148L581.656 378.327Z" fill="#171C3A" stroke="#171C3A" stroke-width="0.36" stroke-linecap="round" stroke-linejoin="round"/>
<path d="M602.687 389.596L601.922 399.642L603.935 399.796L604.701 389.749L602.687 389.596Z" fill="#171C3A" stroke="#171C3A" stroke-width="0.36" stroke-linecap="round" stroke-linejoin="round"/>
<path d="M611.639 400.866L605.979 409.202L607.649 410.336L613.31 402.001L611.639 400.866Z" fill="#171C3A" stroke="#171C3A" stroke-width="0.36" stroke-linecap="round" stroke-linejoin="round"/>
<path d="M593.922 432.217L584.155 434.693L584.651 436.65L594.418 434.174L593.922 432.217Z" fill="#171C3A" stroke="#171C3A" stroke-width="0.36" stroke-linecap="round" stroke-linejoin="round"/>
<path d="M609.218 415.921L607.424 416.849L612.055 425.798L613.848 424.87L609.218 415.921Z" fill="#171C3A" stroke="#171C3A" stroke-width="0.36" stroke-linecap="round" stroke-linejoin="round"/>
<path d="M589.084 441.442L588.149 443.231L597.078 447.901L598.013 446.111L589.084 441.442Z" fill="#171C3A" stroke="#171C3A" stroke-width="0.36" stroke-linecap="round" stroke-linejoin="round"/>
<path d="M596.034 419.555L589.387 427.127L590.905 428.459L597.551 420.886L596.034 419.555Z" fill="#171C3A" stroke="#171C3A" stroke-width="0.36" stroke-linecap="round" stroke-linejoin="round"/>
<path d="M581.656 414.328L581.091 416.266L590.765 419.086L591.33 417.148L581.656 414.328Z" fill="#171C3A" stroke="#171C3A" stroke-width="0.36" stroke-linecap="round" stroke-linejoin="round"/>
<path d="M602.687 425.596L601.922 435.642L603.935 435.796L604.701 425.749L602.687 425.596Z" fill="#171C3A" stroke="#171C3A" stroke-width="0.36" stroke-linecap="round" stroke-linejoin="round"/>
<path d="M611.639 436.866L605.979 445.202L607.649 446.337L613.31 438.001L611.639 436.866Z" fill="#171C3A" stroke="#171C3A" stroke-width="0.36" stroke-linecap="round" stroke-linejoin="round"/>
<path d="M593.922 468.217L584.155 470.692L584.651 472.65L594.418 470.174L593.922 468.217Z" fill="#171C3A" stroke="#171C3A" stroke-width="0.36" stroke-linecap="round" stroke-linejoin="round"/>
<path d="M609.217 451.921L607.424 452.849L612.055 461.797L613.848 460.869L609.217 451.921Z" fill="#171C3A" stroke="#171C3A" stroke-width="0.36" stroke-linecap="round" stroke-linejoin="round"/>
<path d="M589.084 477.442L588.148 479.231L597.077 483.9L598.013 482.111L589.084 477.442Z" fill="#171C3A" stroke="#171C3A" stroke-width="0.36" stroke-linecap="round" stroke-linejoin="round"/>
<path d="M596.035 455.555L589.388 463.128L590.905 464.46L597.552 456.887L596.035 455.555Z" fill="#171C3A" stroke="#171C3A" stroke-width="0.36" stroke-linecap="round" stroke-linejoin="round"/>
<path d="M581.656 450.328L581.091 452.266L590.765 455.086L591.33 453.148L581.656 450.328Z" fill="#171C3A" stroke="#171C3A" stroke-width="0.36" stroke-linecap="round" stroke-linejoin="round"/>
<path d="M602.687 461.595L601.922 471.642L603.935 471.796L604.7 461.749L602.687 461.595Z" fill="#171C3A" stroke="#171C3A" stroke-width="0.36" stroke-linecap="round" stroke-linejoin="round"/>
<path d="M611.639 472.866L605.979 481.202L607.649 482.337L613.31 474.001L611.639 472.866Z" fill="#171C3A" stroke="#171C3A" stroke-width="0.36" stroke-linecap="round" stroke-linejoin="round"/>
<path d="M593.922 504.218L584.155 506.693L584.651 508.65L594.418 506.175L593.922 504.218Z" fill="#171C3A" stroke="#171C3A" stroke-width="0.36" stroke-linecap="round" stroke-linejoin="round"/>
<path d="M609.217 487.92L607.424 488.848L612.055 497.797L613.848 496.869L609.217 487.92Z" fill="#171C3A" stroke="#171C3A" stroke-width="0.36" stroke-linecap="round" stroke-linejoin="round"/>
<path d="M589.084 513.442L588.148 515.231L597.077 519.901L598.013 518.112L589.084 513.442Z" fill="#171C3A" stroke="#171C3A" stroke-width="0.36" stroke-linecap="round" stroke-linejoin="round"/>
<path d="M596.034 491.554L589.388 499.127L590.905 500.459L597.552 492.886L596.034 491.554Z" fill="#171C3A" stroke="#171C3A" stroke-width="0.36" stroke-linecap="round" stroke-linejoin="round"/>
<path d="M581.657 486.328L581.091 488.266L590.765 491.087L591.33 489.148L581.657 486.328Z" fill="#171C3A" stroke="#171C3A" stroke-width="0.36" stroke-linecap="round" stroke-linejoin="round"/>
<path d="M602.687 497.595L601.922 507.642L603.935 507.796L604.7 497.749L602.687 497.595Z" fill="#171C3A" stroke="#171C3A" stroke-width="0.36" stroke-linecap="round" stroke-linejoin="round"/>
<path d="M596.034 527.555L589.387 535.127L590.905 536.459L597.551 528.886L596.034 527.555Z" fill="#171C3A" stroke="#171C3A" stroke-width="0.36" stroke-linecap="round" stroke-linejoin="round"/>
<path d="M581.657 522.328L581.092 524.267L590.765 527.087L591.33 525.149L581.657 522.328Z" fill="#171C3A" stroke="#171C3A" stroke-width="0.36" stroke-linecap="round" stroke-linejoin="round"/>
<path d="M553.084 333.442L552.148 335.231L561.077 339.9L562.013 338.111L553.084 333.442Z" fill="#171C3A" stroke="#171C3A" stroke-width="0.36" stroke-linecap="round" stroke-linejoin="round"/>
<path d="M575.639 328.866L569.979 337.202L571.649 338.336L577.31 330L575.639 328.866Z" fill="#171C3A" stroke="#171C3A" stroke-width="0.36" stroke-linecap="round" stroke-linejoin="round"/>
<path d="M557.921 360.217L548.154 362.693L548.65 364.65L558.417 362.175L557.921 360.217Z" fill="#171C3A" stroke="#171C3A" stroke-width="0.36" stroke-linecap="round" stroke-linejoin="round"/>
<path d="M573.217 343.921L571.424 344.849L576.055 353.798L577.848 352.87L573.217 343.921Z" fill="#171C3A" stroke="#171C3A" stroke-width="0.36" stroke-linecap="round" stroke-linejoin="round"/>
<path d="M553.084 369.442L552.149 371.231L561.078 375.901L562.013 374.112L553.084 369.442Z" fill="#171C3A" stroke="#171C3A" stroke-width="0.36" stroke-linecap="round" stroke-linejoin="round"/>
<path d="M560.034 347.555L553.388 355.128L554.905 356.459L561.552 348.886L560.034 347.555Z" fill="#171C3A" stroke="#171C3A" stroke-width="0.36" stroke-linecap="round" stroke-linejoin="round"/>
<path d="M545.656 342.327L545.091 344.266L554.764 347.086L555.329 345.147L545.656 342.327Z" fill="#171C3A" stroke="#171C3A" stroke-width="0.36" stroke-linecap="round" stroke-linejoin="round"/>
<path d="M566.687 353.596L565.921 363.642L567.934 363.796L568.7 353.749L566.687 353.596Z" fill="#171C3A" stroke="#171C3A" stroke-width="0.36" stroke-linecap="round" stroke-linejoin="round"/>
<path d="M575.639 364.866L569.979 373.202L571.649 374.336L577.31 366.001L575.639 364.866Z" fill="#171C3A" stroke="#171C3A" stroke-width="0.36" stroke-linecap="round" stroke-linejoin="round"/>
<path d="M557.922 396.217L548.155 398.693L548.651 400.65L558.418 398.174L557.922 396.217Z" fill="#171C3A" stroke="#171C3A" stroke-width="0.36" stroke-linecap="round" stroke-linejoin="round"/>
<path d="M573.217 379.921L571.424 380.849L576.055 389.798L577.848 388.87L573.217 379.921Z" fill="#171C3A" stroke="#171C3A" stroke-width="0.36" stroke-linecap="round" stroke-linejoin="round"/>
<path d="M553.085 405.442L552.149 407.231L561.078 411.9L562.013 410.111L553.085 405.442Z" fill="#171C3A" stroke="#171C3A" stroke-width="0.36" stroke-linecap="round" stroke-linejoin="round"/>
<path d="M560.034 383.555L553.387 391.128L554.905 392.46L561.551 384.887L560.034 383.555Z" fill="#171C3A" stroke="#171C3A" stroke-width="0.36" stroke-linecap="round" stroke-linejoin="round"/>
<path d="M545.656 378.327L545.091 380.266L554.764 383.086L555.329 381.148L545.656 378.327Z" fill="#171C3A" stroke="#171C3A" stroke-width="0.36" stroke-linecap="round" stroke-linejoin="round"/>
<path d="M566.686 389.596L565.921 399.642L567.934 399.796L568.7 389.749L566.686 389.596Z" fill="#171C3A" stroke="#171C3A" stroke-width="0.36" stroke-linecap="round" stroke-linejoin="round"/>
<path d="M575.639 400.866L569.979 409.202L571.649 410.337L577.31 402.001L575.639 400.866Z" fill="#171C3A" stroke="#171C3A" stroke-width="0.36" stroke-linecap="round" stroke-linejoin="round"/>
<path d="M557.922 432.218L548.155 434.693L548.651 436.65L558.418 434.175L557.922 432.218Z" fill="#171C3A" stroke="#171C3A" stroke-width="0.36" stroke-linecap="round" stroke-linejoin="round"/>
<path d="M573.217 415.922L571.424 416.849L576.055 425.798L577.848 424.87L573.217 415.922Z" fill="#171C3A" stroke="#171C3A" stroke-width="0.36" stroke-linecap="round" stroke-linejoin="round"/>
<path d="M553.084 441.441L552.148 443.231L561.077 447.9L562.013 446.111L553.084 441.441Z" fill="#171C3A" stroke="#171C3A" stroke-width="0.36" stroke-linecap="round" stroke-linejoin="round"/>
<path d="M560.035 419.554L553.388 427.127L554.905 428.459L561.552 420.886L560.035 419.554Z" fill="#171C3A" stroke="#171C3A" stroke-width="0.36" stroke-linecap="round" stroke-linejoin="round"/>
<path d="M545.656 414.328L545.091 416.266L554.764 419.086L555.329 417.148L545.656 414.328Z" fill="#171C3A" stroke="#171C3A" stroke-width="0.36" stroke-linecap="round" stroke-linejoin="round"/>
<path d="M566.686 425.596L565.921 435.642L567.934 435.796L568.7 425.749L566.686 425.596Z" fill="#171C3A" stroke="#171C3A" stroke-width="0.36" stroke-linecap="round" stroke-linejoin="round"/>
<path d="M575.639 436.866L569.979 445.202L571.649 446.337L577.31 438.001L575.639 436.866Z" fill="#171C3A" stroke="#171C3A" stroke-width="0.36" stroke-linecap="round" stroke-linejoin="round"/>
<path d="M557.922 468.217L548.155 470.693L548.651 472.65L558.418 470.175L557.922 468.217Z" fill="#171C3A" stroke="#171C3A" stroke-width="0.36" stroke-linecap="round" stroke-linejoin="round"/>
<path d="M573.217 451.921L571.424 452.849L576.055 461.798L577.848 460.87L573.217 451.921Z" fill="#171C3A" stroke="#171C3A" stroke-width="0.36" stroke-linecap="round" stroke-linejoin="round"/>
<path d="M553.084 477.442L552.149 479.231L561.077 483.9L562.013 482.111L553.084 477.442Z" fill="#171C3A" stroke="#171C3A" stroke-width="0.36" stroke-linecap="round" stroke-linejoin="round"/>
<path d="M560.034 455.555L553.388 463.127L554.905 464.459L561.552 456.886L560.034 455.555Z" fill="#171C3A" stroke="#171C3A" stroke-width="0.36" stroke-linecap="round" stroke-linejoin="round"/>
<path d="M545.656 450.328L545.091 452.266L554.764 455.086L555.329 453.148L545.656 450.328Z" fill="#171C3A" stroke="#171C3A" stroke-width="0.36" stroke-linecap="round" stroke-linejoin="round"/>
<path d="M566.687 461.595L565.922 471.642L567.935 471.796L568.701 461.749L566.687 461.595Z" fill="#171C3A" stroke="#171C3A" stroke-width="0.36" stroke-linecap="round" stroke-linejoin="round"/>
<path d="M575.639 472.866L569.979 481.202L571.649 482.337L577.31 474.001L575.639 472.866Z" fill="#171C3A" stroke="#171C3A" stroke-width="0.36" stroke-linecap="round" stroke-linejoin="round"/>
<path d="M557.922 504.217L548.155 506.693L548.651 508.65L558.418 506.174L557.922 504.217Z" fill="#171C3A" stroke="#171C3A" stroke-width="0.36" stroke-linecap="round" stroke-linejoin="round"/>
<path d="M573.218 487.921L571.425 488.849L576.056 497.797L577.849 496.869L573.218 487.921Z" fill="#171C3A" stroke="#171C3A" stroke-width="0.36" stroke-linecap="round" stroke-linejoin="round"/>
<path d="M553.084 513.442L552.149 515.231L561.078 519.9L562.013 518.111L553.084 513.442Z" fill="#171C3A" stroke="#171C3A" stroke-width="0.36" stroke-linecap="round" stroke-linejoin="round"/>
<path d="M560.034 491.555L553.387 499.128L554.905 500.46L561.551 492.887L560.034 491.555Z" fill="#171C3A" stroke="#171C3A" stroke-width="0.36" stroke-linecap="round" stroke-linejoin="round"/>
<path d="M545.656 486.328L545.091 488.267L554.764 491.087L555.33 489.148L545.656 486.328Z" fill="#171C3A" stroke="#171C3A" stroke-width="0.36" stroke-linecap="round" stroke-linejoin="round"/>
<path d="M566.687 497.595L565.922 507.642L567.935 507.796L568.701 497.749L566.687 497.595Z" fill="#171C3A" stroke="#171C3A" stroke-width="0.36" stroke-linecap="round" stroke-linejoin="round"/>
<path d="M575.639 508.867L569.979 517.202L571.649 518.337L577.31 510.001L575.639 508.867Z" fill="#171C3A" stroke="#171C3A" stroke-width="0.36" stroke-linecap="round" stroke-linejoin="round"/>
<path d="M557.923 540.218L548.155 542.693L548.651 544.65L558.419 542.175L557.923 540.218Z" fill="#171C3A" stroke="#171C3A" stroke-width="0.36" stroke-linecap="round" stroke-linejoin="round"/>
<path d="M573.217 523.921L571.424 524.849L576.055 533.798L577.848 532.87L573.217 523.921Z" fill="#171C3A" stroke="#171C3A" stroke-width="0.36" stroke-linecap="round" stroke-linejoin="round"/>
<path d="M553.084 549.442L552.148 551.231L561.077 555.901L562.013 554.111L553.084 549.442Z" fill="#171C3A" stroke="#171C3A" stroke-width="0.36" stroke-linecap="round" stroke-linejoin="round"/>
<path d="M560.035 527.554L553.388 535.127L554.905 536.459L561.552 528.886L560.035 527.554Z" fill="#171C3A" stroke="#171C3A" stroke-width="0.36" stroke-linecap="round" stroke-linejoin="round"/>
<path d="M545.656 522.329L545.091 524.267L554.765 527.087L555.33 525.149L545.656 522.329Z" fill="#171C3A" stroke="#171C3A" stroke-width="0.36" stroke-linecap="round" stroke-linejoin="round"/>
<path d="M566.687 533.595L565.922 543.642L567.935 543.796L568.7 533.749L566.687 533.595Z" fill="#171C3A" stroke="#171C3A" stroke-width="0.36" stroke-linecap="round" stroke-linejoin="round"/>
<path d="M575.639 544.866L569.979 553.202L571.649 554.336L577.31 546L575.639 544.866Z" fill="#171C3A" stroke="#171C3A" stroke-width="0.36" stroke-linecap="round" stroke-linejoin="round"/>
<path d="M521.922 360.218L512.154 362.693L512.65 364.651L522.418 362.175L521.922 360.218Z" fill="#171C3A" stroke="#171C3A" stroke-width="0.36" stroke-linecap="round" stroke-linejoin="round"/>
<path d="M537.216 343.922L535.423 344.85L540.054 353.798L541.847 352.87L537.216 343.922Z" fill="#171C3A" stroke="#171C3A" stroke-width="0.36" stroke-linecap="round" stroke-linejoin="round"/>
<path d="M517.084 369.442L516.148 371.231L525.077 375.9L526.013 374.111L517.084 369.442Z" fill="#171C3A" stroke="#171C3A" stroke-width="0.36" stroke-linecap="round" stroke-linejoin="round"/>
<path d="M524.034 347.554L517.387 355.127L518.905 356.459L525.551 348.886L524.034 347.554Z" fill="#171C3A" stroke="#171C3A" stroke-width="0.36" stroke-linecap="round" stroke-linejoin="round"/>
<path d="M509.657 342.327L509.092 344.266L518.765 347.086L519.33 345.148L509.657 342.327Z" fill="#171C3A" stroke="#171C3A" stroke-width="0.36" stroke-linecap="round" stroke-linejoin="round"/>
<path d="M530.687 353.596L529.921 363.642L531.934 363.796L532.7 353.749L530.687 353.596Z" fill="#171C3A" stroke="#171C3A" stroke-width="0.36" stroke-linecap="round" stroke-linejoin="round"/>
<path d="M539.639 364.866L533.979 373.202L535.649 374.336L541.31 366.001L539.639 364.866Z" fill="#171C3A" stroke="#171C3A" stroke-width="0.36" stroke-linecap="round" stroke-linejoin="round"/>
<path d="M537.217 379.921L535.424 380.849L540.055 389.798L541.848 388.87L537.217 379.921Z" fill="#171C3A" stroke="#171C3A" stroke-width="0.36" stroke-linecap="round" stroke-linejoin="round"/>
<path d="M509.656 378.328L509.091 380.266L518.764 383.086L519.329 381.148L509.656 378.328Z" fill="#171C3A" stroke="#171C3A" stroke-width="0.36" stroke-linecap="round" stroke-linejoin="round"/>
<path d="M537.218 451.922L535.425 452.849L540.055 461.798L541.849 460.87L537.218 451.922Z" fill="#171C3A" stroke="#171C3A" stroke-width="0.36" stroke-linecap="round" stroke-linejoin="round"/>
<path d="M539.639 472.867L533.979 481.202L535.649 482.337L541.31 474.001L539.639 472.867Z" fill="#171C3A" stroke="#171C3A" stroke-width="0.36" stroke-linecap="round" stroke-linejoin="round"/>
<path d="M521.923 504.218L512.155 506.693L512.651 508.65L522.419 506.175L521.923 504.218Z" fill="#171C3A" stroke="#171C3A" stroke-width="0.36" stroke-linecap="round" stroke-linejoin="round"/>
<path d="M537.217 487.921L535.424 488.849L540.055 497.798L541.848 496.87L537.217 487.921Z" fill="#171C3A" stroke="#171C3A" stroke-width="0.36" stroke-linecap="round" stroke-linejoin="round"/>
<path d="M517.084 513.442L516.148 515.231L525.077 519.9L526.013 518.111L517.084 513.442Z" fill="#171C3A" stroke="#171C3A" stroke-width="0.36" stroke-linecap="round" stroke-linejoin="round"/>
<path d="M530.686 497.595L529.921 507.642L531.934 507.796L532.7 497.749L530.686 497.595Z" fill="#171C3A" stroke="#171C3A" stroke-width="0.36" stroke-linecap="round" stroke-linejoin="round"/>
<path d="M539.639 508.867L533.979 517.202L535.649 518.337L541.31 510.001L539.639 508.867Z" fill="#171C3A" stroke="#171C3A" stroke-width="0.36" stroke-linecap="round" stroke-linejoin="round"/>
<path d="M521.922 540.217L512.155 542.693L512.651 544.65L522.418 542.174L521.922 540.217Z" fill="#171C3A" stroke="#171C3A" stroke-width="0.36" stroke-linecap="round" stroke-linejoin="round"/>
<path d="M537.218 523.921L535.424 524.849L540.055 533.797L541.848 532.87L537.218 523.921Z" fill="#171C3A" stroke="#171C3A" stroke-width="0.36" stroke-linecap="round" stroke-linejoin="round"/>
<path d="M517.084 549.441L516.149 551.231L525.077 555.9L526.013 554.111L517.084 549.441Z" fill="#171C3A" stroke="#171C3A" stroke-width="0.36" stroke-linecap="round" stroke-linejoin="round"/>
<path d="M524.034 527.555L517.388 535.128L518.905 536.46L525.552 528.887L524.034 527.555Z" fill="#171C3A" stroke="#171C3A" stroke-width="0.36" stroke-linecap="round" stroke-linejoin="round"/>
<path d="M509.656 522.328L509.091 524.266L518.764 527.086L519.329 525.148L509.656 522.328Z" fill="#171C3A" stroke="#171C3A" stroke-width="0.36" stroke-linecap="round" stroke-linejoin="round"/>
<path d="M530.687 533.595L529.922 543.642L531.935 543.796L532.701 533.749L530.687 533.595Z" fill="#171C3A" stroke="#171C3A" stroke-width="0.36" stroke-linecap="round" stroke-linejoin="round"/>
<path d="M539.639 544.866L533.979 553.202L535.649 554.336L541.31 546L539.639 544.866Z" fill="#171C3A" stroke="#171C3A" stroke-width="0.36" stroke-linecap="round" stroke-linejoin="round"/>
<path d="M503.639 508.867L497.979 517.203L499.649 518.337L505.31 510.001L503.639 508.867Z" fill="#171C3A" stroke="#171C3A" stroke-width="0.36" stroke-linecap="round" stroke-linejoin="round"/>
<path d="M501.218 523.921L499.425 524.849L504.056 533.798L505.849 532.87L501.218 523.921Z" fill="#171C3A" stroke="#171C3A" stroke-width="0.36" stroke-linecap="round" stroke-linejoin="round"/>
<path d="M503.639 544.866L497.979 553.202L499.649 554.336L505.31 546L503.639 544.866Z" fill="#171C3A" stroke="#171C3A" stroke-width="0.36" stroke-linecap="round" stroke-linejoin="round"/>
</g>
<path d="M504.199 518.03V550.947H553.735C585.636 550.947 611.498 525.086 611.498 493.184V368.195C611.498 344.465 589.523 326.839 566.359 331.987L531.245 339.792C515.443 343.305 504.2 357.321 504.2 373.509V518.03H504.199Z" stroke="#171C3A" stroke-linecap="round" stroke-linejoin="round"/>
<path d="M546.323 398.486L537.067 474.796C535.943 487.367 528.13 498.356 516.627 503.549L452.175 529.849C452.175 529.849 445.1 521.641 442.427 508.714C440.119 497.548 445.918 489.746 445.918 489.746L490.784 469.232C493.838 467.851 495.912 464.932 496.21 461.594L504.119 373.177" fill="#E9ECE4"/>
<mask id="mask2_7376_150639" style="mask-type:luminance" maskUnits="userSpaceOnUse" x="441" y="373" width="106" height="157">
<path d="M546.323 398.486L537.067 474.796C535.943 487.367 528.13 498.356 516.627 503.549L452.175 529.849C452.175 529.849 445.1 521.641 442.427 508.714C440.119 497.548 445.918 489.746 445.918 489.746L490.784 469.232C493.838 467.851 495.912 464.932 496.21 461.594L504.119 373.177" fill="white"/>
</mask>
<g mask="url(#mask2_7376_150639)">
<path d="M517.084 369.442L516.148 371.231L525.077 375.9L526.013 374.111L517.084 369.442Z" fill="#171C3A" stroke="#171C3A" stroke-width="0.36" stroke-linecap="round" stroke-linejoin="round"/>
<path d="M539.639 364.866L533.979 373.202L535.649 374.336L541.31 366.001L539.639 364.866Z" fill="#171C3A" stroke="#171C3A" stroke-width="0.36" stroke-linecap="round" stroke-linejoin="round"/>
<path d="M521.922 396.218L512.155 398.693L512.651 400.65L522.418 398.175L521.922 396.218Z" fill="#171C3A" stroke="#171C3A" stroke-width="0.36" stroke-linecap="round" stroke-linejoin="round"/>
<path d="M537.217 379.921L535.424 380.849L540.055 389.798L541.848 388.87L537.217 379.921Z" fill="#171C3A" stroke="#171C3A" stroke-width="0.36" stroke-linecap="round" stroke-linejoin="round"/>
<path d="M517.084 405.442L516.148 407.231L525.077 411.901L526.013 410.111L517.084 405.442Z" fill="#171C3A" stroke="#171C3A" stroke-width="0.36" stroke-linecap="round" stroke-linejoin="round"/>
<path d="M524.035 383.555L517.388 391.128L518.905 392.459L525.552 384.886L524.035 383.555Z" fill="#171C3A" stroke="#171C3A" stroke-width="0.36" stroke-linecap="round" stroke-linejoin="round"/>
<path d="M509.656 378.328L509.091 380.266L518.764 383.086L519.329 381.148L509.656 378.328Z" fill="#171C3A" stroke="#171C3A" stroke-width="0.36" stroke-linecap="round" stroke-linejoin="round"/>
<path d="M530.687 389.595L529.921 399.642L531.934 399.796L532.7 389.749L530.687 389.595Z" fill="#171C3A" stroke="#171C3A" stroke-width="0.36" stroke-linecap="round" stroke-linejoin="round"/>
<path d="M539.639 400.866L533.979 409.202L535.649 410.337L541.31 402.001L539.639 400.866Z" fill="#171C3A" stroke="#171C3A" stroke-width="0.36" stroke-linecap="round" stroke-linejoin="round"/>
<path d="M521.922 432.217L512.154 434.693L512.65 436.65L522.418 434.174L521.922 432.217Z" fill="#171C3A" stroke="#171C3A" stroke-width="0.36" stroke-linecap="round" stroke-linejoin="round"/>
<path d="M537.217 415.921L535.424 416.849L540.055 425.798L541.848 424.87L537.217 415.921Z" fill="#171C3A" stroke="#171C3A" stroke-width="0.36" stroke-linecap="round" stroke-linejoin="round"/>
<path d="M517.084 441.442L516.149 443.231L525.078 447.9L526.013 446.111L517.084 441.442Z" fill="#171C3A" stroke="#171C3A" stroke-width="0.36" stroke-linecap="round" stroke-linejoin="round"/>
<path d="M524.034 419.555L517.388 427.128L518.905 428.46L525.552 420.887L524.034 419.555Z" fill="#171C3A" stroke="#171C3A" stroke-width="0.36" stroke-linecap="round" stroke-linejoin="round"/>
<path d="M509.656 414.328L509.091 416.266L518.764 419.086L519.329 417.148L509.656 414.328Z" fill="#171C3A" stroke="#171C3A" stroke-width="0.36" stroke-linecap="round" stroke-linejoin="round"/>
<path d="M530.687 425.595L529.921 435.642L531.934 435.796L532.7 425.749L530.687 425.595Z" fill="#171C3A" stroke="#171C3A" stroke-width="0.36" stroke-linecap="round" stroke-linejoin="round"/>
<path d="M539.639 436.866L533.979 445.202L535.649 446.337L541.31 438.001L539.639 436.866Z" fill="#171C3A" stroke="#171C3A" stroke-width="0.36" stroke-linecap="round" stroke-linejoin="round"/>
<path d="M521.922 468.218L512.155 470.693L512.651 472.65L522.418 470.175L521.922 468.218Z" fill="#171C3A" stroke="#171C3A" stroke-width="0.36" stroke-linecap="round" stroke-linejoin="round"/>
<path d="M537.218 451.922L535.425 452.849L540.055 461.798L541.849 460.87L537.218 451.922Z" fill="#171C3A" stroke="#171C3A" stroke-width="0.36" stroke-linecap="round" stroke-linejoin="round"/>
<path d="M517.085 477.442L516.149 479.231L525.078 483.901L526.014 482.112L517.085 477.442Z" fill="#171C3A" stroke="#171C3A" stroke-width="0.36" stroke-linecap="round" stroke-linejoin="round"/>
<path d="M524.034 455.554L517.387 463.127L518.905 464.459L525.551 456.886L524.034 455.554Z" fill="#171C3A" stroke="#171C3A" stroke-width="0.36" stroke-linecap="round" stroke-linejoin="round"/>
<path d="M509.656 450.328L509.091 452.266L518.764 455.087L519.329 453.148L509.656 450.328Z" fill="#171C3A" stroke="#171C3A" stroke-width="0.36" stroke-linecap="round" stroke-linejoin="round"/>
<path d="M530.686 461.595L529.921 471.642L531.934 471.796L532.7 461.749L530.686 461.595Z" fill="#171C3A" stroke="#171C3A" stroke-width="0.36" stroke-linecap="round" stroke-linejoin="round"/>
<path d="M539.639 472.866L533.979 481.202L535.649 482.337L541.31 474.001L539.639 472.866Z" fill="#171C3A" stroke="#171C3A" stroke-width="0.36" stroke-linecap="round" stroke-linejoin="round"/>
<path d="M524.035 491.555L517.388 499.127L518.905 500.459L525.552 492.886L524.035 491.555Z" fill="#171C3A" stroke="#171C3A" stroke-width="0.36" stroke-linecap="round" stroke-linejoin="round"/>
<path d="M509.656 486.328L509.091 488.267L518.764 491.087L519.329 489.149L509.656 486.328Z" fill="#171C3A" stroke="#171C3A" stroke-width="0.36" stroke-linecap="round" stroke-linejoin="round"/>
<path d="M501.217 379.922L499.424 380.85L504.055 389.798L505.848 388.87L501.217 379.922Z" fill="#171C3A" stroke="#171C3A" stroke-width="0.36" stroke-linecap="round" stroke-linejoin="round"/>
<path d="M503.639 400.866L497.979 409.202L499.649 410.337L505.31 402.001L503.639 400.866Z" fill="#171C3A" stroke="#171C3A" stroke-width="0.36" stroke-linecap="round" stroke-linejoin="round"/>
<path d="M501.218 415.921L499.425 416.849L504.055 425.798L505.849 424.87L501.218 415.921Z" fill="#171C3A" stroke="#171C3A" stroke-width="0.36" stroke-linecap="round" stroke-linejoin="round"/>
<path d="M503.639 436.866L497.979 445.202L499.649 446.337L505.31 438.001L503.639 436.866Z" fill="#171C3A" stroke="#171C3A" stroke-width="0.36" stroke-linecap="round" stroke-linejoin="round"/>
<path d="M501.217 451.921L499.424 452.849L504.055 461.798L505.848 460.87L501.217 451.921Z" fill="#171C3A" stroke="#171C3A" stroke-width="0.36" stroke-linecap="round" stroke-linejoin="round"/>
<path d="M481.084 477.442L480.148 479.231L489.077 483.9L490.013 482.111L481.084 477.442Z" fill="#171C3A" stroke="#171C3A" stroke-width="0.36" stroke-linecap="round" stroke-linejoin="round"/>
<path d="M494.687 461.595L493.921 471.642L495.934 471.796L496.7 461.749L494.687 461.595Z" fill="#171C3A" stroke="#171C3A" stroke-width="0.36" stroke-linecap="round" stroke-linejoin="round"/>
<path d="M503.639 472.867L497.979 481.202L499.649 482.337L505.31 474.001L503.639 472.867Z" fill="#171C3A" stroke="#171C3A" stroke-width="0.36" stroke-linecap="round" stroke-linejoin="round"/>
<path d="M485.923 504.218L476.156 506.693L476.652 508.651L486.419 506.175L485.923 504.218Z" fill="#171C3A" stroke="#171C3A" stroke-width="0.36" stroke-linecap="round" stroke-linejoin="round"/>
<path d="M501.218 487.922L499.424 488.849L504.055 497.798L505.848 496.87L501.218 487.922Z" fill="#171C3A" stroke="#171C3A" stroke-width="0.36" stroke-linecap="round" stroke-linejoin="round"/>
<path d="M481.084 513.442L480.149 515.231L489.078 519.901L490.013 518.111L481.084 513.442Z" fill="#171C3A" stroke="#171C3A" stroke-width="0.36" stroke-linecap="round" stroke-linejoin="round"/>
<path d="M488.034 491.554L481.388 499.127L482.905 500.459L489.552 492.886L488.034 491.554Z" fill="#171C3A" stroke="#171C3A" stroke-width="0.36" stroke-linecap="round" stroke-linejoin="round"/>
<path d="M473.656 486.327L473.091 488.266L482.764 491.086L483.329 489.148L473.656 486.327Z" fill="#171C3A" stroke="#171C3A" stroke-width="0.36" stroke-linecap="round" stroke-linejoin="round"/>
<path d="M494.687 497.595L493.921 507.642L495.934 507.796L496.7 497.749L494.687 497.595Z" fill="#171C3A" stroke="#171C3A" stroke-width="0.36" stroke-linecap="round" stroke-linejoin="round"/>
<path d="M449.922 504.217L440.155 506.693L440.651 508.65L450.418 506.175L449.922 504.217Z" fill="#171C3A" stroke="#171C3A" stroke-width="0.36" stroke-linecap="round" stroke-linejoin="round"/>
<path d="M465.218 487.921L463.425 488.849L468.056 497.798L469.849 496.87L465.218 487.921Z" fill="#171C3A" stroke="#171C3A" stroke-width="0.36" stroke-linecap="round" stroke-linejoin="round"/>
<path d="M445.084 513.441L444.148 515.231L453.077 519.9L454.013 518.111L445.084 513.441Z" fill="#171C3A" stroke="#171C3A" stroke-width="0.36" stroke-linecap="round" stroke-linejoin="round"/>
<path d="M452.034 491.555L445.387 499.128L446.905 500.46L453.551 492.887L452.034 491.555Z" fill="#171C3A" stroke="#171C3A" stroke-width="0.36" stroke-linecap="round" stroke-linejoin="round"/>
<path d="M437.656 486.327L437.09 488.266L446.764 491.086L447.329 489.148L437.656 486.327Z" fill="#171C3A" stroke="#171C3A" stroke-width="0.36" stroke-linecap="round" stroke-linejoin="round"/>
<path d="M458.687 497.595L457.921 507.642L459.934 507.796L460.7 497.749L458.687 497.595Z" fill="#171C3A" stroke="#171C3A" stroke-width="0.36" stroke-linecap="round" stroke-linejoin="round"/>
<path d="M467.639 508.867L461.979 517.203L463.649 518.337L469.31 510.001L467.639 508.867Z" fill="#171C3A" stroke="#171C3A" stroke-width="0.36" stroke-linecap="round" stroke-linejoin="round"/>
</g>
<path d="M546.323 398.486L537.067 474.796C535.943 487.367 528.13 498.356 516.627 503.549L452.175 529.849C452.175 529.849 445.1 521.641 442.427 508.714C440.119 497.548 445.918 489.746 445.918 489.746L490.784 469.232C493.838 467.851 495.912 464.932 496.21 461.594L504.119 373.177" stroke="#171C3A" stroke-linecap="round" stroke-linejoin="round"/>
<path d="M445.535 519.086L445.145 519.436" stroke="#171C3A" stroke-linecap="round" stroke-linejoin="round"/>
<path d="M539.014 518.166C537.081 518.166 535.514 516.599 535.514 514.666V472.918C535.514 469.597 532.812 466.895 529.491 466.895H503.626C500.305 466.895 497.604 469.597 497.604 472.918V514.666C497.604 516.599 496.037 518.166 494.104 518.166C492.171 518.166 490.604 516.599 490.604 514.666V472.918C490.604 465.737 496.446 459.895 503.626 459.895H529.491C536.672 459.895 542.514 465.737 542.514 472.918V514.666C542.514 516.599 540.947 518.166 539.014 518.166Z" fill="#496966" stroke="#171C3A" stroke-linecap="round" stroke-linejoin="round"/>
<path d="M575.815 553.136V527.236C575.815 521.396 571.085 516.666 565.245 516.666H452.265C451.835 516.666 451.415 516.696 450.995 516.746C448.955 516.986 447.095 517.806 445.575 519.056L453.785 511.766L453.805 511.746C455.725 509.836 458.355 508.666 461.265 508.666H574.245C580.085 508.666 584.815 513.396 584.815 519.236V553.136" fill="#496966"/>
<path d="M575.815 553.136V527.236C575.815 521.396 571.085 516.666 565.245 516.666H452.265C451.835 516.666 451.415 516.696 450.995 516.746C448.955 516.986 447.095 517.806 445.575 519.056L453.785 511.766L453.805 511.746C455.725 509.836 458.355 508.666 461.265 508.666H574.245C580.085 508.666 584.815 513.396 584.815 519.236V553.136" stroke="#171C3A" stroke-linecap="round" stroke-linejoin="round"/>
<path d="M441.695 553.206V527.236C441.695 523.946 443.195 521.016 445.535 519.086L445.575 519.056C447.095 517.806 448.955 516.986 450.995 516.746C451.415 516.696 451.835 516.666 452.265 516.666H565.245C571.085 516.666 575.815 521.396 575.815 527.236V553.206" fill="#6F8986"/>
<path d="M441.695 553.206V527.236C441.695 523.946 443.195 521.016 445.535 519.086L445.575 519.056C447.095 517.806 448.955 516.986 450.995 516.746C451.415 516.696 451.835 516.666 452.265 516.666H565.245C571.085 516.666 575.815 521.396 575.815 527.236V553.206" stroke="#171C3A" stroke-linecap="round" stroke-linejoin="round"/>
<path d="M549.562 549.686H527.304V515.038C527.304 513.425 528.612 512.117 530.225 512.117H546.64C548.253 512.117 549.561 513.425 549.561 515.038V549.686H549.562Z" fill="#E9ECE4" stroke="#171C3A" stroke-linecap="round" stroke-linejoin="round"/>
<path d="M549.562 525.103H527.304V536.7H549.562V525.103Z" fill="#171C3A"/>
<path d="M529.523 532.466H530.427C530.452 532.466 530.487 532.496 530.487 532.531C530.487 532.794 530.636 533.077 530.904 533.311C531.172 533.549 531.634 533.718 532.185 533.718C532.707 533.718 533.119 533.599 533.427 533.355C533.73 533.112 533.884 532.819 533.884 532.466C533.864 531.925 533.611 531.627 533.164 531.473C532.846 531.359 532.588 531.319 532.186 531.279C531.814 531.239 531.55 531.2 531.178 531.1C530.805 531.001 530.542 530.882 530.259 530.678C529.857 530.39 529.594 529.933 529.594 529.263C529.594 528.846 529.718 528.478 529.961 528.161C530.204 527.848 530.512 527.61 530.885 527.456C531.258 527.302 531.655 527.223 532.077 527.223C532.738 527.223 533.338 527.397 533.815 527.725C534.287 528.053 534.604 528.609 534.629 529.284C534.629 529.319 534.614 529.339 534.579 529.339H533.66C533.625 529.339 533.61 529.319 533.61 529.284C533.61 528.941 533.466 528.653 533.178 528.425C532.89 528.201 532.522 528.087 532.075 528.087C531.668 528.087 531.32 528.196 531.037 528.42C530.754 528.644 530.61 528.927 530.61 529.264C530.64 529.761 530.888 530.014 531.335 530.148C531.663 530.252 531.817 530.272 532.184 530.312C532.616 530.367 532.904 530.406 533.301 530.511C533.698 530.615 533.962 530.739 534.25 530.958C534.662 531.271 534.886 531.743 534.901 532.468C534.901 533.089 534.623 533.71 533.997 534.132C533.59 534.405 532.944 534.584 532.184 534.584C531.33 534.584 530.615 534.346 530.168 533.963C529.721 533.586 529.473 533.079 529.473 532.523C529.473 532.488 529.488 532.468 529.523 532.468V532.466Z" fill="white"/>
<path d="M535.98 527.37C535.98 527.343 536.002 527.32 536.03 527.32H540.559C540.594 527.32 540.609 527.335 540.609 527.37V528.135C540.609 528.17 540.594 528.185 540.559 528.185H537.003C536.973 528.185 536.948 528.209 536.948 528.24V530.316C536.948 530.343 536.97 530.366 536.998 530.366H540.142C540.177 530.366 540.192 530.381 540.192 530.416V531.176C540.192 531.211 540.177 531.231 540.142 531.231H536.998C536.971 531.231 536.948 531.253 536.948 531.281V534.435C536.948 534.47 536.933 534.485 536.898 534.485H536.034C535.999 534.485 535.979 534.47 535.979 534.435V527.373L535.98 527.37Z" fill="white"/>
<path d="M540.977 530.901C540.977 530.171 541.096 529.535 541.33 528.989C541.563 528.443 541.926 528.011 542.418 527.693C542.905 527.38 543.496 527.221 544.191 527.221C544.886 527.221 545.477 527.38 545.964 527.693C546.451 528.011 546.813 528.443 547.047 528.989C547.28 529.535 547.395 530.171 547.395 530.901C547.395 531.631 547.281 532.267 547.047 532.813C546.813 533.359 546.451 533.791 545.964 534.104C545.477 534.422 544.886 534.581 544.191 534.581C543.496 534.581 542.905 534.422 542.418 534.104C541.926 533.791 541.564 533.359 541.33 532.813C541.096 532.267 540.977 531.631 540.977 530.901ZM541.99 530.901C541.99 531.79 542.179 532.48 542.561 532.972C542.944 533.469 543.485 533.717 544.19 533.717C544.895 533.717 545.436 533.469 545.819 532.972C546.196 532.48 546.385 531.79 546.385 530.901C546.385 530.012 546.196 529.322 545.819 528.825C545.437 528.333 544.895 528.085 544.19 528.085C543.485 528.085 542.944 528.333 542.561 528.825C542.179 529.322 541.99 530.012 541.99 530.901Z" fill="white"/>
<path d="M531.378 539.695H545.561" stroke="#171C3A" stroke-linecap="round" stroke-linejoin="round"/>
<path d="M531.378 542.006H545.561" stroke="#171C3A" stroke-linecap="round" stroke-linejoin="round"/>
<path d="M531.378 544.316H545.561" stroke="#171C3A" stroke-linecap="round" stroke-linejoin="round"/>
</svg>
