<?xml version="1.0" encoding="UTF-8"?>
<svg id="Layer_1" xmlns="http://www.w3.org/2000/svg" width="800" height="600" version="1.1" viewBox="0 0 800 600">
  <!-- Generator: Adobe Illustrator 29.0.0, SVG Export Plug-In . SVG Version: 2.1.0 Build 186)  -->
  <g id="Layer_11" data-name="Layer_1">
    <path d="M445.6,197.3c-.1-.4-.2-.7-.5-1.1-7.1-19-18.1-36.1-32-50.5-.2-.2-.4-.5-.6-.6-.1-.1-.4-.4-.5-.5-.2-.2-.4-.4-.6-.6-14.2-14.2-31.4-25.5-50.5-32.8-.4-.1-.7-.2-1.1-.5-15.9-6-33.1-9.4-51.1-9.4h-1.1c-18,.1-35.2,3.4-51.1,9.5-.4.1-.7.2-1.1.5-19,7.3-36,18.6-50.2,32.8l-.8.8-.2.2-.8.8c-13.7,14.2-24.6,31.3-31.8,50.2-.1.4-.2.7-.5,1.1-5.7,15.6-8.9,32.5-8.9,50.1v2c.2,18,3.8,35.2,10,51.1.1.4.2.7.5,1.1,7.1,17.7,17.5,33.6,30.6,47.2.4.4.7.7,1.1,1.2.9.9,1.9,1.9,2.8,2.7.4.4.8.7,1.2,1.1,13.5,12.7,29.5,22.9,47,29.7.4.1.7.4,1.1.5,15.9,6,33.1,9.4,51.1,9.5h1.1c18,0,35.2-3.3,51.1-9.4.4-.1.7-.2,1.1-.5,17.7-6.9,33.8-17.1,47.3-29.9.4-.4.8-.7,1.2-1.1.8-.8,1.8-1.7,2.6-2.6.4-.4.7-.7,1.1-1.2,13.2-13.5,23.7-29.6,30.8-47.4.1-.4.4-.7.5-1.1,6.3-15.9,9.7-33.1,10-51.1v-2c.2-17.5-2.8-34.5-8.6-50.1h0ZM203.4,347.3c-12.4-13.2-22.5-28.6-29.4-45.5h29.4s0,45.5,0,45.5ZM203.4,300.6h-29.9c-6.3-15.9-9.8-33.1-10.1-51.1h39.9s0,51.1,0,51.1ZM203.4,248.5h-39.9v-.9c0-17.7,3.2-34.5,8.9-50.1h31v51.1h0ZM203.4,196.2h-30.6c6.9-18.2,17.3-34.7,30.6-48.6,0,0,0,48.6,0,48.6ZM255.6,382.5c-16.9-6.6-32.3-16.4-45.5-28.6h45.5v28.6ZM255.6,352.7h-46.7c-1.5-1.4-3-2.8-4.4-4.4v-46.7h51.1v51.1h0ZM255.6,300.6h-51.1v-51.1h51.1v51.1ZM255.6,248.5h-51.1v-51.1h51.1v51.1h0ZM255.6,196.2h-51.1v-49.8l1.3-1.3h49.8v51.1h0ZM255.6,144.1h-48.7c13.9-13.6,30.5-24.4,48.7-31.6v31.6ZM307.8,392.4c-18-.1-35.2-3.4-51.1-9.6v-28.9h51.1v38.5h0ZM307.8,352.7h-51.1v-51.1h51.1v51.1h0ZM307.8,300.6h-51.1v-51.1h51.1v51.1h0ZM307.8,248.5h-51.1v-51.1h51.1v51.1h0ZM307.8,196.2h-51.1v-51.1h51.1v51.1h0ZM307.8,144.1h-51.1v-32c15.9-6,33.1-9.5,51.1-9.6v41.6h0ZM359.9,382.9c-15.9,6-33.1,9.4-51.1,9.5v-38.5h51.1v29h0ZM359.9,352.7h-51.1v-51.1h51.1v51.1h0ZM359.9,300.6h-51.1v-51.1h51.1v51.1h0ZM359.9,248.5h-51.1v-51.1h51.1v51.1h0ZM359.9,196.2h-51.1v-51.1h51.1v51.1h0ZM359.9,144.1h-51.1v-41.6c18,0,35.2,3.4,51.1,9.5v32.1h0ZM361,112.3c18.4,7.2,35,18,48.8,31.6h-48.8v-31.6h0ZM361,382.5v-28.7h45.6c-13.2,12.3-28.6,22-45.6,28.7ZM412.1,348.6c-1.4,1.4-2.7,2.8-4.3,4.1h-46.8v-51.1h51.1v46.9h0ZM412.1,300.6h-51.1v-51.1h51.1v51.1ZM412.1,248.5h-51.1v-51.1h51.1v51.1h0ZM412.1,196.2h-51.1v-51.1h50c.4.4.7.7,1.1,1.1v50h0ZM413.3,147.4c13.3,14,23.8,30.5,30.8,48.8h-30.8v-48.8h0ZM413.3,347.5v-45.7h29.6c-7,17.1-17.1,32.6-29.6,45.7ZM443.2,300.6h-30.1v-51.1h40.2c-.2,18-3.8,35.2-10.1,51.1ZM453.3,248.5h-40.2v-51.1h31.2c5.8,15.6,8.9,32.5,8.9,50.1.2.2.2.6.1.9h0Z" fill="#70748f"/>
    <rect x="227.6" y="346.8" width="337" height="203.2" rx="11.8" ry="11.8" fill="#ff7585" stroke="#171c3a" stroke-linejoin="round"/>
    <g>
      <path d="M442.9,329.4c-9,.8-15.9,8.1-16.6,16.8-4.6,2.3-8.1,6.4-9.5,11.4-3.1-.5-6.4-.6-9.8-.4s-3.9.5-5.8.9c-3.7-3-8.4-4.6-13.5-4.1-5.1.5-2,.2-3,.6-1.8-2.5-4.1-4.5-6.9-5.8-1.4-10.5-9.7-18.4-19.1-17.4-9.4.9-16.6,10.5-15.5,21.4,1.1,10.9,3.8,11.8,8.2,15,1.4,9.7,10.1,16.7,19.9,15.8,1.1,0,2-.2,3-.6,3.7,5.2,10,8.3,16.7,7.7,6.8-.6.1,0,.2,0,5.2,2.6,11.8,3.9,19.1,3.2,10.9-1.1,19.9-6.3,23.7-12.9h2.1c9-.8,15.9-8.1,16.6-16.8,6.6-3.3,10.8-10.4,10.1-18.2-.9-10.2-10-17.5-20.1-16.6h.2Z" fill="#4c5f5d" stroke="#171c3a" stroke-linecap="round" stroke-linejoin="round"/>
      <rect x="397.3" y="370.4" width="14.1" height="18" fill="#c4986e" stroke="#171c3a" stroke-linecap="round" stroke-linejoin="round"/>
      <g>
        <path d="M369.9,339.1c-5.3,0-9.7,4.4-9.7,9.7s4.4,9.7,9.7,9.7" fill="#c4986e" stroke="#171c3a" stroke-linecap="round" stroke-linejoin="round"/>
        <path d="M369.9,344.4c-2.5,0-4.4,1.9-4.4,4.4s1.9,4.4,4.4,4.4" fill="#c4986e" stroke="#171c3a" stroke-linecap="round" stroke-linejoin="round"/>
      </g>
      <circle cx="404.4" cy="331.4" r="43.7" fill="#c4986e" stroke="#171c3a" stroke-linecap="round" stroke-linejoin="round"/>
      <circle cx="380" cy="342.5" r="2.8" fill="#171c3a" stroke="#171c3a" stroke-linecap="round" stroke-linejoin="round"/>
      <circle cx="409.9" cy="342.5" r="2.8" fill="#171c3a" stroke="#171c3a" stroke-linecap="round" stroke-linejoin="round"/>
      <g>
        <path d="M437,358.5c5.3,0,9.7-4.4,9.7-9.7s-4.4-9.7-9.7-9.7" fill="#c4986e" stroke="#171c3a" stroke-linecap="round" stroke-linejoin="round"/>
        <path d="M437,353.3c2.5,0,4.4-1.9,4.4-4.4s-1.9-4.4-4.4-4.4" fill="#c4986e" stroke="#171c3a" stroke-linecap="round" stroke-linejoin="round"/>
      </g>
      <g>
        <path d="M454.3,390.6h-42.9v-7.7h-14.1v7.7h-42.9c-15.6,0-28.2,12.7-28.2,28.2v131.2h156.3v-125.8c0-20.9-12.7-33.5-28.2-33.5Z" fill="#5b6bd2" stroke="#171c3a" stroke-linecap="round" stroke-linejoin="round"/>
        <path d="M454.3,390.6h-25.2l-27.6,96.9-21.8-96.9h-25.2c-15.6,0-28.2,12.7-28.2,28.2v131.2h156.3v-131.2c0-15.6-12.7-28.2-28.2-28.2h0Z" fill="#fff" stroke="#171c3a" stroke-linecap="round" stroke-linejoin="round"/>
        <line x1="356" y1="461" x2="356" y2="549.3" fill="none" stroke="#171c3a" stroke-linecap="round" stroke-linejoin="round"/>
        <line x1="401.5" y1="486.1" x2="401.5" y2="549.9" fill="none" stroke="#171c3a" stroke-linecap="round" stroke-linejoin="round"/>
        <line x1="453.8" y1="461" x2="453.8" y2="549.3" fill="none" stroke="#171c3a" stroke-linecap="round" stroke-linejoin="round"/>
        <circle cx="411.4" cy="515.4" r="3.7" fill="#b8860b" stroke="#171c3a" stroke-linecap="round" stroke-linejoin="round"/>
        <circle cx="411.4" cy="539.1" r="3.7" fill="#b8860b" stroke="#171c3a" stroke-linecap="round" stroke-linejoin="round"/>
      </g>
      <path d="M453.7,312.1v-1.3c0-6.4-3.2-12-8.1-15.3,0-.7.1-1.4.1-2.1,0-10.2-10.1-18.5-20.3-18.5s-6.2.8-8.8,2.3c-2.6-1.4-5.6-2.3-8.8-2.3s-6.6.9-9.4,2.6c-3.2-2.5-7.2-4-11.6-4-8.8,0-17.8,6-19.7,14.2-1.9-.7-3.9-1.2-6.2-1.2-9.6,0-17.3,8.3-17.3,18.5s.9,6.8,2.5,9.5c-3.3,3.4-5.5,8.4-5.5,14,0,10.2,7.1,18.5,15.9,18.5s15.9-8.3,15.9-18.5,0-.6,0-.8c1.1.2,3.9.4,5,.4,5.2,0,10-2.1,13.3-5.7,3.3,5.2,9,8.6,15.6,8.6s10.8-2.6,14.2-6.6c2,1.9,4.5,3.4,7.2,4.3,0,10.1,7.2,18.2,16,18.2s17.8-8.3,17.8-18.5-3.3-12.9-8.2-16.1h.1Z" fill="#4c5f5d" stroke="#171c3a" stroke-linecap="round" stroke-linejoin="round"/>
      <g>
        <path d="M365.9,427.6c0-24.3.4-41.4,30.5-41.4" fill="none" stroke="#171c3a" stroke-linejoin="round" stroke-width="2"/>
        <path d="M439.2,448.2c0-24.3,14-61.8-26.9-61.8" fill="none" stroke="#171c3a" stroke-linejoin="round" stroke-width="2"/>
        <circle cx="438.9" cy="454.7" r="7.8" fill="#45495f" stroke="#171c3a" stroke-linecap="round" stroke-linejoin="round"/>
        <circle cx="438.9" cy="454.7" r="3.3" fill="#70748f" stroke="#171c3a" stroke-linecap="round" stroke-linejoin="round"/>
        <path d="M345.5,468.8v-27.8c0-7.5,6-13.6,13.5-13.6h13.7c7.3,0,13.5,6.2,13.5,13.6v27.8" fill="none" stroke="#171c3a" stroke-linecap="round" stroke-linejoin="round"/>
        <circle cx="345.6" cy="469.8" r="3.8" fill="#70748f" stroke="#171c3a" stroke-linecap="round" stroke-linejoin="round"/>
        <circle cx="386.4" cy="469.8" r="3.8" fill="#70748f" stroke="#171c3a" stroke-linecap="round" stroke-linejoin="round"/>
      </g>
    </g>
    <g>
      <rect x="593.3" y="238.1" width="80.3" height="80.3" rx="11.8" ry="11.8" fill="#fff" stroke="#171c3a" stroke-linecap="round" stroke-linejoin="round"/>
      <polygon points="650 271.7 640.1 271.7 640.1 261.8 626.8 261.8 626.8 271.7 617 271.7 617 284.9 626.8 284.9 626.8 294.8 640.1 294.8 640.1 284.9 650 284.9 650 271.7" fill="#e73c4e" stroke="#171c3a" stroke-linejoin="round"/>
    </g>
    <g>
      <rect x="126.4" y="407.2" width="171.6" height="80.3" rx="11.8" ry="11.8" fill="#e73c4e" stroke="#171c3a" stroke-linecap="round" stroke-linejoin="round"/>
      <g>
        <polyline points="146.7 467.5 181.9 432.5 206.7 457.2 220.1 443.8 240.3 464.1 276.8 427.6" fill="none" stroke="#fff" stroke-linejoin="round"/>
        <circle cx="146.7" cy="467.3" r="2.5" fill="#fff" stroke="#fff" stroke-linecap="round" stroke-linejoin="round"/>
        <circle cx="182" cy="432.1" r="2.5" fill="#fff" stroke="#fff" stroke-linecap="round" stroke-linejoin="round"/>
        <circle cx="206.7" cy="456.9" r="2.5" fill="#fff" stroke="#fff" stroke-linecap="round" stroke-linejoin="round"/>
        <circle cx="220.2" cy="443.2" r="2.5" fill="#fff" stroke="#fff" stroke-linecap="round" stroke-linejoin="round"/>
        <circle cx="241.1" cy="464.1" r="2.5" fill="#fff" stroke="#fff" stroke-linecap="round" stroke-linejoin="round"/>
        <circle cx="277.7" cy="427.4" r="2.5" fill="#fff" stroke="#fff" stroke-linecap="round" stroke-linejoin="round"/>
      </g>
    </g>
    <g>
      <rect x="502" y="129.5" width="171.6" height="80.3" rx="11.8" ry="11.8" fill="#e9ece4" stroke="#171c3a" stroke-linejoin="round"/>
      <polyline points="502.6 177 533.4 177 545.5 146.5 558.9 192.7 571.6 177 614.1 177 627.5 146.5 639.5 192.7 651.6 177 659.5 177" fill="none" stroke="#e73c4e" stroke-linejoin="round"/>
      <path d="M587.8,189.7l-19.4-19.4c-4.7-4.7-4.7-12.3,0-17.1s12.3-4.7,17.1,0l2.4,2.4,2.4-2.4c4.7-4.7,12.3-4.7,17.1,0,4.7,4.7,4.7,12.3,0,17.1l-19.4,19.4Z" fill="#e73c4e" stroke="#171c3a" stroke-linejoin="round"/>
      <line x1="652.1" y1="177" x2="673" y2="177" fill="none" stroke="#e73c4e" stroke-linejoin="round"/>
    </g>
    <g>
      <path d="M134.1,213.7h84.2c4.3,0,7.7,3.4,7.7,7.7h0c0,4.3-3.4,7.7-7.7,7.7h-84.2c-4.3,0-7.7-3.4-7.7-7.7h0c0-4.3,3.4-7.7,7.7-7.7Z" fill="#5b6bd2" stroke="#171c3a" stroke-linecap="round" stroke-linejoin="round"/>
      <path d="M134.1,239.1h131.6c4.3,0,7.7,3.4,7.7,7.7h0c0,4.3-3.4,7.7-7.7,7.7h-131.6c-4.3,0-7.7-3.4-7.7-7.7h0c0-4.3,3.4-7.7,7.7-7.7Z" fill="#b8860b" stroke="#171c3a" stroke-linecap="round" stroke-linejoin="round"/>
      <path d="M134.1,264.6h110.5c4.3,0,7.7,3.4,7.7,7.7h0c0,4.3-3.4,7.7-7.7,7.7h-110.5c-4.3,0-7.7-3.4-7.7-7.7h0c0-4.3,3.4-7.7,7.7-7.7Z" fill="#1ba39c" stroke="#171c3a" stroke-linecap="round" stroke-linejoin="round"/>
    </g>
    <g>
      <rect x="593.3" y="346.8" width="80.3" height="80.3" rx="11.8" ry="11.8" fill="#1ba39c" stroke="#171c3a" stroke-linecap="round" stroke-linejoin="round"/>
      <g>
        <path d="M628.7,384.8c0-.1-.1-.2-.4-.2h-8.5c-.1,0-.2,0-.2.2v12.6c0,.1,0,.2-.2.2h-3.9c-.1,0-.2,0-.2-.2v-32.5c0-.1,0-.2.2-.2h13.6c5-.1,9.6,4.6,9.5,10,0,2-.5,3.8-1.5,5.3-1.1,1.7-2.4,2.8-4,3.6-.1,0-.1.1,0,.4M619.6,380.5c0,.1,0,.2.2.2h8.8c1.4,0,2.7-.6,3.8-1.8,1.1-1.2,1.7-2.5,1.7-4s-.6-3-1.7-4.3c-1.2-1.2-2.5-1.8-3.9-1.8h-8.6c-.1,0-.2,0-.2.2v11.4h0Z" fill="#fff"/>
        <path d="M629.3,408.9h0l8.4-11.3v-.5l-10.5-14h0q0-.1.1-.1h4.5s.2,0,.4.2l8.1,10.7c.1.2.4.2.5,0l6-8.1c0-.1.2-.2.4-.2h4.6c0,.1-8.5,11.6-8.5,11.6v.5l8.5,11.3h0s0,.1-.1.1h-4.7c-.1,0-.2,0-.4-.2l-5.9-7.8h-.4l-5.9,7.8c0,.1-.2.2-.4.2h-4.6s0,0,0,0v-.2Z" fill="#fff"/>
      </g>
    </g>
    <g>
      <path d="M167.9,118.6l1.7.6-1.8.2c-3.9.6-7.2,3.3-8.4,7.1l-.6,1.7-.2-1.8c-.6-3.9-3.3-7.2-7.1-8.4l-1.7-.6,1.8-.2c3.9-.6,7.2-3.3,8.4-7.1l.6-1.7.2,1.8c.6,3.9,3.3,7.2,7.1,8.4Z" fill="#b8860b"/>
      <path d="M203.1,72l1.7.6-1.8.2c-3.9.6-7.2,3.3-8.4,7.1l-.6,1.7-.2-1.8c-.6-3.9-3.3-7.2-7.1-8.4l-1.7-.6,1.8-.2c3.9-.6,7.2-3.3,8.4-7.1l.6-1.7.2,1.8c.6,3.9,3.3,7.2,7.1,8.4Z" fill="#b8860b"/>
      <path d="M259.6,60.2l1.7.6-1.8.2c-3.9.6-7.2,3.3-8.4,7.1l-.6,1.7-.2-1.8c-.6-3.9-3.3-7.2-7.1-8.4l-1.7-.6,1.8-.2c3.9-.6,7.2-3.3,8.4-7.1l.6-1.7.2,1.8c.6,3.9,3.3,7.2,7.1,8.4h0Z" fill="#b8860b"/>
    </g>
  </g>
</svg>