<?xml version="1.0" encoding="UTF-8"?>
<svg xmlns="http://www.w3.org/2000/svg" width="460" height="410" xmlns:xlink="http://www.w3.org/1999/xlink" version="1.1" viewBox="0 0 460 410">
  <defs>
    <style>
      .cls-1, .cls-2 {
        fill: none;
      }

      .cls-3, .cls-4, .cls-5, .cls-6, .cls-7, .cls-8, .cls-9, .cls-10, .cls-11, .cls-12, .cls-13, .cls-14, .cls-15, .cls-16, .cls-2, .cls-17 {
        stroke: #171c3a;
        stroke-linecap: round;
        stroke-linejoin: round;
      }

      .cls-3, .cls-18 {
        fill: #e9ece4;
      }

      .cls-4 {
        fill: #9b9c98;
      }

      .cls-5 {
        fill: #0b847c;
      }

      .cls-19 {
        fill: #70748f;
      }

      .cls-6 {
        fill: #b8860b;
      }

      .cls-7 {
        fill: #ffc56d;
      }

      .cls-8 {
        fill: #7081f0;
      }

      .cls-9 {
        fill: #b4f4e4;
      }

      .cls-20 {
        fill: #00fa6c;
      }

      .cls-10 {
        fill: #00d181;
      }

      .cls-11 {
        fill: #1ba39c;
      }

      .cls-12 {
        fill: #805e00;
      }

      .cls-13 {
        fill: #9ba6e8;
      }

      .cls-18 {
        opacity: .5;
      }

      .cls-21 {
        clip-path: url(#clippath-1);
      }

      .cls-22 {
        clip-path: url(#clippath-3);
      }

      .cls-23 {
        clip-path: url(#clippath-4);
      }

      .cls-24 {
        clip-path: url(#clippath-2);
      }

      .cls-25 {
        clip-path: url(#clippath-5);
      }

      .cls-26 {
        fill: #171c3a;
        font-family: NBInternationalPro-Regular, 'NB International Pro';
        font-size: 7.5px;
      }

      .cls-14 {
        fill: #5b6bd2;
      }

      .cls-15 {
        fill: #b9bdb1;
      }

      .cls-16 {
        fill: #4553ba;
      }

      .cls-17 {
        fill: #059960;
      }

      .cls-27 {
        clip-path: url(#clippath);
      }
    </style>
    <clipPath id="clippath">
      <rect class="cls-1" x="128.1" y="232.1" width="67.9" height="50.6"/>
    </clipPath>
    <clipPath id="clippath-1">
      <rect class="cls-1" x="128.6" y="232.2" width="66.9" height="50.5" transform="translate(324 514.8) rotate(180)"/>
    </clipPath>
    <clipPath id="clippath-2">
      <rect class="cls-1" x="253.2" y="329.4" width="14.4" height="37.9"/>
    </clipPath>
    <clipPath id="clippath-3">
      <rect class="cls-1" x="185.7" y="329.4" width="14.4" height="37.9"/>
    </clipPath>
    <clipPath id="clippath-4">
      <rect class="cls-1" x="70.6" y="312.9" width="54.9" height="56.3"/>
    </clipPath>
    <clipPath id="clippath-5">
      <rect class="cls-1" x="236.1" y="241.6" width="15.7" height="19.2"/>
    </clipPath>
  </defs>
  <!-- Generator: Adobe Illustrator 28.7.1, SVG Export Plug-In . SVG Version: 1.2.0 Build 142)  -->
  <g>
    <g id="Layer_3">
      <path class="cls-19" d="M357.8,102c-.1-.3-.2-.6-.4-1-6.2-16.6-15.9-31.7-28.1-44.2-.2-.2-.4-.4-.5-.6-.1-.1-.3-.3-.4-.4-.2-.2-.4-.4-.5-.5-12.5-12.4-27.5-22.3-44.2-28.8-.3-.1-.6-.2-1-.4-13.9-5.3-29-8.2-44.8-8.2h-1c-15.8,0-30.8,3-44.8,8.3-.3.1-.6.2-1,.4-16.6,6.5-31.6,16.3-44.1,28.7l-.7.7-.2.2c-.2.2-.5.5-.7.7-12.1,12.5-21.6,27.4-27.9,44-.1.3-.2.6-.4,1-5,13.7-7.8,28.5-7.8,43.9v1.8c.2,15.8,3.3,30.9,8.8,44.8.1.3.2.6.4,1,6.2,15.5,15.4,29.5,26.8,41.3.3.3.6.7,1,1,.8.8,1.6,1.6,2.5,2.4.3.3.7.6,1,1,11.9,11.1,25.9,20.1,41.3,26.1.3.1.6.3,1,.4,13.9,5.3,29,8.2,44.8,8.3h1c15.8,0,30.8-3,44.8-8.2.3-.1.6-.2,1-.4,15.5-6,29.6-15,41.5-26.1.3-.3.7-.6,1-1,.8-.7,1.5-1.5,2.3-2.2.3-.3.6-.7,1-1,11.5-11.9,20.7-25.9,27-41.5.1-.3.3-.6.4-1,5.5-13.9,8.6-29,8.8-44.8v-1.8c0-15.4-2.7-30.2-7.7-43.9h0ZM145.4,233.4c-10.9-11.5-19.7-25-25.8-39.9h25.8v39.9ZM145.4,192.5h-26.2c-5.5-13.9-8.6-29-8.8-44.8h35v44.8ZM145.4,146.7h-35v-.9c0-15.4,2.8-30.2,7.8-43.9h27.2v44.8h0ZM145.4,101h-26.8c6.1-16,15.3-30.4,26.8-42.6v42.6h0ZM191.1,264.3c-14.8-5.8-28.3-14.4-39.8-25h39.8v25ZM191.1,238.2h-40.9c-1.3-1.2-2.6-2.5-3.9-3.8v-41h44.8v44.8h0ZM191.1,192.5h-44.8v-44.8h44.8v44.8ZM191.1,146.7h-44.8v-44.8h44.8v44.8ZM191.1,101h-44.8v-43.6c.4-.4.7-.8,1.1-1.1h43.7v44.8ZM191.1,55.2h-42.7c12.1-11.9,26.6-21.4,42.7-27.7v27.7ZM236.9,273c-15.8,0-30.9-3-44.8-8.4v-25.4h44.8v33.8ZM236.9,238.2h-44.8v-44.8h44.8v44.8h0ZM236.9,192.5h-44.8v-44.8h44.8v44.8ZM236.9,146.7h-44.8v-44.8h44.8v44.8ZM236.9,101h-44.8v-44.8h44.8v44.8ZM236.9,55.2h-44.8v-28.1c13.9-5.3,29-8.3,44.8-8.4v36.4ZM282.6,264.7c-13.9,5.3-29,8.2-44.8,8.3v-33.8h44.8v25.5h0ZM282.6,238.2h-44.8v-44.8h44.8v44.8h0ZM282.6,192.5h-44.8v-44.8h44.8v44.8h0ZM282.6,146.7h-44.8v-44.8h44.8v44.8h0ZM282.6,101h-44.8v-44.8h44.8v44.8h0ZM282.6,55.2h-44.8V18.8c15.8,0,30.8,3,44.8,8.3v28.2h0ZM283.6,27.4c16.1,6.3,30.7,15.8,42.8,27.8h-42.8v-27.8ZM283.6,264.3v-25.1h40c-11.5,10.7-25.1,19.3-40,25.1ZM328.4,234.6c-1.2,1.2-2.4,2.4-3.7,3.6h-41.1v-44.8h44.8v41.2h0ZM328.4,192.5h-44.8v-44.8h44.8v44.8ZM328.4,146.7h-44.8v-44.8h44.8v44.8ZM328.4,101h-44.8v-44.8h43.8c.3.3.6.6.9,1v43.8ZM329.4,58.2c11.7,12.2,20.9,26.7,27,42.8h-27v-42.8h0ZM329.4,233.6v-40.1h26c-6.1,15-15,28.6-26,40.1ZM355.7,192.5h-26.4v-44.8h35.2c-.2,15.8-3.3,30.9-8.8,44.8ZM364.5,146.7h-35.2v-44.8h27.4c5.1,13.7,7.8,28.5,7.8,43.9,0,.3,0,.6,0,.9Z"/>
      <g>
        <path class="cls-17" d="M34.1,388.2c0-.3,0-.6,0-.8,0-.8-.1-1.6-.3-2.4,1.2-.8,2.1-2,2.5-3.4.8.4,1.7.6,2.6.6,2.5,0,4.7-1.5,5.6-3.7.6.1,1.3.2,2,.2,4.8,0,8.7-3.9,8.7-8.7s0-.8,0-1.2c.6.1,1.1.2,1.7.2,4.8,0,8.7-3.9,8.7-8.7s-3.9-8.7-8.7-8.7-8.7,3.9-8.7,8.7,0,.8,0,1.2c-.6-.1-1.1-.2-1.7-.2-4.8,0-8.7,3.9-8.7,8.7s0,0,0,.1c-2.3.4-4.1,2.1-4.7,4.4-.8-.4-1.7-.6-2.6-.6-3,0-5.4,2.1-6,4.9-4.3.5-7.7,4.2-7.7,8.7s0,.6,0,.8h17.3Z"/>
        <g>
          <rect class="cls-14" x="275.3" y="219.2" width="154.7" height="169"/>
          <rect class="cls-13" x="105.9" y="219.2" width="171.5" height="169"/>
          <rect class="cls-13" x="268.3" y="219.2" width="72.5" height="72"/>
          <rect class="cls-14" x="218.3" y="219.2" width="51.4" height="72"/>
          <g>
            <rect class="cls-16" x="302.5" y="324.9" width="30.3" height="40.7"/>
            <path class="cls-5" d="M325.6,326.4s-1.4,16.3,4.3,22c0,0-2.9,9.2-2.9,15.7v1.2c0,0,6.6,0,6.6,0v-39.9h-7.8c0,0-.2,1-.2,1Z"/>
            <rect class="cls-9" x="329.4" y="347.8" width="2.4" height="1.4"/>
            <path class="cls-5" d="M309.2,326.4s1.4,16.3-4.3,22c0,0,2.9,9.2,2.9,15.7v1.2c0,0-5.7,0-5.7,0v-39.9s6.8,0,6.8,0l.2,1Z"/>
            <rect class="cls-9" x="303.1" y="347.8" width="2.3" height="1.4" transform="translate(608.6 697) rotate(-180)"/>
            <path class="cls-12" d="M334,323.6h-.3s-32.5,0-32.5,0h0s-.3,0-.3,0v43.3h.3s32.5,0,32.5,0h0s.3,0,.3,0v-43.3ZM318.8,326.2h12.5v37.9h-12.5v-37.9ZM316.1,364.1h-12.5v-37.9h12.5v37.9Z"/>
            <g>
              <polygon class="cls-18" points="315.6 337.4 304.1 344.3 304.1 350.4 315.6 343.5 315.6 337.4"/>
              <polygon class="cls-18" points="319.3 335.4 319.3 341.4 330.8 334.5 330.8 328.4 319.3 335.4"/>
            </g>
            <g>
              <polygon class="cls-18" points="315.6 345.2 304.1 352.4 304.1 358.5 315.6 351.2 315.6 345.2"/>
              <polygon class="cls-18" points="319.3 343.4 319.3 349.5 330.8 342.2 330.8 336.2 319.3 343.4"/>
            </g>
          </g>
          <g>
            <rect class="cls-16" x="373.6" y="324.9" width="30.3" height="40.7"/>
            <path class="cls-5" d="M396.7,326.4s-1.4,16.3,4.3,22c0,0-2.9,9.2-2.9,15.7v1.2c0,0,6.6,0,6.6,0v-39.9h-7.8c0,0-.2,1-.2,1Z"/>
            <rect class="cls-9" x="400.5" y="347.8" width="2.4" height="1.4"/>
            <path class="cls-5" d="M380.4,326.4s1.4,16.3-4.3,22c0,0,2.9,9.2,2.9,15.7v1.2c0,0-5.7,0-5.7,0v-39.9s6.8,0,6.8,0l.2,1Z"/>
            <rect class="cls-9" x="374.2" y="347.8" width="2.3" height="1.4" transform="translate(750.8 697) rotate(-180)"/>
            <path class="cls-12" d="M405.1,323.6h-.3s-32.5,0-32.5,0h0s-.3,0-.3,0v43.3h.3s32.5,0,32.5,0h0s.3,0,.3,0v-43.3ZM389.9,326.2h12.5v37.9h-12.5v-37.9ZM387.2,364.1h-12.5v-37.9h12.5v37.9Z"/>
            <g>
              <polygon class="cls-18" points="386.7 337.4 375.2 344.3 375.2 350.4 386.7 343.5 386.7 337.4"/>
              <polygon class="cls-18" points="390.4 335.4 390.4 341.4 401.9 334.5 401.9 328.4 390.4 335.4"/>
            </g>
            <g>
              <polygon class="cls-18" points="386.7 345.2 375.2 352.4 375.2 358.5 386.7 351.2 386.7 345.2"/>
              <polygon class="cls-18" points="390.4 343.4 390.4 349.5 401.9 342.2 401.9 336.2 390.4 343.4"/>
            </g>
          </g>
          <g>
            <rect class="cls-16" x="373.6" y="237.1" width="30.3" height="40.7"/>
            <path class="cls-5" d="M396.7,238.6s-1.4,16.3,4.3,22c0,0-2.9,9.2-2.9,15.7v1.2c0,0,6.6,0,6.6,0v-39.9h-7.8c0,0-.2,1-.2,1Z"/>
            <rect class="cls-9" x="400.5" y="260.1" width="2.4" height="1.4"/>
            <path class="cls-5" d="M380.4,238.6s1.4,16.3-4.3,22c0,0,2.9,9.2,2.9,15.7v1.2c0,0-5.7,0-5.7,0v-39.9s6.8,0,6.8,0l.2,1Z"/>
            <rect class="cls-9" x="374.2" y="260.1" width="2.3" height="1.4" transform="translate(750.8 521.5) rotate(-180)"/>
            <path class="cls-12" d="M405.1,235.8h-.3s-32.5,0-32.5,0h0s-.3,0-.3,0v43.3h.3s32.5,0,32.5,0h0s.3,0,.3,0v-43.3ZM389.9,238.5h12.5v37.9h-12.5v-37.9ZM387.2,276.4h-12.5v-37.9h12.5v37.9Z"/>
            <g>
              <polygon class="cls-18" points="386.7 249.7 375.2 256.6 375.2 262.7 386.7 255.7 386.7 249.7"/>
              <polygon class="cls-18" points="390.4 247.6 390.4 253.7 401.9 246.8 401.9 240.7 390.4 247.6"/>
            </g>
            <g>
              <polygon class="cls-18" points="386.7 257.4 375.2 264.7 375.2 270.7 386.7 263.5 386.7 257.4"/>
              <polygon class="cls-18" points="390.4 255.7 390.4 261.8 401.9 254.5 401.9 248.5 390.4 255.7"/>
            </g>
          </g>
          <g>
            <rect class="cls-6" x="125.1" y="229.1" width="73.8" height="56.6" transform="translate(324 514.9) rotate(180)"/>
            <g>
              <rect class="cls-8" x="128.1" y="232.1" width="20.6" height="50.6"/>
              <rect class="cls-8" x="151.4" y="232.1" width="21.3" height="50.6"/>
              <rect class="cls-8" x="175.3" y="232.1" width="20.6" height="50.6"/>
            </g>
            <g class="cls-27">
              <path class="cls-11" d="M135.5,233.1s1.8,21-5.5,28.3c0,0,3.7,11.9,3.7,20.2v1.6c.1,0-7.3,0-7.3,0v-51.4s8.8,0,8.8,0l.3,1.3Z"/>
              <path class="cls-11" d="M188.7,233.1s-1.7,21,5.2,28.3c0,0-3.5,11.9-3.5,20.2v1.6c0,0,6.9,0,6.9,0v-51.4h-8.4c0,0-.3,1.3-.3,1.3Z"/>
            </g>
            <rect class="cls-9" x="128.1" y="260.8" width="2.5" height="1.8" transform="translate(258.6 523.3) rotate(-180)"/>
            <rect class="cls-9" x="193.2" y="260.8" width="2.7" height="1.8"/>
            <g>
              <rect class="cls-2" x="128.1" y="232.1" width="20.6" height="50.6"/>
              <rect class="cls-2" x="151.4" y="232.1" width="21.3" height="50.6"/>
              <rect class="cls-2" x="175.3" y="232.1" width="20.6" height="50.6"/>
            </g>
            <g class="cls-21">
              <g>
                <polygon class="cls-18" points="151.9 267.4 172.1 255.3 172.1 249.2 151.9 261.3 151.9 267.4"/>
                <polygon class="cls-18" points="175.8 253.6 205.5 236.2 202.8 231.7 175.8 247.5 175.8 253.6"/>
                <polygon class="cls-18" points="148.2 263 118.6 280.3 121.2 284.8 148.2 269.1 148.2 263"/>
              </g>
              <g>
                <polygon class="cls-18" points="151.9 276 172.1 264 172.1 258 151.9 270 151.9 276"/>
                <polygon class="cls-18" points="175.8 262.2 205.5 245 202.8 240.5 175.8 256.1 175.8 262.2"/>
                <polygon class="cls-18" points="148.2 271.8 118.6 289.1 121.2 293.6 148.2 277.8 148.2 271.8"/>
              </g>
            </g>
          </g>
          <g>
            <rect class="cls-8" x="252" y="327.7" width="16.8" height="41.3"/>
            <g>
              <g>
                <polygon class="cls-11" points="260.4 350.8 269.2 328.7 251.6 328.7 260.4 350.8"/>
                <polygon class="cls-11" points="259.3 348.6 251.6 367.9 269.2 367.9 261.5 348.6 259.3 348.6"/>
              </g>
              <rect class="cls-9" x="258.9" y="347.6" width="3" height="1.4" transform="translate(520.7 696.7) rotate(-180)"/>
            </g>
            <path class="cls-6" d="M270.8,326.7h-1.7s-17.3,0-17.3,0h0s-1.7,0-1.7,0v43.3h1.7s17.3,0,17.3,0h0s1.7,0,1.7,0v-43.3ZM268.1,329.4v37.9h-15.4v-37.9h15.4Z"/>
            <g class="cls-24">
              <polygon class="cls-18" points="310.5 315.5 229 364.1 226.5 359.5 307.9 310.9 310.5 315.5"/>
              <polygon class="cls-18" points="310.5 323.6 229 372.2 226.5 367.7 307.9 319.1 310.5 323.6"/>
            </g>
          </g>
          <g>
            <rect class="cls-8" x="184.5" y="327.7" width="16.8" height="41.3"/>
            <g>
              <g>
                <polygon class="cls-11" points="192.9 350.8 201.7 328.7 184.1 328.7 192.9 350.8"/>
                <polygon class="cls-11" points="191.8 348.6 184.1 367.9 201.7 367.9 194 348.6 191.8 348.6"/>
              </g>
              <rect class="cls-9" x="191.4" y="347.6" width="3" height="1.4" transform="translate(385.8 696.7) rotate(-180)"/>
            </g>
            <path class="cls-6" d="M203.3,326.7h-1.7s-17.3,0-17.3,0h0s-1.7,0-1.7,0v43.3h1.7s17.3,0,17.3,0h0s1.7,0,1.7,0v-43.3ZM200.6,329.4v37.9h-15.4v-37.9h15.4Z"/>
            <g class="cls-22">
              <polygon class="cls-18" points="243.6 315.5 161.2 364.1 158.7 359.5 241 310.9 243.6 315.5"/>
              <polygon class="cls-18" points="243.6 323.6 161.2 372.2 158.7 367.7 241 319.1 243.6 323.6"/>
            </g>
          </g>
          <g>
            <rect class="cls-6" x="210.2" y="326.7" width="33.5" height="61.5" transform="translate(453.8 714.9) rotate(180)"/>
            <rect class="cls-12" x="213.1" y="330.3" width="27.5" height="57.9" transform="translate(453.8 718.6) rotate(180)"/>
            <rect class="cls-7" x="234.5" y="357.1" width="2.8" height="8.2" rx="1.4" ry="1.4"/>
          </g>
          <g>
            <rect class="cls-6" x="296.3" y="243.9" width="26.1" height="47.3" transform="translate(618.6 535.2) rotate(180)"/>
            <rect class="cls-12" x="298.7" y="246.7" width="21.2" height="44.5" transform="translate(618.6 538) rotate(180)"/>
            <rect class="cls-7" x="315.1" y="266.4" width="2.1" height="6.3" rx="1.1" ry="1.1"/>
          </g>
          <g>
            <rect class="cls-3" x="259.5" y="269.7" width="3.9" height="21.6"/>
            <rect class="cls-3" x="244.7" y="269.7" width="3.9" height="21.6"/>
            <rect class="cls-3" x="229.9" y="269.7" width="3.9" height="21.6"/>
            <rect class="cls-3" x="322" y="269.7" width="3.9" height="21.6"/>
            <rect class="cls-3" x="336.8" y="269.7" width="3.9" height="21.6"/>
            <rect class="cls-3" x="307.2" y="269.7" width="3.9" height="21.6"/>
            <rect class="cls-3" x="292.4" y="269.7" width="3.9" height="21.6"/>
            <rect class="cls-3" x="277.5" y="208.2" width="3.9" height="122.6" transform="translate(548.9 -10) rotate(90)"/>
            <rect class="cls-3" x="274.3" y="219.2" width="7.1" height="72"/>
          </g>
          <g>
            <rect class="cls-14" x="137.8" y="291.6" width="36.8" height="96.6"/>
            <rect class="cls-13" x="56.9" y="291.6" width="82.3" height="96.6"/>
            <rect class="cls-4" x="137.8" y="281.4" width="38.8" height="10.6"/>
            <rect class="cls-15" x="53.2" y="281.4" width="86" height="10.6"/>
            <rect class="cls-16" x="70.1" y="312.9" width="55.9" height="56.3"/>
            <rect class="cls-6" x="70.1" y="305.7" width="55.9" height="4.1"/>
            <g class="cls-23">
              <polygon class="cls-18" points="142.8 313.3 59.7 361.9 57.1 357.3 140.2 308.7 142.8 313.3"/>
              <polygon class="cls-18" points="142.8 322.1 59.7 370.7 57.1 366.1 140.2 317.5 142.8 322.1"/>
            </g>
          </g>
          <g>
            <rect class="cls-12" x="233.3" y="238.5" width="21.2" height="25.4"/>
            <rect class="cls-16" x="235.6" y="241" width="16.6" height="20.4"/>
            <g class="cls-25">
              <polygon class="cls-18" points="229.1 259.6 259.2 242.2 256.5 237.7 229.1 253.5 229.1 259.6"/>
              <polygon class="cls-18" points="229.1 266.9 259.2 249.6 256.5 245 229.1 260.8 229.1 266.9"/>
            </g>
          </g>
          <g>
            <polygon class="cls-15" points="214.9 138.4 173.5 183.3 186.5 197.5 269.8 224.4 277.8 224.4 276.8 168.5 214.9 138.4"/>
            <polygon class="cls-4" points="393.8 181.7 357.9 181.7 316.1 138.4 214.9 138.4 277.5 224.4 338.8 224.4 379 224.4 439.9 224.4 393.8 181.7"/>
            <polygon class="cls-15" points="269.8 224.4 203.2 174 151.9 174 152 174.1 151.9 174.1 89.3 224.3 218.5 224.4 218.6 224.4 269.8 224.4"/>
            <polygon class="cls-4" points="269.8 224.4 218.5 224.4 151.9 174 203.2 174 269.8 224.4"/>
          </g>
        </g>
        <g>
          <g>
            <path class="cls-10" d="M407.9,361.6c4.5,11.1,9,19.8,3.1,22.2-6,2.4-8.7-7-13.2-18.1s-5-21.4-3.1-22.2,8.7,7,13.2,18.1Z"/>
            <path class="cls-17" d="M416.4,358.5c1.4,11.9,3.6,21.5-2.8,22.2s-6.6-9-8-20.9.7-22,2.8-22.2,6.6,9,8,20.9Z"/>
            <path class="cls-17" d="M433.5,364.8c-3.8,11.4-6,20.9-12.1,18.9s-2.1-11,1.8-22.4c3.8-11.4,10.1-19.5,12.1-18.9s2.1,11-1.8,22.4Z"/>
            <path class="cls-10" d="M425.9,359.2c0,12,1,21.7-5.5,21.7s-5.5-9.7-5.5-21.7,3.4-21.7,5.5-21.7,5.5,9.7,5.5,21.7Z"/>
          </g>
          <path class="cls-17" d="M395.2,365.5c-1.4,0-2.7.2-4,.7-.9-2.9-2.8-5.4-5.5-7,0,0,0-.2,0-.3.2-3.7-2.7-6.9-6.4-7.1s-2.2.2-3.2.6c-1.4-2.4-4-4.1-7.1-4.3-4.8-.2-8.9,3.5-9.2,8.3s0,0,0,.1c-5.9.6-10.6,5.4-10.9,11.5s0,1.3,0,2c-2.5.2-4.5,2.2-4.6,4.7s2,5.1,4.7,5.3,8.6.7,11.4.9,14.6.8,18.3.9,12.5.9,15.4,1c4.8.2,8.9-3.5,9.2-8.3s-3.5-8.9-8.3-9.2Z"/>
          <rect class="cls-4" x="381.9" y="374.9" width="54.2" height="13.4"/>
          <rect class="cls-15" x="342.9" y="374.9" width="42" height="13.4"/>
        </g>
        <path class="cls-10" d="M77.5,388.2c.3-1.1.5-2.2.5-3.4,0-3.5-1.6-6.7-4.2-8.8,0-.5,0-.9,0-1.4,0-6.2-5.1-11.3-11.3-11.3s-10.6,4.4-11.2,10c0,0-.2,0-.2,0-3,0-5.7,1.2-7.7,3-.3,0-.5,0-.8,0-2.8,0-5.1,2-5.6,4.6-3.5.2-6.3,3.1-6.3,6.7s0,.3,0,.5h46.7Z"/>
      </g>
      <g>
        <g>
          <path class="cls-10" d="M137.9,104.8l-75.9-15.4c-3.3-.7-6.6,1.5-7.2,4.8s1.5,6.6,4.8,7.2l75.9,15.4c3.3.7,6.6-1.5,7.2-4.8s-1.5-6.6-4.8-7.2ZM61.1,98.2c-1.4-.3-2.3-1.7-2-3.1s1.7-2.3,3.1-2,2.3,1.7,2,3.1-1.7,2.3-3.1,2Z"/>
          <text class="cls-26" transform="translate(70.5 100.1) rotate(11.4)"><tspan x="0" y="0">Home Sweet Home</tspan></text>
        </g>
        <g>
          <path class="cls-7" d="M66.5,98.6l-17.9,9.8c-2.2,1.2-3,4-1.8,6.2l9.2,16.7c1.2,2.2,4,3,6.2,1.8l4.5-2.5,18.2,33.2,7.8.4.2-7-4.6-.9,1.2-5.3-5.2-2,1-5.7-9.6-17.4,4.5-2.5c2.2-1.2,3-4,1.8-6.2l-9.2-16.7c-1.2-2.2-4-3-6.2-1.8ZM63.3,103.9l-1.2,8.3-7.5-3.5,8.7-4.8ZM51.7,117.2l-1.8-3.3c-.6-1.1-.2-2.5.9-3.1l1.4-.8,9.3,4.4-6.7,3.7c-1.1.6-2.5.2-3.1-.9ZM72.2,106c.6,1.1.2,2.5-.9,3.1l-6.9,3.8,1.5-10.3,1.4-.8c1.1-.6,2.5-.2,3.1.9l1.8,3.3Z"/>
          <line class="cls-2" x1="69" y1="129.5" x2="84.2" y2="157.3"/>
          <line class="cls-2" x1="71" y1="128.4" x2="80.7" y2="146.1"/>
        </g>
        <path class="cls-2" d="M57.5,90c-.4-.6-.9-1.2-1.3-1.8-6-7.7-13.6-11.8-17.2-9.1s-1.6,11.2,4.4,18.9,13.6,11.8,17.2,9.1,1.3-1.4,1.5-2.5"/>
        <path class="cls-2" d="M62.2,100.9c-.3-2.1-1.1-4.5-2.4-7.1"/>
      </g>
      <g>
        <path class="cls-20" d="M371.4,58.8h-.6c0,0,.6.1.6.1,3.7.3,6.6,3.2,6.8,6.8v.6c0,0,.1-.6.1-.6.3-3.7,3.2-6.6,6.8-6.8h.6c0,0-.6-.1-.6-.1-3.7-.3-6.6-3.2-6.8-6.8v-.6c0,0-.1.6-.1.6-.3,3.7-3.2,6.6-6.8,6.8Z"/>
        <path class="cls-20" d="M339.1,23.9h-.6c0,0,.6.1.6.1,3.7.3,6.6,3.2,6.8,6.8v.6c0,0,.1-.6.1-.6.3-3.7,3.2-6.6,6.8-6.8h.6c0,0-.6-.1-.6-.1-3.7-.3-6.6-3.2-6.8-6.8v-.6c0,0-.1.6-.1.6-.3,3.7-3.2,6.6-6.8,6.8Z"/>
        <path class="cls-20" d="M388.6,102h-.6c0,0,.6.1.6.1,3.7.3,6.6,3.2,6.8,6.8v.6c0,0,.1-.6.1-.6.3-3.7,3.2-6.6,6.8-6.8h.6c0,0-.6-.1-.6-.1-3.7-.3-6.6-3.2-6.8-6.8v-.6c0,0-.1.6-.1.6-.3,3.7-3.2,6.6-6.8,6.8Z"/>
      </g>
    </g>
  </g>
</svg>