<?xml version="1.0" encoding="utf-8" ?><svg xmlns="http://www.w3.org/2000/svg" xmlns:xlink="http://www.w3.org/1999/xlink" width="2048" height="2048" viewBox="0 0 2048 2048"><path fill="#3F3649" d="M768.05 759.896L768.066 625.969C768.061 606.684 767.178 586.222 768.545 567.095C769.385 555.339 783.816 542.447 795.781 542.153C810.591 541.789 825.771 541.859 840.749 541.865L929.758 541.945L1201.47 541.851L2048 541.864L2048 604.249L2048 649.211L2048 703.839L2048 755.915L1935.14 756.02C1925.01 756.042 1890.03 756.727 1882.44 755.149C1880.44 754.972 1881.04 755.089 1878.93 755.908C1831.02 757.535 1779.1 754.842 1730.49 756.053C1721.79 757.649 1514.32 757.704 1507.56 756.086L1506.88 754.908L1502.6 755.68C1487.84 756.73 1461.1 755.942 1445.18 755.951L1337.05 755.835L1335 754.561L1333.04 755.643C1315.68 756.928 1286.69 755.909 1268 755.917L1149.1 755.908L1145.81 755.163C1139.12 756.761 969.679 756.249 966.114 754.965L962.195 755.226C951.407 757.459 776.325 756.569 772.063 754.936L769.676 754.626C768.765 756.737 768.598 757.644 768.05 759.896Z"/><path fill="#916DD5" d="M772.186 703.714L962.193 703.851L962.195 755.226C951.407 757.459 776.325 756.569 772.063 754.936C772.197 737.862 772.238 720.788 772.186 703.714Z"/><path fill="#916DD5" d="M1692.21 703.792L1878.95 703.757C1878.95 720.591 1879.37 739.238 1878.93 755.908C1831.02 757.535 1779.1 754.842 1730.49 756.053C1717.7 755.739 1704.91 755.674 1692.12 755.858L1692.21 703.792Z"/><path fill="#916DD5" d="M1149.11 703.804L1333.05 703.884L1333.04 755.643C1315.68 756.928 1286.69 755.909 1268 755.917L1149.1 755.908L1149.11 703.804Z"/><path fill="#916DD5" d="M1506.9 703.766L1687.83 703.813L1687.9 755.888L1569.29 755.813C1552.25 755.807 1523.64 754.941 1507.56 756.086L1506.88 754.908L1506.9 703.766Z"/><path fill="#916DD5" d="M966.45 703.843L1145.16 703.798C1145.14 712.705 1144.6 748.39 1145.81 755.163C1139.12 756.761 969.679 756.249 966.114 754.965C966.793 738.453 966.462 720.477 966.45 703.843Z"/><path fill="#916DD5" d="M1882.94 703.787L2048 703.839L2048 755.915L1935.14 756.02C1925.01 756.042 1890.03 756.727 1882.44 755.149C1883.49 749.855 1882.97 710.917 1882.94 703.787Z"/><path fill="#916DD5" d="M1337.03 703.867L1502.67 703.867C1502.67 720.748 1503.01 738.911 1502.6 755.68C1487.84 756.73 1461.1 755.942 1445.18 755.951L1337.05 755.835L1337.03 703.867Z"/><path fill="#E8E7F4" d="M2048 604.249L2048 649.211L1996.31 649.215C1990.85 649.236 1983.45 649.145 1978 649.403C1950.11 650.719 1943.09 612.216 1969.99 604.892C1975.12 603.495 1990.59 604.308 1996.88 604.308L2048 604.249Z"/><path fill="#E8E7F4" d="M1635.56 604.414C1669.09 604.059 1708.35 602.756 1741.2 605.448C1755.95 606.656 1767.87 637.842 1738.57 649.13C1724.37 649.738 1639.89 651.39 1631.04 647.203C1624.83 644.259 1619.65 638.698 1617.6 632.073C1615.85 626.401 1617.14 621.415 1619.82 616.28C1623.38 609.477 1628.46 606.664 1635.56 604.414Z"/><path fill="#E8E7F4" d="M1803.73 604.398C1819.46 604.178 1901.67 602.222 1911.8 606.452C1917.35 608.772 1921.47 613.717 1923.39 619.356C1925.4 625.266 1924.85 631.559 1922.05 637.117C1918.7 643.77 1913.34 646.842 1906.48 649.042C1889.58 649.501 1808.63 651.675 1798.15 646.872C1792.55 644.308 1788.2 639.06 1786.17 633.305C1784.06 627.331 1785.09 621.488 1788 615.964C1791.49 609.345 1796.76 606.386 1803.73 604.398Z"/><path fill="#137ED9" d="M848.015 594.712C858.266 595.007 854.658 597.956 854.684 609.549C859.034 610.531 886.332 609.331 886.84 610.981C886.023 612.261 859.207 611.202 854.728 612.146L854.683 641.879C860.308 643.071 885.423 641.537 887.451 643.387C887.442 643.435 887.443 643.531 887.371 643.551C880.543 645.433 859.746 642.426 854.575 644.623L854.648 659.364C846.784 658.054 836.916 659.338 829.078 658.37C829 658.361 828.976 658.262 828.948 658.181L829.115 657.876C831.119 656.822 845.721 657.741 850.908 656.705C840.423 655.389 808.81 656.224 796.716 656.22L796.753 598.036L850.074 598.411C848.671 596.715 848.582 596.817 848.015 594.712Z"/><path fill="#25252B" d="M848.015 594.712C858.266 595.007 854.658 597.956 854.684 609.549C859.034 610.531 886.332 609.331 886.84 610.981C886.023 612.261 859.207 611.202 854.728 612.146L854.683 641.879C860.308 643.071 885.423 641.537 887.451 643.387C887.442 643.435 887.443 643.531 887.371 643.551C880.543 645.433 859.746 642.426 854.575 644.623L854.648 659.364C846.784 658.054 836.916 659.338 829.078 658.37C829 658.361 828.976 658.262 828.948 658.181L829.115 657.876C831.119 656.822 845.721 657.741 850.908 656.705C850.816 649.997 851.376 600.465 850.074 598.411C848.671 596.715 848.582 596.817 848.015 594.712Z"/><path fill="#E8E7F4" d="M811.008 612.113C819.576 612.752 817.204 613.005 821.38 621.859C823.007 619.197 824.847 615.225 827.074 613.153C827.955 612.334 832.465 612.116 833.223 613.538C832.987 614.983 827.665 623.868 826.477 626.028C828.731 630.111 832.47 635.961 833.581 640.343C833.644 640.591 831.279 641.658 830.972 641.802L829.463 642.591C823.713 639.219 824.77 638.008 821.817 630.483C819.992 633.646 818.031 638.157 815.69 640.608C814.859 641.479 809.659 641.495 809.714 640.301C809.86 637.173 815.927 628.322 817.384 625.818C815.188 622.411 809.261 615.612 811.008 612.113Z"/><path fill="#16ADEF" d="M827.988 577.968L887.501 578.025L887.455 608.846C879.691 608.864 861.376 608.369 854.684 609.549C854.658 597.956 858.266 595.007 848.015 594.712C841.342 594.772 834.669 594.795 827.996 594.781C828.023 589.176 828.021 583.572 827.988 577.968Z"/><path fill="#137ED9" d="M854.575 644.623C859.667 645.98 881.113 645.414 887.547 645.388L887.322 674.102L828.139 674.105L828.158 659.951C834.85 659.904 848.902 660.446 854.648 659.364L854.575 644.623Z"/><path fill="#E8E7F4" d="M923.476 595.531C933.318 595.567 945.152 595.12 954.761 596.234C955.657 596.338 955.821 604.893 954.825 605.276C950.683 606.868 939.275 606.082 934.844 606.115L934.809 619.49C939.47 619.488 949.195 618.758 953.401 620.172C953.998 620.373 953.922 627.085 953.748 627.561C952.078 632.123 939.272 627.535 935.555 629.918C934.655 630.495 934.525 635.843 934.412 636.835C934.415 636.853 934.654 638.606 934.641 638.643C934.676 639.165 934.734 640.581 934.873 641.069C936.569 647.031 955.796 638.563 955.8 645.905C955.8 646.357 956.079 652.114 955.215 652.502C952.206 653.853 946.834 652.681 943.41 653.06C936.811 653.134 930.089 653.011 923.452 652.991C923.561 633.838 923.569 614.684 923.476 595.531Z"/><path fill="#E8E7F4" d="M1053.98 613.068C1063.08 612.757 1068.64 612.755 1074 620.995C1075.82 623.799 1077.22 632.218 1076.22 634.494C1074.55 638.278 1057.05 634.572 1053.03 636.262C1050.67 637.618 1051.9 640.12 1052.91 641.666C1057.37 648.481 1068.03 645.043 1073.2 641.355L1074.77 640.255C1075.62 644.887 1077.76 648.785 1072.65 651.388C1043.13 666.433 1026.42 625.259 1053.98 613.068Z"/><path fill="#25252B" d="M1055.74 620.803C1059.99 620.933 1066.24 621.37 1066.33 627.392C1065.43 628.537 1065.33 628.512 1063.98 628.749C1055.38 628.733 1047.31 630.794 1055.74 620.803Z"/><path fill="#16ADEF" d="M854.728 612.146C861.689 613.281 879.579 612.782 887.512 612.768L887.532 641.259C879.722 641.258 861.364 640.752 854.683 641.879L854.728 612.146Z"/><path fill="#E8E7F4" d="M962.275 613.442C966.553 613.421 970.347 613.511 974.616 613.67C977.276 618.185 979.696 622.143 982.276 626.759C984.624 622.157 986.529 618.512 989.097 613.991C993.399 613.907 997.702 613.879 1002 613.907C997.833 619.212 993.758 624.579 990.193 630.317L989.112 631.987C990.426 634.526 1000.48 651.423 1000.51 652.404C1000.07 652.81 999.622 652.922 999.035 653.165C985.176 652.849 988.882 651.956 981.89 638.088C978.996 643.144 975.957 648.093 973.079 653.102C968.844 653.192 964.607 653.171 960.373 653.04C964.791 646.019 969.441 639.346 974.051 632.472C971.723 628.674 962.92 616.342 962.275 613.442Z"/><path fill="#E8E7F4" d="M1019.21 613.131C1021.14 613.053 1023.07 613.011 1025 613.004C1045.55 613.078 1034.61 624.613 1031.53 623.3C1020.12 618.433 1011.46 627.885 1015.39 638.732C1018.9 648.425 1028.56 644.479 1035.39 642.105C1036.42 645.802 1038.84 649.583 1034.48 651.819C1005.65 666.592 991.325 621.809 1017.37 613.756L1019.21 613.131Z"/><path fill="#E8E7F4" d="M1083.5 594.081C1096.88 594.057 1093.6 592.917 1093.79 607.748C1093.99 622.831 1093.82 638.052 1093.71 653.145C1092.58 653.124 1083.72 653.419 1083.66 652.212C1082.72 633.29 1083.43 613.051 1083.5 594.081Z"/><path fill="#C7ADFF" d="M639.207 1673.27C646.179 1675.68 720.185 1674.29 732.34 1674.27L920.988 1674.26L2048 1674.35L2048 1678.33L2048 1707.18L2048 1711.15L2048 1750.34L2048 1754.39L2048 1780.28L2048 1785.72L2048 1830.08L2048 1833.96L1087.57 1834.04L796.91 1833.94C740.411 1833.98 681.933 1834.81 625.577 1833.84C618.885 1831.99 580.116 1832.85 569.888 1832.84L429.472 1832.85L386.682 1832.83C379.004 1832.78 370.459 1832 362.945 1833L363.265 1831.43C365.853 1828.07 366.909 1828.02 371.041 1826.37L372.828 1827.11C378.833 1825.61 433.32 1794.37 440.934 1789.51C444.779 1788.11 455.953 1781.4 459.99 1779.09C466.47 1775.68 472.554 1772.5 478.835 1768.75C512.995 1751.87 547.064 1729.84 581.119 1712.17C594.773 1705.09 612.312 1695.55 625.003 1687.38L626.38 1686.64L626.521 1685.16C631.268 1681.44 636.329 1675.43 639.207 1673.27Z"/><path fill="#25252B" d="M625.577 1833.84C618.885 1831.99 580.116 1832.85 569.888 1832.84L429.472 1832.85L386.682 1832.83C379.004 1832.78 370.459 1832 362.945 1833L363.265 1831.43C365.853 1828.07 366.909 1828.02 371.041 1826.37L372.828 1827.11L372.287 1829.52C379.209 1830.48 409.683 1829.95 418.169 1829.96L516.317 1830L857.676 1830.04L2048 1830.08L2048 1833.96L1087.57 1834.04L796.91 1833.94C740.411 1833.98 681.933 1834.81 625.577 1833.84Z"/><path fill="#25252B" d="M639.207 1673.27C646.179 1675.68 720.185 1674.29 732.34 1674.27L920.988 1674.26L2048 1674.35L2048 1678.33L1094.51 1678.37L796.643 1678.37C748.35 1678.4 700.073 1678.01 651.784 1678.62C635.713 1678.83 639.465 1681.19 626.38 1686.64L626.521 1685.16C631.268 1681.44 636.329 1675.43 639.207 1673.27Z"/><path fill="#916DD5" d="M1976.94 1710.99C2000.56 1710.97 2024.39 1710.86 2048 1711.15L2048 1750.34C2038.2 1750.08 2026.85 1750.22 2017.03 1750.34C2003.76 1737.18 1990.14 1724.23 1976.94 1710.99Z"/><path fill="#25252B" d="M1968.43 1706.91L2048 1707.18L2048 1711.15C2024.39 1710.86 2000.56 1710.97 1976.94 1710.99C1990.14 1724.23 2003.76 1737.18 2017.03 1750.34C2026.85 1750.22 2038.2 1750.08 2048 1750.34L2048 1754.39L2048 1780.28L2048 1785.72C2041.11 1779.7 2032.2 1771.52 2026 1764.82C2008.68 1746.11 1983.75 1726.62 1968.43 1706.91Z"/><path fill="#916DD5" d="M2020.76 1754.23C2029.76 1754.26 2039.02 1754.25 2048 1754.39L2048 1780.28L2020.76 1754.23Z"/><path fill="#25252B" d="M1094.25 1707.12C1116.94 1706.56 1141.85 1707.11 1164.66 1707.14L1294.13 1707.19L1719.96 1707C1738.86 1738.46 1757.95 1769.8 1777.23 1801.02C1750.82 1801.3 1723.95 1801.03 1697.5 1801.01L1267.48 1801C1183.96 1801.01 1097.67 1799.93 1014.33 1801.35C1020.42 1793.53 1028.93 1784.17 1035.51 1776.25C1054.72 1752.89 1074.3 1729.84 1094.25 1707.12Z"/><path fill="#916DD5" d="M1059.02 1754.3L1744.28 1754.23C1752.68 1768.61 1761.24 1782.91 1769.96 1797.11L1734.5 1797L1023.44 1797.11C1035.46 1782.92 1046.79 1768.42 1059.02 1754.3Z"/><path fill="#916DD5" d="M1096.49 1710.91L1717.25 1710.89C1724.57 1721.4 1734.41 1738.82 1741.33 1750.2L1708.5 1750.25L1062.21 1750.25C1072.31 1737.89 1085.73 1722.5 1096.49 1710.91Z"/><path fill="#25252B" d="M764.562 1707.07C791.74 1707.05 820.344 1706.61 847.4 1707.29C839.167 1715.6 814.195 1733.34 803.603 1741.28L724.094 1801.15L701.958 1801.12C691.341 1801.14 624.867 1802.61 621.355 1798.84C626.169 1793.61 659.449 1773.39 667.219 1768.5L764.562 1707.07Z"/><path fill="#916DD5" d="M696.831 1754.37L748.002 1754.49C756.214 1754.42 767.941 1753.56 775.574 1754.72L776.353 1755.78L774.471 1757.79L772.413 1759.5C761.322 1769.5 735.506 1787.44 722.402 1797.11L629.11 1796.99C649.096 1785.35 677.424 1767.32 696.831 1754.37Z"/><path fill="#916DD5" d="M765.391 1710.98C788.987 1710.68 813.438 1711.07 837.099 1711.13C820.685 1723.36 801.72 1739.31 784.134 1749.77C782.517 1750.73 776.874 1750.43 774.75 1750.34L703.928 1750.19C721.791 1740.01 748.169 1722.65 765.391 1710.98Z"/><path fill="#25252B" d="M1743.72 1707.16C1769.12 1705.79 1806.39 1706.9 1832.76 1706.93C1848.2 1727.7 1866.09 1748.35 1881.99 1768.87C1887.51 1776 1902.59 1793.6 1905.74 1800.72C1896.76 1801.57 1879.47 1801.09 1869.96 1801.09L1804.91 1801.03C1792.26 1781.13 1779.36 1761.4 1766.21 1741.83C1761.11 1734.23 1747.19 1714.61 1743.72 1707.16Z"/><path fill="#916DD5" d="M1780.37 1754.41C1806.6 1753.43 1838.28 1754.26 1864.94 1754.24C1874.24 1765.75 1890.3 1784.89 1898.12 1797.04L1807.23 1796.97C1802.48 1789.36 1782.92 1761.03 1780.37 1754.41Z"/><path fill="#916DD5" d="M1750.54 1711.05L1830.74 1710.92C1841.1 1724.01 1851.57 1737.55 1862.31 1750.27L1776.93 1750.19C1767.87 1736.98 1760.26 1724.09 1750.54 1711.05Z"/><path fill="#25252B" d="M1860.42 1707.07C1886.79 1706.88 1913.16 1706.85 1939.54 1706.97C1943.16 1709.74 1957.29 1722.93 1959.79 1725.85C1969.51 1737.21 2033.91 1793.8 2034.97 1800.81C2006.71 1802.35 1967.58 1801.13 1938.14 1801.25C1928.69 1789.96 1862.18 1714.44 1860.42 1707.07Z"/><path fill="#916DD5" d="M1905.36 1754.48C1931.52 1754.34 1957.67 1754.35 1983.82 1754.51C1990.35 1761.19 2024.19 1792.23 2026.7 1796.98L1940.51 1796.99C1935.54 1792.16 1906.46 1758.72 1905.36 1754.48Z"/><path fill="#916DD5" d="M1866.6 1710.99L1938 1711.01C1951.76 1723.94 1965.39 1737.01 1978.88 1750.22L1900.55 1750.11C1888.96 1737.26 1878.7 1723.99 1866.6 1710.99Z"/><path fill="#25252B" d="M987.455 1707.08L1068.06 1706.96C1042.94 1734.03 1010.44 1772.13 987.255 1801.05L966.5 1801.11L885.731 1801.08C896.401 1789.66 915.081 1773.3 926.82 1762.41C946.392 1744.25 967.236 1724.3 987.455 1707.08Z"/><path fill="#916DD5" d="M943.408 1754.36L1020.6 1754.48C1010.05 1768.23 996.401 1783.49 985.068 1797.05L973.25 1797.12L895.155 1797.05C901.773 1791.16 938.471 1755.18 943.408 1754.36Z"/><path fill="#916DD5" d="M988.964 1711.09C1011.64 1710.6 1036.12 1711.06 1058.94 1711.08C1049.5 1720.82 1041.28 1732.28 1032.21 1742.32C1026.67 1748.45 1025.65 1750.07 1018.25 1750.41L945.47 1750.39C960.09 1737.52 974.103 1724.02 988.964 1711.09Z"/><path fill="#25252B" d="M879.415 1707.13C904.664 1706.6 931.337 1706.99 956.698 1706.95C923.403 1738.66 888.936 1769.16 855.404 1801.18L836.25 1801.11L788.304 1801.18C780.715 1801.19 767.687 1801.66 760.614 1800.5L760.346 1798.7C764.753 1792 865.904 1716.84 879.415 1707.13Z"/><path fill="#916DD5" d="M823.372 1754.31L899.429 1754.48C883.946 1768.56 868.573 1782.76 853.311 1797.08C844.632 1797.14 816.697 1797.84 809.581 1796.95C802.08 1797.13 776.032 1798.57 770.406 1796C771.701 1793.21 770.85 1794.5 773.911 1792.6C784.037 1783.13 811.672 1762.59 823.372 1754.31Z"/><path fill="#916DD5" d="M880.902 1710.95L946.718 1710.99C932.463 1724.22 918.115 1737.36 903.676 1750.39C882.948 1750.37 861.038 1750.71 840.404 1750.15C836.427 1750.33 835.153 1750.46 831.277 1749.87L831.201 1748.55L834.866 1745.55C848.832 1734.4 866.089 1721.26 880.902 1710.95Z"/><path fill="#E8E7F4" d="M2048 468.24L2048 541.864L1201.47 541.851L929.758 541.945L840.749 541.865C825.771 541.859 810.591 541.789 795.781 542.153C783.816 542.447 769.385 555.339 768.545 567.095C767.178 586.222 768.061 606.684 768.066 625.969L768.05 759.896C768.598 757.644 768.765 756.737 769.676 754.626L772.063 754.936C776.325 756.569 951.407 757.459 962.195 755.226L966.114 754.965C969.679 756.249 1139.12 756.761 1145.81 755.163L1149.1 755.908L1268 755.917C1286.69 755.909 1315.68 756.928 1333.04 755.643L1335 754.561L1337.05 755.835L1445.18 755.951C1461.1 755.942 1487.84 756.73 1502.6 755.68L1506.88 754.908L1507.56 756.086C1514.32 757.704 1721.79 757.649 1730.49 756.053C1779.1 754.842 1831.02 757.535 1878.93 755.908C1881.04 755.089 1880.44 754.972 1882.44 755.149C1890.03 756.727 1925.01 756.042 1935.14 756.02L2048 755.915L2048 760.004L2048 821.907L768.157 821.907L768.027 878.391C731.579 895.312 698.462 904.176 658.153 906.019L658.159 635.917L658.116 559.431C658.102 545.425 656.606 523.999 659.437 510.963C670.443 460.293 721.275 468.105 757.782 468.137L850.182 468.197L1141.79 468.153L2048 468.24Z"/><path fill="#25252B" d="M768.05 759.896C768.598 757.644 768.765 756.737 769.676 754.626L772.063 754.936C776.325 756.569 951.407 757.459 962.195 755.226L966.114 754.965C969.679 756.249 1139.12 756.761 1145.81 755.163L1149.1 755.908L1268 755.917C1286.69 755.909 1315.68 756.928 1333.04 755.643L1335 754.561L1337.05 755.835L1445.18 755.951C1461.1 755.942 1487.84 756.73 1502.6 755.68L1506.88 754.908L1507.56 756.086C1514.32 757.704 1721.79 757.649 1730.49 756.053C1779.1 754.842 1831.02 757.535 1878.93 755.908C1881.04 755.089 1880.44 754.972 1882.44 755.149C1890.03 756.727 1925.01 756.042 1935.14 756.02L2048 755.915L2048 760.004L768.05 759.896Z"/><path fill="#E8E7F4" d="M658.192 1092.61C696.892 1082.67 731.115 1068.47 768.562 1056.93L768.283 1499.22L2048 1499.33L2048 1609.72L1137.97 1609.88L847.191 1609.83L756.276 1609.91C740.082 1609.92 722.774 1610.3 706.691 1609.46C684.501 1608.3 661.246 1587.08 659.132 1564.69C657.608 1548.54 658.17 1530.33 658.178 1513.7L658.216 1419.61L658.192 1092.61Z"/><path fill="#916DD5" d="M625.577 1833.84C681.933 1834.81 740.411 1833.98 796.91 1833.94L1087.57 1834.04L2048 1833.96L2048 1938.03L950.656 1937.94L614.979 1937.94L510.092 1938C460.314 1938.01 440.268 1943.8 398.415 1913.29C397.925 1912.55 387.922 1901.27 385.933 1898.63C369.496 1876.72 365.799 1860.61 364.448 1833.93C450.761 1833.91 539.523 1835.15 625.577 1833.84Z"/><path fill="#25252B" d="M1851.63 1852.49C1869.28 1849.47 1886.04 1861.33 1889.06 1878.99C1892.07 1896.64 1880.21 1913.4 1862.56 1916.42C1844.9 1919.44 1828.14 1907.57 1825.13 1889.92C1822.11 1872.26 1833.97 1855.5 1851.63 1852.49Z"/><path fill="#916DD5" d="M598.403 1101.5C618.175 1100.96 634.796 1097.39 654.025 1093.44L654.208 1425.51L654.048 1517.87C654.003 1540.65 650.536 1568.34 663.662 1587.89C685.145 1619.9 720.591 1613.96 754.541 1614.02L845.287 1614.07L1130.59 1614.1L2048 1613.79L2048 1674.35L920.988 1674.26L732.34 1674.27C720.185 1674.29 646.179 1675.68 639.207 1673.27C635.914 1671.35 632.705 1669.29 629.589 1667.1C612.289 1654.85 602.929 1640.21 599.393 1619.49C597.65 1607.57 598.293 1582.67 598.311 1569.71L598.357 1484.88L598.349 1245.87C598.361 1205.31 599.338 1159.63 598.09 1119.4C598.648 1113.39 598.465 1107.52 598.403 1101.5Z"/><path fill="#916DD5" d="M2048 409.634L2048 463.964L1119.13 463.995L836.032 464.048L752.881 463.983C737.423 463.951 719.817 463.344 704.646 464.577C681.092 466.49 657.066 489.315 654.785 512.897C653.444 526.577 654.019 542.755 654.038 556.786L654.141 636.964L654.075 906.197C642.181 905.991 610.626 905.405 599.266 900.214C598.008 899.639 597.993 892.783 597.952 890.938C598.555 883.259 598.416 855.85 597.941 848.147C599.168 819.113 598.148 782.884 598.154 753.17L598.184 572.768L598.129 512.912C598.123 499.844 597.583 481.135 599.748 468.721C602.214 454.781 608.831 441.909 618.734 431.792C645.587 404.821 677.788 409.69 712.546 409.731L802.611 409.78L1095.83 409.743L2048 409.634Z"/><path fill="#25252B" d="M1636.43 420.512C1645.52 417.38 1655.43 422.107 1658.72 431.134C1662.01 440.162 1657.45 450.158 1648.48 453.598C1642.54 455.877 1635.83 454.774 1630.93 450.712C1626.04 446.651 1623.71 440.263 1624.85 434.003C1625.99 427.743 1630.42 422.586 1636.43 420.512Z"/><path fill="#E8E7F4" d="M1641.4 423.505C1648.85 423.163 1655.21 428.866 1655.66 436.316C1656.12 443.765 1650.52 450.204 1643.08 450.779C1638.16 451.158 1633.42 448.858 1630.67 444.76C1627.93 440.662 1627.6 435.403 1629.83 430.999C1632.05 426.596 1636.47 423.731 1641.4 423.505Z"/><path fill="#DAC7FF" d="M1506.85 826.044L1786.89 825.993L1855.92 825.996C1860.54 826.002 1875.17 825.241 1878.55 827.208L1879.41 831.955C1882.48 849.601 1878.44 876.13 1879.81 894.823C1880.12 898.988 1878.8 908.454 1881.85 911.112C1936.58 910.146 1993.12 910.847 2048 910.902L2048 914.956L2048 982.709L1941.85 982.559C1924.71 982.539 1899.45 981.865 1882.78 983.123L1880.98 984.142L1878.73 983.473C1878.29 961.243 1878.77 937.292 1878.79 914.926L1506.16 914.81C1505.96 914.561 1505.52 912.323 1505.43 911.927L1506.1 910.998C1507.25 905.511 1506.94 887.544 1506.94 881.09L1506.85 826.044Z"/><path fill="#E8E7F4" d="M1882.73 914.953L2048 914.956L2048 982.709L1941.85 982.559C1924.71 982.539 1899.45 981.865 1882.78 983.123C1881.61 966.387 1882.7 932.865 1882.73 914.953Z"/><path fill="#25252B" d="M1879.41 831.955C1882.48 849.601 1878.44 876.13 1879.81 894.823C1880.12 898.988 1878.8 908.454 1881.85 911.112C1936.58 910.146 1993.12 910.847 2048 910.902L2048 914.956L1882.73 914.953C1882.7 932.865 1881.61 966.387 1882.78 983.123L1880.98 984.142L1878.73 983.473C1878.29 961.243 1878.77 937.292 1878.79 914.926L1506.16 914.81C1505.96 914.561 1505.52 912.323 1505.43 911.927L1506.1 910.998C1548.69 910.237 1593.22 910.855 1635.93 910.869L1878.74 910.982L1878.7 861.482C1878.7 853.311 1878.34 839.733 1879.41 831.955Z"/><path fill="#E8E7F4" d="M1506.16 914.81L1878.79 914.926C1878.77 937.292 1878.29 961.243 1878.73 983.473L1880.98 984.142L1882.78 983.123C1899.45 981.865 1924.71 982.539 1941.85 982.559L2048 982.709L2048 986.459L1882.77 986.455L1879.22 987.418C1870.55 983.684 1677.84 987.725 1650.11 986.131C1643.55 981.952 1492.83 984.961 1473.35 984.574L1486 985.111L1487.63 986.101C1483.4 986.637 1476.88 986.506 1472.52 986.457C1437.4 986.06 1401.76 987.306 1366.7 986.175C1364.42 985.523 1333.91 985.062 1332.74 985.533C1327.54 986.868 1305.17 986.501 1298.12 986.509L1225.94 986.479L1067.6 986.348C1035.98 986.375 1002.53 986.968 971.148 986.18C970.257 984.462 970.557 985.412 971.08 982.961C981.402 982.205 995.947 982.588 1006.51 982.568L1070.6 982.579L1263.83 982.781C1273.77 982.778 1327.98 983.486 1333.3 981.727L1336.88 982.644L1454.19 982.655C1460.77 982.653 1498.28 983.04 1502.98 982.05L1506.7 981.993C1506.79 967.889 1507.84 926.624 1506.16 914.81Z"/><path fill="#25252B" d="M1333.3 981.727L1336.88 982.644L1454.19 982.655C1460.77 982.653 1498.28 983.04 1502.98 982.05L1506.7 981.993C1514.17 983.642 1566.97 982.627 1577.77 982.6L1797.05 982.851L1850.42 982.768C1856.79 982.75 1873.31 982.416 1878.73 983.473L1880.98 984.142L1882.78 983.123C1899.45 981.865 1924.71 982.539 1941.85 982.559L2048 982.709L2048 986.459L1882.77 986.455L1879.22 987.418C1870.55 983.684 1677.84 987.725 1650.11 986.131C1643.55 981.952 1492.83 984.961 1473.35 984.574L1486 985.111L1487.63 986.101C1483.4 986.637 1476.88 986.506 1472.52 986.457C1437.4 986.06 1401.76 987.306 1366.7 986.175C1364.42 985.523 1333.91 985.062 1332.74 985.533C1327.54 986.868 1305.17 986.501 1298.12 986.509L1225.94 986.479L1067.6 986.348C1035.98 986.375 1002.53 986.968 971.148 986.18C970.257 984.462 970.557 985.412 971.08 982.961C981.402 982.205 995.947 982.588 1006.51 982.568L1070.6 982.579L1263.83 982.781C1273.77 982.778 1327.98 983.486 1333.3 981.727Z"/><path fill="#040305" d="M1709.7 940.728C1715.25 938.559 1721.54 939.54 1726.16 943.296C1730.79 947.052 1733.04 953.005 1732.06 958.883C1731.08 964.761 1727.02 969.659 1721.42 971.709C1712.9 974.831 1703.45 970.508 1700.23 962.017C1697.02 953.526 1701.24 944.031 1709.7 940.728Z"/><path fill="#EBE0FF" d="M1711.02 944.998C1727.78 943.645 1729.95 957.516 1720.43 967.339C1704.39 969.661 1701.23 954.705 1711.02 944.998Z"/><path fill="#040305" d="M1675.08 939.76C1678.76 939.727 1690.24 939.002 1692.79 941.266C1700.9 948.477 1698.09 958.899 1686.66 959.593L1683.23 959.792C1678.24 959.06 1682.24 968.936 1680.52 970.612C1671.55 979.359 1675.07 943.971 1675.08 939.76Z"/><path fill="#EBE0FF" d="M1680.88 944.625L1685.52 944.872C1691.94 945.242 1691.46 948.779 1690.88 953.998C1679.42 956.193 1680.9 955.327 1680.88 944.625Z"/><path fill="#040305" d="M1827.78 940.34L1829.05 940.437C1830.13 940.51 1831.58 940.575 1832.46 940.876C1836.03 944.193 1832.21 955.321 1834.11 960.061C1834.45 960.92 1836.62 960.835 1836.98 961.104C1840.83 963.987 1834.25 965.641 1834.43 965.444C1833.19 966.837 1834.77 970.291 1833.1 971.501C1828.81 973.337 1828.4 969.474 1827.61 967.015C1827.78 963.588 1814.87 965.211 1811.37 965.146C1816.32 956.67 1822.46 948.76 1827.78 940.34Z"/><path fill="#EBE0FF" d="M1827.67 948.638C1830.92 958.66 1829.81 960.611 1821.46 961.319C1819.22 958.196 1825.36 951.94 1827.67 948.638Z"/><path fill="#040305" d="M1768.78 940.104C1775.41 939.69 1784.13 939.768 1783.73 949.518C1783.46 956.141 1774.69 963.03 1769.96 967.559C1772.42 967.603 1783.01 967.379 1783.45 967.932C1788.34 974.036 1773.08 972.216 1771.81 972.213C1770.13 972.219 1763.06 972.722 1762.85 971.474C1761.4 964.122 1782.93 954.674 1777.4 946.264C1773.61 940.498 1767.8 949.641 1765.46 949.273C1758.91 948.244 1767.62 941.076 1768.78 940.104Z"/><path fill="#040305" d="M1794.77 940.072C1800.31 939.836 1814.63 940.3 1807.76 953.358C1803.62 956.871 1808.67 956.791 1809.75 961.535C1811.9 971.029 1798.55 975.548 1792 970.932C1786.75 967.235 1788.86 965.494 1792.34 962.365C1794.93 966.508 1800.13 970.93 1802.72 966.769C1809.28 956.209 1796.36 959.226 1796.39 957.096C1796.47 951.852 1802.44 954.501 1803.98 950.388C1804.38 949.317 1804.29 948.124 1803.73 947.128C1800.28 941.048 1794.05 948.389 1791.98 948.123C1785.07 947.239 1792.54 941.623 1794.77 940.072Z"/><path fill="#040305" d="M1844.86 940.264C1849.73 940.257 1854.92 940.002 1859.71 940.507C1860.53 940.594 1861.89 942.495 1861.09 943.258C1859.62 945.561 1850.7 943.824 1849.94 944.657C1847.65 947.179 1846.8 952.306 1851.99 951.857C1857.7 951.364 1862.56 956.871 1861.58 962.443C1860.8 966.917 1859.83 968.721 1855.95 971.457L1854.68 972.372C1851.38 972.598 1838.52 972.855 1841.28 966.165C1843.97 964.503 1853.11 971.29 1855.31 965.777C1859.92 954.287 1848.83 957.187 1843.69 955.397C1842.04 954.824 1844.38 943.032 1844.86 940.264Z"/><path fill="#040305" d="M1746.99 939.705C1747.29 939.766 1750.44 940.176 1750.52 940.956C1751.52 950.559 1750.98 961.225 1750.86 970.941C1750.84 972.576 1746.18 973.973 1745.8 969.25C1745.83 962.539 1746.23 955.194 1745.58 948.648C1745.4 946.839 1742.87 952.654 1740.16 949.903C1736.4 946.085 1743.8 942.619 1746.99 939.705Z"/><path fill="#DAC7FF" d="M1650.11 986.131C1677.84 987.725 1870.55 983.684 1879.22 987.418C1877.8 997.299 1878.65 1041.23 1878.66 1053.28L1506.75 1053.32L1506.86 986.577L1598.92 986.601C1614.66 986.593 1635 987.187 1650.11 986.131Z"/><path fill="#DAC7FF" d="M1332.74 985.533C1333.44 1006.6 1331.59 1033.61 1333.02 1053.89C1326.71 1052.85 1304.69 1053.22 1297.37 1053.23L1229.53 1053.22L970.81 1053.47C970.942 1035.35 969.538 1002.64 971.148 986.18C1002.53 986.968 1035.98 986.375 1067.6 986.348L1225.94 986.479L1298.12 986.509C1305.17 986.501 1327.54 986.868 1332.74 985.533Z"/><path fill="#E8E7F4" d="M970.825 915.725L1332.83 915.78C1332.76 932.692 1331.71 966.626 1333.3 981.727C1327.98 983.486 1273.77 982.778 1263.83 982.781L1070.6 982.579L1006.51 982.568C995.947 982.588 981.402 982.205 971.08 982.961C969.702 971.793 970.771 928.802 970.825 915.725Z"/><path fill="#040305" d="M1030.23 939.513C1038.99 936.577 1048.47 941.353 1051.32 950.142C1054.17 958.931 1049.31 968.36 1040.49 971.13C1031.79 973.864 1022.51 969.078 1019.7 960.405C1016.88 951.731 1021.58 942.409 1030.23 939.513Z"/><path fill="#EBE0FF" d="M1031.81 943.837C1048.32 943.868 1049.89 958.167 1039.11 967.044C1023.16 966.676 1020.59 953.291 1031.81 943.837Z"/><path fill="#040305" d="M1090.82 961.894C1090.83 958.958 1090.42 940.827 1091.32 940.035C1097.44 934.563 1096.51 947.822 1096.14 948.806C1094.53 952.249 1099.9 974.521 1091.89 971.133C1088.93 969.882 1080.31 956.762 1077.4 953.108C1073.64 957.072 1076.36 963.032 1074.76 971.446C1066.93 970.413 1068.52 971.243 1068.66 960.998C1068.74 954.828 1067.83 945.227 1069.17 939.712C1069.61 937.9 1073.9 939.147 1075.45 941.154C1080.66 948.004 1085.78 954.918 1090.82 961.894Z"/><path fill="#EBE0FF" d="M1074.76 971.446C1074.13 965.917 1073.5 955.936 1074.67 950.347C1074.7 950.212 1075.15 950.256 1075.26 950.298C1076.3 950.712 1076.93 952.23 1077.4 953.108C1073.64 957.072 1076.36 963.032 1074.76 971.446Z"/><path fill="#040305" d="M1168.07 936.119C1179.31 938.478 1169.68 946.244 1173.66 949.865C1176.57 950.143 1184.78 943.621 1188.78 954.566C1190.74 959.955 1189.81 962.562 1187.55 967.652C1183.79 970.735 1180.03 973.376 1175.13 970.671C1174.38 968.698 1168.83 973.438 1168.47 970.802C1167.48 963.484 1168.03 942.227 1168.07 936.119Z"/><path fill="#EBE0FF" d="M1175.8 952.676C1186.25 953.351 1186.37 959.031 1181.38 967.509C1171.54 966.384 1171.02 960.67 1175.8 952.676Z"/><path fill="#040305" d="M994.536 939.112C998.392 939.109 1009.92 938.519 1012.08 940.765C1023.84 953.028 1012.73 958.219 1002.83 959.397C997.094 958.593 1001.95 967.296 999.688 970.703C998.88 971.918 994.95 971.259 994.895 970.434C994.214 960.234 994.48 949.445 994.536 939.112Z"/><path fill="#E8E7F4" d="M1000.12 943.805C1005.91 943.919 1011.12 943.357 1010.58 950.796L1010.46 952.825C998.653 956.755 1000.09 953.295 1000.12 943.805Z"/><path fill="#040305" d="M1139.74 948.522C1144.1 947.566 1145.24 951.184 1146.07 950.875C1152.02 948.654 1160.3 945.44 1161.84 955.502C1161.73 956.986 1162.64 970.347 1161.25 970.669C1152.57 975.539 1159.51 956.323 1155.43 954.097C1145.79 948.837 1147.95 963.801 1147.95 968.25C1147.71 971.555 1145.45 972.292 1143.01 970.754C1140.34 969.07 1146.05 950.645 1137.93 952.906C1130.49 954.979 1135.9 966.025 1133.66 970.406C1132.4 972.86 1127.23 970.46 1128.5 967.033C1129.18 962.805 1127.54 953.308 1128.81 949.171C1130.63 948.054 1131.73 948.37 1133.44 949.615C1134.89 950.671 1137.96 949.015 1139.74 948.522Z"/><path fill="#040305" d="M1203.1 947.997C1206.78 948.517 1217.72 950.454 1214.63 959.881C1214.04 961.671 1203.73 960.447 1201.39 960.843C1197.22 961.55 1200.62 966.038 1203 966.825C1206.78 968.216 1209.43 965.942 1212.89 964.62C1215.79 972.202 1205.29 972.666 1201.39 971.396C1190.82 967.949 1190.53 952.495 1201.32 948.657L1203.1 947.997Z"/><path fill="#E8E7F4" d="M1199.83 953.133C1205.47 952.451 1207.62 951.386 1210.29 956.756C1204.58 957.205 1199.24 959.419 1199.83 953.133Z"/><path fill="#040305" d="M1102.12 948.379C1107.55 949.015 1109.29 949.692 1107.83 955.508C1105 966.756 1115.22 972.902 1117.45 961.486C1117.92 959.112 1116.6 951.5 1117.82 949.556C1118.16 949.004 1118.73 948.631 1119.37 948.537C1122.85 948.002 1122.82 950.368 1122.82 952.75C1122.81 958.244 1123.04 964.083 1122.7 969.546C1122.47 973.142 1117.31 969.574 1116.14 970.226C1114.55 971.108 1112.83 971.741 1111.02 971.828C1099.28 972.391 1102.12 955.872 1102.12 948.379Z"/><path fill="#040305" d="M1230.84 947.802C1238.12 953.319 1229.13 953.286 1227.63 954.234C1219.77 959.218 1231.66 968.225 1220.13 972.432C1219.76 969.685 1217.6 947.737 1221.45 948.74C1227.71 950.368 1223.56 951.579 1230.84 947.802Z"/><path fill="#DAC7FF" d="M1882.74 826.013L2048 825.954L2048 910.902C1993.12 910.847 1936.58 910.146 1881.85 911.112C1883.63 904.077 1882.78 837.832 1882.74 826.013Z"/><path fill="#DAC7FF" d="M1882.84 1418.04L2048 1417.99L2048 1495.19L1882.77 1495.2L1882.84 1418.04Z"/><path fill="#E8E7F4" d="M2048 1272.35L2048 1342.13L1882.67 1342.16L1882.68 1272.25L2048 1272.35Z"/><path fill="#E8E7F4" d="M2048 1057.24L2048 1125.11L1882.73 1125.13L1882.66 1057.32L2048 1057.24Z"/><path fill="#E8E7F4" d="M1336.85 914.984L1502.84 914.999C1502.87 936.991 1502.54 960.154 1502.98 982.05C1498.28 983.04 1460.77 982.653 1454.19 982.655L1336.88 982.644L1336.85 914.984Z"/><path fill="#E8E7F4" d="M1882.15 1345.93C1934.48 1347.55 1995.01 1346.03 2048 1346.01L2048 1413.85L1882.75 1413.86C1882.82 1397.8 1883.84 1360.05 1882.15 1345.93Z"/><path fill="#DAC7FF" d="M1882.76 1200.64L2048 1200.74L2048 1268.34L1882.78 1268.27L1882.76 1200.64Z"/><path fill="#E8E7F4" d="M2048 1129.17L2048 1196.67L1882.75 1196.46L1882.71 1129.12L2048 1129.17Z"/><path fill="#DAC7FF" d="M1487.63 986.101C1492.71 986.331 1497.79 986.466 1502.88 986.507L1502.83 1053.3L1336.77 1053.34C1336.77 1043.53 1337.42 993.653 1336.11 986.549L1362.01 986.535C1364.11 986.553 1364.76 986.704 1366.7 986.175C1401.76 987.306 1437.4 986.06 1472.52 986.457C1476.88 986.506 1483.4 986.637 1487.63 986.101Z"/><path fill="#DAC7FF" d="M2048 986.459L2048 1053.28L1882.7 1053.27L1882.77 986.455L2048 986.459Z"/><path fill="#E8E7F4" d="M0 179.789C115.642 215.829 189.356 297.683 245.393 402.023C331.46 562.275 375.215 835.941 572.498 898.027C618.107 912.634 666.875 914.295 713.373 902.827C731.826 898.312 748.679 891.957 766.096 884.525C767.712 883.835 768.702 886.342 769.308 887.322C768.235 894.641 747.265 901.002 740.331 903.281C692.696 919.027 641.644 921.347 592.778 909.986C506.123 890.071 445.958 833.7 400.358 760.08C273.905 555.927 263.64 273.919 0 186.232L0 179.789Z"/><path fill="#E8E7F4" d="M0 613.758C88.7099 683.023 154.122 814.549 221.782 906.552C316.346 1035.14 461.741 1105.44 622.085 1088.36C651.555 1084.94 683.165 1074.64 711.134 1064.66C712.253 1061.84 713.514 1060.28 716.415 1059.41C723.33 1058.36 726.524 1057.66 733.068 1055.17L734.466 1056.36C745.697 1052.79 755.739 1047.03 767.211 1044.5L768.384 1045.4C768.879 1054.29 757.037 1056.56 750.352 1058.78C707.038 1072.8 661.789 1091.71 615.998 1096.03C484 1107.69 354.765 1058.5 262.411 964.432C165.65 865.879 107.06 706.256 0 621.523L0 613.758Z"/><path fill="#46325D" d="M733.068 1055.17L734.466 1056.36C727.455 1059.4 718.503 1062.32 711.134 1064.66C712.253 1061.84 713.514 1060.28 716.415 1059.41C723.33 1058.36 726.524 1057.66 733.068 1055.17Z"/><path fill="#25252B" d="M398.415 1913.29C440.268 1943.8 460.314 1938.01 510.092 1938L614.979 1937.94L950.656 1937.94L2048 1938.03L2048 1942.01C2043.12 1939.53 2011.68 1940.48 2003.98 1940.48L1917.94 1940.47L1638.44 1940.46L730.172 1940.47L537.337 1940.48L482.508 1940.52C461.317 1940.71 442.829 1942.68 423.056 1933.15C412.651 1928.13 403.075 1924.88 398.415 1913.29Z"/><path fill="#AC8BEE" d="M0 483.726C10.7404 471.277 23.1526 472.063 34.8564 483.537C41.2347 489.884 44.8363 498.501 44.8716 507.499C44.8813 517.671 38.1735 536.647 30.6845 543.673C20.7214 553.02 8.59545 546.831 0 538.897L0 483.726Z"/><path fill="#3F3649" d="M16.0837 488.856C40.0203 489.694 28.6722 524.473 19.2381 533.161L17.9481 534.377C-3.76028 530.975 5.86216 499.134 14.8896 490.092L16.0837 488.856Z"/><path fill="#AC8BEE" d="M716.415 1059.41C700.586 1057.8 701.014 1046.93 705.995 1033.5C710.075 1022.5 739.229 1010.88 745.706 1024.07C750.93 1034.71 743.235 1049.35 733.068 1055.17C726.524 1057.66 723.33 1058.36 716.415 1059.41Z"/><path fill="#3F3649" d="M727.713 1025.88C738.373 1027.27 734.66 1034.76 732.947 1043.01C731.896 1048.06 726.982 1050.43 722.771 1052.15C711.803 1050.78 715.395 1044.27 716.597 1034.6C717.046 1030.99 722.787 1027.55 726.115 1026.46L727.713 1025.88Z"/><path fill="#25252B" d="M599.393 1619.49L598.989 1624.31L598.059 1624.99C592.967 1615.05 594.677 1563.48 594.661 1550.28L594.773 1428.38C594.753 1414.89 592.91 1345.17 595.288 1337.08L596.807 1338.88C597.762 1331.15 596.988 1294.54 596.982 1285.22L596.934 1165.59C596.933 1156.48 596.224 1126.66 598.09 1119.4C599.338 1159.63 598.361 1205.31 598.349 1245.87L598.357 1484.88L598.311 1569.71C598.293 1582.67 597.65 1607.57 599.393 1619.49Z"/><path fill="#25252B" d="M478.835 1768.75L477.412 1766.6C491.953 1758.19 506.272 1750.1 520.769 1741.43C536.197 1732.2 558.902 1725.03 572.86 1713.55C580.332 1707.41 583.841 1708.12 592.574 1703.96C600.98 1698.08 613.272 1684.96 625.003 1687.38C612.312 1695.55 594.773 1705.09 581.119 1712.17C547.064 1729.84 512.995 1751.87 478.835 1768.75Z"/><path fill="#25252B" d="M1882.15 1345.93L1881.45 1345.68L1881.72 1343.91C1883.61 1342.78 2034.64 1343.35 2048 1343.36L2048 1346.01C1995.01 1346.03 1934.48 1347.55 1882.15 1345.93Z"/><path fill="#25252B" d="M1332.74 985.533C1333.91 985.062 1364.42 985.523 1366.7 986.175C1364.76 986.704 1364.11 986.553 1362.01 986.535L1336.11 986.549C1334.59 995.772 1336.97 1051.16 1334.8 1054.38L1333.52 1054.72L1333.65 1054.91C1333.2 1054.48 1333.29 1054.53 1333.02 1053.89C1331.59 1033.61 1333.44 1006.6 1332.74 985.533Z"/><path fill="#25252B" d="M597.952 890.938C597.722 892.694 597.708 898.381 596.522 899.23L596.024 899.058C595.512 898.342 594.241 874.642 595.876 872.654C599.018 868.832 596.052 864.959 596.015 864.756C595.277 860.674 594.901 825.351 596.278 824.145L596.763 824.253C598.168 826.392 596.881 843.098 597.941 848.147C598.416 855.85 598.555 883.259 597.952 890.938Z"/><path fill="#25252B" d="M440.934 1789.51C440.176 1788.48 439.903 1788.4 440.087 1787.7C441.509 1786.39 442.312 1786.18 444.304 1785.78L444.265 1785.72L445.017 1785C445.755 1781.41 447.405 1780.27 450.991 1780.54C455.854 1780.92 453.533 1779.47 457.509 1777.68C458.305 1777.85 459.238 1778.6 459.99 1779.09C455.953 1781.4 444.779 1788.11 440.934 1789.51Z"/><path fill="#E8E7F4" d="M970.512 1271.83L969.81 1271.26C977.289 1269.81 1036.26 1270.48 1046.92 1270.48C1109.14 1270.22 1171.37 1270.38 1233.59 1270.97L1417.61 1270.82C1441.21 1270.83 1480.13 1269.22 1502.88 1271.2C1504.3 1272.43 1505.09 1411.35 1503.42 1414.16L1502.98 1413.91C1502.27 1392.49 1502.89 1367.27 1502.88 1345.55C1471.77 1341.81 1348.57 1350.28 1332.73 1342.27C1323.81 1341.51 1303.38 1342.09 1293.9 1342.09L1217.01 1342.08L970.75 1342.15C970.798 1319.23 971.287 1294.62 970.512 1271.83Z"/><path fill="#25252B" d="M970.512 1271.83L969.81 1271.26C977.289 1269.81 1036.26 1270.48 1046.92 1270.48C1109.14 1270.22 1171.37 1270.38 1233.59 1270.97L1417.61 1270.82C1441.21 1270.83 1480.13 1269.22 1502.88 1271.2C1504.3 1272.43 1505.09 1411.35 1503.42 1414.16L1502.98 1413.91C1502.27 1392.49 1502.89 1367.27 1502.88 1345.55C1471.77 1341.81 1348.57 1350.28 1332.73 1342.27C1333.54 1320.66 1332.87 1294.3 1332.88 1272.33L1086.9 1272.14L1013.53 1272.18C1000.18 1272.18 983.645 1272.61 970.512 1271.83Z"/><path fill="#E8E7F4" d="M1336.83 1272.37L1502.89 1272.16L1502.9 1342.21L1336.7 1342.17L1336.83 1272.37Z"/><path fill="#DAC7FF" d="M1506.89 1418.02L1878.73 1417.97L1878.74 1495.08C1839.65 1496.29 1794.19 1495.09 1754.29 1495.08L1506.89 1495.19L1506.89 1418.02Z"/><path fill="#DAC7FF" d="M970.81 1418.01L1332.68 1418.01L1332.71 1495.02C1295.29 1496.43 1249.48 1495.1 1211.35 1495.1L970.783 1495.16L970.81 1418.01Z"/><path fill="#E8E7F4" d="M1506.92 1272.22L1878.67 1272.36L1878.69 1342.16L1506.83 1342.15L1506.92 1272.22Z"/><path fill="#EBE0FF" d="M1506.77 1057.22L1878.55 1057.36L1878.61 1125.02C1841.24 1126.34 1794.74 1125.07 1756.94 1125.09L1506.84 1125.1L1506.77 1057.22Z"/><path fill="#040305" d="M1765.71 1064.32C1766.2 1064.44 1770.57 1065.28 1770.58 1066.41C1770.69 1076.82 1771.37 1087.75 1770.5 1098.08C1770.44 1098.9 1767.44 1099.41 1766.87 1098.38C1764.9 1096.65 1759.83 1099.2 1754.78 1099.25C1748.39 1092.62 1745.3 1083.31 1755.02 1076.87C1758.83 1074.34 1762.22 1077.28 1765.27 1077.29C1765.86 1075.85 1765.66 1066.76 1765.71 1064.32Z"/><path fill="#DAC7FF" d="M1757.88 1079.72C1767.52 1081.27 1767.98 1087.34 1762.81 1094.82C1759.06 1094.51 1755.78 1094.45 1754.76 1090.05C1754.09 1087.19 1754.68 1084.19 1756.38 1081.8C1756.88 1081.11 1757.38 1080.42 1757.88 1079.72Z"/><path fill="#040305" d="M1842.81 1066.21C1843.54 1066.26 1848.35 1066.21 1848.74 1067.16C1852.89 1077.29 1857.51 1087.93 1860.77 1098.33C1861.01 1099.12 1858.76 1099.8 1857.74 1099.6C1852.73 1098.61 1855.48 1091.6 1850.13 1091.22C1834.9 1091.23 1840.88 1089.54 1835.58 1098.53C1835.65 1098.41 1828.38 1101.14 1831.12 1094.98C1835.03 1086.18 1838.62 1075.6 1842.81 1066.21Z"/><path fill="#EBE0FF" d="M1845.2 1073.65C1847.73 1078.01 1851.82 1084.1 1847.59 1087.65C1846.71 1087.41 1845.83 1087.19 1844.95 1086.98C1837.46 1085.25 1842.41 1080.98 1845.2 1073.65Z"/><path fill="#040305" d="M1783.67 1076.44C1789.79 1074.35 1796.46 1077.58 1798.62 1083.69C1800.77 1089.8 1797.6 1096.5 1791.51 1098.71C1785.34 1100.95 1778.53 1097.73 1776.35 1091.54C1774.17 1085.35 1777.45 1078.57 1783.67 1076.44Z"/><path fill="#EBE0FF" d="M1785.88 1080.83C1789.53 1080.03 1793.15 1082.29 1794.03 1085.92C1794.91 1089.55 1792.73 1093.22 1789.12 1094.18C1786.71 1094.82 1784.14 1094.11 1782.41 1092.32C1780.68 1090.52 1780.06 1087.94 1780.78 1085.55C1781.5 1083.17 1783.45 1081.36 1785.88 1080.83Z"/><path fill="#040305" d="M1667.37 1065.88C1674.18 1066.73 1672.67 1066.42 1675.32 1073.4C1677.51 1079.13 1679.64 1085.06 1681.86 1090.79L1682.5 1089.27C1683.43 1087.14 1690.88 1067.5 1691.3 1067.35C1699.94 1064.24 1695.58 1071.63 1694.05 1075.58C1691.5 1082.67 1687.91 1091.68 1684.33 1098.3C1683.73 1099.4 1679.84 1099.15 1679.48 1098.37C1676.54 1092.09 1667.34 1071.71 1667.37 1065.88Z"/><path fill="#040305" d="M1704.87 1076.12C1709.91 1075.93 1719.88 1075.5 1719.62 1086.06C1719.52 1089.91 1704.94 1086.53 1704.36 1088.41C1702.17 1095.59 1711.68 1094.56 1715.77 1093.81C1720.61 1091.37 1719.55 1100.09 1708 1098.96C1705.07 1098.7 1702.36 1097.27 1700.49 1095C1694.76 1088.09 1698.89 1080.87 1704.87 1076.12Z"/><path fill="#EBE0FF" d="M1706.33 1079.48C1708.27 1079.78 1717.24 1080.73 1712.66 1084.73C1705.56 1084.49 1702.59 1086.17 1706.33 1079.48Z"/><path fill="#040305" d="M1724.37 1075.28C1727.04 1076.08 1729.4 1078.19 1731.18 1077.43C1746.75 1070.85 1745.08 1087.43 1744.12 1097.45C1743.98 1098.88 1740.71 1099.28 1739.82 1098.21C1738.51 1096.1 1739.19 1086.91 1739.2 1084.75C1738.91 1082.68 1738.06 1080.11 1735.51 1080.12C1724.22 1080.15 1733.67 1096.86 1727.19 1099.02C1721.55 1100.9 1724.11 1078.25 1724.37 1075.28Z"/><path fill="#040305" d="M1804.5 1075.25C1806.71 1075.94 1810.52 1077.47 1809.85 1078.25C1813.6 1073.94 1822.89 1077.04 1815.53 1080.87C1813.33 1082.01 1810.39 1080.23 1809.49 1086.75C1809.51 1089.69 1811.63 1100.19 1806 1098.56C1802.1 1097.42 1803.94 1079.41 1804.5 1075.25Z"/><path fill="#E8E7F4" d="M1506.91 1346.18L1878.69 1346.08L1878.68 1413.87L1506.81 1413.83L1506.91 1346.18Z"/><path fill="#DAC7FF" d="M1506.9 1200.67L1878.63 1200.68L1878.73 1268.24L1506.89 1268.32L1506.9 1200.67Z"/><path fill="#040305" d="M1839.8 1211.04C1861.31 1212.21 1855.97 1239.59 1846.84 1243.35L1845.28 1244.08C1829.24 1243.41 1829.74 1234.24 1831.87 1219.47C1832.46 1215.42 1836.38 1212.88 1839.8 1211.04Z"/><path fill="#DAC7FF" d="M1839.67 1215.43C1851.79 1217.23 1851.43 1231.03 1846.25 1238.09L1845.25 1239.53C1831.93 1238.18 1834.54 1224.05 1839.67 1215.43Z"/><path fill="#040305" d="M1774.81 1211.01L1776.18 1211.11C1794.13 1212.23 1794.2 1236.42 1781.4 1244.08L1780.43 1244.05C1760 1243.53 1763.96 1217.91 1773.49 1211.87L1774.81 1211.01Z"/><path fill="#DAC7FF" d="M1775.77 1215.42C1786.74 1217.91 1786.19 1231.83 1781.48 1238.43L1780.41 1240.06C1767.72 1236.93 1770 1224.27 1775.77 1215.42Z"/><path fill="#040305" d="M1812.91 1211.06C1832.95 1211.98 1831.76 1236.38 1819.19 1244.09C1798.38 1243.32 1801.02 1218.6 1811.23 1212.17L1812.91 1211.06Z"/><path fill="#DAC7FF" d="M1813.78 1215.45C1825.87 1217.51 1823.9 1232.24 1818.25 1240.06C1806.74 1237.42 1807.56 1224.11 1812.79 1216.9L1813.78 1215.45Z"/><path fill="#040305" d="M1748.9 1210.91L1750.68 1211.1C1766.25 1212.59 1768.29 1237.01 1753.51 1244.37C1748.63 1243.92 1743.55 1243.52 1741.62 1238.33C1737.51 1227.3 1738.09 1216.32 1748.9 1210.91Z"/><path fill="#DAC7FF" d="M1748.93 1215.42C1761.36 1216.97 1758.81 1231.71 1754.14 1239.64C1740.8 1238.6 1743.42 1223.53 1748.93 1215.42Z"/><path fill="#040305" d="M1660.69 1206.73C1661.03 1206.83 1678.5 1219.75 1664.51 1216.34C1662.17 1215.77 1661.86 1224.31 1665.18 1225.67C1672.3 1227.97 1673.76 1240.55 1666.18 1242.33C1660.29 1243.72 1663.86 1248.86 1659.75 1246.27C1659.08 1245.63 1657.39 1243.86 1656.25 1243.62C1651.37 1243.1 1646.8 1236.85 1653.03 1236.12C1655.39 1235.84 1659.76 1245.03 1658.94 1232.48C1659.41 1227.8 1657.74 1229.44 1654.95 1227.24C1642.7 1217.57 1657.84 1213 1660.69 1206.73Z"/><path fill="#EBE0FF" d="M1662.89 1230.72C1665.8 1233.17 1665.53 1233.6 1665.55 1237.45C1660.97 1237.95 1662.47 1234.91 1662.89 1230.72Z"/><path fill="#DAC7FF" d="M1658.22 1215.77C1660.35 1218.66 1659.63 1220.04 1659.4 1223.57C1655.74 1220.59 1656.33 1220.1 1658.22 1215.77Z"/><path fill="#040305" d="M1720.81 1211.03C1731.09 1210.88 1739.49 1214.61 1732.61 1227.38C1731.11 1230.16 1723.75 1236.25 1721.11 1238.95C1723.77 1238.98 1733.77 1238.64 1735.37 1239.42C1736.45 1239.95 1736.97 1243.7 1732.54 1243.6L1721.92 1243.45L1719.93 1243.44C1709.03 1243.42 1714.78 1238.15 1720.25 1233.25C1724.43 1229.49 1737.02 1216.7 1724 1215.74C1720.17 1215.45 1720.59 1221.68 1715.14 1220.09C1713.01 1217.03 1719 1212.54 1720.81 1211.03Z"/><path fill="#040305" d="M1686.74 1210.58C1687.39 1210.67 1690.59 1210.99 1690.66 1211.65C1691.63 1221.35 1690.89 1231.73 1690.95 1241.52C1690.96 1244.04 1685.52 1245.26 1685.8 1239.25C1685.81 1236.06 1686.18 1220.74 1685.48 1218.54C1684.13 1218.79 1680.65 1224.7 1678.9 1218.96C1678.56 1217.84 1685.53 1211.83 1686.74 1210.58Z"/><path fill="#25252B" d="M1704.98 1236.63C1712.5 1239.92 1708.49 1246.09 1703.97 1250.55C1701.73 1244.87 1706.64 1246.22 1703.62 1241.99C1702.48 1240.4 1701.63 1240.61 1703.51 1238.28C1704 1237.73 1704.49 1237.18 1704.98 1236.63Z"/><path fill="#040305" d="M1795.55 1237.61C1797.15 1236.8 1799.1 1237.38 1800 1238.93C1800.91 1240.48 1800.45 1242.46 1798.95 1243.45C1797.91 1244.15 1796.56 1244.21 1795.45 1243.61C1794.35 1243.01 1793.67 1241.84 1793.69 1240.58C1793.71 1239.32 1794.42 1238.18 1795.55 1237.61Z"/><path fill="#EBE0FF" d="M1506.91 1129.19L1878.62 1129.12C1878.63 1138.24 1879.47 1192.09 1877.78 1196.49L1506.8 1196.55L1506.91 1129.19Z"/><path fill="#040305" d="M1656.88 1139.82C1677.43 1141.26 1673.56 1167.56 1663.85 1172.49L1662.3 1173.33C1647.45 1172.62 1647 1164.87 1648.22 1150.51C1648.64 1145.64 1652.91 1142.17 1656.88 1139.82Z"/><path fill="#EBE0FF" d="M1657 1144.42C1669.27 1146.49 1667.06 1160.65 1662.32 1168.81C1649.75 1167.1 1652.28 1152.51 1657 1144.42Z"/><path fill="#040305" d="M1779.05 1139.93C1797.8 1142.09 1796.63 1165.48 1784.39 1173.62C1768.36 1173.02 1768.47 1163 1770.49 1147.81C1770.98 1144.09 1775.85 1141.43 1779.05 1139.93Z"/><path fill="#EBE0FF" d="M1777.83 1144.47C1782.94 1144.83 1785.86 1144.98 1786.87 1151.49C1788 1158.81 1787.64 1163.01 1783.67 1169.19C1771.44 1167.7 1774.15 1152.53 1777.83 1144.47Z"/><path fill="#040305" d="M1683.08 1139.99C1692.93 1140.23 1701.19 1145.15 1693.99 1156.48C1692.23 1159.25 1685.08 1165.32 1682.29 1168.18C1685.81 1168.18 1695.09 1166.96 1697.3 1169.95C1696.77 1174.97 1686.1 1172.98 1681.75 1172.96C1662.51 1173.05 1691.29 1157.24 1690.68 1150.99C1689.16 1135.49 1679.8 1153.79 1676.61 1148.67C1674.32 1145.01 1680.81 1141.42 1683.08 1139.99Z"/><path fill="#040305" d="M1708.91 1140.08C1712.35 1140.05 1717.11 1139.71 1719.7 1142.26C1726.28 1148.72 1721.41 1151.66 1719.32 1155.68C1720.48 1158.12 1723.59 1158.37 1723.72 1162.97C1723.77 1170.82 1717.98 1173.08 1710.99 1172.99C1707.77 1172.95 1697.38 1168.55 1703.68 1165.03C1703.4 1165.19 1706.29 1164.22 1705.56 1164.45C1711.15 1169.62 1719.19 1171.89 1717.28 1160.75C1716.6 1158.77 1711.19 1158.99 1711.01 1158.87C1703.42 1153.92 1726.9 1152.1 1713.94 1144.8C1711.13 1143.21 1707.15 1149.31 1705.01 1149.02C1697.58 1148 1706.78 1141.52 1708.91 1140.08Z"/><path fill="#040305" d="M1629.8 1139.95C1655.98 1140.63 1638.36 1159.23 1629.29 1168.26C1633.82 1168.24 1643.67 1166.16 1644.42 1171.11C1641.95 1174.24 1632.82 1172.97 1628.75 1172.96C1606.79 1173.11 1644.82 1156.04 1636.93 1146.01C1633.54 1141.7 1627.4 1148.15 1627.26 1148.18C1617.11 1150.5 1626.22 1142.19 1629.8 1139.95Z"/><path fill="#040305" d="M1843.39 1140.29C1846.11 1140.3 1862.44 1138.14 1859.19 1144.03C1855.8 1147.63 1844.2 1141.03 1846.67 1151.25C1846.71 1151.42 1864.93 1152.65 1859.79 1166C1857.84 1171.07 1856.34 1171.09 1851.56 1173.55L1850.04 1173.44C1847.53 1173.27 1837.37 1172.24 1840.01 1167.47C1843.41 1166.1 1851.02 1171.51 1853.36 1166.88C1859.27 1155.2 1847.73 1156.65 1840.64 1157.17C1841.54 1151.33 1842.26 1146.1 1843.39 1140.29Z"/><path fill="#040305" d="M1824.87 1139.49C1825.25 1139.68 1827.8 1140.74 1827.87 1141.19C1829.45 1149.2 1827.79 1160.07 1828.5 1168.03C1829.14 1175.09 1823.53 1173.92 1823.2 1170.12C1823.19 1164.93 1823.55 1154.05 1822.89 1148.61C1822.75 1148.5 1822.62 1148.4 1822.48 1148.29C1819.25 1150.85 1817.68 1152.61 1815.86 1147.99C1815.64 1147.42 1823.04 1141.25 1824.87 1139.49Z"/><path fill="#040305" d="M1755.65 1140.75C1765.61 1140.89 1757.58 1155.55 1760.17 1163.5C1760.84 1165.59 1761.28 1173.11 1756.96 1173.16C1755.61 1172.42 1755.55 1172.32 1754.82 1171.02C1754.82 1168.26 1755.31 1150.15 1754.38 1149.01C1752.37 1148.49 1752.09 1151.48 1749.51 1150.06C1745.38 1147.79 1752.29 1144.13 1755.65 1140.75Z"/><path fill="#040305" d="M1796.27 1158.17C1804.16 1158.07 1807.62 1155.41 1808.87 1162.75C1801.06 1162.8 1797.84 1165.33 1796.27 1158.17Z"/><path fill="#040305" d="M1726.61 1159.4C1732.21 1158.67 1738.37 1156.61 1740.76 1162.16C1734.53 1163.18 1729.71 1164.91 1726.61 1159.4Z"/><path fill="#E8E7F4" d="M970.735 1346.13L1332.75 1346.12L1332.7 1413.82L970.715 1413.9L970.735 1346.13Z"/><path fill="#DAC7FF" d="M1153.03 1200.5L1332.81 1200.67L1332.75 1268.36L1150.75 1268.28L970.786 1268.27L970.806 1200.75L1153.03 1200.5Z"/><path fill="#040305" d="M999.28 1210.59C999.953 1210.64 1005.16 1210.67 1005.4 1211.41C1007.06 1216.67 1017.9 1238.74 1018.21 1242.42C1017.5 1243.68 1014.66 1243.7 1013.39 1243.27C1010.33 1242.23 1010.91 1235.36 1007.53 1235.39L1006.25 1235.41C991.779 1235.52 997.773 1233.93 992.132 1243.18C991.594 1244.06 987.451 1244.14 986.414 1242.89C986.413 1241.84 997.908 1214.28 999.28 1210.59Z"/><path fill="#DAC7FF" d="M1002.01 1218.52C1004.47 1221.46 1008.85 1228.78 1004.6 1231.76C994.641 1229.85 997.708 1229.3 1002.01 1218.52Z"/><path fill="#040305" d="M1066.18 1221.45C1070.16 1219.72 1074.78 1220.32 1078.19 1223.02C1081.59 1225.71 1083.24 1230.06 1082.48 1234.34C1081.71 1238.62 1078.65 1242.12 1074.52 1243.47C1068.54 1245.41 1062.09 1242.32 1059.86 1236.44C1057.63 1230.55 1060.41 1223.96 1066.18 1221.45Z"/><path fill="#DAC7FF" d="M1068.43 1225.71C1071.91 1224.42 1075.79 1226.16 1077.14 1229.62C1078.49 1233.08 1076.81 1236.98 1073.37 1238.39C1071.1 1239.32 1068.5 1238.95 1066.57 1237.43C1064.65 1235.9 1063.69 1233.46 1064.08 1231.03C1064.46 1228.6 1066.12 1226.57 1068.43 1225.71Z"/><path fill="#040305" d="M1021.84 1220.22C1024.3 1220.9 1026.88 1222.98 1028.49 1222.1C1033.15 1219.76 1035.37 1220.47 1039.2 1223.37C1039.39 1223.52 1047.92 1217.71 1052.07 1222.47C1056.41 1227.47 1054.81 1236.56 1054.28 1242.48C1051.58 1243.68 1049.5 1243.73 1049.29 1240.02C1048.7 1229.53 1052.51 1225.71 1042.66 1224.32L1042.49 1224.76C1040.73 1229.09 1040.21 1233.3 1040.83 1238.49C1041.97 1241.05 1039.21 1245.07 1036.36 1243.08C1032.61 1240.46 1039.79 1222.01 1029.73 1225.33C1022.93 1227.57 1030.94 1242.04 1024.5 1243.9C1019.43 1241.02 1021.73 1226.45 1021.84 1220.22Z"/><path fill="#040305" d="M1113.61 1220.31C1115.88 1220.89 1119.6 1222.96 1121.28 1221.93C1135.71 1213.1 1136.06 1239.49 1133.69 1242.33C1127.42 1249.88 1128.91 1231.58 1128.91 1229.77C1128.71 1228.48 1128.28 1225.88 1126.74 1225.35C1111.43 1220.1 1125.46 1248.46 1113.92 1242.8C1113.15 1242.43 1113.6 1222.75 1113.61 1220.31Z"/><path fill="#040305" d="M1087.93 1220.53C1097.06 1223.65 1088.94 1230.33 1093.11 1237.39C1094.57 1239.88 1098.66 1239.89 1100.7 1237.68C1104.17 1233.9 1100.76 1226.01 1102.84 1221.56C1106.8 1218.75 1107.51 1223.73 1107.47 1225.75C1107.46 1234.43 1109.74 1247.38 1102.36 1242.21C1098.3 1242.38 1097.29 1244.36 1092.68 1243.47C1084.78 1241.96 1086.2 1226.66 1087.93 1220.53Z"/><path fill="#040305" d="M1142.37 1213.25C1146.98 1214.64 1146.71 1214.97 1147.42 1220.59C1147.32 1219.8 1158.49 1222.84 1150.49 1225.04C1146.98 1226 1147.16 1224.08 1146.73 1227.98C1144.83 1244 1150.2 1236.87 1152.58 1240.63L1153.73 1242.46L1152.79 1242.75C1136.76 1247.91 1143.18 1232.67 1141.57 1226.34C1141.21 1224.94 1132.03 1223.21 1140.95 1220.71C1142.13 1220.38 1142.28 1214.02 1142.37 1213.25Z"/><path fill="#EBE0FF" d="M971.015 1057.43L1332.78 1057.29L1332.76 1125.19L970.813 1125.13C970.734 1102.56 970.801 1079.99 971.015 1057.43Z"/><path fill="#040305" d="M1086.32 1062.25C1086.83 1062.32 1091.45 1062.58 1091.51 1063.54C1091.93 1071.06 1091.62 1079.49 1091.67 1087C1091.69 1089.65 1092.84 1097.17 1089.5 1097.17C1087.9 1097.4 1086.12 1094.92 1085.88 1095.01C1082.71 1096.2 1081 1097.1 1077.41 1098.02C1069.18 1092.2 1065.5 1082.3 1075.79 1074.66C1078.86 1072.38 1082.58 1074.55 1085.52 1075.13C1087 1074.11 1086.33 1064.35 1086.32 1062.25Z"/><path fill="#EBE0FF" d="M1078.69 1077.34C1088.85 1079.9 1088.65 1085.93 1082.82 1093.33C1072.73 1091.57 1073.74 1084.27 1078.69 1077.34Z"/><path fill="#040305" d="M1160.88 1075.08C1160.3 1077.64 1159.66 1088.86 1160.13 1090.35C1162.34 1097.27 1155.05 1099.77 1154.97 1094.99C1154.34 1054.25 1153.12 1056.49 1176.28 1086.55C1176.28 1085.67 1173.82 1058.5 1180.98 1065.36C1182.77 1067.07 1181.45 1090.99 1181.67 1095.5C1181.74 1097.12 1178.49 1097.34 1177.45 1096.78C1172.29 1091.67 1168.34 1084.78 1163.59 1079.07C1162.69 1077.67 1161.83 1076.43 1160.88 1075.08Z"/><path fill="#040305" d="M1104.41 1074.55C1108.44 1073.05 1112.96 1073.82 1116.25 1076.58C1119.55 1079.34 1121.11 1083.65 1120.33 1087.88C1119.56 1092.11 1116.58 1095.59 1112.52 1097C1106.34 1099.15 1099.59 1095.93 1097.37 1089.78C1095.15 1083.63 1098.29 1076.84 1104.41 1074.55Z"/><path fill="#EBE0FF" d="M1105.18 1079.75C1107.38 1078.52 1110.08 1078.58 1112.21 1079.93C1114.34 1081.27 1115.57 1083.67 1115.4 1086.19C1115.24 1088.7 1113.71 1090.92 1111.42 1091.98C1108.07 1093.52 1104.11 1092.14 1102.43 1088.86C1100.76 1085.58 1101.97 1081.56 1105.18 1079.75Z"/><path fill="#040305" d="M1212.51 1073.46C1212.86 1073.54 1219.17 1075.39 1219.11 1075.46C1222.37 1071.74 1230.52 1076.57 1231.69 1075.81C1250.39 1063.68 1248.48 1103.3 1241.6 1096.63C1237.2 1092.36 1247.51 1074.37 1231.97 1079.35C1231.92 1081.84 1232.59 1096.14 1230.96 1096.74C1222.46 1100.18 1228.72 1082.48 1226.07 1080.54C1211.31 1069.75 1223.85 1102.97 1213.02 1096.35C1211.98 1095.71 1212.49 1075.52 1212.51 1073.46Z"/><path fill="#040305" d="M1012.01 1064.08C1015.55 1064.25 1019.04 1063.1 1017.15 1067.47C1014.14 1074.94 1011.56 1081.32 1008.7 1088.96C1008.39 1089.78 1005.48 1100.28 1000.47 1096.73C998.452 1095.31 994.263 1082.35 992.662 1078.74C992.267 1077.74 982.664 1060.29 993.031 1065.19C994.374 1065.82 1001.31 1084.56 1003.13 1088.7C1006.27 1080.56 1009.23 1072.35 1012.01 1064.08Z"/><path fill="#040305" d="M1025.6 1074.01C1031.84 1074.01 1040.08 1073.95 1040.66 1083.08C1040.86 1089.13 1025.87 1084.32 1025.24 1087C1023.33 1095.13 1035.38 1091.93 1036.67 1091.63C1041.99 1090.18 1039.93 1097.23 1030.98 1097.49C1018.29 1097.85 1015.59 1081.98 1023.39 1075.75L1025.6 1074.01Z"/><path fill="#EBE0FF" d="M1027.75 1077.54C1030.16 1077.88 1038.6 1079.01 1033.86 1083.15C1029.94 1082.89 1023.15 1084.22 1026.85 1079.02L1027.75 1077.54Z"/><path fill="#040305" d="M1257.85 1073.98C1263 1074.12 1269.06 1074.11 1270.84 1080.51C1271.11 1081.46 1271.72 1084.63 1270.81 1085.39C1267.92 1087.8 1261.1 1085.57 1257.51 1086.47C1256.25 1086.78 1255.53 1087.77 1256.09 1088.91C1259.43 1095.78 1264.55 1092.47 1269.53 1090.35C1270.17 1092.3 1271.2 1093.73 1269.17 1095.18C1266.23 1097.3 1262.54 1098.09 1258.98 1097.38C1248.65 1095.37 1245.69 1081 1257.85 1073.98Z"/><path fill="#EBE0FF" d="M1257.16 1077.89C1260.68 1078.12 1267.02 1077.52 1265.64 1082.69C1259.13 1082.64 1254.53 1084.8 1257.16 1077.89Z"/><path fill="#040305" d="M1192 1074.06C1199.03 1074.12 1206.74 1073.74 1206.57 1083.49C1206.5 1087.42 1206.82 1091.66 1206.37 1095.49C1206.2 1096.96 1203.63 1097.43 1202.66 1096.5C1202.18 1096.18 1201.71 1095.86 1201.23 1095.54C1197.42 1096.92 1193.18 1097.3 1189.78 1097.1C1178.28 1079.33 1208.49 1088.64 1199.39 1078.89C1196.81 1076.13 1190.15 1081.98 1188.19 1077.93C1189.24 1075.6 1189.78 1075.52 1192 1074.06Z"/><path fill="#EBE0FF" d="M1192.95 1088.08C1199.62 1087.98 1202.41 1086.28 1200.1 1093.25C1194.69 1093.11 1191.42 1094.19 1192.95 1088.08Z"/><path fill="#040305" d="M1045.23 1073.4C1047.84 1074.11 1050.38 1075.84 1052.52 1075.12C1066.97 1070.36 1065.88 1081.36 1065.63 1092.03C1065.61 1092.98 1065.89 1099.42 1060.67 1096.23C1059.73 1095.65 1060.22 1086.17 1060.23 1083.75C1060.03 1078.72 1058.25 1077.42 1053.38 1078.62C1045.81 1080.48 1055.59 1101.57 1045.44 1096.34C1044.42 1095.82 1045.03 1075.83 1045.23 1073.4Z"/><path fill="#040305" d="M1135.83 1074.42C1136.95 1074.39 1137.33 1074.25 1138.25 1074.84C1139.52 1079.54 1132.84 1078.09 1131.2 1081.05C1127.53 1087.69 1133.4 1092.59 1127.49 1098.1C1122.4 1093.49 1125.46 1081.88 1125.27 1075.27C1125.23 1074.03 1129.76 1074.52 1130.3 1075.82C1130.52 1076.35 1135.37 1074.55 1135.83 1074.42Z"/><path fill="#E8E7F4" d="M1160.88 1075.08C1161.83 1076.43 1162.69 1077.67 1163.59 1079.07C1162.05 1082.71 1162.61 1089.24 1161.59 1090.41C1161.43 1090.17 1161.18 1077.69 1160.88 1075.08Z"/><path fill="#EBE0FF" d="M970.938 1129.3L1332.79 1129.18C1332.8 1149.72 1333.58 1176.72 1332.46 1196.55L970.793 1196.63L970.938 1129.3Z"/><path fill="#040305" d="M1148.93 1138.97C1159.47 1138.96 1172.93 1136.51 1176.7 1149.56C1178.18 1154.54 1177.6 1159.9 1175.08 1164.44C1174.94 1164.66 1174.81 1164.88 1174.67 1165.1L1173.9 1166.43C1164.64 1173.17 1161.01 1171.37 1148.88 1171.36L1148.93 1138.97Z"/><path fill="#EBE0FF" d="M1154.79 1143.52C1157.76 1143.54 1162.52 1143.33 1165.22 1144.51C1167.83 1145.66 1169.82 1147.85 1170.72 1150.55C1172.42 1155.68 1170.93 1159.75 1168.52 1164.05C1149.46 1173.7 1154.89 1157.87 1154.79 1143.52Z"/><path fill="#040305" d="M1060.3 1148.51C1066.48 1147.56 1072.33 1151.62 1073.61 1157.74C1074.89 1163.86 1071.17 1169.92 1065.13 1171.54C1060.91 1172.67 1056.42 1171.37 1053.44 1168.18C1050.47 1164.98 1049.51 1160.4 1050.95 1156.28C1052.39 1152.16 1055.99 1149.17 1060.3 1148.51Z"/><path fill="#EBE0FF" d="M1058.84 1152.74C1067.54 1153.33 1071.95 1159.13 1066.09 1166.19L1064.85 1167.76C1054.05 1167.42 1053.57 1160.56 1058.84 1152.74Z"/><path fill="#040305" d="M1119.94 1148C1124.59 1148.6 1134.05 1150.57 1131.67 1159.96C1131.08 1162.29 1115.33 1158.8 1116.39 1162.71C1118.42 1170.16 1125.93 1166.37 1131.09 1166.06C1131.77 1168.16 1131.22 1168.75 1129.43 1169.86C1112.28 1180.59 1102.5 1154.09 1118.25 1148.67L1119.94 1148Z"/><path fill="#EBE0FF" d="M1117.19 1153.07C1122.95 1152.25 1124.53 1151.62 1127.08 1157.03C1120.72 1157.19 1116.91 1159.4 1117.19 1153.07Z"/><path fill="#040305" d="M1229.79 1148.09C1236.44 1148.96 1240.46 1149.84 1241.84 1157.67C1243.12 1164.96 1224.24 1157.35 1226.84 1163.52C1229.61 1170.05 1235.15 1167.34 1239.9 1165.54C1241.58 1167.72 1241.71 1168.73 1239.1 1170.25C1222.78 1179.71 1213.19 1154.02 1228.18 1148.74L1229.79 1148.09Z"/><path fill="#EBE0FF" d="M1227.03 1153.12C1232.89 1152.39 1234.61 1151.34 1236.81 1157C1230.95 1157.06 1226.6 1159.27 1227.03 1153.12Z"/><path fill="#040305" d="M1190.15 1148.17C1198.58 1149.51 1200.08 1151.89 1200.2 1159.48C1200.48 1177.72 1199.77 1169.11 1192.4 1170.65C1185.43 1172.11 1187.89 1173.58 1180.81 1169.04C1181.48 1153.97 1191.99 1161.66 1194.06 1157.54C1197.67 1150.35 1184.38 1155.23 1181.91 1153.58L1181.71 1152.35C1183.84 1149.5 1186.87 1149.02 1190.15 1148.17Z"/><path fill="#EBE0FF" d="M1189.24 1161.41C1196.59 1162.2 1196.46 1162.3 1191.92 1168.71C1186.11 1167.08 1185.32 1166.57 1189.24 1161.41Z"/><path fill="#040305" d="M1001.8 1148.06C1004.41 1148.75 1007.61 1151.05 1009.35 1149.96C1023.87 1140.85 1024.58 1167.68 1022.1 1170.4C1016.02 1177.06 1017.16 1161.94 1017.16 1159.75C1017.03 1155.25 1016.59 1151.73 1010 1152.84C1002.42 1154.7 1012.38 1174.86 1002.56 1170.99C1001.14 1170.42 1001.79 1150.92 1001.8 1148.06Z"/><path fill="#040305" d="M1025.23 1148.31C1033.82 1149.62 1032.1 1154.03 1035.9 1162.54L1037.18 1165.39C1038.37 1162.19 1041.52 1150.65 1043.55 1149.3C1045.1 1148.27 1049.11 1148.22 1047.02 1152.78C1045.3 1156.82 1040.51 1175.33 1035.05 1170.83C1032.2 1168.48 1026.39 1152.38 1025.23 1148.31Z"/><path fill="#040305" d="M1207.99 1140.78L1209.45 1141.05C1212.26 1141.49 1212.48 1143.48 1212.02 1145.99C1211.24 1150.33 1216.61 1148.27 1217.56 1149.63C1219.35 1152.2 1216.65 1153.23 1214.5 1153.01C1214.12 1152.94 1212.61 1153.39 1212.51 1153.82C1211.73 1156.88 1212.01 1161.44 1212.19 1164.6C1212.28 1166.31 1214.48 1167.46 1215.98 1167.26C1218.43 1166.92 1218.87 1170.6 1217.03 1171.17C1213.3 1172.34 1210.66 1171.78 1207.74 1169.25C1206.91 1164.87 1207.26 1155.13 1206.73 1153.96C1206.39 1153.22 1197.64 1150.55 1206 1148.7C1207.24 1148.43 1207.55 1142.87 1207.99 1140.78Z"/><path fill="#25252B" d="M1207.99 1140.78C1208.77 1148.5 1208.86 1161.57 1207.74 1169.25C1206.91 1164.87 1207.26 1155.13 1206.73 1153.96C1206.39 1153.22 1197.64 1150.55 1206 1148.7C1207.24 1148.43 1207.55 1142.87 1207.99 1140.78Z"/><path fill="#040305" d="M1099.34 1147.87C1101 1148.12 1111.43 1149.43 1105.89 1153.79C1104.04 1153.54 1097.42 1151.46 1096.08 1155.03C1091.13 1168.21 1099.18 1167.67 1107.65 1165.85C1109.02 1179.37 1082.31 1169.49 1089.86 1155.44C1092.57 1150.39 1094.29 1150 1099.34 1147.87Z"/><path fill="#040305" d="M989.894 1138.18C990.192 1138.25 994.903 1139.12 994.949 1139.65C995.874 1150.16 995.44 1161.71 995.435 1172.35C995.257 1172.31 990.296 1171.48 990.246 1170.79C989.491 1160.21 989.865 1148.87 989.894 1138.18Z"/><path fill="#040305" d="M1078.11 1154.06C1079.18 1148.58 1078.41 1149.18 1084.01 1148.13C1083.88 1155.06 1084.48 1164.05 1083.42 1170.78C1083.31 1171.47 1078.94 1171.93 1078.84 1170.48C1078.44 1164.82 1078.85 1159.79 1078.11 1154.06Z"/><path fill="#040305" d="M1078.26 1143.87C1077.4 1142.45 1077.72 1140.61 1079.01 1139.56C1080.3 1138.5 1082.17 1138.56 1083.39 1139.69C1084.61 1140.83 1084.81 1142.68 1083.86 1144.05C1083.21 1144.98 1082.14 1145.52 1081.01 1145.48C1079.88 1145.44 1078.85 1144.84 1078.26 1143.87Z"/><path fill="#DAC7FF" d="M772.573 1418.04L966.822 1418L966.836 1495.14L772.497 1495.23L772.573 1418.04Z"/><path fill="#DAC7FF" d="M1336.8 826.029L1502.78 826.019L1502.87 910.817L1336.84 910.912L1336.8 826.029Z"/><path fill="#E8E7F4" d="M772.489 1272.12L966.728 1272.38C966.803 1295.62 966.734 1318.86 966.52 1342.09L772.401 1342.24L772.489 1272.12Z"/><path fill="#E8E7F4" d="M772.808 1057.29L966.75 1057.43L966.737 1125.15L772.639 1125.15L772.808 1057.29Z"/><path fill="#E8E7F4" d="M772.569 1346.17L966.65 1346.09L966.734 1413.82C903.226 1414.93 836.362 1413.86 772.584 1413.91L772.569 1346.17Z"/><path fill="#DAC7FF" d="M772.546 1200.6L966.74 1200.54C966.776 1208.67 967.735 1264.89 965.736 1268.29L772.489 1268.21L772.546 1200.6Z"/><path fill="#E8E7F4" d="M772.583 1129.22L966.789 1129.18L966.719 1196.57L772.579 1196.55L772.583 1129.22Z"/><path fill="#E8E7F4" d="M882.535 915.502L966.786 915.713L966.769 982.555L857.785 982.567L772.644 982.699L772.752 915.763L882.535 915.502Z"/><path fill="#DAC7FF" d="M907.235 986.506L966.798 986.413L966.786 1053.44L833.25 1053.42L772.52 1053.33L772.439 986.68L907.235 986.506Z"/><path fill="#DAC7FF" d="M1336.78 1418.08L1502.81 1417.95L1502.89 1495.1C1448.25 1495.92 1391.49 1495.13 1336.7 1495.12L1336.78 1418.08Z"/><path fill="#E8E7F4" d="M1336.85 1057.24L1502.84 1057.27L1502.86 1125.13L1336.78 1125.09L1336.85 1057.24Z"/><path fill="#E8E7F4" d="M1502.88 1345.55C1502.89 1367.27 1502.27 1392.49 1502.98 1413.91L1336.85 1414.01L1336.85 1346.08L1447.06 1346.16C1461.61 1346.17 1489.46 1346.91 1502.88 1345.55Z"/><path fill="#DAC7FF" d="M1336.79 1200.69L1502.86 1200.66L1502.85 1268.3L1336.72 1268.34L1336.79 1200.69Z"/><path fill="#E8E7F4" d="M1336.81 1129.16L1502.86 1129.19L1502.9 1196.62L1336.74 1196.61L1336.81 1129.16Z"/><path fill="#AC8BEE" d="M32.165 356.961C56.837 355.818 72.1603 378.193 62.682 400.868C58.5128 410.842 50.2701 424.6 39.6037 428.392L37.7297 429.109C15.7721 429.979 -1.68276 410.083 6.47089 388.398C11.2325 375.735 19.1932 362.468 32.165 356.961Z"/><path fill="#3F3649" d="M36.9442 370.897C63.4956 372.133 45.8905 405.126 33.9385 413.722L32.5088 414.81C27.9204 414.639 26.7947 414.495 23.395 411.343C11.9725 400.752 28.4891 377.844 36.9442 370.897Z"/><path fill="#E8E7F4" d="M88.9754 412.183C114.809 410.97 129.971 438.781 116.155 460.252C109.268 470.956 106.241 478.148 94.0373 484.003C69.5192 486 54.0735 459.074 64.9664 438C70.9421 426.439 76.7262 417.62 88.9754 412.183Z"/><path fill="#3F3649" d="M95.0083 425.765C120.36 431.966 99.3278 462.313 86.9011 470.034C62.4842 463.066 82.8231 432.834 95.0083 425.765Z"/><path fill="#AC8BEE" d="M84.9067 283.055C116.859 280.536 140.93 323.801 106.372 346.154C86.0787 350.368 63.0051 328.239 68.3901 307.589C71.1204 297.119 75.6097 288.801 84.9067 283.055Z"/><path fill="#3F3649" d="M93.0306 295.871C98.304 295.981 99.428 295.7 103.688 299.284C115.587 309.294 106.887 324.823 98.1566 333.672C89.8624 334.343 83.2556 326.855 82.2112 319.004C81.5167 313.782 88.1192 300.865 91.866 297.091L93.0306 295.871Z"/><path fill="#E8E7F4" d="M205.988 591.045C218.401 593.407 223.028 600.325 229.805 610.575C240.209 626.309 230.656 653.414 213.63 660.537L211.789 661.331C198.565 659.564 189.699 648.625 185.474 636.576C182.466 628.038 183.138 618.635 187.329 610.612C191.933 601.633 196.368 594.377 205.988 591.045Z"/><path fill="#3F3649" d="M210.282 606.584C219.538 608.057 224.109 617.036 221.99 625.988C220.722 631.347 212.635 641.438 208.748 645.532C205.569 645.063 203.985 645.094 201.61 642.71C189.234 630.289 200.089 616.07 210.282 606.584Z"/><path fill="#AC8BEE" d="M112.142 600.024C144.775 599.148 153.489 650.712 123.679 669.933C104.566 669.687 91.1223 646.021 94.9289 628.502C97.6465 615.995 101.464 607.351 112.142 600.024Z"/><path fill="#3F3649" d="M118.224 613.69C127.314 615.88 128.448 621.093 131.337 629.377L130.629 632.077C128.458 640.58 125.389 648.436 119.742 655.181C99.1517 652.857 107.134 624.489 116.946 614.992L118.224 613.69Z"/><path fill="#AC8BEE" d="M148.087 348.861C174.917 348.659 202.099 390.726 167.67 412.634C147.498 415.14 127.236 387.962 132.311 369.552C134.781 360.916 140.414 353.528 148.087 348.861Z"/><path fill="#3F3649" d="M155.408 362.807C165.52 363.306 167.912 368.847 172.015 377.674C169.737 387.811 167.733 391.267 160.269 398.926C150.686 399.571 146.268 392.498 144.531 383.372C143.411 377.487 151.661 367.294 155.408 362.807Z"/><path fill="#AC8BEE" d="M157.908 667.934C189.032 669.123 195.783 718.376 169.012 735.354C158.631 735.286 156.917 732.41 149.483 724.95C135.666 711.083 140.15 679.584 156.232 669.087L157.908 667.934Z"/><path fill="#3F3649" d="M163.189 681.612C183.229 685.37 172.82 711.662 164.534 722.027C154.382 719.45 154.175 716.046 151.455 705.987C153.338 698.492 156.374 688.546 161.925 682.945L163.189 681.612Z"/><path fill="#E8E7F4" d="M244.062 665.889C272.155 664.777 284.953 711.799 254.053 731.172C244.917 731.749 242.504 730.122 236.282 722.754C219.724 703.151 224.559 681.104 244.062 665.889Z"/><path fill="#3F3649" d="M250.018 679.457C269.255 684.875 260.471 706.373 249.97 715.921L248.592 717.232C240.332 716.201 237.93 711.447 237.139 703.491C236.35 695.563 245.144 684.93 250.018 679.457Z"/><path fill="#AC8BEE" d="M269.041 564.008C293.985 568.138 314.464 609.564 280.548 627.635C256.833 627.746 235.242 580.736 269.041 564.008Z"/><path fill="#3F3649" d="M273.431 578.637C282.454 578.761 286.17 585.22 287.162 594.002C287.941 600.899 280.477 609.028 275.877 613.691C267.22 614 263.386 605.094 262.733 597.498C262.142 590.635 268.924 583.284 273.431 578.637Z"/><path fill="#E8E7F4" d="M281.185 735.931C308.839 736.612 318.24 782.646 288.964 798.15C262.048 797.46 253.913 753.479 278.377 737.703L281.185 735.931Z"/><path fill="#3F3649" d="M285.333 748.71C295.001 749.682 295.222 756.052 297.228 764.746C293.746 773.739 292.007 777.357 285.422 784.415C266.631 784.516 273.926 759.664 284.006 750.043L285.333 748.71Z"/><path fill="#AC8BEE" d="M269.751 854.872C298.094 857.716 307.804 904.21 282.924 919.595C255.678 914.64 245.403 870.356 269.751 854.872Z"/><path fill="#3F3649" d="M275.167 867.388C292.159 874.459 287.427 893.47 278.656 905.26C261.537 902.149 265.446 878.931 273.964 868.888L275.167 867.388Z"/><path fill="#E8E7F4" d="M319.986 799.951C347.91 804.844 353.629 845.757 326.259 860.857C297.462 856.469 293.429 812.051 319.986 799.951Z"/><path fill="#3F3649" d="M323.225 812.541C341.855 816.318 333.01 838.692 322.968 848.038C305.668 843.478 313.11 823.481 321.954 813.943L323.225 812.541Z"/><path fill="#AC8BEE" d="M369.876 765.97C397.425 767.72 409.138 809.581 384.858 822.754L383.321 823.638C358.235 822.586 344.502 782.415 368.221 767.093L369.876 765.97Z"/><path fill="#3F3649" d="M376.316 777.477C392.389 782.252 389.249 799.587 379.942 809.913L378.723 811.303C361.569 809.577 365.402 788.73 374.984 778.913L376.316 777.477Z"/><path fill="#E8E7F4" d="M358.009 856.917C383.773 856.463 396.901 896.015 371.028 913.239C343.936 913.435 333.634 875.836 358.009 856.917Z"/><path fill="#3F3649" d="M364.114 868.414C381.423 872.186 375.106 893.751 364.927 902.759C349.48 896.504 353.313 879.674 362.817 869.802L364.114 868.414Z"/><path fill="#AC8BEE" d="M370.723 964.894C403.15 963.338 414.71 1001.23 394.283 1015.41C365.995 1015.84 348.954 982.106 370.723 964.894Z"/><path fill="#3F3649" d="M377.723 973.749C387.284 974.94 388.654 977.47 392.635 985.895C391.993 994.934 393.074 999.151 387.502 1005.63C370.406 1002.9 369.89 985.425 377.723 973.749Z"/><path fill="#E8E7F4" d="M403.068 906.061C429.383 904.797 443.61 936.665 420.501 953.487C394.369 954.917 380.284 923.485 403.068 906.061Z"/><path fill="#3F3649" d="M409.279 915.414C417.097 916.111 418.481 918.946 423.003 925.54L422.586 927.239C421.285 932.677 419.829 938.559 416.12 942.898L415.076 944.191C397.269 941.653 401.131 926.57 409.279 915.414Z"/><path fill="#E8E7F4" d="M736.367 965.204C742.844 964.676 753.377 963.96 755.535 971.766C759.972 987.816 752.113 1000.72 737.255 1005.44L735.381 1006.06L733.974 1006.22C706.771 1009.64 708.13 973.974 736.367 965.204Z"/><path fill="#3F3649" d="M737.11 971.965C739.014 972.159 744.271 972.481 744.633 974.998C746.346 986.9 745.651 994.088 734.822 999.13C731.599 998.591 727.121 997.793 726.908 993.559C726.311 981.718 726.604 977.852 737.11 971.965Z"/><path fill="#AC8BEE" d="M736.353 913.204C744.034 912.312 752.408 912.224 755.404 920.684C760.73 935.726 753.779 948.176 739.557 953.259L737.789 953.942C717.843 956.721 712.063 946.854 718.604 926.386C720.677 919.901 730.08 915.433 736.353 913.204Z"/><path fill="#3F3649" d="M735.038 920.739C745.648 921.046 745.455 924.193 745.625 935.514C745.705 940.82 742.174 943.798 738.229 946.742C736.728 946.767 734.924 946.956 733.465 946.815C725.834 946.079 727.4 936.474 727.661 931.356C727.926 926.16 731.303 923.703 735.038 920.739Z"/><path fill="#AC8BEE" d="M507.236 908.131C536.725 903.883 548.394 933.857 529.86 950.801C502.204 953.578 489.574 923.92 505.984 909.272L507.236 908.131Z"/><path fill="#3F3649" d="M513.809 915.865C530.621 916.239 531.076 931.454 523.846 942.751C507.404 942.904 506.479 926.331 513.809 915.865Z"/><path fill="#E8E7F4" d="M453.857 942.037C481.803 943.382 493.604 972.156 472.18 985.412C442.779 986.097 432.765 954.991 453.857 942.037Z"/><path fill="#3F3649" d="M458.645 950.456C474.334 952.381 475.973 967.43 467.66 977.229C452.125 975.632 450.236 963.503 457.747 951.908L458.645 950.456Z"/><path fill="#25252B" d="M1132.65 864.746C1127.11 860.636 1134.26 860.19 1135.34 859.919C1135.77 859.18 1135.54 853.306 1136.58 852.696C1138.51 851.564 1143.31 851.73 1145.58 852.028C1149.47 852.953 1145.7 856.623 1147.33 858.753C1149.42 861.482 1153.26 858.114 1153.32 862.782C1153.44 871.843 1151.45 867.782 1147.62 869.134C1146.88 870.053 1146.7 883.593 1151.86 878.555C1154.97 875.522 1155.74 870.907 1161.97 870.214C1165.31 869.591 1167.18 869.739 1170.16 867.905C1161.94 863.576 1161.47 870.242 1155.79 865.843L1154.5 864.938C1156.22 856.103 1175.97 857.798 1179.09 864.634C1180.74 868.256 1181 885.601 1179.51 887.995C1175.76 888.372 1170.59 887.368 1167.49 888.398C1160.51 890.723 1159.32 888.674 1154.48 886.625C1149.72 889.861 1140.4 890.927 1137.26 884.928C1132.96 876.705 1138.85 874.285 1132.97 866.444L1132.65 864.746Z"/><path fill="#E8E7F4" d="M1154.5 864.938L1155.78 863.966C1161.18 859.715 1173.04 858.688 1176.97 865.545C1178.82 868.78 1179.34 883.211 1177.4 886.4C1176.81 887.384 1171.19 886.571 1170.66 885.3C1166.23 885.829 1159.45 890.675 1155.53 884.057C1152.24 878.53 1156.14 874.705 1161.12 872.542C1166.67 870.133 1170.09 873.767 1170.16 867.905C1161.94 863.576 1161.47 870.242 1155.79 865.843L1154.5 864.938Z"/><path fill="#25252B" d="M1161.54 877.212C1167.5 876.7 1170.98 874.474 1170.39 880.934C1164.98 882.284 1161.41 883.944 1161.54 877.212Z"/><path fill="#E8E7F4" d="M1132.65 864.746L1133.01 863.496C1133.4 861.98 1133.77 861.639 1135.51 861.51C1141.13 861.092 1134.78 853.627 1141.04 853.818C1141.99 853.847 1144.24 853.793 1145.07 854.551C1146.56 856.328 1144.55 859.161 1146.06 860.912C1147.22 862.257 1149.29 860.677 1150.59 861.642C1151.54 862.327 1151.42 864.081 1151.59 865.101C1151.62 865.774 1151.2 866.119 1150.84 866.484C1149.59 867.739 1145.21 865.385 1145.17 867.884C1145.13 870.958 1144.33 877.2 1146.27 879.824C1146.66 880.359 1147.3 881.111 1147.97 881.04C1148.63 880.946 1149.29 880.852 1149.95 880.758C1150.52 880.627 1151.35 880.803 1151.74 881.256C1152.59 882.241 1153.21 885.738 1151.63 886.316C1148.85 887.331 1145.24 887.544 1142.4 886.548C1140.66 885.811 1138.94 884.224 1138.36 882.38C1137.12 878.417 1137.47 873.998 1137.6 869.911C1137.69 866.771 1135.56 866.628 1132.97 866.444L1132.65 864.746Z"/><path fill="#E8E7F4" d="M674.424 982.246C679.077 981.906 684.441 981.24 688.729 983.392C691.654 984.829 693.861 987.404 694.833 990.514C699.201 1004.15 691.362 1015.17 678.46 1019.37C659.564 1021.27 650.989 1014.11 658.438 993.394C660.706 987.088 668.305 984.15 674.424 982.246Z"/><path fill="#3F3649" d="M673.916 988.999C683.474 988.507 685.78 990.109 685.008 1001.01C684.603 1006.73 682.499 1009.31 678.241 1012.93C666.638 1013.14 666.234 1010.85 667.064 998.974C667.264 995.764 668.844 992.798 671.396 990.842C671.709 990.62 672.021 990.397 672.333 990.174L673.916 988.999Z"/><path fill="#AC8BEE" d="M678.224 929.142C685.551 928.749 694.743 929.982 696.648 938.182C700.385 954.268 694.603 962.372 680.48 967.237C672.638 967.433 662.313 966.92 660.238 957.987C656.196 940.588 662.71 932.61 678.224 929.142Z"/><path fill="#3F3649" d="M677.058 935.834C678.358 935.909 679.763 935.92 681.036 936.041C682.783 936.218 684.372 937.129 685.407 938.548C689.914 944.827 686.738 955.572 680.26 960.477C670.645 959.958 669.492 958.421 669.898 948.482C670.08 944.005 670.818 940.313 674.652 937.55L677.058 935.834Z"/><path fill="#AC8BEE" d="M614.139 932.209C632.69 931.183 644.074 935.781 639.772 957.488C638.478 964.019 634.809 966.854 629.305 970.009C602.607 975.41 592.52 944.648 614.139 932.209Z"/><path fill="#3F3649" d="M618.751 938.902C619.686 938.924 620.622 938.947 621.557 938.969C633.997 939.299 633.461 956.585 625.385 963.463L624.417 963.411C608.893 962.667 610.568 946.887 618.751 938.902Z"/><path fill="#E8E7F4" d="M615.811 986.349C633.845 987.168 642.723 994.068 635.071 1014.55C633.083 1019.87 627.704 1021.5 622.725 1023.15C612.409 1023.31 601.999 1022.01 600.24 1010C598.258 996.46 603.061 988.864 615.811 986.349Z"/><path fill="#3F3649" d="M615.73 992.992C625.391 993.118 627.93 994.559 627.222 1005.02C626.824 1010.91 625.781 1012.54 621.421 1016.44C610.043 1016.02 609.433 1013.17 609.953 1001.48C610.124 997.625 613.065 995.262 615.73 992.992Z"/><path fill="#AC8BEE" d="M664.57 1033.15C672.408 1032.79 682.398 1033.31 684.083 1042.47C686.889 1057.72 680.169 1066.02 666.247 1068.83C658.529 1069.14 649.689 1068.79 647.313 1059.92C643.306 1044.96 650.978 1036.6 664.57 1033.15Z"/><path fill="#3F3649" d="M666.066 1038.87C680.568 1040.89 675.806 1057.33 666.358 1062.26C664.114 1062.09 658.061 1062.07 657.325 1058.95C654.892 1048.63 656.795 1042.86 666.066 1038.87Z"/><path fill="#E8E7F4" d="M546.933 1033.18C578.908 1030.48 580.819 1058.47 563.748 1068.41C534.108 1072.56 529.565 1043.28 545.295 1034.19L546.933 1033.18Z"/><path fill="#3F3649" d="M552.695 1038.88C568.526 1040.6 565.976 1056.49 558.942 1061.57L557.593 1062.58C542.795 1060.23 542.655 1045.6 552.695 1038.88Z"/><path fill="#E8E7F4" d="M1068.36 849.973C1073.88 849.952 1080.06 849.607 1085.5 850.087C1103.07 851.633 1106.13 868.9 1097.23 881.5C1086.67 888.09 1080.57 886.333 1068.26 886.39L1068.36 849.973Z"/><path fill="#25252B" d="M1076.99 855.998C1091 857.051 1098.22 863.07 1090.31 877.051C1088.12 878.029 1078.26 881.125 1077.58 878.824C1076.18 874.018 1076.83 861.25 1076.99 855.998Z"/><path fill="#E8E7F4" d="M607.114 1036.31C637.81 1036.39 631.832 1065.78 617.414 1070.51L615.48 1071.18C597.597 1071.04 586.638 1065.9 594.685 1043.79C596.329 1039.27 602.663 1037.3 607.114 1036.31Z"/><path fill="#3F3649" d="M606.718 1042.73C622.101 1043.03 622.626 1055.7 613.999 1064.62C598.708 1065.71 598.94 1051.43 605.662 1043.96L606.718 1042.73Z"/><path fill="#E8E7F4" d="M135.063 469.096C142.838 472.403 151.348 482.781 157.803 489.144C146.084 504.107 134.075 518.841 121.783 533.337C119.185 533.78 113.801 527.197 111.642 525.156C120.401 512.977 130.132 501.71 139.14 489.02C133.75 485.826 132.183 484.521 127.309 480.851C127.589 480.403 127.87 479.955 128.151 479.507C130.266 475.915 132.574 472.44 135.063 469.096Z"/><path fill="#AC8BEE" d="M22.5013 253.982C33.6527 254.418 41.5769 256.314 52.3206 258.936C46.1559 276.081 39.684 293.114 32.9082 310.027C30.7737 313.505 23.2178 310.094 19.2905 309.351L19.7536 308.018C24.3376 295.181 28.2377 281.872 32.7921 269.235C28.0753 268.878 23.5061 268.404 18.8088 267.992C20.0429 263.543 21.4354 258.465 22.5013 253.982Z"/><path fill="#AC8BEE" d="M68.9543 539.389C80.2197 544.617 82.3131 545.652 93.0033 552.737C85.0339 570.318 77.7501 587.922 69.4085 605.478C65.5069 603.399 62.2937 601.181 58.6087 598.783C64.149 585.127 70.1059 571.227 75.9943 557.714L65.5081 553.363L63.6233 552.583C65.4869 548.015 66.9921 543.956 68.9543 539.389Z"/><path fill="#E8E7F4" d="M170.672 527.396C177.655 531.163 186.868 541.716 192.6 547.926C181.846 561.045 171.496 574.43 160.805 587.368C157.055 588.732 153.123 582.419 150.379 579.557C158.851 569.183 166.882 558.008 175.426 547.39C171.267 543.758 167.763 541.074 163.416 537.697C166.356 533.88 168.089 531.5 170.672 527.396Z"/><path fill="#AC8BEE" d="M200.703 419.56C207.834 421.923 218.328 436.047 222.931 442.305C213.825 452.542 202.031 463.709 192.141 473.364C188.743 475.992 183.751 467.305 181.251 464.417C190.007 455.584 197.419 447.655 205.83 438.445C201.96 434.594 197.969 431.141 193.937 427.475C196.24 424.849 198.401 422.166 200.703 419.56Z"/><path fill="#AC8BEE" d="M234.693 483.808C242.02 490.187 250.692 500.331 254.807 509.112C245.23 518.824 235.509 528.394 225.649 537.818C221.774 538.675 218.018 530.904 215.703 527.796C223.33 519.323 231.059 511.698 238.701 503.352L227.435 492.038C229.989 489.032 231.977 486.719 234.693 483.808Z"/><path fill="#AC8BEE" d="M200.01 734.401C209.145 739.897 213.216 744.61 220.985 751.708C213.868 765.952 205.932 779.604 198.391 793.598C195.333 794.527 191.299 788.314 189.121 785.999C193.753 774.676 200.497 763.95 205.617 752.661C201.956 750.436 198.318 748.173 194.703 745.874C196.443 742.034 198.214 738.218 200.01 734.401Z"/><path fill="#AC8BEE" d="M309.037 640.81C317.07 646.366 323.523 657.732 328.617 665.946C319.648 674.976 310.268 683.589 300.507 691.756C296.714 693.419 293.239 685.618 291.268 682.637C298.893 674.581 305.565 668.542 312.617 659.826C308.941 656.156 305.611 652.61 302.055 648.836C304.248 646.095 306.693 643.431 309.037 640.81Z"/><path fill="#AC8BEE" d="M232.995 794.34C241.48 799.234 247.608 805.125 254.255 812.152C247.905 824.384 239.949 839.301 232.807 850.951C230.029 854.041 225.395 846.61 223.41 844.343C228.287 834.198 233.762 824.025 238.438 813.868L239.189 812.28C235.605 809.786 232.049 807.254 228.52 804.683C230.3 800.985 231.575 798.172 232.995 794.34Z"/><path fill="#E8E7F4" d="M993.195 849.996C994.267 849.983 1002.2 849.569 1002.58 850.525C1007.17 862.104 1012.38 873.92 1016.56 885.621C1017.15 887.29 1009.85 886.99 1008.98 886.558C1006.78 885.455 1006.09 880.953 1005.3 878.72C991.231 878.91 991.148 876.079 988.438 885.886C987.665 887.198 980.054 886.984 980.236 885.93C981.553 878.295 989.663 860.024 991.98 853.497L993.195 849.996Z"/><path fill="#25252B" d="M997.65 859.714C1000.43 862.441 1004.32 870.137 999.759 873.514C990.152 871.107 993.596 870.7 997.65 859.714Z"/><path fill="#E8E7F4" d="M1020.69 849.999C1026.55 849.988 1038.34 849.127 1042.98 851.818C1045.67 853.366 1047.58 855.97 1048.25 858.997C1050.58 869.515 1042.66 872.315 1034.27 873.943C1033.13 873.856 1030.9 873.477 1030.05 874.613C1028.03 877.301 1032.37 886.791 1027.06 886.794C1024.6 886.796 1020.17 887.757 1020.31 884.047C1020.72 872.723 1020.64 861.337 1020.69 849.999Z"/><path fill="#25252B" d="M1029.33 855.964C1038.4 856.88 1040.08 857.234 1037.82 866.362C1027.03 868.645 1029.42 866.124 1029.33 855.964Z"/><path fill="#AC8BEE" d="M340.818 704.549C346.305 706.798 356.482 722.324 359.809 727.729C352.413 735.556 341.453 746.829 333.659 754.017C330.174 753.395 327.316 747.909 324.909 744.727C331.793 737.267 338.061 730.11 344.736 722.457C342.908 720.44 341.063 718.439 339.202 716.453C333.536 710.513 334.995 710.902 340.818 704.549Z"/><path fill="#AC8BEE" d="M317.893 917.18C327.374 921.296 331.402 923.917 339.391 930.438L339.05 931.854C338.116 935.611 337.238 939.26 336.268 943.016L334.004 951.504C332.329 957.92 330.56 964.347 328.646 970.695C325.467 971.371 321.641 967.738 318.85 965.911C321.13 955.537 324.658 943.702 326.418 933.624C313.863 927.712 314.802 930.158 317.893 917.18Z"/><path fill="#AC8BEE" d="M413.046 830.451C423.74 834.362 425.057 836.59 433.973 843.596C430.515 852.544 422.897 868.829 418.139 877.548C415.631 877.151 410.847 872.918 408.571 871.292L420.323 844.378C408.361 838.269 407.582 841.314 413.046 830.451Z"/><path fill="#AC8BEE" d="M456.074 874.693C465.303 876.143 470.381 879.571 478.395 884.137C474.831 895.675 471.225 907.174 467.701 918.725C465.946 921.531 462.648 918.397 460.478 917.033L458.934 916.051L457.345 915.072C459.028 909.064 460.738 903.063 462.26 897.013C463.094 893.814 463.879 890.603 464.614 887.379C453.771 882.647 452.835 885.461 456.074 874.693Z"/><path fill="#AC8BEE" d="M433.294 1004.09C445.053 1004.18 445.118 1005.01 456.23 1008.84C455.919 1011.48 455.548 1013.9 455.181 1016.5L453.183 1030C452.443 1035.27 451.786 1040.53 450.773 1045.75C448.301 1046.16 441.499 1044.53 441.344 1043.48C440.326 1036.53 442.88 1020.92 443.52 1013.8C436.122 1013.2 431.458 1015.88 432.671 1008.02L433.294 1004.09Z"/><path fill="#E8E7F4" d="M1112.36 861.143C1117.89 860.503 1127.84 859.681 1129.42 867.639C1130.34 872.242 1130.28 881.364 1129.35 885.898C1129.1 887.123 1123.34 887.269 1122.65 885.712C1121.61 884.359 1121.06 884.532 1120.17 885.181C1116.61 887.769 1114.21 887.546 1109.75 887.283C1096.27 870.823 1121.52 873.629 1121.86 868.906C1116.8 862.397 1108.24 872.168 1106.55 864.441C1107.1 862.954 1110.49 862.041 1112.36 861.143Z"/><path fill="#25252B" d="M1118.68 875.46C1124.45 877.815 1120.95 880.85 1117.44 883.54L1116.61 882.951C1110.72 878.879 1113.61 877.815 1118.68 875.46Z"/><path fill="#AC8BEE" d="M559.889 928.268C570.266 927.09 570.341 927.453 580.922 929.614C579.204 939.807 578.043 953.674 576.531 964.586C558.912 967.878 572.966 941.87 568.689 937.187C565.498 933.692 556.347 942.161 559.889 928.268Z"/><path fill="#E8E7F4" d="M505.028 971.236C514.204 971.101 515.912 972.159 524.63 974.734C523.87 981.019 523.223 985.744 522.185 992.006L519.092 1009.59C518.402 1009.34 511.294 1007.1 511.014 1006.32C510.052 998.862 512.819 988.434 512.949 980.905C512.971 979.656 495.383 981.952 505.028 971.236Z"/><path fill="#AC8BEE" d="M497.353 1026.17C503.295 1026.29 506.158 1026.84 511.99 1027.85C511.368 1034.13 510.195 1060.67 504.651 1062.42C497.687 1060.04 498.37 1061.89 498.665 1055.5C498.779 1053.04 500.695 1036.4 499.754 1035.63C496.192 1032.72 488.231 1039.24 490.831 1029.01C491.166 1027.64 496.218 1026.51 497.353 1026.17Z"/><path fill="#E8E7F4" d="M556.092 985.351C565.707 984.432 566.431 984.951 575.502 986.374C574.231 996.875 572.965 1009.04 570.816 1019.26C569.124 1019.13 563.34 1019.04 562.726 1018.28C560.668 1015.71 564.628 998.658 563.859 994.962C563.474 991.378 555.618 994.592 554.628 992.738C552.929 989.556 554.061 987.126 556.092 985.351Z"/></svg>