<?xml version="1.0" encoding="utf-8" ?><svg xmlns="http://www.w3.org/2000/svg" xmlns:xlink="http://www.w3.org/1999/xlink" width="2048" height="2048" viewBox="0 0 2048 2048"><path fill="#060608" d="M731.843 465.292C743.838 464.964 752.365 468.306 761.442 475.727C784.881 468.671 798.499 478.758 800.157 503.031C813.411 506.145 823.336 510.438 831.397 522.376C837.757 531.879 840.076 543.521 837.842 554.736C834.579 570.522 825.305 578.478 812.84 586.701C812.711 612.502 814.011 623.889 799.035 645.793C820.93 642.917 838.069 640.643 858.836 650.836C870.917 656.829 881.069 666.098 888.136 677.584C896.328 690.969 905.279 722.355 910.615 738.533C920.7 769.373 930.983 800.148 941.463 830.857C984.467 778.955 1109.11 780.849 1137.37 847.18C1159.66 849.122 1178.48 858.822 1179.52 884.278C1179.65 887.536 1176.58 896.572 1176.9 898.588C1179.54 914.995 1181.37 918.625 1175.74 934.26C1180.48 946.802 1180.71 955.133 1175.96 967.616C1176.68 970.168 1177.63 973.44 1178.12 976.014C1180.31 987.609 1177.67 999.594 1170.81 1009.19C1161.44 1022.27 1149.41 1026.62 1134.55 1029.23C1127.92 1042.75 1122.98 1048.12 1111.72 1058.21C1125.25 1103.31 1143.4 1153.37 1158.52 1198.48C1176.6 1252.37 1194.53 1307.82 1213.2 1361.42C1228.15 1365.23 1229.05 1376.65 1234.74 1388.85C1244.03 1408.79 1251.23 1442.22 1267.89 1456.57C1296.33 1481.07 1335.92 1494.1 1372.51 1498.9C1394.13 1501.73 1415.84 1501.87 1435.42 1512.58C1460.64 1526.5 1465.26 1542.86 1464.33 1569.82C1463.67 1589.16 1465.32 1601.07 1455.03 1618.9C1442.16 1641.2 1421.18 1653.37 1397.04 1660.04C1384.6 1663.42 1371.86 1665.52 1359 1666.32C1344.44 1667.24 1326.05 1666.74 1311.3 1666.72L1228.91 1666.53L1156.21 1666.68C1126.82 1666.73 1087.9 1671.48 1073.34 1640.98C1063.86 1621.12 1059.25 1590.05 1054.61 1568.29L1033.34 1469.2C1029.28 1450.35 1025.21 1429.36 1020.34 1410.83C999.352 1452.57 980.176 1495.5 959.314 1537.38C969.277 1546.3 967.998 1554.95 965.074 1567.3C950.941 1626.96 936.87 1629.95 979.826 1679.25C1002.97 1705.37 1034.84 1724.97 1064.11 1743.44C1096.84 1764.09 1106.82 1798.59 1090.51 1833.51C1065.92 1886.14 998.982 1893.69 951.813 1868.39C934.093 1858.88 917.17 1848.73 899.924 1838.8L802.72 1782.81L745.161 1749.64C723.04 1736.85 701.305 1727.5 692.299 1701.57C682.31 1672.8 701.003 1643.21 713.472 1617.98L743.994 1556.39L851.46 1338.43C835.102 1344.62 819.923 1350.23 802.916 1354.7C709.917 1379.1 600.545 1373.84 512.416 1334.5C469.431 1315.31 426.344 1283.05 409.58 1237.41C406.498 1229.15 404.452 1220.54 403.489 1211.78C402.255 1201.22 402.085 1147.77 403.543 1138.38C405.304 1127.65 408.548 1117.23 413.182 1107.4C436.943 1056.92 491.422 1026.53 541.92 1008.54L541.906 867.096C541.833 826.532 533.531 779.922 573.714 754.539C577.648 752.054 591.811 745.288 594.116 743.029C622.047 715.653 659.729 701.399 692.669 680.589L692.688 654.648C688.394 656.358 682.605 658.305 677.999 659.004C664.421 660.933 650.644 657.235 639.857 648.766C616.631 630.674 613.891 600.328 633.07 578.271C631.852 576.006 630.672 573.72 629.53 571.416C623.532 559.405 622.776 545.445 627.442 532.857C632.144 519.926 641.875 509.445 654.423 503.799C667.085 498.252 678.921 499.047 691.503 503.917C695.99 480.928 708.52 468.945 731.843 465.292Z"/><path fill="#E76F51" d="M545.248 1107.69C545.125 1100.98 544.45 1085.57 545.901 1079.55C547.987 1080.97 547.584 1081.72 548.552 1084.81C561.567 1108.08 578.116 1124.71 604.364 1132.3C612.892 1134.73 621.731 1135.88 630.596 1135.72C643.232 1135.61 670.596 1131.35 683.926 1129.63L784.389 1116.55C802.712 1114.16 823.227 1111.18 841.539 1109.62C851.147 1108.8 871.642 1111.01 882.038 1111.87L940.281 1116.57C955.827 1117.78 979.976 1119.05 994.626 1121.93C1028.13 1128.24 1057.13 1149.04 1073.85 1178.75C1088.39 1205.13 1091.92 1236.19 1083.65 1265.16C1078.04 1284.57 1054.72 1330.78 1044.86 1351.08C1020.93 1400.32 997.544 1452.59 972.891 1501.26C910.251 1502.24 852.391 1481.31 806.052 1438.67C832.759 1384.05 859.926 1326.83 887.47 1272.81L720.593 1259.47C696.608 1257.56 647.446 1255.95 626.322 1249.34C605.251 1242.58 586.472 1230.11 572.081 1213.3C543.788 1180.36 543.982 1148.42 545.248 1107.69Z"/><path fill="#44E2A0" d="M688.515 834.727C689.471 839.422 689.083 872.509 689.078 879.329L689.1 985.127C677.248 986.714 643.321 988.191 635.532 992.432L636.47 993.293C689.563 989.956 743.314 982.272 796.423 978.138C814.28 976.748 832.991 974.777 850.748 972.451C818.038 1023.61 819.714 1052.06 820.167 1108.75C793.242 1111.32 764.475 1116.41 737.028 1119.31C718.265 1122.51 697.839 1123.81 679.334 1127.02C633.339 1134.73 594.238 1139.6 561.524 1099.03C540.043 1072.39 546.132 1048.09 545.124 1016.33C544.811 1006.45 545.119 996.309 545.119 986.436L545.079 838.448C581.235 881.696 655.937 881.554 688.515 834.727Z"/><path fill="#44E2A0" d="M781.174 662.132C804.654 674.984 825.935 691.496 844.216 711.047C887.095 757.82 894.711 820.657 844.598 865.448C843.372 872.025 841.561 878.727 840.1 885.291C833.621 914.39 827.547 943.501 820.687 972.518C778.729 975.961 734.612 980.574 692.682 984.968L692.561 932.75C692.239 905.982 692.296 878.646 692.527 851.817C692.842 815.143 696.994 781.848 663.764 757.199C643.235 741.971 625.039 738.876 599.984 742.426C618.811 724.067 667.683 697.854 692.653 685.266C692.347 700.025 689.985 719.578 700.577 729C730.19 755.342 768.95 731.608 761.899 692.983C761.203 689.169 761.588 674.866 761.512 670.69C769.19 668.169 774.196 666.064 781.174 662.132Z"/><path fill="#744DEE" d="M540.894 1012.18C542.726 1014.86 541.295 1131.24 541.934 1145.2C542.225 1152.03 543.105 1158.81 544.565 1165.49C548.208 1181.84 556.559 1199.11 566.941 1212.23C581.774 1230.88 601.76 1244.76 624.415 1252.14C647.22 1259.47 688.998 1259.91 714.492 1262.32C769.93 1267.56 827.031 1269.87 882.309 1276.13C838.064 1302.94 793.988 1314.39 743.239 1320.82C670.303 1331.4 592.363 1320.31 522.19 1293.08C426.5 1255.95 359.293 1158.32 443.65 1070.48C471.006 1042 503.891 1026.69 540.894 1012.18Z"/><path fill="#264653" d="M762.524 1526.64C764.647 1528.7 771.707 1546.15 774.685 1550.64C798.884 1587.18 837.048 1598.35 876.304 1608.06C873.766 1637 904.496 1640.96 908.827 1619.49C909.878 1614.16 908.768 1608.63 905.742 1604.12C898.636 1593.73 887.395 1598.26 879.185 1604.4C881.071 1592.56 883.171 1580.55 885.33 1568.75C889.176 1547.75 902.647 1548.35 920.014 1544.32C930.283 1541.94 940.454 1539.68 950.595 1537.37C973.682 1546.51 961.31 1563.11 957.796 1582.16C954.886 1597.94 948.451 1614.23 946.66 1630.37C938.613 1632.96 924.525 1638.04 916.84 1639.46C910.058 1634.26 904.402 1632.61 896.428 1636.5C874.575 1647.13 895.479 1677.13 913.854 1666.44C919.126 1663.38 920.954 1656.83 921.76 1651.3L949.204 1642.38L955.394 1652.21C946.326 1655.71 928.678 1662.1 921.194 1667.03L920.653 1670.75C911.014 1679.91 903.472 1694.16 917.461 1703.22C927.456 1709.69 932.278 1700.14 941.515 1704.36C947.743 1702.74 970.386 1685.91 977.091 1681.22L984.111 1688.64C986.835 1691.35 990.01 1694.15 992.855 1696.79C985.866 1700.4 970.366 1709.15 963.327 1710.49C947.704 1713.44 944.445 1705.05 937.476 1726.8C937.579 1727.13 937.682 1727.46 937.786 1727.79L938.331 1729.41C942.346 1741.61 953.908 1748.19 964.896 1741.98C972.556 1737.66 971.445 1724.36 972.29 1723.34C977.411 1717.16 995.385 1709.77 1003.22 1706.36C1013.13 1714.18 1021.1 1719.6 1031.61 1726.57L1028.54 1727.22C977.431 1738.19 950.937 1765.09 923.665 1807.35C909.441 1798.23 892.154 1788.65 877.324 1779.94L792.866 1730.6C771.69 1718.38 748.074 1705.93 729.238 1691.14C716.816 1681.39 702.815 1654.48 707.723 1638.95C711.036 1628.47 719.751 1612.28 724.895 1601.92L762.524 1526.64Z"/><path fill="#F8FAFC" d="M760.101 1551.42C760.926 1551.68 762.835 1552.29 763.448 1552.96C794.914 1587.25 815.343 1638.33 796.427 1683.8C791.742 1695.06 786.943 1701.98 779.387 1711.49L776.638 1710.68C776.516 1708.99 791.786 1684.33 793.97 1677.94C809.538 1632.4 788.071 1590.14 760.193 1554.93C760.162 1553.76 760.132 1552.59 760.101 1551.42Z"/><path fill="#264653" d="M1178.8 1465.52C1173.18 1451.66 1157.28 1425.59 1163.67 1411.19C1167.27 1403.08 1203.34 1368.77 1211.25 1366.03C1213.28 1365.32 1215.45 1365.21 1217.44 1366.11C1228.12 1370.92 1246.14 1432.58 1255.36 1446.38C1241.51 1460.55 1226.9 1476.49 1212.46 1490.2C1204.54 1497.73 1215.98 1517 1227.14 1515.38C1238.49 1515.23 1239.07 1503.46 1248.9 1507.88C1251.03 1511.36 1250.89 1513.63 1249.46 1517.86C1244.58 1532.33 1262.38 1544.35 1274.53 1537.35C1280.74 1533.78 1279.84 1526.29 1283.37 1521.05C1292.03 1509.1 1303.36 1498.04 1312.35 1486.46L1325.21 1491.86C1319.82 1498.69 1306.13 1518.69 1298.27 1522.23C1277.64 1531.52 1283.99 1550.15 1302.79 1555.1C1314.5 1558.18 1325.21 1540.55 1315.71 1526.79C1322.82 1515.46 1330.87 1506.34 1338.52 1495.67C1351.96 1499.09 1364.77 1501.2 1378.51 1503.04C1334.03 1531.86 1319.98 1572.92 1318.93 1624.24L1164.37 1624.25C1122 1624.03 1095.08 1632.06 1064.76 1597.77C1057.17 1563.78 1047.77 1525.35 1041.51 1491.52L1040.31 1487.04C1040.41 1482 1037.84 1473.35 1036.52 1468.14C1083.03 1493.95 1133.18 1489.77 1179.24 1465.16L1179.54 1466.49C1181.95 1476.65 1188.65 1486.73 1200.53 1483.29C1205.49 1481.87 1209.6 1478.39 1211.83 1473.75C1220.45 1455.76 1194.74 1435.04 1178.8 1465.52Z"/><path fill="#F8FAFC" d="M1040.31 1487.04C1099.11 1498.09 1157.12 1546.42 1161.94 1609.2C1162 1609.95 1161.42 1610.84 1161.07 1611.48L1159.41 1612.08C1155.8 1608.17 1155.22 1593.98 1152.86 1586.58C1135.15 1531.17 1092.86 1507.61 1041.51 1491.52L1040.31 1487.04Z"/><path fill="#F79B8F" d="M928.87 906.838L930.223 907.893C931.211 914.191 930.803 931.676 930.812 938.838C918.553 947.619 909.363 955.704 900.426 967.749C921.874 966.76 1029.79 948.975 1040.27 952.843C1044.57 954.431 1048.09 958.93 1049.76 963.116C1050.92 966.017 1050.83 968.756 1049.4 971.569C1047.29 975.725 1042.61 978.545 1038.38 980.091C1025.45 984.83 986.65 987.244 970.949 989.049C964.724 989.765 957.856 989.993 951.908 991.923L951.206 993.454C965.467 1000.33 1047.23 970.296 1052.61 995.011C1053.51 999.355 1052.67 1003.88 1050.26 1007.61C1048.99 1009.6 1047.18 1011.51 1044.73 1012.52C1034.24 1016.83 956.744 1020.84 953.996 1026.18C963.172 1029.4 1028.38 1015.95 1041.89 1017.14C1056.7 1018.44 1056.14 1036.56 1044.6 1045.44C1038 1047.71 1029.5 1047.35 1023.76 1048.41C1010.96 1050.78 965.178 1053.86 956.04 1058.54C972.27 1062.89 1031.45 1045.54 1042.24 1052.31C1045.64 1054.44 1047.44 1057.98 1048.12 1061.85C1048.91 1066.36 1048.02 1071.24 1045.18 1074.92C1042.85 1077.94 1039.87 1079.06 1036.27 1079.91C1015.83 1084.69 993.604 1085.8 972.707 1088.52C922.979 1094.99 872.825 1100.54 823.298 1108.27C823.194 1080.73 821.316 1051.98 829.556 1025.81C847.281 969.511 878.433 934.583 928.87 906.838Z"/><path fill="#E76F51" d="M1107.78 1060.92C1111.34 1064.44 1187.34 1297.06 1196.92 1321.84C1146.86 1359.19 1100.95 1370.67 1039.79 1369.75C1046.17 1354.76 1054.86 1337.68 1062 1322.81C1074.48 1296.95 1088.53 1272.9 1090.88 1244.03C1093.64 1213.08 1083.91 1182.31 1063.85 1158.58C1027.78 1116.25 986.932 1117.09 936.831 1112.85L931.776 1097.28C978.801 1090.12 1030.36 1086.28 1077.08 1076.23C1086.81 1074.14 1099.5 1066.44 1107.78 1060.92Z"/><path fill="#744DEE" d="M728.228 469.083C751.687 467.959 742.931 471.317 761.524 478.453C764.591 479.631 775.186 475.771 779.201 476.739C794.763 480.49 794.794 491.792 797.781 504.755C798.23 506.704 812.926 509.732 816.053 511.948C820.414 515.038 823.993 518.04 827.477 522.678C833.9 531.222 836.586 542.004 834.923 552.563C832.516 567.391 823.737 575.075 812.336 582.941L812.403 539.91C811.485 542.018 810.517 544.105 809.502 546.168C805.429 554.32 798.434 561.029 789.59 563.647C782.188 565.867 774.199 564.964 767.478 561.148C758.519 555.983 755.412 549.221 752.693 540.046C746.202 564.165 735.507 587.207 704.889 583.867C695.722 582.867 693.62 580.361 683.703 582.006L682.454 582.225C671.871 586.33 663.971 594.309 663.688 606.228C663.513 613.076 666.167 619.694 671.025 624.524C678.063 631.52 683.788 632.051 692.819 631.988L692.734 650.932C686.488 653.359 682.127 655.268 675.399 655.886C662.649 657.155 649.935 653.146 640.218 644.793C630.501 636.581 624.608 624.719 623.932 612.014C623.3 597.83 628.762 588.358 637.858 578.402C635.178 574.88 632.944 571.041 631.207 566.971C626.358 555.412 626.536 542.357 631.698 530.935C643.659 504.445 670.305 497.752 695.5 509.637C695.68 486.969 706.343 474.864 728.228 469.083Z"/><path fill="#744DEE" d="M407.036 1213.18C406.313 1210.07 404.476 1190.83 406.564 1189.4C407.902 1189.34 408.228 1192.16 408.446 1192.96C465.789 1336.15 718.694 1351.71 842.474 1299.97C855.14 1294.67 867.688 1288.39 879.673 1281.7C872.293 1295.87 860.675 1318.24 854.534 1332.75C763.984 1375.29 632.295 1375.89 538.87 1341.69C490.906 1324.14 438.835 1293.9 416.592 1245.72C412.354 1236.54 407.82 1223.27 407.036 1213.18Z"/><path fill="#673ED9" d="M407.036 1213.18C406.313 1210.07 404.476 1190.83 406.564 1189.4C407.902 1189.34 408.228 1192.16 408.446 1192.96C404.786 1198.31 407.599 1204.65 407.036 1213.18Z"/><path fill="#200735" d="M944.049 877.697C941.096 868.756 939.826 857.332 944.866 849.275C972.976 804.337 1056.05 803.129 1098.21 825.08C1120.53 836.705 1137.39 856.716 1125.23 880.922L1124.45 881.253C1122.7 884.096 1100.98 903.591 1097.84 905.515C1062.63 927.12 961.918 922.831 944.049 877.697Z"/><path fill="#E9C46A" d="M944.049 877.697C941.096 868.756 939.826 857.332 944.866 849.275C972.976 804.337 1056.05 803.129 1098.21 825.08C1120.53 836.705 1137.39 856.716 1125.23 880.922C1088.01 834.565 985.763 838.018 944.049 877.697Z"/><path fill="#F8FAFC" d="M1005.38 852.758C1007.14 854.804 1006.84 857.084 1005.87 859.505C1003.06 866.526 1011.24 870.872 1010.11 875.398C1001.81 870.002 999.94 861.035 1005.38 852.758Z"/><path fill="#F8FAFC" d="M1078.4 867.129C1084.04 868.284 1094.75 871.697 1095.99 878.12C1092.65 877.1 1078.78 870.933 1078.4 867.129Z"/><path fill="#F8FAFC" d="M987.929 877.026C989.185 877.702 990.044 878.869 989.091 879.329C984.468 881.566 979.911 883.113 975.309 886.184C967.989 883.239 986.383 877.491 987.929 877.026Z"/><path fill="#F79B8F" d="M753.011 552.181C770.898 572.692 789.422 573.576 809.128 554.707L809.075 600.923C809.045 604.238 809.343 612.017 808.453 614.843C805.765 645.947 773.099 671.008 742.798 669.137C737.255 668.794 728.945 665.059 723.407 665.304L722.337 666.656C727.685 672.837 750.317 672.491 758.167 671.689C758.166 684.012 758.924 695.728 758.478 708.363C757.761 728.627 736.453 739.938 718.073 736.016C692.793 730.622 695.739 701.821 695.863 681.662L696.124 645.975C696.155 641.426 696.601 632.957 694.283 629.241C676.57 626.748 662.015 621.569 668.466 599.113C673.922 582.464 691.968 585.305 705.159 586.766C730.759 589.602 745.553 574.097 753.011 552.181Z"/><path fill="#F16871" d="M808.453 614.843C803.775 615.971 803.397 618.545 797.507 618.694C785.247 619.556 778.598 604.076 788.199 596.587C797.253 589.525 803.288 593.522 809.075 600.923C809.045 604.238 809.343 612.017 808.453 614.843Z"/><path fill="#F16871" d="M711.256 593.078C734.446 594.029 735.145 615.513 715.397 621.062C692.867 620.563 692.108 600.052 711.256 593.078Z"/><path fill="#0A0512" d="M737.94 617.505C742.175 619.693 741.687 620.811 744.607 623.394C751.369 629.377 760.052 629.35 768.039 626.37C769.308 625.897 769.745 627.753 769.69 629.094C769.051 629.343 768.415 629.6 767.782 629.864C757.181 634.239 739.048 630.447 737.94 617.505Z"/><path fill="#060608" d="M785.661 578.532C788.5 577.534 791.614 579.001 792.652 581.826C793.69 584.65 792.267 587.784 789.458 588.863C787.605 589.574 785.512 589.232 783.982 587.968C782.451 586.704 781.72 584.714 782.068 582.76C782.415 580.806 783.788 579.19 785.661 578.532Z"/><path fill="#0A0512" d="M680.439 601.34C683.942 601.253 688.683 600.602 692.02 602.168C692.775 602.507 693.184 603.888 692.415 604.437C690.337 605.918 686.582 603.035 684.859 605.016C684.779 606.253 686.905 610.276 687.534 611.742C687.847 612.715 688.247 613.823 686.897 614.115C683.968 613.104 682.492 607.862 680.869 605.602C679.851 604.184 677.758 605.57 677.035 604.005C676.001 601.769 679.072 601.614 680.439 601.34Z"/><path fill="#060608" d="M741.503 587.698C743.671 586.41 746.472 587.111 747.776 589.27C749.08 591.428 748.399 594.234 746.249 595.554C744.079 596.886 741.238 596.196 739.921 594.016C738.604 591.836 739.314 589 741.503 587.698Z"/><path fill="#0A0512" d="M767.157 594.837C772.317 600.053 772.46 610.602 762.714 613.246C761.811 608.152 764.825 610.738 766.284 607.807C769.073 602.207 762.888 600.263 767.157 594.837Z"/><path fill="#F8FAFC" d="M702.491 1648.76L703.477 1649.85C711.659 1691.82 736.568 1701.8 770.344 1721.35L829.138 1755.6L906.661 1801.01C930.149 1814.69 952.947 1828.9 978.707 1837.99C1020.14 1852.61 1067.43 1845.09 1093.96 1807.8C1092.29 1821.46 1089.53 1828.22 1083.05 1840.02C1055.08 1882.09 1004.27 1888.39 960.11 1868.57C943.151 1860.96 926.569 1850.36 910.402 1841.04L829.017 1794.17L756.626 1752.49C724.432 1733.92 685.336 1718.01 693.798 1672.33C695.444 1663.44 698.643 1656.88 702.491 1648.76Z"/><path fill="#E9C46A" d="M612.935 744.417C630.635 743.103 648.932 749.606 662.693 760.626C677.507 772.361 686.966 789.571 688.932 808.367C692.754 847.431 653.584 863.842 621.249 866.643C610.848 867.141 600.431 866.099 590.335 863.553C571.473 858.617 554.976 848.817 545.046 831.689C544.688 807.505 544.855 789.794 561.467 769.9C575.074 753.606 592.123 746.142 612.935 744.417Z"/><path fill="#E9C46A" d="M938.629 872.914C958.736 925.831 1046.49 930.52 1091.06 912.245C1094.92 910.662 1098.75 908.977 1102.54 907.219C1104.23 915.522 1104.91 916.903 1110.34 922.969L1111.05 923.746C1105.16 931.066 1100.18 934.5 1101.34 945.389C1101.88 950.491 1107 955.114 1109.83 959.745C1105.21 965.524 1099.9 971.469 1100.61 978.709C1100.08 986.851 1114.1 990.709 1107.68 996.945C1103.46 1001.04 1100.63 1011.83 1101.82 1017.24C1104.71 1030.34 1120.31 1030.27 1131.08 1029.54C1113.13 1060.68 1082.99 1076.27 1047.54 1077.65C1058.26 1056.11 1047.53 1061.67 1045.88 1049.14C1050.57 1044.36 1057.64 1038.18 1057.27 1030.79C1056.97 1024.69 1049.52 1018.99 1049.16 1015.38C1048.94 1013.21 1056.66 1004.1 1056.87 998.764C1057.21 990.522 1048.65 986.601 1047.21 981.571C1046.02 977.414 1061.95 962.901 1045.48 951.705C1042.64 949.774 1038.76 948.606 1035.34 948.512C1026.83 948.279 1017.33 950.391 1008.82 951.427C984.011 954.447 958.653 958.801 933.744 960.425C933.739 937.562 932.557 900.781 933.947 878.83L935.56 878.227C936.336 874.966 936.132 875.099 938.629 872.914Z"/><path fill="#F8FAFC" d="M1460.53 1574.72C1466.26 1630.24 1415.83 1658.56 1367.41 1662.32C1351.7 1663.53 1336.83 1663.25 1321.11 1663.22L1252.55 1663.08L1165.69 1663.21C1149.58 1663.25 1133.5 1663.46 1117.39 1663.07C1096.84 1662.58 1083.03 1653.38 1073.68 1635.3C1069.57 1625.36 1067.93 1615.19 1066.17 1604.64C1090.96 1631.09 1117.38 1628.18 1150.8 1627.9C1164.32 1627.79 1178.13 1627.77 1191.65 1627.78L1291.86 1627.96C1351.15 1627.91 1425.67 1633.29 1460.53 1574.72Z"/><path fill="#44E2A0" d="M897.809 712.198C899.719 714.353 935.832 824.167 938.944 834.924C927.261 854.452 930.528 879.542 930.627 902.733C899.452 917.291 878.775 935.154 857.83 961.937L852.077 969.85C848.403 952.434 841.218 933.417 838.366 916.701C836.934 908.305 845.458 877.881 847.558 867.697C887.97 828.837 892.64 782.077 865.944 733.502C867.376 733.323 868.803 733.105 870.223 732.848C883.444 730.5 890.577 722.419 897.809 712.198Z"/><path fill="#F8FAFC" d="M1034.47 1729.17C1039.96 1730.54 1044.52 1735.04 1049.41 1737.7C1142.16 1788.27 1071.3 1856.12 992.841 1838.71C966.837 1832.22 949.777 1822 927.079 1808.54C955.671 1761.72 981.838 1742.03 1034.47 1729.17Z"/><path fill="#F8FAFC" d="M1384.75 1503.88C1412.39 1505.96 1450.21 1513.4 1459.13 1543.38C1471.63 1585.4 1423.59 1608.9 1393.21 1618.13C1367.41 1624.76 1348.06 1624.37 1321.91 1624.39C1324.97 1572.57 1336.43 1530.82 1384.75 1503.88Z"/><path fill="#F8FAFC" d="M1197.22 1326.01C1199.75 1328.88 1207.97 1356.67 1209.63 1361.9C1180.51 1383.86 1173.44 1402.87 1135.4 1413.05C1099.7 1422.6 1075.03 1426.33 1038.05 1420.84C1034.64 1420.39 1029.12 1419.09 1025.58 1418.37C1024.69 1414.5 1023.43 1410.27 1022.38 1406.4C1027.73 1395.25 1032.98 1384.04 1038.12 1372.78C1100 1375.02 1146.56 1362.18 1197.22 1326.01Z"/><path fill="#F8FAFC" d="M804.417 1441.8C852.771 1484.51 906.935 1504.79 971.37 1504.9C967.118 1513.97 961.934 1525.98 956.444 1534.32C955.441 1535.84 951.248 1534.73 947.816 1534.92L945.784 1535.04C936.969 1537.08 910.523 1544.54 903.249 1543.85C860.299 1539.77 813.629 1511.63 784.243 1482.31C791.219 1469.32 797.903 1455.11 804.417 1441.8Z"/><path fill="#44E2A0" d="M1160.67 1407.13C1161.1 1410.7 1157.75 1416.22 1158.17 1419.42C1160.12 1434.14 1168.59 1450.57 1174.42 1464.07C1134.32 1485.21 1092.91 1488.41 1050.73 1471.85C1044.21 1468.68 1041.58 1466.89 1035.6 1462.74C1032.62 1449.17 1029.76 1436.01 1026.21 1422.57C1080.68 1429.21 1107.89 1428.85 1160.67 1407.13Z"/><path fill="#44E2A0" d="M782.871 1485.55C813.65 1516.55 852.882 1537.8 895.668 1546.64C886.859 1552.04 884.251 1554.94 882.166 1565.72C879.784 1578.02 877.9 1590.49 875.877 1602.86L875.075 1603.98C871.13 1604.21 865.985 1601.81 862.031 1600.91C818.434 1591.05 777.124 1566.49 765.986 1520.52C771.268 1508.68 777.107 1497.16 782.871 1485.55Z"/><path fill="#E9C46A" d="M823.915 646.447C835.963 646.11 847.898 648.861 858.583 654.44C881.832 666.695 889.05 683.478 896.471 706.869C891.635 715.766 872.795 737.85 862.191 727.818C838.727 696.806 817.603 679.543 784.292 659.895C788.663 656.444 792.336 652.97 796.409 649.203L823.915 646.447Z"/><path fill="#F79B8F" d="M1137.77 850.418C1141.66 850.741 1144.7 851.102 1148.51 851.88C1153.12 852.723 1157.51 854.509 1161.4 857.125C1185.22 873.025 1178.01 906.046 1153.42 916.732C1142.96 921.278 1136.48 920.904 1125.55 921.993C1116.75 922.239 1108.35 921.384 1106.79 910.508C1106.13 906.105 1107.39 901.633 1110.23 898.211C1120.02 886.542 1137.14 890.883 1150.5 888.195C1152.29 887.836 1155.72 888.372 1155.48 885.406C1152.93 883.576 1142.29 885.585 1139.11 885.967C1138.41 872.502 1139.57 864.148 1137.77 850.418Z"/><path fill="#E9C46A" d="M933.947 878.83C933.568 868.048 932.763 858.2 936.319 847.806C942.12 830.849 956.838 817.692 972.888 810.366C1007.47 794.581 1052.44 794.061 1088 807.066C1105.67 813.531 1124.23 825.506 1132.15 843.237C1134.76 849.083 1136.56 857.18 1134.18 863.381C1131.97 862.353 1130.77 853.486 1129.45 850.463C1101.93 787.569 929.366 794.671 938.629 872.914C936.132 875.099 936.336 874.966 935.56 878.227L933.947 878.83Z"/><path fill="#F79B8F" d="M1173.51 903.781C1185.35 916.659 1166.63 951.137 1148.17 953.368C1137.68 954.636 1121.29 960.645 1111.07 955.602C1105.96 950.294 1104.16 946.745 1105.01 939.003C1107.02 920.662 1127.69 926.178 1140.5 923.949C1156.91 921.093 1163.37 915.884 1173.51 903.781Z"/><path fill="#F79B8F" d="M1172.97 938.805C1184.08 949.579 1168.69 982.236 1152.01 986.272C1139.15 989.383 1125.18 994.712 1111.56 989.956C1100.85 979.036 1103.07 963.058 1118.48 960.939C1142.89 957.582 1156.27 960.316 1172.97 938.805Z"/><path fill="#F79B8F" d="M1173.52 972.72C1188.02 1006.23 1142.91 1035.85 1111.04 1024.33C1107.7 1020.8 1105.18 1017.43 1105.08 1012.51C1104.9 992.076 1122.38 995.449 1137 993.797C1153.91 991.888 1162.91 985.267 1173.52 972.72Z"/><path fill="#264653" d="M1282.84 1472.46C1288.1 1474.52 1294.89 1478.68 1300.41 1481.47C1291.94 1490.24 1284.39 1500.05 1275.53 1508.29C1275.25 1508.56 1268.97 1506.03 1268.33 1505.81C1267.58 1505.83 1253.01 1507.78 1255.64 1508.1C1254.33 1506.14 1267.58 1493.85 1268.35 1491.94L1268.3 1491.85C1268.29 1491.15 1273.42 1484.86 1274.18 1484.12C1277.03 1481.35 1280.82 1475.59 1282.84 1472.46Z"/><path fill="#F8FAFC" d="M835.491 922.705C837.53 924.651 847.484 963.937 849.01 969.589C844.975 970.045 841.363 970.242 837.24 970.78C832.422 971.206 828.984 971.532 824.139 972.184L827.223 958.512C829.924 946.631 832.905 934.57 835.491 922.705Z"/><path fill="#F79B8F" d="M899.27 1638.53C903.852 1636.63 909.104 1637.34 913.015 1640.39C916.927 1643.44 918.893 1648.36 918.163 1653.27C917.432 1658.18 914.118 1662.31 909.487 1664.09C902.456 1666.79 894.559 1663.34 891.764 1656.35C888.969 1649.36 892.313 1641.41 899.27 1638.53Z"/><path fill="#060608" d="M902.034 1643.46C906.17 1642.1 910.632 1644.29 912.1 1648.39C913.568 1652.48 911.508 1657 907.453 1658.58C904.729 1659.65 901.643 1659.14 899.395 1657.27C897.147 1655.4 896.093 1652.46 896.641 1649.59C897.19 1646.72 899.255 1644.37 902.034 1643.46Z"/><path fill="#264653" d="M903.172 1646.65C905.465 1646.16 907.773 1647.43 908.594 1649.62C909.416 1651.82 908.504 1654.29 906.451 1655.42C904.826 1656.32 902.825 1656.18 901.337 1655.07C899.848 1653.96 899.145 1652.09 899.541 1650.27C899.936 1648.46 901.356 1647.04 903.172 1646.65Z"/><path fill="#F79B8F" d="M949.227 1714.14C952.307 1713.71 953.488 1713.2 956.571 1713.45L958.261 1713.73C970.692 1715.59 971.936 1734.05 962.386 1738.75C946.589 1746.52 931.885 1726.46 949.227 1714.14Z"/><path fill="#060608" d="M956.093 1719.11C960.121 1719.5 963.198 1722.87 963.21 1726.92C963.223 1730.97 960.167 1734.37 956.142 1734.78C952.116 1735.2 948.431 1732.49 947.618 1728.53C946.805 1724.57 949.128 1720.63 952.991 1719.43C953.993 1719.11 955.048 1719.01 956.093 1719.11Z"/><path fill="#264653" d="M953.631 1722.78C955.272 1722.25 957.071 1722.64 958.342 1723.81C959.612 1724.97 960.157 1726.73 959.768 1728.41C959.379 1730.09 958.116 1731.43 956.462 1731.92C953.951 1732.66 951.31 1731.25 950.535 1728.75C949.761 1726.25 951.14 1723.59 953.631 1722.78Z"/><path fill="#E76F51" d="M949.227 1714.14C952.307 1713.71 953.488 1713.2 956.571 1713.45C960.488 1719.29 956.117 1715.11 956.093 1719.11C955.048 1719.01 953.993 1719.11 952.991 1719.43C951.832 1717.28 950.959 1715.79 949.227 1714.14Z"/><path fill="#E76F51" d="M888.266 1602.5C895.379 1599.88 903.268 1603.55 905.832 1610.69C908.396 1617.82 904.652 1625.68 897.495 1628.18C890.424 1630.66 882.682 1626.97 880.148 1619.92C877.615 1612.87 881.239 1605.09 888.266 1602.5Z"/><path fill="#060608" d="M891.382 1607.37C895.625 1606.48 899.815 1609.08 900.915 1613.27C902.015 1617.46 899.638 1621.78 895.508 1623.1C892.641 1624.01 889.505 1623.26 887.352 1621.16C885.2 1619.06 884.382 1615.94 885.225 1613.05C886.069 1610.17 888.436 1607.98 891.382 1607.37Z"/><path fill="#264653" d="M893.343 1610.65C895.868 1610.84 897.833 1612.92 897.874 1615.45C897.915 1617.98 896.018 1620.13 893.5 1620.39C891.659 1620.59 889.866 1619.73 888.868 1618.17C887.869 1616.61 887.837 1614.62 888.785 1613.03C889.732 1611.44 891.497 1610.52 893.343 1610.65Z"/><path fill="#E76F51" d="M922.628 1675.48C929.831 1673.34 937.41 1677.43 939.564 1684.63C941.719 1691.83 937.635 1699.42 930.439 1701.58C923.226 1703.75 915.621 1699.66 913.462 1692.44C911.303 1685.23 915.409 1677.63 922.628 1675.48Z"/><path fill="#060608" d="M923.07 1681.49C926.894 1679.42 931.677 1680.79 933.822 1684.57C935.966 1688.36 934.683 1693.16 930.935 1695.38C928.451 1696.84 925.368 1696.85 922.873 1695.41C920.378 1693.96 918.858 1691.28 918.899 1688.39C918.94 1685.51 920.535 1682.87 923.07 1681.49Z"/><path fill="#264653" d="M924.443 1684.54C926.022 1683.65 927.964 1683.73 929.468 1684.74C930.972 1685.74 931.783 1687.51 931.567 1689.31C931.352 1691.1 930.146 1692.63 928.447 1693.25C926.091 1694.11 923.468 1693.02 922.42 1690.74C921.373 1688.46 922.253 1685.76 924.443 1684.54Z"/><path fill="#F79B8F" d="M1224.35 1485.12C1229.13 1484.09 1234.09 1485.71 1237.34 1489.36C1240.59 1493.01 1241.64 1498.13 1240.07 1502.76C1238.51 1507.39 1234.58 1510.83 1229.78 1511.75C1222.46 1513.17 1215.37 1508.43 1213.88 1501.12C1212.39 1493.82 1217.06 1486.68 1224.35 1485.12Z"/><path fill="#060608" d="M1223.75 1491.53C1226.24 1490.2 1229.26 1490.33 1231.64 1491.87C1234.01 1493.4 1235.37 1496.1 1235.19 1498.92C1235 1501.74 1233.31 1504.24 1230.76 1505.46C1226.93 1507.28 1222.35 1505.71 1220.44 1501.92C1218.54 1498.13 1220 1493.52 1223.75 1491.53Z"/><path fill="#264653" d="M1225.53 1493.8C1228.07 1492.74 1230.98 1493.94 1232.04 1496.47C1233.11 1499.01 1231.91 1501.92 1229.38 1502.99C1226.84 1504.06 1223.92 1502.86 1222.85 1500.32C1221.79 1497.78 1222.99 1494.86 1225.53 1493.8Z"/><path fill="#F79B8F" d="M1261.47 1509.52C1268.48 1507.18 1276.08 1510.9 1278.54 1517.88C1281 1524.85 1277.43 1532.51 1270.5 1535.1C1265.9 1536.82 1260.74 1535.93 1256.99 1532.76C1253.24 1529.59 1251.49 1524.64 1252.42 1519.83C1253.35 1515.01 1256.81 1511.06 1261.47 1509.52Z"/><path fill="#060608" d="M1261.96 1515.56C1265.75 1513.43 1270.54 1514.74 1272.73 1518.49C1274.92 1522.25 1273.69 1527.06 1269.97 1529.31C1267.51 1530.8 1264.44 1530.84 1261.94 1529.43C1259.43 1528.01 1257.89 1525.36 1257.89 1522.49C1257.9 1519.61 1259.45 1516.96 1261.96 1515.56Z"/><path fill="#264653" d="M1263.92 1518.5C1265.58 1517.68 1267.55 1517.86 1269.03 1518.96C1270.52 1520.07 1271.25 1521.91 1270.93 1523.74C1270.61 1525.56 1269.3 1527.04 1267.53 1527.58C1265.09 1528.33 1262.48 1527.07 1261.54 1524.7C1260.6 1522.33 1261.63 1519.63 1263.92 1518.5Z"/><path fill="#F79B8F" d="M1194.85 1453.41C1202.15 1452.23 1209.04 1457.14 1210.31 1464.43C1211.59 1471.71 1206.77 1478.67 1199.5 1480.04C1194.72 1480.94 1189.81 1479.19 1186.67 1475.47C1183.53 1471.75 1182.63 1466.62 1184.33 1462.05C1186.02 1457.48 1190.04 1454.18 1194.85 1453.41Z"/><path fill="#060608" d="M1194.49 1459.45C1198.66 1458.11 1203.13 1460.39 1204.49 1464.55C1205.86 1468.71 1203.61 1473.19 1199.46 1474.58C1195.27 1475.99 1190.73 1473.72 1189.35 1469.52C1187.98 1465.32 1190.28 1460.8 1194.49 1459.45Z"/><path fill="#264653" d="M1195.3 1462.66C1197.72 1461.73 1200.44 1462.83 1201.53 1465.19C1202.61 1467.54 1201.68 1470.33 1199.4 1471.56C1197.79 1472.43 1195.83 1472.33 1194.32 1471.3C1192.8 1470.28 1191.98 1468.5 1192.19 1466.68C1192.4 1464.86 1193.6 1463.31 1195.3 1462.66Z"/><path fill="#F79B8F" d="M1299.9 1524.97C1303.27 1524.04 1306.88 1524.46 1309.95 1526.15C1315.58 1529.25 1318.22 1535.9 1316.26 1542.02C1314.3 1548.14 1308.28 1552.02 1301.9 1551.27C1295.52 1550.52 1290.56 1545.35 1290.07 1538.94C1289.58 1532.54 1293.7 1526.68 1299.9 1524.97Z"/><path fill="#060608" d="M1304.15 1529.94C1304.74 1529.99 1305.32 1530.11 1305.89 1530.29C1309.91 1531.56 1312.24 1535.76 1311.19 1539.85C1310.14 1543.95 1306.08 1546.5 1301.93 1545.68C1297.79 1544.86 1295.01 1540.95 1295.6 1536.77C1296.18 1532.58 1299.94 1529.59 1304.15 1529.94Z"/><path fill="#264653" d="M1301.17 1533.57C1303.61 1532.53 1306.42 1533.66 1307.45 1536.1C1308.48 1538.54 1307.32 1541.35 1304.88 1542.37C1302.45 1543.37 1299.67 1542.23 1298.65 1539.81C1297.63 1537.39 1298.76 1534.6 1301.17 1533.57Z"/><path fill="#E76F51" d="M1299.9 1524.97C1303.27 1524.04 1306.88 1524.46 1309.95 1526.15C1307.15 1528.04 1307.78 1527.56 1305.89 1530.29C1305.32 1530.11 1304.74 1529.99 1304.15 1529.94C1303.07 1527.69 1301.7 1526.68 1299.9 1524.97Z"/><path fill="#264653" d="M1262.26 1457.75C1264.1 1458.03 1264.34 1457.96 1265.77 1459.2C1268 1461.16 1270.19 1463.17 1272.32 1465.23C1267.39 1471.25 1262.51 1477.31 1257.68 1483.42C1254.08 1488.07 1250.04 1492.47 1246.45 1497.07C1245.97 1497.35 1246.17 1497.28 1245.85 1497.36C1246.31 1497.6 1238.99 1486.76 1237.39 1485.02C1245.78 1475.81 1253.41 1466.59 1262.26 1457.75Z"/><path fill="#E76F51" d="M870.235 1105.29C889.661 1103.4 909.209 1099.63 928.771 1097.65C930.53 1102.8 931.792 1107.56 933.317 1112.74L931.336 1112.57C913.88 1110.96 887.94 1108.51 870.909 1107.94C870.516 1106.75 870.444 1106.53 870.235 1105.29Z"/><path fill="#264653" d="M961.282 1663.9C963.373 1664.15 963.684 1664.85 964.501 1665.89C966.814 1668.84 969.973 1672.34 964.727 1672.72C963.192 1675.36 960.514 1675.31 958.271 1677.54C957.644 1678.17 954.296 1680.25 953.753 1680.84C952.555 1682.14 952.388 1681.89 951.365 1682.7C949.031 1684.55 947.166 1686.2 944.576 1688.03C942.527 1687.31 943.154 1687.12 942.973 1685.04C942.531 1679.96 939.136 1677.63 935.948 1674.43C944.711 1670.63 952.336 1667.4 961.282 1663.9Z"/><path fill="#F8FAFC" d="M1275.46 1466.74C1278.69 1468.8 1281.97 1469.51 1279.44 1472.36C1269.51 1483.57 1260.68 1496.1 1250.48 1507.03C1248.68 1505.89 1247.04 1504.55 1245.22 1503.45L1275.46 1466.74Z"/><path fill="#F8FAFC" d="M1256.33 1448.92C1257.17 1449.76 1260.93 1453.76 1259.69 1454.84C1253.81 1459.95 1238.6 1481.61 1232.49 1483.7C1231.41 1483.27 1227.66 1482.08 1227.08 1481.52C1232.29 1474.09 1249.6 1456.31 1256.33 1448.92Z"/><path fill="#F8FAFC" d="M969.907 1673.85C970.662 1674.26 970.932 1674.35 971.539 1674.85C972.337 1675.5 974.678 1677.34 974.644 1678.65C974.616 1679.72 947.225 1697.94 944.04 1700.12C941.085 1702.39 939.328 1700.72 940.081 1698.54C942.855 1690.52 963.39 1678.23 969.907 1673.85Z"/><path fill="#F8FAFC" d="M1303.61 1482.67C1305.24 1483.48 1307.54 1483.96 1308.21 1485.65C1307.99 1487.01 1285.01 1513.49 1282.48 1516.39C1281.24 1515.36 1278.75 1513.04 1278.44 1511.42C1279.03 1509.79 1300.84 1485.6 1303.61 1482.67Z"/><path fill="#F8FAFC" d="M1328.36 1492.51L1330.13 1493.11C1331.47 1493.57 1333.82 1493.86 1334.18 1495.54C1333.26 1498.23 1315.13 1520.43 1312.35 1523.96C1311.87 1523.7 1311.39 1523.46 1310.9 1523.22C1309.95 1522.77 1307.79 1522.07 1307.36 1520.92C1307.18 1520.44 1326.33 1495.41 1328.36 1492.51Z"/><path fill="#44E2A0" d="M929.336 943.752C931.832 946.102 930.743 956.851 930.742 960.705C923.72 961.623 916.458 962.596 909.461 963.642C908.771 963.459 908.981 963.563 908.7 963.372C908.436 960.942 926.579 946.046 929.336 943.752Z"/><path fill="#F8FAFC" d="M955.999 1654.94C957.637 1655.72 960.561 1658.97 959.695 1659.57C953.29 1664.04 936.426 1669.71 929.778 1673.29C928.974 1673.02 922.267 1671.44 924.208 1670.01C930.34 1665.48 949.527 1657.54 955.999 1654.94Z"/><path fill="#F8FAFC" d="M995.133 1699.16C995.308 1699.29 1000.53 1702.93 999.649 1703.73C996.543 1706.56 991.228 1708.7 987.389 1710.65C982.087 1713.34 976.788 1716.22 971.452 1718.82C968.742 1718.7 966.767 1714.7 967.069 1714.48C975.469 1708.48 985.864 1704.43 995.133 1699.16Z"/><path fill="#F8FAFC" d="M944.681 1634.05C948.929 1633.61 947.295 1638.98 947.575 1638.84C940.484 1642.5 931.148 1644.88 923.387 1647.42C919.707 1647.89 920.02 1643.01 920.044 1643C927.221 1639.05 936.717 1637.01 944.681 1634.05Z"/><path fill="#F4A261" d="M1134.77 868.897C1136.53 870.866 1135.91 882.781 1135.14 885.467C1134.84 886.502 1128.42 886.969 1127.38 887.109C1125.44 884.605 1132.99 872.803 1134.77 868.897Z"/><path fill="#B5544A" d="M870.909 1107.94C868.408 1107.98 866.374 1107.89 863.884 1107.44L863.109 1106.5L862.667 1106.77C862.618 1106.74 862.569 1106.71 862.52 1106.68C862.938 1106.06 869.613 1105.36 870.235 1105.29C870.444 1106.53 870.516 1106.75 870.909 1107.94Z"/><path fill="#0A0512" d="M1719.83 584.902C1739.18 596.059 1758.63 607.019 1778.2 617.782L1778.19 846.013L1579.29 966.063L1571.53 961.907L1521.82 933.797L1521.81 705.33C1535.54 697.773 1646.2 630.087 1648.71 627.012C1652.4 622.478 1648.41 613.043 1655.71 607.689C1658.08 605.953 1659.5 605.666 1662.34 605.939C1666.01 608.983 1664.83 612.09 1667.86 615.881C1681.04 609.464 1706.34 592.999 1719.83 584.902Z"/><path fill="#BFAAF9" d="M1772.96 622.785L1774.19 622.997C1776.09 627.278 1775.07 829.052 1775.06 844.088L1583.09 960.145L1581.75 960.048C1580.02 956.806 1581 763.574 1581.06 740.36C1642.74 700.233 1712.37 663.288 1772.96 622.785Z"/><path fill="#0A0512" d="M1754.38 653.95L1755.14 654.107C1757.64 659.685 1755.55 809.139 1756.82 829.326L1599.63 924.817L1599.59 913.5C1599.7 904.784 1599.53 895.739 1599.49 886.992C1594.18 883.446 1590.85 881.67 1585.21 878.752L1585.59 766.208C1590.12 763.038 1594.73 760.823 1599.63 758.317L1599.79 748.458C1650.26 717.679 1705.04 685.97 1754.38 653.95Z"/><path fill="#BFAAF9" d="M1724.31 676.991C1727.71 681.62 1721.37 695.23 1728.7 701.639C1733.79 702.645 1745.86 693.889 1752.92 690.62C1753.39 736.392 1753.55 782.167 1753.41 827.942C1705.71 857.038 1655.45 886.149 1608.43 915.743L1602.78 919.039L1602.74 887.823C1606.73 890.432 1610.75 893.007 1614.78 895.547C1618.11 893.669 1621.77 891.805 1625.16 889.993C1625.47 854.831 1626.53 811.341 1625.79 776.716C1621.98 773.352 1608.82 766.294 1602.88 762.316L1602.59 750.852C1617.82 740.882 1635.06 730.841 1650.71 721.23C1674.86 706.396 1699.67 690.872 1724.31 676.991Z"/><path fill="#0A0512" d="M1705.81 732.178C1714.16 732.498 1724.6 737.809 1731.33 742.485C1745.31 752.658 1741.32 775.432 1734.36 788.442C1723.52 808.693 1711.06 824.095 1688.66 831.341C1682.08 831.694 1673.78 831.24 1669.45 825.565C1667.47 821.978 1662.9 820.242 1660.34 817.653C1641.53 798.639 1663.53 761.906 1678.71 747.334C1687.62 738.781 1694.28 734.51 1705.81 732.178Z"/><path fill="#744DEE" d="M1715.97 742.953C1736.11 741.932 1739.67 756.362 1736.16 773.512C1735.15 778.564 1733.42 783.443 1731.01 787.996C1721.75 805.911 1708.54 821.504 1688.99 827.958C1668.79 828.439 1664.78 818.525 1667.86 799.488C1668.83 793.781 1670.58 788.234 1673.06 783.005C1681.69 764.543 1696.33 749.282 1715.97 742.953Z"/><path fill="#0A0512" d="M1707.67 752.849C1719.44 753.82 1718.28 754.999 1723.91 765.017C1729.05 774.158 1727.57 778.089 1723.49 789.524C1720.21 798.744 1715.38 803.894 1707.21 809.955L1706.48 810.505C1687.44 817.251 1687.84 804.41 1687.65 789.717C1695.97 783.813 1693 787.723 1694.32 777.04C1695.59 766.754 1702.32 760.734 1707.67 752.849Z"/><path fill="#744DEE" d="M1722.22 772.954C1726.32 774.621 1720.69 791.82 1718.1 791.465C1711.49 790.556 1716.1 796.735 1715.11 798.062C1709.45 805.618 1705.57 807.44 1696.81 809.711C1692.21 806.388 1691.3 805.147 1690.86 799.027C1690.69 796.766 1690.09 791.938 1692.42 790.477C1702.17 784.383 1712.35 778.847 1722.22 772.954Z"/><path fill="#BFAAF9" d="M1707.54 758.65C1710.6 761.501 1710 772.036 1710.13 776.302C1706.26 778.621 1702.73 780.673 1698.9 783.119C1691.32 782.607 1705.18 761.49 1707.54 758.65Z"/><path fill="#744DEE" d="M1710.67 756.136C1716.65 757.536 1724.13 765.77 1720.59 770.44C1719.06 771.315 1715.04 773.999 1713.47 774.102C1712.79 773.359 1711.2 758.771 1710.67 756.136Z"/><path fill="#744DEE" d="M1661.3 814.392C1650.25 795.611 1661.54 771.345 1674.62 756.309C1687.05 742.024 1699.07 730.641 1718.26 738.811C1685.54 750.03 1661.57 779.062 1664.3 814.723C1664.48 815.307 1664.81 815.895 1664.49 816.476C1663.32 816.841 1662.06 815.165 1661.3 814.392Z"/><path fill="#673ED9" d="M1661.3 814.392C1662.54 814.484 1662.99 814.538 1664.3 814.723C1664.48 815.307 1664.81 815.895 1664.49 816.476C1663.32 816.841 1662.06 815.165 1661.3 814.392Z"/><path fill="#200735" d="M1588.94 769.298C1594.77 771.626 1606.37 779.88 1613.2 783.606C1612.42 819.05 1612.56 853.468 1612.27 888.834L1611.36 889.511C1607.49 889.137 1595.37 879.834 1588.51 876.464C1588.37 840.741 1588.51 805.018 1588.94 769.298Z"/><path fill="#744DEE" d="M1621.84 779.98C1622.46 784.45 1622.17 790.513 1622.12 795.194C1621.79 825.281 1622.41 855.385 1621.92 885.463C1621.87 888.436 1618.94 889.645 1616.74 891.269C1613.99 878.722 1616.96 803.991 1616.16 785.998C1616.04 783.484 1619.53 781.699 1621.84 779.98Z"/><path fill="#673ED9" d="M1744.67 674.849C1746.38 677.805 1745.63 685.426 1745.49 689.108C1741.84 691.734 1739.82 693.259 1736.3 696.14C1733.96 694.015 1735.04 685.152 1735.09 681.714C1738.05 679.745 1740.3 678.144 1743.11 676.012L1744.67 674.849Z"/><path fill="#200735" d="M1739.55 681.226C1745.01 683.32 1742.68 688.329 1740.32 692.276C1734.87 687.671 1740.48 690.274 1739.69 682.901L1739.55 681.226Z"/><path fill="#673ED9" d="M1592.8 763.88L1594 763.845C1601.44 763.554 1612.4 772.757 1618.95 776.521C1619.47 776.823 1618.61 779.618 1618.66 779.407C1613.73 780.528 1612.74 780.556 1608.59 776.948C1605.16 773.966 1592.97 769.157 1592.87 765.214L1592.8 763.88Z"/><path fill="#744DEE" d="M1736.14 669.943C1747.93 671.178 1735.67 676.957 1732.34 678.555C1732.32 684.345 1732.26 690.135 1732.17 695.925C1726.74 701.541 1727.92 687.287 1727.97 685.5C1728.33 673.592 1726.81 675.097 1736.14 669.943Z"/><path fill="#BFAAF9" d="M1751.88 659.084C1752.79 661.048 1753.71 672.503 1751.52 673.182C1750.06 672.736 1748.9 671.477 1747.63 670.666C1736.57 665.62 1741.55 665.91 1751.88 659.084Z"/><path fill="#B666EC" d="M1748.6 675.246C1754.06 678.532 1752.32 683.619 1751.55 689.89C1749.54 689.112 1748.28 688.977 1748.31 686.594C1748.34 682.81 1748.44 679.027 1748.6 675.246Z"/><path fill="#744DEE" d="M1719.83 588.834C1735.67 596.813 1757.05 609.667 1773.4 618.644C1758.47 629.622 1724.76 648.853 1708.1 658.972L1579.58 736.968C1575.62 735.657 1531.72 709.667 1526.58 706.375C1590.78 666.843 1655.2 627.662 1719.83 588.834Z"/><path fill="#744DEE" d="M1525.07 709.372C1540.96 720.163 1560.88 729.531 1577.88 740.736L1577.55 961.376C1563.36 954.72 1539.09 939.937 1524.79 931.816C1524.53 858.4 1524.07 782.59 1525.07 709.372Z"/><path fill="#F8FAFC" d="M1658.71 608.327C1669.32 610.522 1661.41 619.27 1656.61 623.395C1645.3 626.756 1656.68 610.887 1658.71 608.327Z"/><path fill="#F8FAFC" d="M780.857 156.592C781.681 157.426 782.287 158.133 783.048 159.021C785.55 160.84 788.622 162.956 791.445 164.173C793.683 164.127 794.587 164.134 796.803 164.409C797.577 177.069 795.179 228.589 797.642 236.521C801.895 237.194 805.272 238.633 809.282 240.275L809.364 262.775C804.848 265.557 801.262 268.122 796.995 271.23C794.95 272.668 794.876 272.862 793.159 274.791C789 273.301 785.165 271.293 781.379 269.028C771.451 274.196 760.506 281.634 751.076 287.905C737.396 297 721.008 305.893 708.166 316.027C707.708 321.111 707.913 323.27 708.153 328.228C702.387 332.479 696.353 336.383 690.409 340.425C686.675 338.565 683.873 337.709 680.329 335.408C674.244 338.469 655.563 351.438 649.217 355.542C638.594 362.414 621.3 372.76 612.042 380.424C611.821 377.878 611.611 377.139 612.071 374.695C611.573 368.68 608.681 369.732 602.893 367.457C599.177 364.306 602.056 294.832 600.849 283.859C598.222 284.575 597.757 284.499 594.957 284.633L592.433 282.387L592.546 278.025C592.656 274.09 592.677 270.609 592.928 266.635C596.635 263.749 601.06 259.5 605.523 258.031C610.4 256.427 609.843 264.112 611.336 264.738C613.64 264.23 667.478 229.533 674.362 225.47C675.464 221.129 674.442 207.515 674.269 202.533C683.768 196.786 693.286 190.991 702.617 184.969C714.317 189.582 715.027 186.674 715.455 197.838C717.105 197.439 776.844 159.722 780.857 156.592Z"/><path fill="#F8FAFC" d="M592.928 266.635C596.635 263.749 601.06 259.5 605.523 258.031C610.4 256.427 609.843 264.112 611.336 264.738C613.64 264.23 667.478 229.533 674.362 225.47C674.499 227.559 674.189 228.027 673.684 230.167L674.376 231.459C675.735 234.188 676.82 234.108 679.249 235.673C686.928 240.624 685.403 240.129 693.623 235.088C695.192 252.551 693.615 284.641 694.016 303.81C695.085 303.243 696.166 302.699 697.259 302.178C704.77 305.55 707.308 304.117 708.023 311.255C708.219 313.148 708.191 314.146 708.166 316.027C707.708 321.111 707.913 323.27 708.153 328.228C702.387 332.479 696.353 336.383 690.409 340.425C686.675 338.565 683.873 337.709 680.329 335.408C674.244 338.469 655.563 351.438 649.217 355.542C638.594 362.414 621.3 372.76 612.042 380.424C611.821 377.878 611.611 377.139 612.071 374.695C611.573 368.68 608.681 369.732 602.893 367.457C599.177 364.306 602.056 294.832 600.849 283.859C598.222 284.575 597.757 284.499 594.957 284.633L592.433 282.387L592.546 278.025C592.656 274.09 592.677 270.609 592.928 266.635Z"/><path fill="#060608" d="M697.259 302.178C704.77 305.55 707.308 304.117 708.023 311.255C708.219 313.148 708.191 314.146 708.166 316.027C707.708 321.111 707.913 323.27 708.153 328.228C702.387 332.479 696.353 336.383 690.409 340.425C686.675 338.565 683.873 337.709 680.329 335.408C679.935 333.705 680.022 333.674 679.221 332.267C680.441 326.102 679.847 319.663 679.734 313.294C684.406 310.226 689.745 307.266 694.016 303.81C695.085 303.243 696.166 302.699 697.259 302.178Z"/><path fill="#F4F0ED" d="M703.813 308.095C706.094 312.026 705.096 322.11 705.248 327.196C700.181 330.392 695.808 333.616 690.815 336.833C688.629 334.915 689.664 321.281 689.583 317.456C690.13 317.084 690.681 316.718 691.234 316.357C695.582 313.516 699.289 310.8 703.813 308.095Z"/><path fill="#060608" d="M697.042 317.365C697.113 317.42 698.04 317.974 698.006 318.121C697.822 318.906 700.589 319.999 700.606 319.711C700.421 322.824 698.512 322.727 697.355 328.259C692.262 323.31 696.384 326.977 692.452 325.784C691.729 325.002 695.965 320.205 697.042 317.365Z"/><path fill="#B9E5CA" d="M682.814 316.178C689.804 319.115 687.084 328.28 686.964 335.768C679.941 332.955 682.771 323.848 682.814 316.178Z"/><path fill="#B9E5CA" d="M696.395 305.809C704.707 305.751 688.995 314.881 687.704 315.809L686.927 315.373C681.999 312.36 693.179 307.851 696.395 305.809Z"/><path fill="#1A4E50" d="M592.928 266.635C596.635 263.749 601.06 259.5 605.523 258.031C610.4 256.427 609.843 264.112 611.336 264.738C613.64 264.23 667.478 229.533 674.362 225.47C674.499 227.559 674.189 228.027 673.684 230.167C672.997 230.307 611.192 267.795 610.825 269.999C609.113 280.277 612.511 273.373 600.849 283.859C598.222 284.575 597.757 284.499 594.957 284.633L592.433 282.387L592.546 278.025C592.656 274.09 592.677 270.609 592.928 266.635Z"/><path fill="#14595D" d="M605.942 260.865C608.729 264.397 607.538 270.664 607.357 275.565C604.284 277.572 601.497 278.885 598.527 280.825C594.595 280.204 596.229 272.283 596.191 268.388C599.75 265.422 602.194 263.614 605.942 260.865Z"/><path fill="#1A4E50" d="M612.071 374.695C615.992 374.858 669.587 336.83 679.221 332.267C680.022 333.674 679.935 333.705 680.329 335.408C674.244 338.469 655.563 351.438 649.217 355.542C638.594 362.414 621.3 372.76 612.042 380.424C611.821 377.878 611.611 377.139 612.071 374.695Z"/><path fill="#060608" d="M702.617 184.969C714.317 189.582 715.027 186.674 715.455 197.838C714.974 206.014 714.197 213.009 715.314 221.339C710.181 224.794 702.365 230.033 697.027 232.939C695.88 233.653 694.752 234.344 693.623 235.088C685.403 240.129 686.928 240.624 679.249 235.673C676.82 234.108 675.735 234.188 674.376 231.459L673.684 230.167C674.189 228.027 674.499 227.559 674.362 225.47C675.464 221.129 674.442 207.515 674.269 202.533C683.768 196.786 693.286 190.991 702.617 184.969Z"/><path fill="#14595D" d="M710.812 192.83C713.722 195.196 712.489 214.795 712.484 219.738C708.86 222.154 698.672 228.666 694.946 230.771C692.013 232.409 689.118 234.114 686.264 235.886C684.104 233.615 685.103 213.833 685.103 208.792C693.561 203.347 702.32 198.227 710.812 192.83Z"/><path fill="#060608" d="M698.018 205.563C701.345 208.195 698.957 210.127 700.767 210.972C702.925 210.728 704.134 207.071 706.474 208.464C705.919 212.991 698.467 213.141 700.225 217.209C700.14 218.455 700.198 219.69 699.901 220.95C699.773 221.494 699.114 223.061 698.252 222.689C697.522 222.202 697.332 221.304 697.12 220.5C696.911 219.709 696.865 217.899 695.561 218.211C695.201 218.351 694.842 218.492 694.483 218.633C694.098 218.69 693.729 218.469 693.485 218.189C691.8 215.896 696.582 214.221 696.864 212.894C697.396 210.39 697.49 208.122 698.018 205.563Z"/><path fill="#D3E6CE" d="M702.919 188.12C703.466 188.406 707.931 190.303 707.125 190.981C700.544 196.518 690.611 201.28 683.482 206.185C682.021 205.854 679.082 205.248 678.926 203.342C679.425 202.576 700.072 189.834 702.919 188.12Z"/><path fill="#B9E5CA" d="M677.175 206.255C682.893 208.576 682.065 209.301 682.019 215.326C681.974 221.399 681.782 227.51 681.751 233.581C679.149 232.281 677.317 231.231 677.269 228.052C677.168 220.787 677.136 213.521 677.175 206.255Z"/><path fill="#060608" d="M797.642 236.521C801.895 237.194 805.272 238.633 809.282 240.275L809.364 262.775C804.848 265.557 801.262 268.122 796.995 271.23C794.95 272.668 794.876 272.862 793.159 274.791C789 273.301 785.165 271.293 781.379 269.028C781.977 261.756 782.734 260.277 781.233 252.448C780.381 244.165 787.563 244.589 793.822 239.322C795.913 238.213 795.864 238.206 797.642 236.521Z"/><path fill="#F8FAFC" d="M790.805 252.562C794.113 249.835 802.231 243.564 806.08 242.244C807.491 248.219 806.745 254.967 807.004 261.363C805.389 262.151 803.889 262.961 802.307 263.806C801.04 264.873 800.375 265.355 798.958 266.211C786.725 274.62 790.831 267.813 790.805 252.562Z"/><path fill="#F8FAFC" d="M803.256 255.182C806.344 256.964 805.805 257.906 807.004 261.363C805.389 262.151 803.889 262.961 802.307 263.806C801.04 264.873 800.375 265.355 798.958 266.211C797.873 264.352 797.842 264.196 797.073 262.057C798.119 262.087 797.775 261.859 798.392 261.035C799.749 257.268 799.762 257.483 803.256 255.182Z"/><path fill="#F4F0ED" d="M798.392 261.035C799.692 261.965 800.997 262.889 802.307 263.806C801.04 264.873 800.375 265.355 798.958 266.211C797.873 264.352 797.842 264.196 797.073 262.057C798.119 262.087 797.775 261.859 798.392 261.035Z"/><path fill="#060608" d="M797.073 262.057C796.264 257.771 795.826 260.574 794.238 259.163C794.239 259.411 797.83 251.919 798.271 251.88C799.074 252.438 798.937 253.507 799.58 254.21C800.153 254.334 800.222 254.317 800.827 254.235L802.913 253.948C803.191 254.606 803.05 254.203 803.256 255.182C799.762 257.483 799.749 257.268 798.392 261.035C797.775 261.859 798.119 262.087 797.073 262.057Z"/><path fill="#F4F0ED" d="M806.08 242.244C807.491 248.219 806.745 254.967 807.004 261.363C805.805 257.906 806.344 256.964 803.256 255.182C803.05 254.203 803.191 254.606 802.913 253.948C807.233 249.215 805.224 249.011 806.08 242.244Z"/><path fill="#DFEAE1" d="M783.944 250.441C790.662 254.034 788.143 261.808 787.907 269.508C781.726 265.969 783.996 257.685 783.944 250.441Z"/><path fill="#DFEAE1" d="M798.811 239.864C805.44 241.229 791.637 248.001 788.504 250.651C788.183 250.39 787.121 249.589 786.82 249.15C786.533 248.729 786.457 248.198 786.617 247.714C787.126 246.185 795.969 241.592 797.783 240.495L798.811 239.864Z"/><path fill="#1A4E50" d="M781.233 252.448C782.734 260.277 781.977 261.756 781.379 269.028C771.451 274.196 760.506 281.634 751.076 287.905C737.396 297 721.008 305.893 708.166 316.027C708.191 314.146 708.219 313.148 708.023 311.255C730.303 298.214 759.004 278.973 781.05 264.666C781.147 260.549 781.091 256.627 781.233 252.448Z"/><path fill="#1A4E50" d="M780.857 156.592C781.681 157.426 782.287 158.133 783.048 159.021C760.787 172.782 737.62 188.284 715.669 202.599C715.659 207.733 716.034 216.569 715.314 221.339C714.197 213.009 714.974 206.014 715.455 197.838C717.105 197.439 776.844 159.722 780.857 156.592Z"/><path fill="#14595D" d="M791.445 164.173C793.683 164.127 794.587 164.134 796.803 164.409C797.577 177.069 795.179 228.589 797.642 236.521C795.864 238.206 795.913 238.213 793.822 239.322L793.919 187.338C793.923 181.591 795.685 166.779 791.445 164.173Z"/><path fill="#14595D" d="M693.623 235.088C694.752 234.344 695.88 233.653 697.027 232.939L697.034 278.958C697.026 284.306 696.655 297.653 697.259 302.178C696.166 302.699 695.085 303.243 694.016 303.81C693.615 284.641 695.192 252.551 693.623 235.088Z"/><path fill="#F8FAFC" d="M487.731 464.708C492.156 466.934 495.98 469.25 500.87 468.459C502.504 467.099 502.946 466.686 504.759 465.614C505.338 498.306 504.565 531.708 504.927 564.478C514.311 566.937 519.685 572.295 515.608 581.39C507.102 600.364 501.942 602.077 488.149 591.925C465.016 607.276 441.596 620.639 418.28 636.957C418.311 641.881 418.617 645.056 418.905 649.825C412.458 653.883 406.343 658.19 399.962 662.334C396.45 660.669 392.537 659.125 389.28 657.136C390.118 651.948 390.348 640.932 389.597 635.702C389.438 632.226 401.189 626.731 404.322 624.745C403.767 596.269 405.434 561.273 403.999 533.801C396.507 537.887 395.642 534.415 387.163 530.161C387.173 521.801 387.34 513.034 387.13 504.727C390.857 501.975 400.736 495.134 404.795 493.252C406.512 492.226 407.352 491.69 408.971 490.45C421.161 494.123 420.701 493.038 420.863 503.934L420.907 507.895L487.731 464.708Z"/><path fill="#060608" d="M408.971 490.45C421.161 494.123 420.701 493.038 420.863 503.934L420.907 507.895L420.272 522.863C416.21 525.607 411.774 528.366 407.817 531.158C405.719 532.366 405.679 532.33 403.999 533.801C396.507 537.887 395.642 534.415 387.163 530.161C387.173 521.801 387.34 513.034 387.13 504.727C390.857 501.975 400.736 495.134 404.795 493.252C406.512 492.226 407.352 491.69 408.971 490.45Z"/><path fill="#F4F0ED" d="M415.76 497.825C419.774 499.301 417.751 516.697 417.702 521.176C411.506 525.292 405.309 529.09 399.142 533.152C395.773 530.818 397.289 514.703 397.28 510.031C403.559 505.982 409.539 501.908 415.76 497.825Z"/><path fill="#060608" d="M406.845 507.488C407.75 509.205 408.171 511.57 408.668 512.415C410.064 512.796 413.161 509.876 413.71 511.579C413.29 513.691 410.961 514.167 409.423 515.503C407.551 517.128 407.901 520.688 407.495 523.156C405.3 521.074 406.473 519.068 405.392 518.357C396.125 521.23 403.063 516.708 405.394 514.371C406.131 513.632 406.554 508.919 406.845 507.488Z"/><path fill="#B9E5CA" d="M389.504 507.751C390.031 507.98 393.816 509.43 393.969 509.969C395.406 515.05 394.685 525.314 394.722 530.672C386.471 527.322 390.174 517.34 389.504 507.751Z"/><path fill="#B9E5CA" d="M408.766 493.762C408.84 493.812 412.193 495.936 411.622 496.435C407.029 500.454 400.66 504.363 395.459 507.542C394.349 506.946 392.476 506.31 392.243 504.85C392.711 503.558 406.232 495.45 408.766 493.762Z"/><path fill="#112F2F" d="M486.61 588.781L488.149 591.925C465.016 607.276 441.596 620.639 418.28 636.957C418.311 641.881 418.617 645.056 418.905 649.825C412.458 653.883 406.343 658.19 399.962 662.334C396.45 660.669 392.537 659.125 389.28 657.136C390.118 651.948 390.348 640.932 389.597 635.702C389.438 632.226 401.189 626.731 404.322 624.745C405.73 623.651 406.429 623.159 407.926 622.173C413.495 624.669 419.862 625.299 418.623 631.267C419.14 632.6 422.223 630.335 421.971 630.524C441.548 615.786 467.618 603.329 486.61 588.781Z"/><path fill="#F8FAFC" d="M409.074 632.272C411.213 630.622 413.871 628.853 416.134 627.223C415.783 635.157 415.616 640.418 415.934 648.279C413.879 649.664 399.238 661.261 399.267 657.11C399.276 655.749 399.212 650.788 399.226 649.017C399.309 645.371 399.129 644.233 398.636 640.613C400.145 637.605 401.407 637.175 404.288 635.071C404.949 636.212 405.631 637.266 406.337 638.379C406.681 637.92 407.025 637.461 407.369 637.001L409.074 632.272Z"/><path fill="#060608" d="M398.636 640.613C400.145 637.605 401.407 637.175 404.288 635.071C404.949 636.212 405.631 637.266 406.337 638.379C406.681 637.92 407.025 637.461 407.369 637.001C410.105 641.605 410.081 638.42 413.334 639.721C413.343 640.066 413.352 640.411 413.361 640.756C411.605 642.385 408.809 642.931 408.753 645.001C408.72 646.236 409.04 647.703 407.477 647.956C405.115 646.807 406.877 645.537 403.471 646.627L401.809 645.776C400.021 643.409 399.905 643.236 398.636 640.613Z"/><path fill="#F8FAFC" d="M398.636 640.613C400.145 637.605 401.407 637.175 404.288 635.071C404.949 636.212 405.631 637.266 406.337 638.379C405.823 643.105 405.645 642.58 401.809 645.776C400.021 643.409 399.905 643.236 398.636 640.613Z"/><path fill="#F4F0ED" d="M398.636 640.613C399.905 643.236 400.021 643.409 401.809 645.776L403.471 646.627C401.207 647.508 400.895 647.433 399.226 649.017C399.309 645.371 399.129 644.233 398.636 640.613Z"/><path fill="#D3E6CE" d="M392.119 636.618C393.695 637.624 394.934 638.431 396.452 639.549C396.41 645.088 396.543 650.91 396.566 656.476C389.032 657.255 392.065 642.431 392.119 636.618Z"/><path fill="#D3E6CE" d="M407.528 625.839C414.605 626.568 399.799 634.82 398.026 636.179C390.629 633.22 403.978 627.976 407.528 625.839Z"/><path fill="#F4F0ED" d="M409.074 632.272L407.369 637.001C407.025 637.461 406.681 637.92 406.337 638.379C405.631 637.266 404.949 636.212 404.288 635.071C405.979 634.175 407.441 633.267 409.074 632.272Z"/><path fill="#060608" d="M501.611 563.973C502.715 564.16 503.818 564.392 504.927 564.478C514.311 566.937 519.685 572.295 515.608 581.39C507.102 600.364 501.942 602.077 488.149 591.925L486.61 588.781L486.564 587.557C486.105 577.534 491.837 567.26 501.611 563.973Z"/><path fill="#F8FAFC" d="M507.442 569.531C521.782 571.041 508.433 589.88 502.444 595.089C487.464 594.979 500.043 575.446 505.928 570.781L507.442 569.531Z"/><path fill="#D3E6CE" d="M500.447 566.491C501.47 566.67 504.311 566.799 505.024 567.609C504.737 568.261 503.933 568.874 503.399 569.291C496.065 575.016 494.088 581.56 492.409 590.396C489.733 591.054 488.979 587.519 489.151 585.512C489.917 576.607 494.097 572.046 500.447 566.491Z"/><path fill="#14595D" d="M403.999 533.801C405.679 532.33 405.719 532.366 407.817 531.158C407.287 557.337 408.028 583.62 407.663 609.813C407.61 613.593 407.426 618.495 407.926 622.173C406.429 623.159 405.73 623.651 404.322 624.745C403.767 596.269 405.434 561.273 403.999 533.801Z"/><path fill="#14595D" d="M504.759 465.614C505.338 498.306 504.565 531.708 504.927 564.478C503.818 564.392 502.715 564.16 501.611 563.973C502.099 556.93 501.82 471.01 500.87 468.459C502.504 467.099 502.946 466.686 504.759 465.614Z"/><path fill="#F8FAFC" d="M520.997 321.718C542.135 308.203 570.701 289.433 592.546 278.025L592.433 282.387L594.957 284.633C597.757 284.499 598.222 284.575 600.849 283.859C602.056 294.832 599.177 364.306 602.893 367.457C608.681 369.732 611.573 368.68 612.071 374.695C611.611 377.139 611.821 377.878 612.042 380.424C611.971 384.793 612.074 388.831 612.149 393.184C605.898 396.78 600.695 400.412 594.765 404.451C590.645 402.295 588.342 401.371 584.122 399.585C578.223 402.686 565.699 411.474 559.766 415.395L515.976 444.214C516.293 442.222 516.552 440.493 517.004 438.517C515.055 433.909 509.693 432.557 504.903 430.454C504.506 403.569 504.832 375.841 504.81 348.887C502.754 349.736 502.001 350.39 500.182 351.705C495.734 349.719 491.194 347.389 486.776 345.253C486.932 336.74 486.912 328.225 486.717 319.713C494.15 315.298 501.64 310.237 508.972 306.103C522.043 312.153 520.722 308.245 520.997 321.718Z"/><path fill="#060608" d="M486.717 319.713C494.15 315.298 501.64 310.237 508.972 306.103C522.043 312.153 520.722 308.245 520.997 321.718L521.087 325.998C521.064 330.079 521.089 334.16 521.163 338.24C515.715 341.764 510.272 345.41 504.81 348.887C502.754 349.736 502.001 350.39 500.182 351.705C495.734 349.719 491.194 347.389 486.776 345.253C486.932 336.74 486.912 328.225 486.717 319.713Z"/><path fill="#F4F0ED" d="M516.614 313.824C519.762 316.114 518.735 332.373 518.672 336.942C512.169 340.607 506.29 344.192 499.904 348.055C496.534 345.694 498.172 330.638 498.197 325.884C504.434 322.016 510.575 317.995 516.614 313.824Z"/><path fill="#060608" d="M507.205 323.714C509.639 326.18 508.123 326.756 509.51 328.492C510.629 327.887 512.117 326.631 512.994 328.009C512.866 328.906 512.338 329.628 511.612 330.115C507.711 332.733 508.746 334.694 507.951 339.397C505.838 337.733 505.768 335.576 504.932 335.227C501.918 336 499.223 335.895 502.733 333.181C507.985 329.12 505.779 329.899 507.205 323.714Z"/><path fill="#B9E5CA" d="M489.643 322.302C495.675 325.559 495.832 324.73 495.488 331.994C495.274 336.521 495.299 341.468 495.296 346.021C492.244 344.681 489.314 344.205 489.362 340.602C489.445 334.472 489.411 328.439 489.643 322.302Z"/><path fill="#DFEAE1" d="M508.452 308.748C509.92 309.428 514.156 310.585 514.121 312.588C513.058 313.602 499.465 321.569 497.126 323.034C497.095 323.017 491.567 320.597 492.404 319.953C497.435 316.082 503.172 312.719 508.452 308.748Z"/><path fill="#060608" d="M602.893 367.457C608.681 369.732 611.573 368.68 612.071 374.695C611.611 377.139 611.821 377.878 612.042 380.424C611.971 384.793 612.074 388.831 612.149 393.184C605.898 396.78 600.695 400.412 594.765 404.451C590.645 402.295 588.342 401.371 584.122 399.585C585.651 392.051 585.674 385.267 584.486 377.532C589.008 374.708 593.347 371.771 597.832 368.905C599.506 368.377 601.193 367.894 602.893 367.457Z"/><path fill="#F8FAFC" d="M594.011 382.079C598.645 379.178 601.655 376.868 606.008 373.963L609.096 371.927C609.218 377.385 610.307 387.696 607.968 392.017C605.918 393.645 603.925 395.02 601.834 396.587C589.769 405.29 594.067 393.743 594.011 382.079Z"/><path fill="#060608" d="M602.117 392.228C601.483 391.436 600.043 388.862 599.096 389.502C598.39 389.978 597.125 390.92 596.235 390.647C594.81 388.7 600.452 386.871 600.017 384.481C599.846 383.545 600.22 381.555 601.473 381.361C605.11 387.101 609.406 380.679 603.518 388.126C602.909 389.534 602.94 390.911 602.117 392.228Z"/><path fill="#F4F0ED" d="M603.518 388.126C604.673 391.522 604.359 391.435 607.968 392.017C605.918 393.645 603.925 395.02 601.834 396.587L602.117 392.228C602.94 390.911 602.909 389.534 603.518 388.126Z"/><path fill="#DFEAE1" d="M590.523 382.182C591.187 386.288 591.696 394.67 590.898 398.675L589.313 399.099C585.801 395.472 585.868 383.141 588.422 381.69C589.123 381.854 589.823 382.018 590.523 382.182Z"/><path fill="#D3E6CE" d="M589.312 378.863C590.897 375.305 602.608 367.702 604.069 371.463C603.567 372.882 593.871 378.509 592.077 379.381C591.156 379.208 590.234 379.036 589.312 378.863Z"/><path fill="#596056" d="M589.312 378.863C590.234 379.036 591.156 379.208 592.077 379.381C591.775 379.538 591.481 379.711 591.171 379.852C590.901 379.975 590.609 380.049 590.338 380.174C590.129 380.27 589.839 380.473 589.807 380.733C589.75 381.198 590.41 381.999 590.523 382.182C589.823 382.018 589.123 381.854 588.422 381.69L589.312 378.863Z"/><path fill="#1A4E50" d="M584.19 395.263C584.202 390.25 583.835 382.151 584.486 377.532C585.674 385.267 585.651 392.051 584.122 399.585C578.223 402.686 565.699 411.474 559.766 415.395L515.976 444.214C516.293 442.222 516.552 440.493 517.004 438.517C519.644 438.088 577.597 399.858 584.19 395.263Z"/><path fill="#1A4E50" d="M520.997 321.718C542.135 308.203 570.701 289.433 592.546 278.025L592.433 282.387C587.81 284.25 576.852 291.476 571.902 294.474C554.8 304.717 537.86 315.226 521.087 325.998L520.997 321.718Z"/><path fill="#14595D" d="M600.849 283.859C602.056 294.832 599.177 364.306 602.893 367.457C601.193 367.894 599.506 368.377 597.832 368.905C597.751 350.517 598.307 305.968 597.313 285.771C597.287 285.251 595.395 284.768 594.957 284.633C597.757 284.499 598.222 284.575 600.849 283.859Z"/><path fill="#112F2F" d="M500.182 351.705C502.001 350.39 502.754 349.736 504.81 348.887C504.832 375.841 504.506 403.569 504.903 430.454C509.693 432.557 515.055 433.909 517.004 438.517C516.552 440.493 516.293 442.222 515.976 444.214L515.97 457.394C513.105 459.387 507.02 463.367 504.759 465.614C502.946 466.686 502.504 467.099 500.87 468.459C495.98 469.25 492.156 466.934 487.731 464.708L420.907 507.895L420.863 503.934C442.258 490.876 466.549 474.842 487.511 461.004L487.512 442.248C492.192 439.23 497.106 436.251 501.844 433.293C501.163 412.526 502.384 375.032 501.429 352.964C501.013 352.544 500.598 352.125 500.182 351.705Z"/><path fill="#F8FAFC" d="M497.417 446.495L498.019 446.081C502.576 442.89 508.611 438.887 513.262 435.816C513.307 441.312 513.266 446.208 513.052 451.677C513.445 457.759 510.633 457.718 505.603 461.042C492.686 469.266 497.423 460.404 497.417 446.495Z"/><path fill="#F4F0ED" d="M508.837 447.695C511.966 443.933 511.839 448.345 513.052 451.677C513.445 457.759 510.633 457.718 505.603 461.042L504.105 456.995C505.845 455.758 509.13 449.712 508.837 447.695Z"/><path fill="#060608" d="M504.105 456.995C504.102 456.986 503.741 454.909 503.244 454.602C502.728 454.283 502.401 454.372 501.868 454.543C500.848 454.87 501.094 455.103 500.279 454.968C499.532 453.733 500.65 452.498 501.368 452.279C505.462 451.028 502.661 447.061 504.638 445.898C507.075 447.411 505.966 447.509 508.837 447.695C509.13 449.712 505.845 455.758 504.105 456.995Z"/><path fill="#B9E5CA" d="M490.411 444.683C497.803 448.357 494.958 455.897 494.574 464.769C487.348 461.79 489.597 452.43 490.411 444.683Z"/><path fill="#DFEAE1" d="M505.174 433.975C511.3 435.899 498.332 442.151 495.599 444.098C495.057 443.883 492.702 443.045 492.361 442.498C493.634 440.916 502.85 435.482 505.174 433.975Z"/><path fill="#060608" d="M793.219 346.144C794.442 345.981 795.571 345.84 796.788 345.625C798.985 346.427 805.224 348.513 806.994 349.823C818.268 358.165 802.927 390.359 787.806 382.582C770.285 373.572 780.819 353.766 793.219 346.144Z"/><path fill="#F8FAFC" d="M802.406 351.69C809.471 352.77 808.361 356.984 807.336 363.021C805.805 372.027 800.82 376.809 793.745 381.928C779.279 375.564 793.76 357.541 802.406 351.69Z"/><path fill="#060608" d="M797.958 362.174C801.733 365.702 804.895 362.581 802.858 365.244L802.983 365.146C801.448 366.848 799.742 368.377 798.172 370.051C798.107 370.887 798.093 371.062 797.779 371.737C797.695 371.694 797.61 371.651 797.525 371.608C797.009 369.435 793.619 371.922 793.557 370.076C793.531 369.284 794.875 368.006 794.94 367.948C796.809 366.285 797.216 364.386 797.958 362.174Z"/><path fill="#DFEAE1" d="M797.829 347.795C802.511 351.023 796.59 351.097 792.568 356.003C786.21 363.757 785.676 367.97 784.521 377.334C776.333 367.402 786.846 351.374 796.182 348.367L797.829 347.795Z"/><path fill="#060608" d="M368.467 222.168C380.397 227.26 385.315 227.539 381.82 241.642C381.093 243.165 380.789 243.742 379.929 245.188C376.607 251.335 375.718 252.78 369.84 256.92C368.494 257.614 367.244 258.247 365.936 259.02C343.096 250.007 352.184 232.237 368.467 222.168Z"/><path fill="#F8FAFC" d="M374.513 228.574C388.322 231.005 373.835 250.294 367.221 255.357C353.953 255.481 366.476 234.814 372.963 229.808L374.513 228.574Z"/><path fill="#B9E5CA" d="M367.878 225.423C368.404 225.6 371.496 226.155 370.344 227.215C362.189 234.72 359.818 240.508 358.324 251.395C348.844 244.731 361.831 230.08 367.878 225.423Z"/><path fill="#060608" d="M310.046 722.177C305.924 719.88 296.84 715.371 297.37 710.437C299.541 690.244 310.05 679.231 326.785 692.588C326.913 695.397 326.928 698.198 326.957 701.01C326.694 712.162 318.628 717.572 310.046 722.177Z"/><path fill="#F8FAFC" d="M319.703 691.507C331.586 697.597 320.113 713.317 311.626 718.262C307.104 717.383 305.853 716.266 306.461 711.376C307.653 701.782 312.429 696.81 319.703 691.507Z"/><path fill="#D3E6CE" d="M312.66 688.461C313.473 688.772 315.251 689.074 315.614 690.01C314.57 693.902 305.535 695.768 303.403 714.983C293.39 708.462 306.571 693.245 312.66 688.461Z"/><path fill="#060608" d="M398.46 252.564L399.718 251.674C406.984 246.287 417.229 248.806 420.507 255.727C425.596 266.473 412.59 277.781 407.746 282.975C406.672 282.999 405.479 283.213 404.404 283.364C388.984 277.623 386.912 268.783 396.606 254.962C397.582 253.892 397.642 253.788 398.46 252.564Z"/><path fill="#F8FAFC" d="M413.718 253.596C426.001 258.618 412.578 275.582 405.609 280.635C399.966 279.066 399.725 276.161 400.974 270.479C402.836 262.002 406.964 258.204 413.718 253.596Z"/><path fill="#B9E5CA" d="M404.441 251.511C405.523 251.522 407.793 251.202 408.64 252.257C408.603 253.278 403.052 257.801 401.299 261.302C398.145 267.597 398.185 268.564 397.123 275.394C388.493 277.831 397.043 257.755 402.922 252.816L404.441 251.511Z"/><path fill="#060608" d="M780.857 156.592C779.187 122.071 812.613 126.562 810.866 142.99C810.015 150.525 806.088 157.373 800.013 161.912C798.914 162.723 797.859 163.547 796.803 164.409C794.587 164.134 793.683 164.127 791.445 164.173C788.622 162.956 785.55 160.84 783.048 159.021C782.287 158.133 781.681 157.426 780.857 156.592Z"/><path fill="#F8FAFC" d="M802.426 135.711C807.795 136.367 808.678 139.637 807.613 144.733C805.805 153.384 801.159 157.981 794.121 162.281C781.56 158.132 795.424 140.531 802.426 135.711Z"/><path fill="#DFEAE1" d="M795.36 132.68C796.268 132.831 798.353 132.981 798.987 133.662C797.565 138.285 788.48 138.718 786.482 157.491C777.074 151.221 789.302 137.184 795.36 132.68Z"/><path fill="#1A4E50" d="M398.884 380.516C399.599 382.749 399.57 382.655 400.958 384.622C391.318 387.672 333.818 425.58 322.387 433.018C320.217 437.338 312.645 453.148 308.045 438.015C306.639 433.39 320.058 427.956 313.01 422.911C308.929 419.99 309.228 418.07 310.781 413.448C312.599 408.18 320.223 402.402 323.048 409.615C324.227 414.549 320.46 418.53 318.102 422.049C315.907 425.323 320.106 430.635 322.934 428.831C346.349 413.737 369.92 398.886 393.643 384.28C395.898 382.902 396.99 382.348 398.884 380.516Z"/><path fill="#14595D" d="M316.988 408.512C323.582 411.312 319.112 415.949 315.78 419.308C308.915 420.751 315.495 410.859 316.453 409.362L316.988 408.512Z"/><path fill="#1A4E50" d="M299.926 378.259C315.858 368.314 343.893 348.738 358.701 340.735C359.751 341.953 360.334 342.93 361.225 344.281C355.038 346.048 312.541 374.215 303.221 379.937C303.115 391.221 303.089 403.522 303.372 414.518C303.411 416.014 310.733 418.205 305.955 426.53C304.118 429.733 300.734 433.905 296.533 431.469C295.49 430.869 294.761 429.842 294.537 428.66C293.383 422.799 297.851 419.598 300.093 416.318C300.047 403.737 300.186 390.796 299.926 378.259Z"/><path fill="#060608" d="M1047.14 650.456C1048.17 651.253 1049.39 652 1049.03 652.969C1044.1 666.392 1039.84 674.017 1042.77 688.626C1047.61 712.683 1068.96 723.457 1074.7 747.373C1078.04 761.284 1076.01 773.15 1069.06 785.343C1067.81 783.138 1067.24 783.593 1068.23 781.29C1093.07 723.781 1011.82 710.117 1047.14 650.456Z"/><path fill="#060608" d="M937.869 239.24C938.514 239.676 939.159 240.112 939.804 240.549C941.237 241.449 939.148 245.963 942.513 245.549C947.872 244.888 949.6 250.681 944.335 250.552C942.437 250.506 935.493 249.217 935.193 252.649C934.932 258.59 945.65 257.885 948.066 263.453C950.589 269.269 946.879 273.729 941.37 275.487C939.96 275.937 939.155 280.38 938.352 282.189C937.858 281.517 936.524 279.923 936.551 278.944C936.691 273.905 931.499 276.525 928.797 274.178C927.807 273.318 928.765 270.563 929.566 270.013C931.7 269.828 940.172 273.595 942.086 269.463C945.401 262.334 930.175 261.48 929.264 256.937C926.737 244.332 935.117 252.183 937.869 239.24Z"/><path fill="#060608" d="M1013.24 314.261C1016.09 315.628 1015.8 315.314 1016.27 318.469C1016.79 322 1023.53 319.333 1023.29 323.567C1023.19 325.299 1021.36 326.012 1019.96 325.399C1018.31 324.688 1013.11 324.344 1011.62 325.399C1006.7 328.897 1014.17 332.071 1016 332.755C1021.52 335.179 1025.86 337.932 1023.93 344.467C1022.2 350.282 1017.27 347.856 1015.76 352.458C1015.29 353.889 1014.84 355.595 1014.34 357.028C1013.69 356.318 1012.11 354.738 1012.2 353.466C1012.62 347.375 1002.57 352.322 1004.19 346.021C1004.94 343.13 1014.34 347.826 1016.61 345.318C1023.58 337.626 1007.54 337.375 1005.46 332.583C1002.99 326.442 1004.82 322.7 1010.41 320.565C1012.47 319.779 1012.78 315.99 1013.24 314.261Z"/><path fill="#060608" d="M1598.15 544.457C1598.39 544.576 1600.03 545.324 1600.1 545.459C1602.8 550.462 1599.17 550.385 1606.63 551.422C1608.01 551.614 1608.55 554.208 1607.84 555.097C1605.73 557.77 1600.51 553.512 1597.15 556.098C1596.53 556.582 1596.03 556.63 1595.8 557.645C1595.21 563.75 1607.09 562.642 1608.88 568.974C1610.4 572.629 1608.46 578.36 1604.25 579.334C1598.58 580.648 1601.96 582.989 1599.48 586.078L1598.65 587.194C1594.96 580.337 1598.99 581.633 1591.41 580.034C1586.69 579.037 1589.02 572.208 1595.03 575.915C1596.44 576.786 1603.16 576.11 1603.28 573.002C1603.67 566.998 1593.49 568.067 1590.85 563.021C1588.01 557.581 1590.68 552.803 1596.37 550.912C1597.72 550.433 1597.87 546.002 1598.15 544.457Z"/><path fill="#060608" d="M1210.87 267.466C1215.4 271.009 1210.32 273.755 1219.02 275.001C1220.58 275.224 1220.62 278.32 1219.67 278.713C1218.3 279.554 1208.3 276.439 1208.04 280.599C1207.59 288.008 1233.81 289.865 1216.55 303.137C1210.15 308.059 1215.27 303.257 1211.48 311.021C1209.23 307.157 1210.64 304.016 1206.52 303.723C1204.83 303.603 1201.25 302.891 1201.6 300.501C1202.4 294.947 1211.99 302.831 1214.81 297.871C1217.86 290.649 1205.52 291.299 1202.87 286.033C1200.82 281.962 1202.12 277.362 1206.03 275.596C1210.94 273.384 1209.82 272.039 1210.87 267.466Z"/><path fill="#060608" d="M1081.68 245.43C1085.38 247.373 1083.34 247.159 1084.6 250.7C1086.23 252.7 1092.93 251.572 1090.83 256.097C1089.89 258.116 1080.29 254.044 1079.22 257.615C1076.99 265.066 1089.47 263.662 1091.85 269.522C1092.92 272.138 1093.04 273.323 1092.12 276.002C1090.83 281.546 1084.76 279.728 1083.4 283.961C1082.61 287.341 1083.39 285.954 1081.52 288.938C1080.62 286.598 1080.39 284.331 1079.88 282.599C1078.3 280.615 1070.99 281.94 1071.92 277.971C1072.64 274.893 1076.49 276.916 1078.99 277.163C1081.07 278.021 1086.06 277.422 1086.6 274.375C1087.63 268.374 1075.49 268.489 1073.74 263.622C1069.45 251.64 1078.65 257.922 1081.68 245.43Z"/><path fill="#060608" d="M892.024 318.331C893.287 319.086 894.934 319.91 894.842 321.505C894.56 326.458 898.973 323.935 901.203 326.432C902.64 328.233 901.177 330.713 899.016 329.802C892.899 327.225 883.748 331.996 892.841 336.358C898.78 339.207 905.604 340.884 902.438 349.329C901.076 352.96 898.226 353.201 895.227 354.646C894.325 355.08 893.729 359.646 892.498 361.826C891.98 360.881 890.927 359.12 890.99 357.932C891.816 352.397 883.891 355.272 883.254 352.801C881.832 347.293 885.516 348.995 887.544 349.645C889.795 350.326 896.943 350.998 896.878 346.923C897.518 340.726 878.895 340.235 883.561 330.677C887.977 321.631 889.047 331.192 892.024 318.331Z"/><path fill="#1A4E50" d="M407.892 385.159C407.886 395.591 407.079 487.317 408.971 490.45C407.352 491.69 406.512 492.226 404.795 493.252C404.76 467.079 405.072 415.296 404.251 387.206C403.618 386.549 402.986 385.893 402.353 385.236C405.076 385.459 405.264 385.532 407.892 385.159Z"/><path fill="#060608" d="M1446.59 383.326C1451.51 385.779 1446.77 388.084 1451.43 389.237C1453.58 389.766 1456.17 390.155 1455.89 393.013C1453.86 395.871 1447.04 391.771 1444.4 394.536C1437.43 401.819 1470.8 405.078 1451.98 418.182C1444.89 423.121 1451.11 418.218 1446.61 425.778C1444.38 421.584 1445.63 419.337 1439.46 418.512C1437.53 418.255 1435.84 415.12 1437.1 414.014C1439.68 411.734 1444.88 416.437 1448.55 414.586C1454.8 410.794 1449.36 406.404 1444.33 405.551C1439.36 404.924 1434.91 398.412 1437.85 393.99C1443.2 385.947 1444.03 394.716 1446.59 383.326Z"/><path fill="#060608" d="M1541.9 463.438C1542.44 463.848 1544.37 465.049 1544.09 466.495C1542.82 472.912 1553.55 467.627 1550.64 474.422C1548.55 475.621 1540.64 472.697 1538.95 475.923C1534.66 484.115 1560.46 481.926 1550.54 496.185C1549.05 498.318 1544.61 499.271 1544.27 500.219C1542.94 503.832 1544.64 503.017 1541.68 506.241C1541.59 506.031 1540.58 503.952 1540.56 503.385C1540.94 498.184 1533.54 500.293 1532.18 497.448C1530.18 493.263 1536.18 494.535 1537.49 494.909C1539.37 495.443 1546.36 495.77 1546.58 492.84C1547.11 485.862 1535.16 486.714 1532.93 481.045C1531.26 477.614 1533.26 472.434 1537.02 471.307C1541.83 469.866 1540.4 468.093 1541.9 463.438Z"/><path fill="#060608" d="M1333.87 351.167C1330.62 349.745 1326.5 350.017 1324.74 346.884L1324.87 345.182C1328.77 342.734 1336.04 347.937 1338.46 345.091C1345.97 336.274 1323.07 338.304 1325.63 326.998C1327.42 319.047 1333.83 323.294 1333.91 317.005C1333.93 315.094 1336.13 314.513 1336.88 315.602C1336.18 322.239 1343.79 319.41 1344.33 322.489C1345.47 329.041 1336.89 321.805 1332.91 325.473C1331.21 327.04 1330.44 327.532 1332.69 330.283C1342.14 334.864 1353.62 340.496 1339.9 349.488C1339.34 349.82 1338.77 350.152 1338.2 350.484L1333.87 351.167Z"/><path fill="#14595D" d="M404.404 283.364C405.479 283.213 406.672 282.999 407.746 282.975C408.851 299.702 406.898 349.005 408.273 368.373C408.287 368.577 409.368 368.779 409.504 368.81C407.413 369.453 406.405 369.782 404.413 370.681C405.162 353.893 404.285 334.527 404.608 317.497C404.734 310.837 405.143 289.459 404.404 283.364Z"/><path fill="#060608" d="M1013.78 695.236C1015.17 696.314 1016.34 696.89 1015.94 698.948C1010.75 725.425 1038.54 733.306 1038.88 758C1038.97 764.419 1037.86 774.529 1033.12 779.258L1031.97 780.449C1031.3 777.618 1031.08 777.25 1032.27 774.603C1048.7 737.776 1004.48 732.735 1013.78 695.236Z"/><path fill="#1A4E50" d="M389.597 635.702C390.348 640.932 390.118 651.948 389.28 657.136C383.418 659.184 337.03 690.491 328.18 696.542C328.009 696.659 327.393 698.959 327.465 699.011C327.471 699.015 326.959 701.001 326.957 701.01C326.928 698.198 326.913 695.397 326.785 692.588C339.913 685.886 374.507 661.828 389.058 652.605C389.138 646.497 389.198 641.833 389.597 635.702Z"/><path fill="#0A0512" d="M1418.21 461.722C1433.97 462.817 1425.27 477.087 1418.55 484.015C1403.56 483.607 1410.14 469.733 1416.94 463.011L1418.21 461.722Z"/><path fill="#F8FAFC" d="M1420.45 463.704C1428.22 468.812 1421.15 477.656 1416.49 482.585C1407.64 477.848 1415.65 468.414 1420.45 463.704Z"/><path fill="#0A0512" d="M1593.77 619.699C1608.26 624.617 1599.38 636.582 1590.74 642.597C1576.97 638.878 1585.78 625.046 1593.77 619.699Z"/><path fill="#F8FAFC" d="M1594.15 622.575C1604.02 625.487 1595.06 635.551 1590.83 639.926C1580.96 637.038 1589.75 626.579 1594.15 622.575Z"/><path fill="#0A0512" d="M1482.23 519.657C1498.59 520.67 1488.87 535.129 1481.78 541.826C1465.88 539.437 1475.44 526.809 1482.23 519.657Z"/><path fill="#F8FAFC" d="M1484.56 521.349C1493 526.123 1484.64 535.113 1479.82 539.48C1471.26 534.882 1480.05 525.641 1484.56 521.349Z"/><path fill="#0A0512" d="M1232.31 365.687C1245.95 366.715 1241.29 380.64 1235.14 386.99L1233.96 388.264C1219.77 387.032 1223.89 374.262 1231.01 367.038L1232.31 365.687Z"/><path fill="#F8FAFC" d="M1234.12 367.446C1242.52 371.306 1235.87 381.758 1231.77 386.615C1223.8 381.536 1229.1 372.754 1234.12 367.446Z"/><path fill="#0A0512" d="M1335.36 410.824C1350.49 412.934 1342.26 426.241 1335.5 433.293C1321.38 432.381 1327.26 418.056 1334.01 412.093L1335.36 410.824Z"/><path fill="#F8FAFC" d="M1337.24 412.596C1344.94 417.954 1338.79 426.127 1333.94 431.804C1325.11 427.01 1332.04 417.464 1337.24 412.596Z"/><path fill="#0A0512" d="M1132.94 337.515C1145.39 341.025 1142.01 353.388 1135.02 359.976L1133.69 361.303C1120.22 357.91 1125.16 344.462 1132.94 337.515Z"/><path fill="#F8FAFC" d="M1132.8 340.226C1142.59 341.68 1136.93 353.399 1133.61 358.569C1125.57 356.296 1127.5 349.535 1131 343.336L1132.8 340.226Z"/><path fill="#0A0512" d="M1542.07 570.601C1557.49 572.566 1548.42 586.299 1540.96 592.536C1525.51 590.18 1534.86 577.091 1542.07 570.601Z"/><path fill="#F8FAFC" d="M1543.47 572.365C1552.45 576.59 1544.72 585.275 1540.16 590.328C1529.87 587.5 1539.36 576.596 1543.47 572.365Z"/><path fill="#1A4E50" d="M365.936 259.02C367.244 258.247 368.494 257.614 369.84 256.92C369.375 271.965 369.671 287.83 369.621 302.925C369.6 309.337 369.261 322.965 370.168 328.681C368.843 328.961 367.516 329.23 366.186 329.488C366.346 314.611 366.179 299.466 366.2 284.57C366.21 277.864 366.568 265.168 365.936 259.02Z"/><path fill="#1A4E50" d="M796.995 271.23L796.788 345.625C795.571 345.84 794.442 345.981 793.219 346.144C793.599 339.659 794.68 278.383 793.159 274.791C794.876 272.862 794.95 272.668 796.995 271.23Z"/><path fill="#112F2F" d="M404.413 370.681C406.405 369.782 407.413 369.453 409.504 368.81C416.46 374.886 412.855 378.662 407.892 385.159C405.264 385.532 405.076 385.459 402.353 385.236L400.958 384.622C399.57 382.655 399.599 382.749 398.884 380.516C401.116 375.232 400.896 374.899 404.413 370.681Z"/><path fill="#060608" d="M370.168 328.681C377.362 336.061 369.04 347.655 361.225 344.281C360.334 342.93 359.751 341.953 358.701 340.735C361.489 334.465 361.045 333.695 366.186 329.488C367.516 329.23 368.843 328.961 370.168 328.681Z"/><path fill="#14595D" d="M367.375 331.3C373.759 334.616 370.239 338.142 366.68 342.56C358.749 340.926 363.988 334.88 367.375 331.3Z"/><path fill="#0A0512" d="M1577.29 611.155C1595.52 613.875 1581.12 623.094 1581.38 624.432C1583.77 636.744 1566.91 634.024 1567.96 627.038C1568.7 627.037 1575.41 632.985 1578.09 629.081C1581.21 624.53 1575.06 623.052 1574.77 620.315C1574.52 618.017 1578.9 620.817 1580.59 620.5C1581.55 620.326 1582.37 619.705 1582.79 618.828C1585.05 614.165 1578.24 615.901 1577.29 611.155Z"/><path fill="#0A0512" d="M1467.24 510.106C1475.96 511.585 1480.46 517.108 1471.7 522.427C1471.13 522.776 1473.2 530.048 1467.41 531.766C1463.16 533.028 1457.8 530.6 1456.97 526.666L1456.61 525.246C1458.03 526.063 1462.52 529.454 1463.49 529.417C1476.36 528.927 1462.99 520.514 1464.99 519.042C1467.51 518.805 1468.37 521.107 1472.31 519.373C1475.76 514.862 1468.32 514.043 1467.24 510.106Z"/><path fill="#0A0512" d="M1526.39 561.197C1531.07 561.645 1537.12 563.518 1535.16 569.541C1534.25 572.342 1531.95 571.836 1530.52 573.204C1530.26 574.051 1530.26 573.739 1530.48 574.607C1533.16 585.126 1521.36 584.452 1515.96 578.043L1514.9 576.843C1520.19 575.75 1522.2 582.748 1527.25 579.365C1531.48 576.528 1524.27 571.579 1524.15 570.619C1524.99 568.541 1527.57 571.466 1529.79 570.673C1534.01 569.166 1533.19 565.537 1529.45 564.099C1528.99 563.947 1528.53 563.794 1528.06 563.642C1526.8 563.224 1526.69 562.351 1526.39 561.197Z"/><path fill="#0A0512" d="M1195.33 375.735C1199.02 373.682 1216.13 366.909 1209.43 360.581C1208.38 359.59 1206.94 359.104 1205.5 359.247C1204.46 359.351 1204.5 359.499 1203.63 359.291C1203.12 358.792 1203.16 357.986 1203.73 357.681C1206.83 356.026 1211.52 357.43 1213.13 360.416C1217.32 368.181 1206.01 372.515 1200.99 375.199C1204.74 376.6 1207.15 377.479 1210.62 379.425L1209.45 380.738C1204.56 379.556 1199.93 377.744 1195.33 375.735Z"/><path fill="#0A0512" d="M1297.99 418.863C1302.29 416.746 1311.43 413.449 1314.1 409.036C1315.6 406.013 1313.31 404.052 1310.56 403.659C1302.34 402.483 1309.62 398.878 1314.59 402.383C1316.09 403.456 1317.04 405.134 1317.19 406.969C1317.74 414.363 1305.51 416.129 1305.92 418.983C1306.76 420.083 1311.57 422.272 1313.16 423.158L1310.86 424.895C1306.62 422.686 1302.34 420.852 1297.99 418.863Z"/><path fill="#0A0512" d="M1640.94 598.105C1651.07 597.599 1655.09 605.448 1646.75 609.797C1646.72 609.813 1648.12 620.681 1639.96 619.446C1637.68 619.101 1632.74 617.38 1633.19 614.653C1636.52 614.695 1638.42 617.274 1640.01 616.94C1649.39 614.966 1640.09 608.159 1639.58 607.326L1639.57 607.597C1639.57 607.451 1639.57 607.306 1639.57 607.161C1641.31 606.188 1648.68 609.56 1648.48 604.45C1648.38 601.974 1643.1 599.672 1640.94 598.105Z"/><path fill="#0A0512" d="M1103.26 333.526C1106.53 331.75 1110.23 332.708 1112.26 335.975C1116.75 343.214 1102.81 348.848 1102.07 351.23C1103.11 354.427 1110.57 350.022 1109.7 356.079C1104.89 354.724 1100.41 353.57 1095.55 352.144C1096.25 351.671 1096.96 351.207 1097.67 350.75C1121.45 335.576 1104.45 336.229 1103.26 333.526Z"/><path fill="#0A0512" d="M1397.54 453.405C1400.46 454.477 1393.41 451.846 1394.36 452.387C1386.72 448.032 1403.44 449.856 1401.94 456.989C1400.76 462.571 1396.6 463.855 1391.33 465.576C1389.82 466.087 1388.3 466.608 1386.8 467.141L1387.65 467.654C1390.08 469.092 1393.34 470.118 1394.93 472.581C1393.99 475.621 1382.37 467.79 1380.44 466.673C1388.27 464.277 1397.95 463.92 1398.92 454.837C1398.46 454.363 1398 453.886 1397.54 453.405Z"/><path fill="#060608" d="M1348.16 418.201C1348.82 418.216 1356.25 418.335 1355.97 419.696C1354.72 425.71 1350.62 433.626 1348.06 439.262C1347.68 439.349 1347.3 439.436 1346.93 439.523C1346.71 439.554 1346.12 439.293 1346.08 439.039C1345.42 435.072 1351.46 426.998 1351.76 422.447C1351.77 422.236 1351.68 421.762 1351.51 421.613C1350.76 420.978 1349.8 420.51 1349.2 419.729C1348.85 419.22 1348.5 418.71 1348.16 418.201Z"/><path fill="#060608" d="M1245.24 372.353C1246.51 372.269 1247.79 372.196 1249.06 372.133C1250.28 372.077 1253.51 372.115 1253.58 372.938C1253.82 375.683 1247.78 391.469 1247.02 393.61C1240.48 390.89 1250.7 381.599 1249.75 375.941C1249.64 375.261 1246.5 373.722 1245.24 372.353Z"/><path fill="#0A0512" d="M1376.44 444.154C1392.19 442.701 1381.48 452.375 1376.14 464.411C1369.06 467.149 1381.46 449.164 1381 446.828C1380.46 446.177 1377.87 445.216 1376.44 444.154Z"/><path fill="#0A0512" d="M1187.21 353.301C1191.04 352.771 1197.1 351.137 1195.24 356.5C1193.31 362.07 1191.51 368.066 1190.01 373.756C1182.93 374.434 1192.84 361.853 1192 356.408C1189.59 354.76 1189.74 355.849 1187.21 353.301Z"/><path fill="#060608" d="M1086.3 330.394C1086.87 330.313 1093.65 329.053 1093.54 330.531C1093.06 336.874 1090.83 345.446 1089.44 351.66C1081.86 348.457 1095.88 333.886 1087.59 332.185C1087.19 332.067 1086.87 331.779 1086.7 331.4C1086.57 331.065 1086.44 330.729 1086.3 330.394Z"/><path fill="#0A0512" d="M1316.91 422.354C1318.93 420.079 1328.12 407.658 1330.29 407.178L1331.01 407.907C1330.31 409.987 1315.08 430.244 1312.43 428.046L1310.86 424.895L1313.16 423.158L1316.91 422.354Z"/><path fill="#F4F0ED" d="M1313.16 423.158L1316.91 422.354C1314.79 424.712 1314.17 425.377 1312.43 428.046L1310.86 424.895L1313.16 423.158Z"/><path fill="#0A0512" d="M1431.37 470.266C1435.61 470.048 1441.07 469.29 1438.13 474.984L1429.62 491.588C1424.22 487.148 1435.56 479.746 1435.4 473.639C1435.4 473.821 1431.81 470.795 1431.37 470.266Z"/><path fill="#060608" d="M1292.1 396.322C1295.38 395.981 1301.33 394.453 1299.04 399.98C1296.76 405.468 1294.84 411.109 1292.57 416.614C1286.74 412.987 1296.68 404.754 1295.69 399.033C1295.55 398.253 1293.42 398.717 1292.1 396.322Z"/><path fill="#1A4E50" d="M381.82 241.642C386.035 245.312 393.51 249.895 398.46 252.564C397.642 253.788 397.582 253.892 396.606 254.962C391.355 252.29 384.733 248.49 379.929 245.188C380.789 243.742 381.093 243.165 381.82 241.642Z"/><path fill="#0A0512" d="M1150.09 341.075L1151.63 341.793C1156.76 344.158 1150.41 351.677 1150.23 357.019C1150.12 360.308 1148.92 362.931 1146.19 364.769C1146.31 362.106 1147.81 354.982 1148.66 352.992C1153.18 342.367 1146.3 346.385 1146.35 343.592C1146.75 343.007 1149.39 341.531 1150.09 341.075Z"/><path fill="#0A0512" d="M1213.38 379.819C1214.44 377.889 1225.32 361.818 1227.28 362.365C1228.71 364.281 1207.93 391.921 1210.76 382.859L1209.45 380.738L1210.62 379.425C1211.54 379.543 1212.46 379.674 1213.38 379.819Z"/><path fill="#F4F0ED" d="M1210.62 379.425C1211.54 379.543 1212.46 379.674 1213.38 379.819L1210.76 382.859L1209.45 380.738L1210.62 379.425Z"/><path fill="#0A0512" d="M1414.17 456.76C1415.09 457.25 1415.75 457.461 1415.8 458.58C1412.58 463.027 1401.05 474.463 1396.84 478.772C1395.91 478.512 1395.28 478.429 1395.18 477.371C1395.45 476.839 1412.35 458.83 1414.17 456.76Z"/><path fill="#0A0512" d="M1125.37 335.464C1125.93 335.948 1126.69 336.405 1126.89 337.115C1125.28 341.73 1115.73 355.95 1112.6 360.274C1112.3 359.882 1111.66 359.192 1111.49 358.654C1111.21 357.738 1123.78 338.32 1125.37 335.464Z"/><path fill="#0A0512" d="M1333.87 351.167L1338.2 350.484C1336.53 355.796 1333.7 359.103 1333.87 351.167Z"/></svg>