<svg viewBox="179.4048 81.1008 794.624 843.776" xmlns:xlink="http://www.w3.org/1999/xlink" xmlns="http://www.w3.org/2000/svg" style="max-height: 500px" width="794.624" height="843.776"><path d="M1483.54 1200.99C1501.52 1173.42 1519.81 1149.86 1553.79 1142.79C1576.06 1138.16 1621.28 1140.95 1646.25 1140.88C1668.21 1140.82 1700.86 1138.78 1721.73 1141.52C1729.1 1142.5 1735.8 1144.75 1742.04 1148.89C1752.62 1155.9 1759.08 1167.14 1761.39 1179.48C1764.27 1194.89 1763.79 1271.49 1759.5 1284.85C1755.35 1297.74 1745.28 1309.92 1737.65 1321.01L1688.1 1393.02C1680.16 1404.57 1671.18 1416.65 1664.3 1428.73C1659.01 1438.03 1660.02 1447.91 1665.82 1456.52C1673.42 1468.44 1681.63 1479.95 1689.69 1491.56L1733.27 1554.52C1741.36 1566.29 1758.38 1589.39 1761.16 1602.37C1764.4 1617.44 1762.92 1644.15 1763.02 1660.51C1763.13 1678.4 1764.76 1695.53 1753.89 1710.61C1746.5 1720.67 1735.4 1727.37 1723.06 1729.23C1716.77 1730.19 1705.87 1729.68 1698.67 1730.07C1690.73 1732.85 1618.05 1732.77 1610.33 1730.06C1551.42 1727.74 1515.79 1738.83 1481.58 1679.62C1466.22 1718.28 1437.26 1731.47 1397.42 1729.87C1388.9 1729.53 1379.39 1729.84 1370.81 1729.8C1336.3 1729.67 1301.73 1730.17 1267.23 1729.79C1248.96 1729.55 1230.72 1718.14 1223.96 1700.91C1218.52 1687.05 1219.75 1667.99 1219.93 1652.95C1220.13 1635.9 1217.42 1609.1 1224.61 1593.71C1230.99 1580.02 1242.52 1564.36 1251.11 1551.5L1298.35 1480.69C1304.77 1471.01 1313.02 1460.87 1317.49 1450.19C1319.71 1444.89 1320.8 1439.74 1318.72 1434.24C1314.38 1422.74 1305.57 1411.92 1298.72 1401.74C1283.45 1379 1226.55 1299.7 1221.84 1280.39C1217.59 1263.01 1220.27 1242.12 1220.16 1224.22C1220.06 1206.9 1217.36 1185.4 1224.04 1169.2C1228.5 1158.15 1237.32 1149.43 1248.42 1145.08C1253.98 1142.86 1259.85 1141.47 1265.82 1140.98C1275.23 1140.3 1285.8 1140.71 1295.32 1140.77C1324.81 1140.97 1354.36 1140.97 1383.85 1140.78C1402.32 1140.65 1420.78 1139.68 1437.91 1147.84C1462.49 1159.41 1474.08 1176.34 1483.54 1200.99Z" fill="#324F4B"/><path d="M1610.33 1730.06C1631.81 1729.12 1677.08 1729.11 1698.67 1730.07C1690.73 1732.85 1618.05 1732.77 1610.33 1730.06Z" fill="#EBE0FF"/><path d="M1580.74 1187.89C1607.16 1187.62 1633.58 1187.52 1660 1187.59C1671.04 1187.58 1705.4 1185.88 1713.5 1191.31C1720.09 1204.66 1713.96 1247.2 1716.65 1264C1718.36 1274.64 1714.66 1282.88 1705.59 1288.96C1689 1289.47 1672.13 1289.18 1655.5 1289.06C1630.57 1288.98 1576.79 1285.79 1555.98 1295.74C1518.37 1315.85 1498.53 1366.12 1474.03 1398.42C1460.34 1416.47 1447.63 1445.69 1461.31 1465.06C1483.98 1497.17 1513.7 1550.32 1539.95 1578.43C1549.72 1585.91 1559.38 1592.86 1571.62 1595.59C1596.94 1601.25 1698.1 1591.25 1711.04 1599.34C1714.55 1601.54 1715.34 1605.27 1715.83 1609.17C1716.83 1617.12 1717.89 1673.37 1714.19 1677.41C1706.73 1685.52 1682.19 1681.77 1671.67 1681.93C1644.8 1681.71 1576.97 1685.03 1555.25 1678.99C1542.17 1675.35 1530.86 1668.22 1521.28 1658.66C1507.72 1645.11 1497.65 1626.16 1487.3 1610.06L1444.84 1544.4L1413.9 1496.78C1407.97 1487.64 1399.31 1474.89 1394.65 1465.34C1390.79 1457.27 1388.86 1448.42 1389.01 1439.48C1389.08 1430.73 1391.2 1422.13 1395.18 1414.34C1398.86 1407.05 1406.03 1397.76 1410.51 1390.64C1419.2 1376.86 1428.03 1363.12 1436.85 1349.42L1491.25 1264.59C1512.87 1231.05 1534.71 1187.01 1580.74 1187.89Z" fill="#E7EAF4"/><path d="M1539.95 1578.43C1549.72 1585.91 1559.38 1592.86 1571.62 1595.59C1596.94 1601.25 1698.1 1591.25 1711.04 1599.34C1714.55 1601.54 1715.34 1605.27 1715.83 1609.17C1716.83 1617.12 1717.89 1673.37 1714.19 1677.41C1706.73 1685.52 1682.19 1681.77 1671.67 1681.93C1672.45 1631.52 1658.99 1641.46 1618.94 1628.75C1598.97 1622.42 1551.72 1596.37 1539.95 1578.43Z" fill="#AC8BEE"/><path d="M1580.74 1187.89C1607.16 1187.62 1633.58 1187.52 1660 1187.59C1671.04 1187.58 1705.4 1185.88 1713.5 1191.31C1720.09 1204.66 1713.96 1247.2 1716.65 1264C1718.36 1274.64 1714.66 1282.88 1705.59 1288.96C1689 1289.47 1672.13 1289.18 1655.5 1289.06C1661.52 1286.09 1666.11 1282 1668.3 1275.48C1672.79 1262.11 1670.92 1236.88 1664.67 1224.64C1657.59 1210.75 1596.94 1192.75 1580.74 1187.89Z" fill="#AC8BEE"/><path d="M1272.89 1188.46C1282.38 1187.18 1294 1187.67 1303.65 1187.64C1331.09 1187.57 1358.6 1187.71 1386.04 1187.55C1400.13 1187.47 1412.69 1187.27 1424.53 1196.45C1443.16 1210.88 1444.47 1229.94 1444.02 1251.32C1434.37 1267.41 1420.85 1287.83 1409.52 1302.98C1402.06 1291.84 1394.5 1280.76 1386.86 1269.75C1384.92 1267.9 1380.99 1264.57 1378.33 1264.14C1361.81 1261.54 1341.66 1262.83 1325.01 1262.92C1328.05 1268.21 1331.63 1273.67 1335.09 1278.74C1350.89 1301.88 1365.39 1326.44 1381.76 1349.14L1351.7 1395.73C1341.27 1381.69 1328.87 1360.97 1319.14 1345.76L1266.71 1263.99C1266.92 1242.31 1265.84 1219.55 1267.01 1197.91C1267.28 1192.93 1269.12 1191.25 1272.89 1188.46Z" fill="#E7EAF4"/><path d="M1272.89 1188.46C1282.38 1187.18 1294 1187.67 1303.65 1187.64C1331.09 1187.57 1358.6 1187.71 1386.04 1187.55C1400.13 1187.47 1412.69 1187.27 1424.53 1196.45C1443.16 1210.88 1444.47 1229.94 1444.02 1251.32C1434.37 1267.41 1420.85 1287.83 1409.52 1302.98C1402.06 1291.84 1394.5 1280.76 1386.86 1269.75C1388.51 1230.48 1378.39 1228.52 1345.06 1215.32C1326.47 1207.95 1288.82 1197.86 1272.89 1188.46Z" fill="#AC8BEE"/><path d="M1351.61 1486.21C1361.91 1500.96 1372.06 1516.94 1381.97 1532.03C1375.66 1540.28 1367.47 1553.29 1361.54 1562.14C1348.95 1580.73 1336.63 1599.49 1324.59 1618.43C1342.29 1618.24 1359.86 1619.26 1377.55 1618.67C1391 1611 1400.09 1591 1409.29 1577.69C1420.07 1592.56 1434.79 1615.76 1444.35 1631.78C1444.57 1687.55 1408.31 1682.49 1366.98 1681.98C1349 1682.43 1330.88 1681.97 1312.88 1681.95C1301.9 1681.94 1289.89 1682.97 1279.06 1681.45C1275.75 1680.99 1271.7 1680.05 1269.15 1677.75C1264.22 1673.31 1266.79 1627.98 1266.61 1617.94C1269.85 1612.35 1273.66 1606.46 1277.21 1601.04C1302.16 1562.9 1326.37 1524.14 1351.61 1486.21Z" fill="#E7EAF4"/><path d="M1409.29 1577.69C1420.07 1592.56 1434.79 1615.76 1444.35 1631.78C1444.57 1687.55 1408.31 1682.49 1366.98 1681.98C1381.01 1677.17 1387.5 1661.46 1381.8 1648.81C1374.8 1633.26 1339.76 1624.39 1324.59 1618.43C1342.29 1618.24 1359.86 1619.26 1377.55 1618.67C1391 1611 1400.09 1591 1409.29 1577.69Z" fill="#AC8BEE"/><path d="M1518.85 1464.27C1550.52 1463.68 1584.29 1464.02 1615.97 1464.23C1635.15 1490.7 1656.31 1521.88 1674.33 1549.06L1612.67 1549.27C1570.17 1549.42 1578.54 1551.71 1554.62 1516.63L1518.85 1464.27Z" fill="#E7EAF4"/><path d="M1579.9 1336.26C1609.38 1335.29 1642.73 1336.07 1672.5 1336.1L1636.2 1388.22C1630 1397.06 1623.71 1406.15 1617.29 1414.84C1614.89 1418.09 1614.33 1417.77 1611.25 1418.09L1517.25 1418.03C1532.15 1395.05 1556.08 1348.36 1579.9 1336.26Z" fill="#E7EAF4"/><defs><linearGradient y2="222.49509" x2="1378.9596" y1="808.5" x1="1566.2523" gradientUnits="userSpaceOnUse" id="gradient_0"><stop stop-color="#2C4845" offset="0"/><stop stop-color="#42625E" offset="1"/></linearGradient></defs><path d="M1741.05 425.675C1747.47 427.321 1755.93 430.336 1758.52 436.662C1764.07 450.191 1761.99 475.419 1761.98 489.909L1761.89 562.395L1761.87 643.816C1761.88 654.838 1762.04 665.804 1761.9 676.896C1761.7 693.038 1763.24 708.185 1758.61 724.057C1752.1 746.411 1729.87 763.452 1706.62 764.75C1683.57 765.352 1660.11 765.038 1636.91 764.979L1516.39 764.936L1364.86 764.904C1336.28 764.943 1292.35 767.587 1265.8 761.958C1244.8 757.504 1223.48 727.199 1225.55 707.195C1224.97 683.939 1225.11 661.27 1225.12 638.222L1225.18 512.999L1225.12 384.006C1225.08 361.033 1224.13 337.625 1225.27 314.694C1225.68 306.431 1227.01 297.259 1230.21 289.572C1236.13 275.339 1250.82 262.787 1265.03 257.447C1270.78 255.289 1276.29 254.338 1282.4 254.042C1309.13 252.746 1560.31 252.342 1567.22 255.212C1571.29 256.9 1574.58 259.102 1576.12 263.364C1580.76 276.201 1578.3 417.456 1578.2 443.986C1578.16 457.615 1576.15 474.688 1579.08 487.873C1579.59 490.177 1580.55 492.064 1582.62 493.333C1587.15 496.124 1595.01 494.925 1600.21 494.756C1603.6 493.278 1665.4 493.939 1674.15 493.954C1673.82 437.997 1667.03 448.61 1718.39 445.443C1722.28 431.607 1727.27 428.341 1741.05 425.675Z" fill="url(#gradient_0)"/><path d="M1674.15 493.954C1673.82 437.997 1667.03 448.61 1718.39 445.443C1718.57 450.849 1720.38 490.008 1716.14 491.587C1698.96 497.986 1670.56 493.329 1651.82 494.866C1633.04 494.491 1616.35 495.963 1600.21 494.756C1603.6 493.278 1665.4 493.939 1674.15 493.954Z" fill="#C7ADFF"/><path d="M1588.81 638.011L1670.58 638.008C1678.21 638.007 1688.16 638.285 1695.77 637.958C1721.79 636.838 1718.25 642.668 1718.65 663.6C1719.44 704.26 1720.62 723.45 1672.79 723.019C1653.5 722.888 1634.2 722.865 1614.91 722.951C1605.49 722.978 1595.45 723.083 1586.01 722.847C1584.59 722.811 1582.41 721.626 1581.35 720.652C1578.68 718.203 1578.39 714.475 1578.38 711.013C1578.34 697.176 1578.25 683.374 1578.17 669.531C1578.56 662.061 1577.51 653.864 1578.32 646.483C1579.07 639.696 1583.13 638.01 1588.81 638.011Z" fill="#E7EAF4"/><path d="M1588.81 638.011L1670.58 638.008C1678.21 638.007 1688.16 638.285 1695.77 637.958C1721.79 636.838 1718.25 642.668 1718.65 663.6C1719.44 704.26 1720.62 723.45 1672.79 723.019C1673.12 712.072 1672.25 697.902 1672.89 687.681C1674.77 657.92 1650.68 658.651 1629.01 651.157C1617.31 647.107 1600.16 643.562 1588.81 638.011Z" fill="#AC8BEE"/><path d="M1409.74 638.502C1420.8 637.175 1530.79 636.913 1533.8 639.387C1540.63 644.994 1538.37 671.623 1538.37 680.214C1538.38 691.365 1540.6 709.211 1536.35 719.407C1530.57 724.714 1520.39 723.189 1512.21 723.094C1484.16 722.81 1456.02 723.467 1427.96 723.192C1421.88 723.132 1411.41 723.646 1406.83 719.254C1402.64 709.268 1406.17 667.264 1404.62 653.617C1403.99 648.12 1405.43 642.629 1409.74 638.502Z" fill="#E7EAF4"/><path d="M1409.74 638.502C1420.8 637.175 1530.79 636.913 1533.8 639.387C1540.63 644.994 1538.37 671.623 1538.37 680.214C1538.38 691.365 1540.6 709.211 1536.35 719.407C1530.57 724.714 1520.39 723.189 1512.21 723.094C1512.23 707.054 1512.54 689.885 1511.76 673.964C1510.85 672.4 1508.46 668.506 1507.32 667.528C1494.56 656.609 1423.19 638.82 1409.74 638.502Z" fill="#C7ADFF"/><path d="M1410.62 411.685C1426.07 409.993 1442.76 411.295 1458.34 411.272C1479.23 411.241 1500.7 410.155 1521.51 411.319C1525.53 411.544 1531.91 411.661 1535.21 413.988C1537.73 415.772 1538.23 422.333 1538.36 425.174C1538.7 433.359 1539.39 488.069 1535.72 491.2C1533.05 493.47 1528.74 493.894 1525.39 494.278C1512.73 495.73 1499.13 494.851 1486.38 494.849C1463.75 494.846 1441.09 494.979 1418.45 494.673C1413.61 494.947 1410.25 495.185 1406.48 491.774C1403.61 485.1 1404.77 430.164 1405.52 419.585C1405.79 415.675 1407.74 413.882 1410.62 411.685Z" fill="#E7EAF4"/><path d="M1410.62 411.685C1426.07 409.993 1442.76 411.295 1458.34 411.272C1479.23 411.241 1500.7 410.155 1521.51 411.319C1525.53 411.544 1531.91 411.661 1535.21 413.988C1537.73 415.772 1538.23 422.333 1538.36 425.174C1538.7 433.359 1539.39 488.069 1535.72 491.2C1533.05 493.47 1528.74 493.894 1525.39 494.278C1512.73 495.73 1499.13 494.851 1486.38 494.849C1463.75 494.846 1441.09 494.979 1418.45 494.673C1424.74 493.353 1443.67 493.758 1451.14 493.768L1512.56 493.905C1512.53 482.42 1514.88 446.454 1507.6 438.5C1505.3 435.978 1498.54 431.854 1495.16 430.982C1473.47 425.377 1431.51 412.835 1410.62 411.685Z" fill="#C7ADFF"/><path d="M1416.76 296.038C1428.5 295.95 1531.17 294.6 1533.74 297.224C1540.54 304.156 1539.01 353.105 1538.15 364.34C1537.9 367.628 1537.81 370.88 1535.13 373.166C1529.67 377.836 1518.61 376.144 1511.84 376.027L1450.5 376.148C1439.49 376.18 1428.47 376.59 1417.41 375.863C1407.84 375.275 1404.25 371.559 1404.73 361.799C1405.81 348.795 1404.54 335.866 1404.63 322.911C1404.72 311.229 1401.14 295.996 1416.76 296.038Z" fill="#E7EAF4"/><path d="M1416.76 296.038C1428.5 295.95 1531.17 294.6 1533.74 297.224C1540.54 304.156 1539.01 353.105 1538.15 364.34C1537.9 367.628 1537.81 370.88 1535.13 373.166C1529.67 377.836 1518.61 376.144 1511.84 376.027C1512.64 364.813 1511.64 352.467 1512.37 341.447C1514.05 316.184 1491.52 314.471 1471.93 309.451C1453.61 304.699 1435.22 300.228 1416.76 296.038Z" fill="#C7ADFF"/><path d="M1672.5 602.766C1644.06 603.103 1615.45 602.66 1587 602.716C1581.43 602.727 1578.26 597.763 1578.35 592.52C1578.72 574.088 1577.87 555.363 1578.73 536.992C1579.01 531.107 1584.98 529.77 1589.64 529.962C1602.42 529.953 1710.39 528.302 1713.75 531.451C1721.03 538.287 1718.8 574.829 1718.52 586.173C1718.43 589.797 1718.24 597.356 1715.53 600.131C1710.59 605.194 1680.36 602.535 1672.5 602.766Z" fill="#E7EAF4"/><path d="M1589.64 529.962C1602.42 529.953 1710.39 528.302 1713.75 531.451C1721.03 538.287 1718.8 574.829 1718.52 586.173C1718.43 589.797 1718.24 597.356 1715.53 600.131C1710.59 605.194 1680.36 602.535 1672.5 602.766C1673.69 596.381 1672.65 588.48 1672.99 582.007C1674.28 557.437 1669.78 550.262 1645.98 544.265C1635.69 541.644 1625.37 539.142 1615.02 536.76C1608.81 535.346 1602.63 533.818 1596.48 532.177C1594.94 531.776 1594.45 531.722 1592.94 531.176L1589.64 529.962Z" fill="#AC8BEE"/><path d="M1433.51 530.072L1497.95 529.844C1504.54 529.818 1530.47 528.339 1534.41 532.016C1539.83 541.307 1541.01 593.292 1533.75 601.248C1526.29 603.71 1485.86 603.111 1475.84 602.712C1463.44 602.818 1418.79 604.287 1409.29 601.355C1402.5 594.527 1403.99 543.7 1406.89 533.441C1408.35 528.3 1428.78 529.905 1433.51 530.072Z" fill="#E7EAF4"/><path d="M1433.51 530.072L1497.95 529.844C1504.54 529.818 1530.47 528.339 1534.41 532.016C1539.83 541.307 1541.01 593.292 1533.75 601.248C1526.29 603.71 1485.86 603.111 1475.84 602.712C1481.13 601.2 1505.28 601.834 1512.05 601.884C1511.96 589.868 1514.07 567.778 1510.04 557.005C1508.48 552.829 1501.18 547.42 1496.89 545.963C1476.73 539.11 1454 536.073 1433.51 530.072Z" fill="#C7ADFF"/><path d="M1273.97 411.683C1298.24 408.586 1332.91 412.814 1358.04 411.5C1373.64 410.684 1363.13 459.196 1366.29 468.4C1366.51 469.079 1366.22 486.811 1366.03 488.013C1365.79 489.532 1365.1 490.946 1364.06 492.075C1361.42 494.887 1358.18 494.841 1354.51 494.854L1304.59 494.62C1296.48 494.618 1282.38 495.197 1274.83 494.16C1271.16 492.827 1268.61 490.515 1268.55 486.36C1268.2 464.258 1268.7 442.092 1268.79 419.982C1268.81 416.047 1271.16 414.033 1273.97 411.683Z" fill="#E7EAF4"/><path d="M1273.97 411.683C1298.24 408.586 1332.91 412.814 1358.04 411.5C1373.64 410.684 1363.13 459.196 1366.29 468.4C1366.51 469.079 1366.22 486.811 1366.03 488.013C1365.79 489.532 1365.1 490.946 1364.06 492.075C1361.42 494.887 1358.18 494.841 1354.51 494.854L1304.59 494.62C1296.48 494.618 1282.38 495.197 1274.83 494.16C1292.31 492.795 1322.65 493.887 1340.98 493.912C1341.04 479.317 1342.02 453.559 1339.59 440.279C1337.13 426.849 1285.99 413.022 1273.97 411.683Z" fill="#C7ADFF"/><path d="M1280.08 638.066C1297 637.72 1314.01 638.176 1330.96 638.051C1335.43 638.018 1340.46 637.855 1344.99 638.048C1350.8 638.612 1358.95 636.338 1363.5 640.997C1364.53 642.02 1365.97 644.503 1365.99 645.996C1366.36 668.81 1366.25 691.684 1366.17 714.507C1366.13 725.921 1349.09 722.884 1341.32 722.982C1323.94 722.916 1293.34 726.625 1279.38 715.384C1262.33 701.659 1270.33 666.096 1268.61 646.411C1268.08 640.31 1274.71 638.016 1280.08 638.066Z" fill="#E7EAF4"/><path d="M1280.08 638.066C1297 637.72 1314.01 638.176 1330.96 638.051C1335.43 638.018 1340.46 637.855 1344.99 638.048C1350.8 638.612 1358.95 636.338 1363.5 640.997C1364.53 642.02 1365.97 644.503 1365.99 645.996C1366.36 668.81 1366.25 691.684 1366.17 714.507C1366.13 725.921 1349.09 722.884 1341.32 722.982C1341.14 711.467 1341.75 680.63 1340.71 671.015C1338.56 651.005 1295.99 648.727 1280.08 638.066Z" fill="#C7ADFF"/><path d="M1294.52 296.324C1305.08 295.327 1350.28 294.875 1359.03 296.284C1360.57 296.532 1361.78 297.063 1362.97 298.08C1365.19 299.968 1366.07 301.605 1366.17 304.483C1366.5 313.457 1367.85 368.902 1364.28 372.581C1358.87 378.161 1348.12 375.942 1340.95 376.015C1323.21 376.078 1292.16 376.612 1274.02 375.152C1272.58 374.816 1269.19 371.189 1269.25 369.978C1271.06 335.991 1256.8 311.23 1294.52 296.324Z" fill="#E7EAF4"/><path d="M1294.52 296.324C1305.08 295.327 1350.28 294.875 1359.03 296.284C1360.57 296.532 1361.78 297.063 1362.97 298.08C1365.19 299.968 1366.07 301.605 1366.17 304.483C1366.5 313.457 1367.85 368.902 1364.28 372.581C1358.87 378.161 1348.12 375.942 1340.95 376.015C1341.69 363.137 1343.56 327.329 1338.64 317.249C1335.78 311.397 1329.41 307.316 1323.4 305.337C1315.48 302.73 1305.44 297.602 1297.37 296.634C1296.42 296.521 1295.47 296.43 1294.52 296.324Z" fill="#C7ADFF"/><path d="M1279.47 530.009L1335.36 529.925C1341.76 529.929 1365.46 526.913 1365.87 536.568C1366.6 553.605 1366.06 571.384 1366.29 588.504C1366.42 597.841 1365.73 602.935 1355.01 602.94L1305.12 602.842C1297.47 602.832 1282.48 603.235 1275.69 602.179C1271.18 601.244 1268.43 598.095 1268.52 593.375C1268.98 574.62 1268.01 555.664 1268.81 536.954C1269.05 531.395 1275.16 530.024 1279.47 530.009Z" fill="#E7EAF4"/><path d="M1279.47 530.009L1335.36 529.925C1341.76 529.929 1365.46 526.913 1365.87 536.568C1366.6 553.605 1366.06 571.384 1366.29 588.504C1366.42 597.841 1365.73 602.935 1355.01 602.94L1305.12 602.842C1297.47 602.832 1282.48 603.235 1275.69 602.179C1290.7 601.068 1325.32 601.712 1340.92 602.166C1340.91 590.329 1342.57 565.315 1338.2 556.006C1332.88 544.649 1291.54 533.146 1279.47 530.009Z" fill="#C7ADFF"/><path d="M334.82 1161.34C419.938 1159.43 510.929 1161.16 596.536 1161.12L699.544 1161.05C717.776 1161.03 736.432 1160.68 754.405 1161.41C767.493 1161.94 772.417 1172.12 772.777 1183.52C773.35 1201.67 773.135 1220.47 773.106 1238.55L773.028 1342.14L773.022 1439.17C773.03 1452.83 773.449 1466.95 773.435 1480.42C773.415 1498.68 748.608 1505.77 748.59 1479.78C748.576 1461.42 748.712 1442.24 748.732 1424.01L748.639 1302.83L341.885 1302.83L341.945 1373.48L341.951 1689.36L530.321 1689.54C548.137 1689.55 565.917 1689.36 583.771 1689.33C591.678 1689.31 604.06 1688.88 608.442 1697.18C611.25 1702.5 607.687 1710.84 602.065 1712.7C600.065 1713.36 598.175 1714.14 595.987 1714.03C582.732 1714.12 569.479 1714.09 556.225 1714.08L478.707 1714.05L391.271 1714.15C375.156 1714.18 358.82 1714.74 342.73 1714.07C337.544 1713.86 331.619 1713.4 326.887 1711.17C322.848 1709.27 319.586 1704.54 318.272 1700.37C314.943 1689.78 317.168 1575.37 317.163 1552.93L317.072 1296.09C317.056 1259.68 317.353 1223.27 316.705 1186.86C316.464 1173.3 321.598 1164.71 334.82 1161.34Z" fill="#324F4B"/><path d="M341.874 1185.99L748.399 1186L748.622 1277.77L460.572 1277.82L381.75 1277.88C374.325 1277.89 348.321 1278.23 341.949 1277.21L341.916 1233.76L341.874 1185.99Z" fill="#C7ADFF"/><path d="M341.916 1233.76L560.82 1233.95L635.962 1233.96C649.644 1233.99 663.275 1234.02 676.949 1234.39C697.782 1234.96 700.983 1244.53 700.537 1263.84C700.431 1268.21 700.299 1272.58 700.14 1276.95L455.839 1276.94L381.13 1276.86C370.773 1276.84 351.357 1276.25 341.949 1277.21L341.916 1233.76Z" fill="#E7EAF4"/><path d="M375.878 241.252C356.201 256.856 349.73 271.866 350.054 296.802C350.244 311.395 349.956 326.636 349.947 341.296L349.859 454.799L349.813 556.26C349.818 577.876 346.638 608.75 356.924 627.731C375.757 662.482 405.642 660.384 439.15 660.259L497.857 660.011C519.094 659.919 549.682 655.421 547.965 686.995C547.535 694.902 540.897 702.547 532.634 702.42C491.996 701.795 451.318 702.612 410.67 702.428C403.286 702.395 396.156 702.15 388.847 701.032C364.144 697.266 341.987 683.738 327.35 663.485C317.896 650.54 311.782 635.462 309.554 619.589C307.365 603.319 308.312 569.019 308.322 551.499L308.243 433.478L308.174 326.388C308.16 276.537 304.227 238.377 349.634 205.747C380.394 183.642 412.447 188.002 448.041 188.007L542.938 188.076L615.485 188.047C662.295 187.953 700.671 186.926 730.228 230.761C737.885 242.027 743.107 254.766 745.557 268.166C747.942 281.45 747.278 300.231 747.254 314.253L747.214 375.64C747.191 392.723 747.562 410.115 746.622 427.11C746.39 431.3 741.663 437.539 737.96 439.291C723.318 446.217 708.683 439.819 704.969 424.333C686.477 424.321 667.985 424.165 649.495 423.865C661.326 415.438 661.514 401.362 647.289 395.221L647.071 330.074C639.952 330.252 634.746 330.21 627.644 329.809C610.635 328.881 584.008 329.729 566.447 329.751L459.249 329.657C441.788 329.712 420.099 330.652 402.67 328.716C393.75 327.725 388.972 311.9 395.522 305.47C398.87 302.183 402.266 301.105 406.706 299.359C414.519 298.012 459.389 299.069 470.417 299.032C528.314 298.837 586.212 298.956 644.108 299.388C628.074 268.598 605.755 259.704 572.466 260.226C531.661 259.449 488.042 262.636 447.419 259.734C429.746 258.472 395.178 245.743 375.878 241.252Z" fill="#324F4B"/><defs><linearGradient y2="211.27562" x2="396.35629" y1="359.47058" x1="728.86829" gradientUnits="userSpaceOnUse" id="gradient_1"><stop stop-color="#AD9AF6" offset="0"/><stop stop-color="#D7B9F3" offset="1"/></linearGradient></defs><path d="M375.878 241.252C399.106 228.361 410.401 230.877 436.166 230.815L494.235 230.783C543.616 230.776 593.002 230.733 642.374 230.931C673.57 231.057 700.373 253.199 704.093 284.633C705.826 299.28 704.622 314.261 704.954 328.98C705.422 360.295 703.757 393.156 704.969 424.333C686.477 424.321 667.985 424.165 649.495 423.865C661.326 415.438 661.514 401.362 647.289 395.221L647.071 330.074C639.952 330.252 634.746 330.21 627.644 329.809C610.635 328.881 584.008 329.729 566.447 329.751L459.249 329.657C441.788 329.712 420.099 330.652 402.67 328.716C393.75 327.725 388.972 311.9 395.522 305.47C398.87 302.183 402.266 301.105 406.706 299.359C414.519 298.012 459.389 299.069 470.417 299.032C528.314 298.837 586.212 298.956 644.108 299.388C628.074 268.598 605.755 259.704 572.466 260.226C531.661 259.449 488.042 262.636 447.419 259.734C429.746 258.472 395.178 245.743 375.878 241.252Z" fill="url(#gradient_1)"/><path d="M406.706 299.359L407.713 299.462C421.896 300.773 454.208 299.897 470.027 299.892L592.116 299.851C609.536 299.845 627.228 299.619 644.447 299.998C653.993 300.208 660.623 309.157 657.582 318.071C655.717 323.539 653.783 325.464 649.3 328.857C642.969 329.134 633.735 329.222 627.644 329.809C610.635 328.881 584.008 329.729 566.447 329.751L459.249 329.657C441.788 329.712 420.099 330.652 402.67 328.716C393.75 327.725 388.972 311.9 395.522 305.47C398.87 302.183 402.266 301.105 406.706 299.359Z" fill="#324F4B"/><path d="M663.581 456.402C688.177 453.746 717.679 460.754 738.971 473.452C769.733 491.428 791.943 521.054 800.573 555.622C809.25 590.856 803.176 625.221 784.653 656.096C816.882 687.418 850.523 721.077 881.192 754.091C885.897 758.697 886.607 768.988 883.199 774.279C854.196 819.305 831.559 780.009 805.978 754.342C786.259 734.695 766.657 714.931 747.171 695.052C728.069 707.793 711.024 714.829 687.896 717.358C653.125 721.216 618.257 710.981 591.088 688.942C564.09 666.72 546.996 634.709 543.546 599.913C539.878 565.18 550.386 530.437 572.69 503.56C596.28 474.949 627.017 459.848 663.581 456.402Z" fill="#324F4B"/><path d="M685.298 489.397C705.68 492.146 715.175 496.918 732.311 508.143C721.171 519.193 700.114 537.019 693.759 551.582C690.077 560.019 703.466 569.005 710.491 563.5C724.81 552.278 736.499 537.578 750.257 525.13C762.824 542.285 766.425 551.468 770.694 572.076C759.607 572 715.161 569.399 709.883 576.841C689.632 605.39 756.472 598.1 770.668 597.991C768.641 617.537 762.65 630.86 751.036 646.341C741.585 636.777 716.681 607.103 704.693 606.281C701.472 606.06 698.98 607.182 696.751 609.45C694.559 611.682 693.371 615.446 693.446 618.522C693.659 627.233 726.455 656.799 733.844 664.251C720.43 675.707 703.818 682.761 686.26 684.458C682.152 676.002 689.563 632.404 682.943 626.625C652.92 600.411 661.163 670.381 661.126 684.559C642.533 683.14 627.493 675.362 612.928 664.182C619.166 657.761 653.335 625.852 652.973 619.74C650.668 580.773 605.907 636.338 596.071 646.486C583.021 629.366 579.823 618.536 576.308 597.588C588.72 597.306 632.097 601.43 639.977 593.529C642.275 591.224 643.687 587.546 643.43 584.279C643.202 581.376 642.175 578.989 640.018 577.018C630.729 568.527 589.636 571.995 576.319 572.059C580.271 555.395 584.194 538.989 596.78 526.17C604.987 533.33 631.84 564.429 640.484 564.916C643.825 565.105 647.264 564.104 649.702 561.757C651.73 559.805 652.949 557.25 652.976 554.409C653.089 542.501 622.949 517.533 613.955 508.422C630.379 497.802 637.36 494.198 656.293 490.207C657.295 490.172 658.722 490.424 659.77 490.556C666.229 503.298 655.561 534.055 663.149 545.793C665.098 548.808 668.993 550.718 672.489 551.026C675.964 551.332 679.495 550.286 681.924 547.694C687.84 541.384 685.145 500.077 685.298 489.397Z" fill="#C7ADFF"/><path d="M718.885 1515.37C858.735 1506.13 872.352 1720.24 737.59 1734.2C710.583 1735.99 685.785 1730.24 663.894 1713.76C642.265 1697.57 628.031 1673.39 624.383 1646.62C615.67 1578.79 648.069 1523.64 718.885 1515.37Z" fill="#324F4B"/><defs><linearGradient y2="1628.223" x2="803.66888" y1="1620.1425" x1="649.31201" gradientUnits="userSpaceOnUse" id="gradient_2"><stop stop-color="#D8BBF4" offset="0"/><stop stop-color="#A795F7" offset="1"/></linearGradient></defs><path d="M719.672 1539.35C738.57 1537.81 756.4 1541.97 772.058 1552.88C789.274 1565.01 801.088 1583.37 804.993 1604.06C814.317 1656.22 790.391 1700.94 736.157 1709.94C713.98 1711.01 696.278 1707.57 678.166 1693.71C661.831 1681.28 651.168 1662.8 648.568 1642.44C641.994 1591.15 664.748 1545.44 719.672 1539.35Z" fill="url(#gradient_2)"/><path d="M721.81 1555.11C738.909 1554.32 738.32 1560.16 738.279 1575.02C748.698 1577.65 752.937 1579.69 762.207 1584.99C758.492 1592.25 756.551 1595.41 751.873 1602.1C743.865 1598.53 711.593 1586.37 715.667 1606C719.069 1610.13 724.77 1612.05 729.932 1613.27C753.026 1618.7 771.924 1629.1 761.06 1656.04C757.107 1665.84 747.759 1669.99 738.258 1673.59C738.591 1688.25 739.151 1693.65 722.394 1693.05C713.884 1688.38 715.405 1682.85 715.55 1674.4C700.254 1670.51 697.153 1668.78 683.411 1660.32L694.544 1643.31C705.532 1649.58 726.199 1660.91 736.475 1648.31C740.141 1629.22 695.078 1636.36 690.362 1613.86C685.802 1592.09 695.652 1580.72 715.339 1575.05C714.819 1565.17 712.978 1561.46 721.81 1555.11Z" fill="#324F4B"/><path d="M385.118 1341.23C401.695 1340.61 461.647 1338.46 473.626 1343.91C478.027 1345.92 481.605 1350.48 483.116 1355.04C486.11 1364.07 484.096 1454.54 484.094 1470.5C484.088 1505.54 485.902 1541.52 483.916 1576.47C483.719 1579.93 482.852 1583 481.217 1586.07C478.225 1591.67 473.665 1594.18 467.842 1596.14C445.694 1598.51 420.281 1596.14 397.811 1597.07C383.505 1597.66 368.787 1593.16 368.743 1576.05C368.558 1504.55 368.685 1432.89 368.636 1361.37C368.629 1350.51 375.671 1344.71 385.118 1341.23Z" fill="#324F4B"/><path d="M392.606 1365.45C409.643 1363.94 442.613 1365.21 460.808 1365.44L460.91 1573.12L436.251 1573.03L392.489 1572.89L392.606 1365.45Z" fill="#E7EAF4"/><path d="M392.606 1365.45C409.643 1363.94 442.613 1365.21 460.808 1365.44L460.91 1573.12L436.251 1573.03C436.234 1504.73 437.429 1433.85 436.582 1365.95C422.903 1365.93 406.008 1366.32 392.606 1365.45Z" fill="#AC8BEE"/><path d="M1804.93 206.286C1825.49 203.597 1830.3 212.171 1843.28 224.901C1878.45 259.408 1843.61 282.798 1819.25 307.178L1764.35 361.92C1748.12 378.089 1732.37 394.984 1715.52 410.463C1693.01 431.145 1668.35 396.62 1652.55 381.035C1618.98 345.279 1572.02 320.838 1627.99 275.562C1656.64 252.385 1680.6 287.971 1699.27 306.712C1703.77 301.927 1708.52 297.224 1713.23 292.611C1740.53 265.836 1767.02 238.118 1794.8 211.863C1797.41 209.396 1801.63 207.645 1804.93 206.286Z" fill="#324F4B"/><path d="M1811.79 232.848C1817.54 235.941 1831.79 251.269 1829.57 255.301C1822.97 267.25 1791.21 296.862 1781.94 306.133L1699.19 389.173C1683.66 374.873 1665.82 356.249 1650.64 341.102C1627.73 319.183 1620.81 315.61 1648.48 293.639C1657.85 302.462 1688.38 338.326 1698.86 338.965C1702.6 339.193 1705.87 338.093 1708.78 335.746C1715.52 330.294 1721.06 322.238 1727.33 316.096C1755.38 288.591 1782.27 258.717 1811.79 232.848Z" fill="#E7EAF4"/><path d="M649.495 423.865C642.796 425.556 606.829 424.914 597.947 424.905L491.652 424.986L434.967 425.103C428.266 425.113 411.349 425.536 405.199 424.689C401.127 424.121 397.451 421.949 394.99 418.656C392.532 415.319 391.655 411.059 392.354 406.995C393.026 403.044 395.3 399.546 398.638 397.329C406.252 392.33 450.212 394.133 461.813 394.141L560.165 394.178C572.953 394.172 637.686 393.124 647.289 395.221C661.514 401.362 661.326 415.438 649.495 423.865Z" fill="#324F4B"/><path d="M525.733 1358.17L656.252 1358.06C674.749 1358.01 696.17 1357.39 714.601 1358.67C717.587 1359.2 721.776 1361.45 722.949 1364.23C726.56 1372.78 723.01 1378.47 715.624 1382.35C653.893 1383.24 591.719 1381.94 529.955 1382.16C516.116 1382.21 511.435 1366.21 525.733 1358.17Z" fill="#324F4B"/><path d="M524.737 1417.06C585.655 1414.54 649.614 1418.66 710.764 1416.97C726.139 1416.55 729.738 1431.68 716.571 1440.54C715.252 1440.68 713.857 1440.86 712.529 1440.86C661.267 1440.87 610.004 1440.74 558.742 1440.87C548.655 1440.9 538.516 1441.2 528.456 1440.46C525.058 1440.21 521.868 1438.9 519.481 1436.42C517.226 1434.04 516.485 1430.79 517.058 1427.65C518.103 1421.73 520.187 1420.36 524.737 1417.06Z" fill="#324F4B"/><path d="M525.237 1475.2C575.487 1474.2 626.24 1475.73 676.529 1474.98C685.284 1474.85 700.805 1474.08 700.175 1486.93C699.862 1493.31 696.434 1496.36 691.247 1499.29C682.231 1499.92 670.592 1499.23 661.33 1499.2C617.717 1499.06 574.073 1499.73 530.469 1499.16C514.95 1498.95 512.138 1483.46 525.237 1475.2Z" fill="#324F4B"/><path d="M403.589 483.188C435.239 481.627 468.574 484.103 500.349 482.916C509.28 482.583 525.703 481.348 530.315 489.89C536.046 500.508 531.155 507.601 522.286 512.913C486.766 513.629 441.187 513.206 404.963 512.482C393.087 512.245 384.775 493.487 403.589 483.188Z" fill="#324F4B"/><path d="M525.501 1533.05C552.507 1532.41 581.009 1532.79 607.981 1533.25C615.54 1533.38 622.477 1548.61 608.395 1557.05C581.37 1557.48 552.998 1557.33 526.027 1556.84C516.597 1556.67 512.042 1541.03 525.501 1533.05Z" fill="#324F4B"/><path d="M356.041 845.165C370.942 845.208 388.027 842.434 390.707 863.002C391.603 869.88 389.162 874.045 385.091 879.295C374.675 886.783 369.241 884.78 356.007 884.759C355.909 872.036 355.692 857.849 356.041 845.165Z" fill="#3F3649"/><path d="M363.66 851.707C370.863 851.666 380.058 850.601 382.682 860.046C384.317 865.93 382.972 869.581 380.097 874.739L379.198 875.23C372.695 878.867 371.336 878.101 363.63 878.285L363.66 851.707Z" fill="#EBE0FF"/><path d="M1415.34 841.658C1416.52 841.797 1420.93 842.03 1421.63 842.496C1423.3 846.176 1422.02 877.302 1422.15 883.559C1422.16 883.877 1421.25 884.467 1421.09 884.431C1411.4 882.186 1410.18 887.23 1399.82 883.947C1392.2 876.873 1389.38 869.07 1396.88 860.442C1403.18 853.184 1409.03 857.981 1414.8 857.858C1415.8 856.32 1415.34 844.229 1415.34 841.658Z" fill="#3F3649"/><path d="M1403.93 863.591C1406.57 862.142 1409.8 862.291 1412.3 863.976C1414.79 865.661 1416.14 868.601 1415.79 871.593C1415.43 874.586 1413.44 877.13 1410.62 878.187C1406.66 879.667 1402.24 877.841 1400.48 874.003C1398.72 870.165 1400.22 865.62 1403.93 863.591Z" fill="#EBE0FF"/><path d="M1534.99 841.819C1535.81 841.903 1541.64 841.986 1541.69 843.03C1542.32 856.391 1542.47 870.578 1541.69 883.915C1541.64 884.855 1536.31 885.22 1535.69 883.677C1535.31 882.736 1534.11 882.475 1533.17 883.135C1529.21 885.903 1524.99 885.321 1520.48 884.672C1503.81 870.68 1516.32 849.148 1534.9 859.692C1534.86 853.734 1534.89 847.776 1534.99 841.819Z" fill="#3F3649"/><path d="M1523.98 863.624C1526.62 862.332 1529.76 862.577 1532.17 864.262C1534.58 865.947 1535.89 868.808 1535.59 871.736C1535.29 874.663 1533.42 877.197 1530.72 878.353C1526.68 880.081 1521.99 878.271 1520.17 874.275C1518.34 870.278 1520.03 865.553 1523.98 863.624Z" fill="#EBE0FF"/><path d="M713.892 1786.54C714.678 1786.65 715.464 1786.75 716.253 1786.83C724.169 1787.67 720.854 1795.57 720.883 1803.83C729.774 1800.37 736.793 1798.97 741.954 1810.51C744.147 1815.42 742.436 1820.38 740.158 1825.07L739.53 1825.6C734.64 1829.78 729.838 1832 723.537 1828.88C720.27 1827.26 717.723 1831.57 713.96 1828.85C713.4 1827.33 713.771 1790.43 713.892 1786.54Z" fill="#3F3649"/><path d="M724.318 1808.7C726.852 1807.35 729.922 1807.47 732.337 1809.03C734.753 1810.58 736.134 1813.33 735.946 1816.2C735.758 1819.06 734.029 1821.6 731.431 1822.83C727.549 1824.66 722.914 1823.07 720.984 1819.24C719.054 1815.4 720.533 1810.73 724.318 1808.7Z" fill="#EBE0FF"/><path d="M460.587 855.953C466.151 856.612 469.341 860.22 472.098 857.192C472.852 856.364 477.509 856.762 477.576 857.865C478.092 866.263 478.073 875.279 477.595 883.681C477.423 886.184 470.789 883.762 469.854 883.364C447.521 891.125 438.897 863.778 460.587 855.953Z" fill="#3F3649"/><path d="M459.415 863.771C463.223 861.675 468.009 863.012 470.18 866.779C472.35 870.545 471.107 875.357 467.384 877.6C464.909 879.091 461.822 879.129 459.312 877.699C456.802 876.269 455.261 873.594 455.282 870.705C455.304 867.816 456.884 865.164 459.415 863.771Z" fill="#EBE0FF"/><path d="M611.476 856.047C617.253 856.894 616.874 858.018 621.071 859.131C622.161 858.179 627.148 854.816 628.1 857.574C629.99 863.048 627.639 873.938 628.618 879.512C629.788 886.174 624.71 885.54 620.128 883.475C615.855 884.851 612.407 886.113 607.874 884.354C604.436 883.028 601.703 880.333 600.33 876.914C596.136 866.419 601.545 859.165 611.476 856.047Z" fill="#3F3649"/><path d="M611.256 863.639C615.205 861.989 619.748 863.822 621.446 867.751C623.144 871.681 621.366 876.245 617.458 877.991C614.887 879.139 611.897 878.816 609.631 877.145C607.365 875.475 606.172 872.714 606.508 869.919C606.844 867.123 608.658 864.725 611.256 863.639Z" fill="#EBE0FF"/><path d="M407.403 855.953C410.154 856.39 417.394 859.315 417.385 859.315C419.403 856.571 423.931 855.802 424.246 857.633C425.489 864.875 424.025 874.461 424.518 882.049C424.823 886.746 418.144 884.6 415.537 883.797L414.551 884.176C407.552 886.944 399.82 884.225 396.618 877.248C394.774 873.256 394.685 868.675 396.373 864.615C398.526 859.325 402.479 857.698 407.403 855.953Z" fill="#3F3649"/><path d="M406.435 863.635C409.039 862.265 412.184 862.426 414.634 864.056C417.085 865.686 418.449 868.524 418.192 871.456C417.935 874.387 416.097 876.944 413.4 878.122C409.434 879.856 404.807 878.139 402.931 874.237C401.056 870.336 402.604 865.65 406.435 863.635Z" fill="#EBE0FF"/><path d="M1435.66 857.103L1436.61 856.998C1438.5 856.771 1445.2 856.071 1446.72 857.465C1449.58 860.095 1457.09 852.997 1456.92 859.954C1456.72 868.21 1457.69 876.178 1456.46 883.939C1456.3 884.932 1449.73 884.577 1449.18 884.581C1449.14 884.528 1448.63 883.714 1448.54 883.748C1436.78 888.136 1426.82 881.614 1427.98 868.486C1428.39 863.874 1430.89 860.905 1435.66 857.103Z" fill="#3F3649"/><path d="M1439.35 863.648C1441.98 862.404 1445.08 862.7 1447.42 864.42C1449.76 866.14 1450.97 869.007 1450.57 871.884C1450.16 874.762 1448.21 877.187 1445.49 878.198C1441.52 879.672 1437.1 877.76 1435.46 873.862C1433.81 869.963 1435.53 865.46 1439.35 863.648Z" fill="#EBE0FF"/><path d="M347.475 1790.38C348.218 1790.38 354.588 1790.08 354.914 1790.61C359.803 1798.72 361.812 1809.73 365.903 1818.52C365.84 1819.99 371.114 1828.42 369.038 1829.08C358.927 1832.32 362.478 1822.22 357.097 1820.94C342.455 1821 344.685 1818.55 340.251 1828.55C339.861 1829.43 331.503 1830.67 333.46 1826.38C338.668 1814.95 342.004 1801.67 347.475 1790.38Z" fill="#3F3649"/><path d="M350.953 1799.48C352.948 1801.98 356.39 1811.18 356.251 1813.44C355.444 1814.62 352.961 1814.79 351.531 1815.2C350.871 1815.08 346.102 1814.66 346.109 1813.96C346.152 1809.79 349.38 1803.53 350.953 1799.48Z" fill="#EBE0FF"/><path d="M690.48 1801.12C692.254 1801.38 698.465 1803.54 699.127 1803.2C707.034 1798.5 707.634 1804.97 706.675 1811.72C704.709 1825.55 712.86 1830.98 698.213 1828.51C693.957 1829.99 689.918 1830.99 685.489 1829.05C682.191 1827.56 679.675 1824.75 678.563 1821.31C674.97 1810.39 680.242 1803.65 690.48 1801.12Z" fill="#3F3649"/><path d="M689.075 1808.6C691.617 1807.43 694.593 1807.71 696.868 1809.34C699.144 1810.97 700.367 1813.7 700.072 1816.49C699.777 1819.27 698.009 1821.68 695.443 1822.8C691.534 1824.5 686.982 1822.74 685.237 1818.85C683.492 1814.96 685.203 1810.39 689.075 1808.6Z" fill="#EBE0FF"/><path d="M584.886 1790.08C591.796 1790.07 602.411 1788.69 607.959 1793.11C613.492 1797.53 613.561 1806.35 608.877 1811.45C606.769 1813.74 603.845 1815.11 600.734 1815.27C586.005 1816.13 595.082 1816.98 591.785 1828.83C591.5 1829.86 585.413 1829.68 585.343 1828.74C584.41 1816.24 584.884 1802.82 584.886 1790.08Z" fill="#3F3649"/><path d="M592.614 1796.58C599.603 1796.8 606.072 1795.93 604.204 1805.52L603.891 1807.39C590.366 1812.6 592.668 1807.34 592.614 1796.58Z" fill="#EBE0FF"/><path d="M625.783 1801.31C627.969 1801.52 630.304 1801.62 632.358 1802.5C632.495 1802.52 635.233 1804.21 635.681 1803.31C636.445 1801.79 642.172 1801.18 642.547 1802.72C643.225 1805.49 642.982 1811.5 642.972 1814.63C642.785 1819 643.42 1824.59 642.616 1828.79C642.404 1829.9 636.957 1829.47 636.295 1828.58C635.884 1828.03 635.295 1828.25 634.672 1828.52C610.972 1835.5 606.564 1806.81 625.783 1801.31Z" fill="#3F3649"/><path d="M624.867 1808.72C627.47 1807.28 630.66 1807.42 633.131 1809.07C635.602 1810.73 636.938 1813.63 636.591 1816.59C636.244 1819.54 634.273 1822.06 631.485 1823.1C627.594 1824.55 623.241 1822.75 621.504 1818.98C619.767 1815.21 621.234 1810.73 624.867 1808.72Z" fill="#EBE0FF"/><path d="M1337.92 857.077C1339.9 856.868 1349.14 856.448 1351.58 858.798C1350.35 857.616 1358.09 855.875 1358.42 857.659C1359.81 865.212 1358.64 873.775 1359.08 881.525C1359.5 886.125 1353.72 884.217 1350.79 883.785C1348.92 883.482 1345.5 885.214 1342.02 885.102C1338.84 885.019 1335.85 883.574 1333.81 881.135C1326.62 872.673 1330.14 863.365 1337.92 857.077Z" fill="#3F3649"/><path d="M1341.19 863.822C1343.77 862.48 1346.88 862.672 1349.28 864.323C1351.67 865.974 1352.96 868.812 1352.62 871.701C1352.29 874.59 1350.38 877.057 1347.67 878.114C1343.78 879.631 1339.38 877.841 1337.66 874.038C1335.94 870.236 1337.49 865.749 1341.19 863.822Z" fill="#EBE0FF"/><path d="M708.739 856.3C716.776 855.548 723.905 861.445 724.672 869.481C725.44 877.517 719.557 884.657 711.522 885.44C703.466 886.225 696.302 880.322 695.533 872.264C694.763 864.207 700.68 857.054 708.739 856.3Z" fill="#3F3649"/><path d="M707.277 863.638C711.224 862.036 715.728 863.888 717.405 867.804C719.082 871.719 717.316 876.257 713.433 878.009C710.854 879.172 707.849 878.851 705.574 877.171C703.298 875.49 702.108 872.712 702.462 869.905C702.815 867.099 704.657 864.702 707.277 863.638Z" fill="#EBE0FF"/><path d="M1674.49 875.925C1679.19 889.075 1657.93 886.243 1653.85 881.111C1641.41 865.477 1663.88 845.638 1676.59 862.88L1678.8 865.889C1680.95 867.066 1680.71 875.387 1678.37 875.653C1676.86 875.824 1676.73 874.92 1674.49 875.925Z" fill="#3F3649"/><path d="M1678.8 865.889C1680.95 867.066 1680.71 875.387 1678.37 875.653C1676.86 875.824 1676.73 874.92 1674.49 875.925C1669.91 878.252 1662.42 881.523 1658.74 876.028C1655.15 870.664 1674.57 874.839 1677.89 872.864C1678.59 871.658 1678.46 867.791 1678.8 865.889Z" fill="#EBE0FF"/><path d="M1662.54 861.795C1668.66 862.697 1676.56 868.213 1668.25 868.803C1660.38 868.728 1653.51 870.069 1662.54 861.795Z" fill="#EBE0FF"/><path d="M440.014 1801.38C447.832 1800.34 455.049 1805.73 456.271 1813.53C457.492 1821.32 452.27 1828.66 444.509 1830.06C439.325 1831 434.04 1829.05 430.699 1824.98C427.358 1820.91 426.486 1815.34 428.42 1810.44C430.355 1805.54 434.792 1802.07 440.014 1801.38Z" fill="#3F3649"/><path d="M438.543 1808.73C441.169 1807.52 444.241 1807.84 446.565 1809.56C448.889 1811.27 450.099 1814.11 449.723 1816.98C449.347 1819.84 447.445 1822.27 444.757 1823.33C440.756 1824.9 436.23 1823.01 434.547 1819.05C432.864 1815.1 434.635 1810.52 438.543 1808.73Z" fill="#EBE0FF"/><path d="M787.599 1824.91C781.861 1830.56 773.545 1832.39 766.614 1827.62C763.563 1825.49 761.536 1822.19 761.022 1818.5C758.465 1800 788.181 1791.49 789.019 1818.1C788.481 1820.46 787.981 1822.52 787.599 1824.91Z" fill="#3F3649"/><path d="M787.599 1824.91C778.416 1818.38 782.616 1826.1 772.432 1823.4C770.63 1822.92 767.977 1818.94 769.266 1818.64C774.631 1817.37 783.2 1818.1 789.019 1818.1C788.481 1820.46 787.981 1822.52 787.599 1824.91Z" fill="#EBE0FF"/><path d="M772.74 1806.66C778.619 1807.13 778.408 1806.73 782.341 1811.06L782.24 1812.69C781.354 1813.31 781.07 1813.53 779.966 1813.79C771.488 1813.87 764.178 1815.92 772.74 1806.66Z" fill="#EBE0FF"/><path d="M1538.04 1821.12C1544.51 1834.14 1521.29 1831.19 1517.76 1825.16C1507.36 1807.47 1528.41 1789.82 1542.72 1811.12C1545.39 1811.99 1543.9 1816.11 1543.71 1818.4C1543.58 1820.02 1539.44 1820.61 1538.04 1821.12Z" fill="#3F3649"/><path d="M1542.72 1811.12C1545.39 1811.99 1543.9 1816.11 1543.71 1818.4C1543.58 1820.02 1539.44 1820.61 1538.04 1821.12L1536.2 1822.11C1533.26 1823.73 1523.52 1827.01 1522.55 1819.14C1522.22 1816.47 1540.06 1819.66 1541.98 1817.36C1542.85 1816.31 1542.39 1813.02 1542.72 1811.12Z" fill="#EBE0FF"/><path d="M1527.94 1806.64C1532.9 1808.07 1540.57 1813.08 1531.24 1813.88C1523.71 1813.59 1516.6 1813.32 1527.94 1806.64Z" fill="#EBE0FF"/><path d="M1504.42 875.944C1504.66 876.449 1504.91 876.953 1505.15 877.458C1510.62 884.722 1494.89 886.169 1490.15 884.609C1486.63 883.426 1483.76 880.825 1482.23 877.433C1480.45 873.499 1480.39 869.002 1482.05 865.017C1487.12 852.65 1505.77 852.935 1509.36 870.059L1509.81 871.987C1512.93 875.656 1506.93 875.391 1504.42 875.944Z" fill="#3F3649"/><path d="M1509.81 871.987C1512.93 875.656 1506.93 875.391 1504.42 875.944C1502.41 877.218 1491.31 883.956 1489.07 873.985C1488.79 872.743 1495.48 873.282 1496.56 873.193C1501.18 872.81 1505.45 874.311 1509.81 871.987Z" fill="#EBE0FF"/><path d="M1493.69 861.648C1495.99 862.127 1503.64 864.098 1501.88 867.944C1500.7 868.806 1499.65 868.625 1498.25 868.53C1491.01 868.737 1482.12 870.145 1493.69 861.648Z" fill="#EBE0FF"/><path d="M500.243 845.338C505.858 845.339 518.721 844.658 524.363 845.971C525.639 846.268 525.542 851.088 524.53 851.528C521.254 852.949 512.258 850.746 508.673 852.451C502.452 870.459 527.443 852.04 522.46 867.147C521.393 870.383 511.682 862.769 506.256 871.753C506.61 872.686 508.056 877.199 508.608 877.425C512.962 879.139 522.473 876.736 526.386 878.511C527.227 878.892 528.548 885.081 523.474 884.878C516.084 884.582 507.739 884.775 500.269 884.787C500.328 871.706 499.994 858.383 500.243 845.338Z" fill="#3F3649"/><path d="M1428.22 1790.12C1434.66 1790.11 1457.92 1786.82 1453.75 1795.07C1450.63 1800.76 1437.4 1791.62 1436.2 1799.92C1433.22 1812.8 1453.24 1800.21 1451.22 1809.56C1449.36 1818.21 1439.28 1805.42 1434.96 1817.22C1434.97 1817.23 1435.63 1819.37 1435.61 1819.38C1435.42 1819.44 1436.17 1821.25 1436.2 1821.51C1436.51 1824.87 1450.65 1821.85 1453.43 1823.3C1454.23 1823.71 1454.45 1824.26 1454.64 1824.91C1454.81 1825.5 1454.7 1828.92 1454.02 1829.07C1449.66 1830 1432.19 1829.48 1428.25 1829.46C1428.17 1816.35 1428.16 1803.23 1428.22 1790.12Z" fill="#3F3649"/><path d="M1565.08 845.329C1568.92 845.34 1589.36 843.874 1590.22 847.292C1592.57 856.635 1573.87 848.82 1572.71 853.42C1568.55 869.921 1592.09 852.671 1587.42 866.898C1586.51 869.672 1573.95 864.349 1571.83 870.061C1572.04 872.022 1571.91 870.065 1572.36 876.027C1573.53 882.005 1596.6 872.318 1590.34 883.931C1589.54 885.413 1568.16 884.584 1564.95 884.572C1565 872.128 1564.58 857.588 1565.08 845.329Z" fill="#3F3649"/><path d="M1296.02 845.223C1306 845.312 1303.52 844.251 1307.2 854.464C1309.53 860.92 1311.45 867.837 1313.84 874.275C1316.78 865.907 1320.69 854.672 1323.43 846.379C1323.13 847.304 1334.82 838.857 1328.61 853.264C1326.8 858.406 1320.15 880.005 1316 884.613C1315.74 884.901 1311.11 884.939 1310.8 884.241C1305.81 872.962 1299.26 857.009 1296.02 845.223Z" fill="#3F3649"/><path d="M743.786 856.03C755.556 858.677 755.593 861.063 755.586 873.552C755.584 875.466 755.958 882.583 755.371 883.599C754.556 885.009 746.825 885.815 748.035 881.035C748.269 877.607 748.739 868.881 747.47 865.468C746.598 863.061 742.738 862.635 740.685 862.207C740.412 862.579 740.138 862.95 739.864 863.321C734.496 868.356 739.296 878.955 736.693 884.29C736.304 885.088 731.113 885.591 730.385 883.349C729.506 880.643 730.247 876.256 730.054 873.289C730.4 868.434 729.48 862.389 730.539 857.744C731.411 856.261 735.629 856.812 736.305 857.774C738.063 860.275 741.311 857.145 743.786 856.03Z" fill="#3F3649"/><path d="M461.322 1801.83C462.634 1801.95 467.317 1802 467.802 1802.65C469.39 1804.81 468.431 1813.87 468.564 1816.49C468.79 1820.97 470.874 1824.08 475.419 1823.59C484.074 1823.6 477.66 1804.05 480.665 1802.66C487.924 1799.31 487.12 1805.23 487.094 1807.75C487.037 1816.38 490.502 1833.93 480.637 1828.72C477.371 1827 470.061 1833.38 464.818 1827.55C459.49 1821.63 461.308 1809.39 461.322 1801.83Z" fill="#3F3649"/><path d="M646.861 1801.84C648.101 1801.86 653.362 1801.68 653.969 1802.32C656.572 1805.05 660.453 1818.37 661.595 1821.56C663.91 1814.96 666.606 1798.9 674.274 1801.87C677.091 1802.96 670.038 1817.09 669.063 1819.3L668.469 1820.82C667.56 1823.1 660.857 1840.99 660.178 1841.23C649.545 1845.02 656.142 1834.35 657.602 1830.23L657.908 1829.34C654.282 1819.37 650.756 1811.46 646.861 1801.84Z" fill="#3F3649"/><path d="M508.27 1801.16C524.007 1803.41 518.082 1811.8 519.51 1824.51C520.731 1828.01 517.545 1830.42 514.468 1829.19C508.455 1826.79 517.959 1809.28 507.578 1807.73L504.571 1807.3C498.872 1814.52 501.399 1817.23 501.026 1826.53C500.816 1831.75 494.5 1829 494.392 1828.33C493.411 1822.26 494.135 1809.67 494.289 1803.56C494.355 1800.91 500.46 1802.06 501.304 1803.33C503.179 1802.99 506.014 1801.75 508.27 1801.16Z" fill="#3F3649"/><path d="M543.531 865.852C550.473 855.207 546.261 858.044 557.753 856.426C556.672 857.962 556.177 858.694 555.251 860.284C552.865 863.78 550.525 866.783 547.843 870.056C549.424 872.439 557.39 882.51 557.022 884.067C551.017 888.863 545.77 878.44 543.762 875.486C541.327 878.441 537.862 885.143 533.522 884.727C532.175 884.598 530.075 885.087 529.279 883.803C529.335 883.591 537.642 872.54 538.963 870.638C537.454 868.254 530.616 859.142 530.754 857.659C531.619 856.903 536.153 856.934 537.012 857.219C539.87 858.167 541.999 863.349 543.531 865.852Z" fill="#3F3649"/><path d="M1608.24 865.871C1608.51 865.451 1615.63 850.922 1620.6 858.333C1621.04 858.988 1614.3 867.706 1612.47 870.282C1615.19 874.017 1623.3 882.018 1620.28 885.327C1612.18 883.717 1613.57 882.203 1608.32 875.202C1606.24 877.899 1602.18 885.139 1598.02 884.716C1596.64 884.577 1593.64 885.293 1593.25 883.98C1593.14 884.409 1602.42 872.054 1603.58 870.299L1594.77 857C1605.15 857.157 1601.98 856.413 1608.24 865.871Z" fill="#3F3649"/><path d="M1457.28 1801.8C1467.94 1802.3 1464.89 1801.36 1471.63 1810.61C1474.38 1806.88 1475.35 1802.94 1480.47 1801.96C1489.01 1800.33 1479.6 1810.28 1476.3 1815C1478.67 1818.52 1484.63 1826.03 1484.43 1829.63C1475.31 1828.76 1477.5 1828.74 1472.03 1820.12C1470.07 1822.79 1468.24 1825.53 1466.11 1828.07C1464.79 1829.64 1459.44 1829.72 1458.43 1828.6C1458.3 1827.77 1460.71 1824.78 1461.19 1824.09L1467.49 1815.19C1463.99 1810.66 1460.86 1806.32 1457.28 1801.8Z" fill="#3F3649"/><path d="M656.174 865.192C653.367 863.636 650.775 862.127 647.496 862.732C645.496 863.101 643.564 864.149 642.502 865.95C641.095 868.337 641.018 871.398 641.834 873.997C642.384 875.627 643.387 877.465 645.023 878.186C647.185 879.139 650.37 879.222 652.578 878.304C652.698 878.255 654.827 877.281 655.475 877.266C656.253 877.247 657.49 877.817 658.053 878.407C658.601 878.983 658.642 879.921 658.407 880.649C657.858 882.351 655.686 883.752 654.089 884.356C650.712 885.634 644.834 885.477 641.503 883.964C637.994 882.371 635.364 879.03 634.294 875.428C633.281 872.019 633.28 867.188 635.044 863.988C636.854 860.703 639.892 858.147 643.503 857.112C647.509 855.959 652.021 856.302 655.681 858.36C656.92 859.057 658.119 859.726 659.411 860.342L661.438 859.723L661.62 862.682C659.733 864.335 658.517 866.314 656.174 865.192Z" fill="#3F3649"/><path d="M659.411 860.342L661.438 859.723L661.62 862.682C659.733 864.335 658.517 866.314 656.174 865.192C657.077 863.452 658.324 861.968 659.411 860.342Z" fill="#EBE0FF"/><path d="M1635.26 856.114C1640.53 856.618 1645.81 856.846 1647.93 862.527L1647.08 864.004C1641.65 865.122 1639.66 861.14 1633.7 863.595C1629.73 865.231 1628.87 871.683 1630.72 875.006C1634.8 882.321 1640.62 878.271 1645.83 876.473C1647.52 880.577 1648.58 882.783 1642.38 884.636C1621.93 890.742 1613.55 862.398 1635.26 856.114Z" fill="#3F3649"/><path d="M1495.71 1802.03C1516.36 1799.71 1512.76 1811.68 1508.16 1809.4C1490.37 1800.6 1487.44 1830.56 1508.22 1821.6C1516.54 1824.17 1507.84 1830.87 1500.51 1830.09C1484.05 1828.33 1481.88 1810.72 1495.71 1802.03Z" fill="#3F3649"/><path d="M548.562 1802.01C551.631 1801.82 568.02 1801.57 561.027 1808.16C558.936 1810.12 556.524 1805.19 550.17 1808.83L549.992 1809.87C552.881 1814.09 561.63 1812.3 563.548 1817.87C566.212 1825.59 562.243 1827.95 556.244 1830.44C553.853 1830.22 538.244 1828.57 543.779 1823.49C547.358 1820.21 556.365 1827.68 557.805 1821.9C558.606 1818.69 547.871 1817.69 545.409 1814.61C541.088 1809.2 544.248 1805.8 548.562 1802.01Z" fill="#3F3649"/><path d="M413.231 1801.2C413.882 1801.31 427.41 1803.53 423.587 1808.68C421.598 1811.36 411.201 1804.28 407.703 1810.82C405.432 1815.06 406.398 1821.12 410.907 1823.32C417.155 1825.95 418.121 1821.12 424.234 1822.8C423.241 1830.9 411.287 1832.05 406.988 1828.94C394.41 1819.85 396.679 1804.9 413.231 1801.2Z" fill="#3F3649"/><path d="M384.15 1801.13C399.833 1802.61 397.527 1810.66 391.562 1808.94C384.205 1804.9 375.738 1811.13 379.445 1819.38C382.794 1826.84 390.433 1823.4 394.693 1821.59C396.501 1826.13 396.713 1828.06 390.837 1829.63C370.664 1835.01 362.846 1807.35 384.15 1801.13Z" fill="#3F3649"/><path d="M559.855 857C559.855 857 562.05 856.672 562.277 856.664C564.268 856.588 564.018 853.754 563.826 852.483C563.346 849.074 565.861 848.972 568.507 849.117C569.276 849.106 570.009 849.298 570.494 849.93C571.655 851.443 570.067 855.005 571.396 856.354C572.505 857.479 575.981 856.329 576.879 858.39C577.093 858.737 577.307 859.084 577.522 859.432C576.739 865.027 573.946 861.772 571.45 864.268C569.795 865.924 572.268 882.975 570.317 883.975C556.469 891.079 570.476 861.54 560.1 862.67C559.485 862.487 558.87 862.304 558.256 862.122C557.058 861.333 556.477 860.919 555.251 860.284C556.177 858.694 556.672 857.962 557.753 856.426L559.855 857Z" fill="#3F3649"/><path d="M557.753 856.426L559.855 857C559.308 858.703 558.775 860.41 558.256 862.122C557.058 861.333 556.477 860.919 555.251 860.284C556.177 858.694 556.672 857.962 557.753 856.426Z" fill="#DAC7FF"/><path d="M433.255 848.784C435.358 848.961 440.864 848.308 440.514 851.338C439.378 861.159 446.279 853.743 446.345 859.982C446.854 863.779 441.783 863.083 441.462 863.715C440.078 866.44 440.786 882.054 440.789 884.791C439.558 884.763 435.393 884.793 434.932 884.559C431.627 881.132 435.285 867.731 433.173 863.962C433.102 863.837 423.222 860.24 432.259 856.548C433.617 855.994 433.236 849.832 433.255 848.784Z" fill="#3F3649"/><path d="M661.438 859.723C661.642 857.083 661.829 857.223 664.485 856.979C667.489 856.702 665.098 851.282 666.492 849.774C667.503 848.68 671.76 848.728 672.958 849.706C674.455 851.165 671.971 857.004 675.498 857.053C678.214 857.091 678.977 856.567 679.171 859.985C679.469 865.236 675.303 862.081 673.727 863.709C671.041 866.484 676.549 884.382 670.599 884.676C670.012 884.577 667.386 884.952 666.884 884.153C664.888 880.976 668.346 864.654 665.069 863.289C664.897 863.218 662.226 862.79 661.62 862.682L661.438 859.723Z" fill="#3F3649"/><path d="M1466.03 848.955C1476.28 849.356 1471.7 848.875 1473.54 855.925C1474.01 857.155 1477.26 856.809 1477.63 857.646C1480.33 863.853 1477.15 862.653 1473.7 863.656C1472.61 863.972 1473.12 882.744 1473.11 884.766C1472.37 884.736 1471.62 884.716 1470.88 884.705C1464.88 884.635 1466.18 883.435 1466.06 877.982C1465.95 873.484 1466.62 868.367 1465.8 864.008C1465.52 862.548 1462.05 863.39 1461.54 861.678C1461.3 861.019 1461.08 858.043 1461.5 857.913C1467.15 856.183 1465.75 854.766 1466.03 848.955Z" fill="#3F3649"/><path d="M1548.19 1786.69C1548.82 1786.76 1554.8 1787 1554.86 1787.66C1556.22 1801.03 1555.64 1816.07 1555.62 1829.7C1553.8 1829.54 1548.7 1829.49 1548.63 1828.54C1548.08 1820.55 1548.2 1792.89 1548.19 1786.69Z" fill="#3F3649"/><path d="M527.949 1793.77C529.141 1793.86 530.172 1793.92 531.365 1793.9C537.754 1793.22 531.912 1802.32 537.003 1801.98C542.615 1801.6 540.939 1809.25 535.811 1808.76C534.472 1808.63 535.084 1827.12 535.078 1829.49C529.226 1829.09 528.352 1830.44 528.274 1825.45C528.194 1820.33 529.094 1813.32 527.641 1808.69C527.362 1807.81 523.399 1808.47 523.161 1806.64C522.903 1805.32 522.534 1802.01 524.61 1802.08C528.911 1802.24 527.814 1796.71 527.949 1793.77Z" fill="#3F3649"/><path d="M1684.11 841.601C1693.1 842.742 1690.99 841.8 1691.1 852.52C1691.21 863.426 1691.29 874.512 1691.08 885.41C1688.99 884.991 1686.9 884.572 1684.8 884.152C1683.53 870.785 1684.1 855.237 1684.11 841.601Z" fill="#3F3649"/><path d="M748.874 1786.6C750.991 1787.01 753.108 1787.42 755.224 1787.83C756.461 1801.08 755.904 1816.45 755.971 1830.04C755.952 1830.03 753.72 1829.65 753.715 1829.66C753.695 1829.71 749.358 1829.24 749.309 1828.67C748.571 1820.06 748.736 1794.05 748.874 1786.6Z" fill="#3F3649"/><path d="M1366.62 842.128C1367.2 842.167 1372.92 842.085 1372.99 843.029C1373.97 856.649 1373.45 871.141 1373.3 884.881C1370.5 884.49 1366.52 885.188 1366.56 882.056C1366.72 868.874 1366.7 855.283 1366.62 842.128Z" fill="#3F3649"/><path d="M580.956 856.769C585.499 857.015 586.71 855.776 588.518 859.433C590.545 858.525 601.688 852.184 597.996 861.568C596.657 864.972 591.796 861.275 588.591 867.933L588.039 869.096C588.035 870.66 590.73 891.648 581.305 883.756C580.639 883.199 580.967 861.188 580.956 856.769Z" fill="#3F3649"/><path d="M683.252 856.729C684.075 856.815 689.728 857.023 689.819 857.639C690.966 865.393 690.465 877.553 690.348 885.34C681.352 883.929 683.632 885.574 683.394 875.401C683.249 869.218 683.294 862.921 683.252 856.729Z" fill="#3F3649"/><path d="M1380.99 856.497C1381.72 856.602 1387.3 857.037 1387.38 857.75C1388.16 864.902 1388.44 877.945 1387.49 884.819C1387.11 884.781 1381.24 884.581 1381.17 883.738C1380.49 875.184 1380.84 865.166 1380.99 856.497Z" fill="#3F3649"/><path d="M684.964 843.432C686.429 842.725 688.164 842.88 689.481 843.835C690.797 844.79 691.483 846.392 691.265 848.004C691.047 849.616 689.962 850.979 688.439 851.55C686.226 852.381 683.752 851.324 682.822 849.152C681.892 846.979 682.835 844.459 684.964 843.432Z" fill="#3F3649"/><path d="M1382.99 843.454C1385.16 842.684 1387.55 843.75 1388.42 845.876C1389.29 848.002 1388.34 850.439 1386.26 851.412C1384.82 852.084 1383.13 851.91 1381.86 850.96C1380.59 850.009 1379.94 848.436 1380.18 846.867C1380.41 845.297 1381.5 843.985 1382.99 843.454Z" fill="#3F3649"/></svg>