<svg width="88" height="208" viewBox="0 0 88 208" fill="none" xmlns="http://www.w3.org/2000/svg">
<path d="M18.5675 31.4838C19.2488 28.3279 23.7511 28.3279 24.4324 31.4838L39.3352 100.517C39.7387 102.386 38.3146 104.15 36.4028 104.15H6.5972C4.68539 104.15 3.26133 102.386 3.66475 100.517L18.5675 31.4838Z" fill="black"/>
<path d="M39.4325 101.416C38.7512 104.572 34.2489 104.572 33.5676 101.416L18.6648 32.3831C18.2613 30.5143 19.6854 28.75 21.5972 28.75L51.4028 28.75C53.3146 28.75 54.7387 30.5143 54.3352 32.3831L39.4325 101.416Z" fill="#090400"/>
<path d="M48.5675 106.584C49.2488 103.428 53.7511 103.428 54.4324 106.584L69.3352 175.617C69.7387 177.486 68.3146 179.25 66.4028 179.25H36.5972C34.6854 179.25 33.2613 177.486 33.6648 175.617L48.5675 106.584Z" fill="black"/>
<path d="M69.4325 176.416C68.7512 179.572 64.2489 179.572 63.5676 176.416L48.6648 107.383C48.2613 105.514 49.6854 103.75 51.5972 103.75L81.4028 103.75C83.3146 103.75 84.7387 105.514 84.3352 107.383L69.4325 176.416Z" fill="black"/>
</svg>
