<?xml version="1.0" encoding="utf-8" ?><svg xmlns="http://www.w3.org/2000/svg" xmlns:xlink="http://www.w3.org/1999/xlink" width="1024" height="1024" viewBox="0 0 1024 1024"><path fill="#E0AAFF" d="M508.655 217.199C486.019 198.354 515.995 176.144 528.874 195.005C534.361 203.041 530.486 212.478 521.699 217.061L521.771 256.507C520.313 257.908 518.464 259.441 516.918 260.793C521.61 260.76 531.881 260.208 535.967 260.787C535.816 258.22 534.064 255.944 535.339 253.103C539.884 242.973 555.52 248.055 550.113 260.574C554.377 260.396 559.34 260.504 563.659 260.49C563.652 255.881 563.613 251.527 563.916 246.917L563.966 234.814C559.77 232.608 556.592 230.223 555.167 225.278C554.107 221.696 554.653 217.83 556.663 214.681C558.754 211.38 562.092 209.065 565.917 208.263C578.859 205.588 588.768 222.214 575.444 233.734L575.437 260.451C581.275 260.497 587.689 260.682 593.476 260.397L593.394 220.296C589.468 214.563 586.167 209.677 587.752 202.148C588.649 197.98 591.209 194.36 594.839 192.126C598.822 189.593 603.672 188.815 608.247 189.977C612.946 191.154 616.94 194.241 619.264 198.492C625.901 210.861 617.389 221.217 604.9 223.94L604.961 262.477C607.787 262.583 612.658 263.387 614.97 262.52C616.381 261.013 615.945 260.806 616.258 258.223L616.791 257.046C618.317 256.98 624.227 259.485 625.911 260.206C648.163 269.745 675.26 284.292 692.78 301.06C696.313 304.205 700.215 307.542 703.585 310.819L685.627 327.059C689.681 330.84 692.75 334.107 696.487 338.122L696.877 338.024C698.788 340.241 703.764 346.203 705.639 347.838L705.241 348.446C707.801 351.306 709.346 353.315 711.611 356.433C714.384 360.483 722.499 373.188 724.16 377.579L723.691 378.262C728.3 387.849 732.773 397.952 735.779 408.161C735.979 409.328 736.074 410.288 736.224 411.443L791.306 411.55C797.569 396.214 815.95 396.953 820.695 411.24C822.116 415.393 821.814 419.942 819.856 423.87C818.083 427.394 814.969 430.058 811.213 431.263C802.436 434.108 795.888 430.262 791.465 422.773C774.429 422.726 756.85 423.146 739.929 422.815C740.28 426.382 740.989 431.924 740.964 435.357C747.722 435.584 754.558 435.461 761.325 435.412C763.624 433.051 764.8 432.062 768.141 431.728C783.134 430.227 782.501 451.638 769.184 451.942C765.596 452.024 762.461 448.998 760.226 446.491L743.262 446.483C743.951 455.644 744.3 462.918 744.61 471.981L790.367 471.853C798.295 455.331 823.722 467.924 813.796 484.647C811.833 487.979 808.568 490.339 804.788 491.159C798.057 492.615 793.307 488.745 789.988 483.346C785.33 483.826 777.931 483.603 773.119 483.544C763.561 483.344 754 483.283 744.44 483.362C744.088 493.186 743.316 505.293 743.757 514.939C749.01 521.258 756.887 530.607 762.589 536.467C776.086 536.459 789.866 536.587 803.34 536.374C810.859 524.029 826.974 527.456 829.312 539.082C830.103 542.959 829.245 546.991 826.944 550.21C824.636 553.437 821.094 555.563 817.161 556.082C810.757 556.95 805.835 553.509 803.435 547.726C788.221 547.756 773.006 547.691 757.792 547.531C753.035 541.629 747.98 535.973 742.648 530.585C740.573 534.853 741.881 548.28 741.165 553.904C744.33 557.525 747.859 561.41 750.913 565.08C759.365 565.127 783.225 566.437 789.323 563.768C791.975 562.606 793.778 562.475 796.463 563.68C798.465 564.579 800.143 566.209 800.889 568.297C801.775 570.78 801.442 573.571 800.194 575.869C799.043 577.986 796.994 579.8 794.605 580.337C792.417 580.83 790.011 580.249 788.18 578.985C787.19 578.302 786.514 577.436 785.782 576.497L746.165 576.642L740.164 569.824C739.505 571.747 735.339 592.877 735.288 594.667C726.964 584.893 716.446 598.487 722.585 606.608C724.743 609.463 730.235 609.178 733.234 607.982C731.726 616.127 729.356 622.863 726.98 630.403C724.924 636.927 714.128 657.661 714.225 662.476C724.43 646.96 731.644 633.843 737.802 616.146C746.674 616.645 755.124 617.631 763.751 618.182C752.422 645.977 743.032 667.399 723.573 691.184C718.786 687.849 711.049 679.282 705.425 675.158C704.435 675.891 697.407 682.96 696.9 683.895L696.95 684.273C694.747 685.428 688.858 692.87 687.05 695.219C692.283 699.894 699.612 706.981 704.714 711.977C702.604 715.322 696.52 720.013 693.254 722.711C669.995 740.841 645.512 756.451 617.576 766.592L617.521 760.618L616.85 759.229C615.126 758.418 601.414 760.35 597.827 760.471C598.01 767.849 598.079 775.23 598.037 782.61C600.524 786.406 606.032 791.151 609.537 794.316C613.954 795.13 618.019 795.725 620.65 799.802C624.975 806.503 623.954 814.77 616.861 818.861C613.515 820.783 609.524 821.238 605.831 820.12C596.326 817.272 594.737 808.727 598.763 800.552C594.749 797.216 589.394 792.935 586.767 788.375C586.12 784.678 586.45 766.833 586.47 762.444C580.473 762.465 574.476 762.518 568.479 762.603C568.613 770.486 568.51 778.677 568.523 786.585C589.779 800.254 563.079 824.962 549.741 804.771C545.284 798.024 550.763 789.755 557.146 786.468L557.135 762.983L522.52 763.244C519.665 765.736 517.447 767.218 514.232 769.26L514.03 806.653C529.167 816.624 525.459 836.081 508.451 838.652C504.098 839.324 499.659 838.19 496.162 835.512C492.403 832.6 490.015 828.264 489.564 823.53C489.135 818.82 490.636 814.138 493.724 810.556C496.295 807.611 498.436 806.575 502.036 805.261C502.044 797.706 501.634 769.287 502.789 763.415C501.155 762.891 494.518 762.984 492.372 762.955C489.486 773.002 478.96 772.575 475.057 762.963C470.564 763.084 466.068 763.107 461.574 763.032C461.588 766.706 461.827 784.867 461.252 787.248C467.483 790.035 470.456 795.016 469.024 801.961C468.359 805.33 466.311 808.265 463.378 810.052C448.182 819.448 432.093 796.155 449.746 787.065C449.167 784.234 449.441 766.614 449.462 762.642C442.674 762.663 435.886 762.538 429.104 762.267C429.118 764.366 429 766.555 428.92 768.66L428.98 802.364C433.067 805.318 436.314 808.562 437.147 813.751C440.812 836.585 405.69 841.127 403.806 818.139C403.013 808.462 408.941 803.595 417.49 800.57L417.423 783.572C416.773 779.205 417.033 764.942 417.034 759.73C414.137 759.595 410.965 758.782 408.44 759.792C407.161 761.145 407.586 761.161 407.396 763.572C407.454 765.054 407.666 764.379 406.978 765.673C404.932 765.478 397.542 762.3 395.292 761.367C371.796 751.83 350.068 738.416 331.013 721.685C327.478 718.742 322.937 715.064 319.971 711.664C316.142 707.922 313.188 704.495 309.554 700.714C315.23 695.349 321.703 689.623 327.559 684.366L327.69 683.916C328.467 683.306 328.659 683.132 329.348 682.415C328.295 681.637 321.809 675.088 321.129 673.956C320.595 674.286 320.065 674.623 319.54 674.967C318.906 673.314 314.837 669.092 313.202 666.225C312.234 665.147 311.972 664.6 311.231 663.363C311.715 662.501 311.626 661.816 311.162 660.931C302.659 644.703 295.662 628.07 290.691 610.326C272.135 610.694 252.451 610.391 233.832 610.386C230.128 618.897 222.466 622.642 213.327 620.298C198.28 616.599 196.905 593.914 210.933 588.119C221.895 583.59 230.372 588.613 234.38 598.94L246.806 598.927C254.644 597.914 278.308 598.424 287.394 598.44C287.422 595.11 287.312 592.243 287.14 588.913C279.478 589.222 270.296 588.99 262.518 588.995C251.525 604.482 232.897 585.313 244.99 573.589C247.163 571.455 250.128 570.324 253.171 570.469C258.297 570.738 261.177 573.775 264.295 577.279C266.803 576.794 281.917 577.108 285.114 577.15C285.006 573.247 284.964 570.778 285.312 566.917C284.491 564.731 284.497 562.65 284.312 560.305C283.668 556.597 283.822 553.75 283.874 549.999C270.297 550.04 252.305 550.46 238.947 549.584L238.163 549.855C233.906 557.147 228.812 560.601 220.281 557.834C216.262 556.529 212.987 553.58 211.271 549.72C209.645 546.175 209.586 542.11 211.106 538.519C212.608 534.847 215.544 531.947 219.234 530.489C227.16 527.371 234.966 530.496 237.802 538.662C253.173 538.506 268.546 538.461 283.918 538.525C283.602 528.715 284.694 517.566 284.505 506.906C278.045 500.09 271.761 493.108 265.661 485.967L223.545 485.541C217.13 495.806 204.886 498.301 196.34 487.947C191.055 481.544 194.763 469.45 202.261 465.613C212.012 460.622 219.179 464.883 223.981 473.954C239.175 473.937 254.37 474.067 269.562 474.344C274.304 479.845 280.337 485.996 285.334 491.506C286.567 489.467 286.2 475.814 286.423 472.146C282.131 467.187 277.754 462.303 273.295 457.494L253.256 457.453C249.631 460.685 246.163 462.949 240.966 462.197C238.042 461.781 235.426 460.163 233.748 457.733C224.594 444.553 245.104 430.524 253.242 446.05C261.601 446.051 269.959 446.103 278.318 446.205C281.216 450.13 285.221 454.65 288.408 458.444C288.818 449.413 291.496 438.34 292.116 428.345C305 437.465 314.765 414.377 295.655 412.732C297.705 405.46 298.881 399.491 301.348 392.073C303.9 384.528 306.625 377.043 309.521 369.622C310.593 366.891 314.596 359.201 313.923 356.886C311.95 358.595 308.206 364.669 306.767 366.966C298.138 380.748 291.538 393.522 286.567 409.017C278.469 407.237 269.244 405.601 261.092 404.164C270.695 376.977 283.358 355.507 301.104 333.027C302.506 330.585 309.143 322.786 311.127 320.629C314.254 317.318 318.077 313.32 321.599 310.432C325.635 306.794 329.597 303.013 333.629 299.349C336.674 297.237 339.917 294.577 342.925 292.312C365.245 275.512 388.347 264.141 414.288 254.248C414.445 256.99 414.773 259.639 415.081 262.365L432.513 262.009C432.523 258.357 432.5 255.575 432.929 251.961L433.058 241.234C428.033 236.394 423.065 231.496 418.155 226.54C404.257 225.471 397.216 211.393 407.541 202.726C410.618 200.177 414.572 198.935 418.554 199.266C430.15 200.313 431.463 211.133 428.834 220.353C433.574 225.29 440.346 231.155 444.431 235.729C443.654 242.512 443.989 253.856 444.024 261.032L456.071 261.076L456.029 228.404C448.652 223.607 445.166 216.153 450.879 208.409C453.248 205.163 456.837 203.022 460.819 202.481C474.608 200.689 482.977 219.352 467.941 228.284L467.995 261.041C477.165 261.061 487.004 260.893 496.115 261.117C500.52 258.079 504.688 255.293 508.805 251.849C509.002 240.502 508.769 228.584 508.655 217.199Z"/><defs><linearGradient id="gradient_0" gradientUnits="userSpaceOnUse" x1="375.21539" y1="613.87238" x2="208.77429" y2="609.625"><stop offset="0" stop-color="#6D4FD8"/><stop offset="1" stop-color="#8F6FEF"/></linearGradient></defs><path fill="url(#gradient_0)" d="M238.947 549.584L238.163 549.855C233.906 557.147 228.812 560.601 220.281 557.834C216.262 556.529 212.987 553.58 211.271 549.72C209.645 546.175 209.586 542.11 211.106 538.519C212.608 534.847 215.544 531.947 219.234 530.489C227.16 527.371 234.966 530.496 237.802 538.662C253.173 538.506 268.546 538.461 283.918 538.525L361.539 538.655C369.592 528.167 383.046 538.533 375.285 549.779L375.424 620.822C375.473 633.954 375.801 648.997 375.384 661.96C368.957 668.262 361.797 673.929 354.986 679.844C349.39 684.704 343.957 689.978 338.327 694.726C336.495 692.718 329.742 686.288 327.559 684.366L327.69 683.916C328.467 683.306 328.659 683.132 329.348 682.415C328.295 681.637 321.809 675.088 321.129 673.956C320.595 674.286 320.065 674.623 319.54 674.967C318.906 673.314 314.837 669.092 313.202 666.225C312.234 665.147 311.972 664.6 311.231 663.363C311.715 662.501 311.626 661.816 311.162 660.931C302.659 644.703 295.662 628.07 290.691 610.326C272.135 610.694 252.451 610.391 233.832 610.386C230.128 618.897 222.466 622.642 213.327 620.298C198.28 616.599 196.905 593.914 210.933 588.119C221.895 583.59 230.372 588.613 234.38 598.94L246.806 598.927C254.644 597.914 278.308 598.424 287.394 598.44C287.422 595.11 287.312 592.243 287.14 588.913C279.478 589.222 270.296 588.99 262.518 588.995C251.525 604.482 232.897 585.313 244.99 573.589C247.163 571.455 250.128 570.324 253.171 570.469C258.297 570.738 261.177 573.775 264.295 577.279C266.803 576.794 281.917 577.108 285.114 577.15C285.006 573.247 284.964 570.778 285.312 566.917C284.491 564.731 284.497 562.65 284.312 560.305C283.668 556.597 283.822 553.75 283.874 549.999C270.297 550.04 252.305 550.46 238.947 549.584Z"/><path fill="#E0AAFF" d="M285.312 566.917C291.875 574.895 294.003 568.642 300.284 568.585C313.349 568.466 327.481 567.736 340.466 568.623L340.61 643.352C335.323 647.203 329.677 652.868 324.478 657.134C321.32 659.725 315.772 663.61 313.202 666.225C312.234 665.147 311.972 664.6 311.231 663.363C311.715 662.501 311.626 661.816 311.162 660.931C302.659 644.703 295.662 628.07 290.691 610.326C272.135 610.694 252.451 610.391 233.832 610.386C230.128 618.897 222.466 622.642 213.327 620.298C198.28 616.599 196.905 593.914 210.933 588.119C221.895 583.59 230.372 588.613 234.38 598.94L246.806 598.927C254.644 597.914 278.308 598.424 287.394 598.44C287.422 595.11 287.312 592.243 287.14 588.913C279.478 589.222 270.296 588.99 262.518 588.995C251.525 604.482 232.897 585.313 244.99 573.589C247.163 571.455 250.128 570.324 253.171 570.469C258.297 570.738 261.177 573.775 264.295 577.279C266.803 576.794 281.917 577.108 285.114 577.15C285.006 573.247 284.964 570.778 285.312 566.917Z"/><defs><linearGradient id="gradient_1" gradientUnits="userSpaceOnUse" x1="311.76456" y1="573.33057" x2="216.37361" y2="632.08813"><stop offset="0" stop-color="#7654E0"/><stop offset="1" stop-color="#8D6FEE"/></linearGradient></defs><path fill="url(#gradient_1)" d="M233.832 610.386C230.128 618.897 222.466 622.642 213.327 620.298C198.28 616.599 196.905 593.914 210.933 588.119C221.895 583.59 230.372 588.613 234.38 598.94L246.806 598.927C269.238 599.424 292.38 598.668 315.062 599.022C317.567 596.75 319.806 595.786 323.314 595.899C325.195 595.968 326.964 596.811 328.201 598.228C334.438 605.245 326.679 621.445 314.764 610.055C306.995 610.073 298.382 609.925 290.691 610.326C272.135 610.694 252.451 610.391 233.832 610.386Z"/><path fill="#9D4EDD" d="M262.518 588.995C251.525 604.482 232.897 585.313 244.99 573.589C247.163 571.455 250.128 570.324 253.171 570.469C258.297 570.738 261.177 573.775 264.295 577.279C267.809 577.837 277.557 577.588 281.542 577.574L315.576 577.459C317.675 575.592 320.708 573.405 323.653 573.968C335.702 576.272 333.525 595.087 319.97 592.029C318.026 591.59 316.855 590.165 315.467 588.763C306.488 588.774 295.999 588.523 287.14 588.913C279.478 589.222 270.296 588.99 262.518 588.995Z"/><path fill="#9D4EDD" d="M318.535 623.555C325.07 621.617 331.93 625.379 333.809 631.93C335.688 638.482 331.864 645.309 325.296 647.128C318.811 648.925 312.09 645.16 310.235 638.691C308.38 632.223 312.084 625.468 318.535 623.555Z"/><path fill="#E0AAFF" d="M238.947 549.584C254.446 548.987 272.423 549.563 288.182 549.583L362.968 549.513L362.929 651.857C352.598 662.018 340.234 672.598 329.348 682.415C328.295 681.637 321.809 675.088 321.129 673.956C320.595 674.286 320.065 674.623 319.54 674.967C318.906 673.314 314.837 669.092 313.202 666.225C315.772 663.61 321.32 659.725 324.478 657.134C329.677 652.868 335.323 647.203 340.61 643.352L340.466 568.623C327.481 567.736 313.349 568.466 300.284 568.585C294.003 568.642 291.875 574.895 285.312 566.917C284.491 564.731 284.497 562.65 284.312 560.305C283.668 556.597 283.822 553.75 283.874 549.999C270.297 550.04 252.305 550.46 238.947 549.584Z"/><path fill="#9D4EDD" d="M284.312 560.305C288.49 553.507 293.646 550.931 299.168 557.992C312.394 557.986 326.32 558.186 339.488 557.861C349.937 550.024 358.961 559.814 351.099 570.088L350.962 647.777C342.766 656.19 330.14 665.919 321.129 673.956C320.595 674.286 320.065 674.623 319.54 674.967C318.906 673.314 314.837 669.092 313.202 666.225C315.772 663.61 321.32 659.725 324.478 657.134C329.677 652.868 335.323 647.203 340.61 643.352L340.466 568.623C327.481 567.736 313.349 568.466 300.284 568.585C294.003 568.642 291.875 574.895 285.312 566.917C284.491 564.731 284.497 562.65 284.312 560.305Z"/><path fill="#9D4EDD" d="M650.47 359.643C657.8 351.37 676.598 335.21 685.627 327.059C689.681 330.84 692.75 334.107 696.487 338.122L696.877 338.024C698.788 340.241 703.764 346.203 705.639 347.838L705.241 348.446C707.801 351.306 709.346 353.315 711.611 356.433C714.384 360.483 722.499 373.188 724.16 377.579L723.691 378.262C728.3 387.849 732.773 397.952 735.779 408.161C735.979 409.328 736.074 410.288 736.224 411.443L791.306 411.55C797.569 396.214 815.95 396.953 820.695 411.24C822.116 415.393 821.814 419.942 819.856 423.87C818.083 427.394 814.969 430.058 811.213 431.263C802.436 434.108 795.888 430.262 791.465 422.773C774.429 422.726 756.85 423.146 739.929 422.815C740.28 426.382 740.989 431.924 740.964 435.357C747.722 435.584 754.558 435.461 761.325 435.412C763.624 433.051 764.8 432.062 768.141 431.728C783.134 430.227 782.501 451.638 769.184 451.942C765.596 452.024 762.461 448.998 760.226 446.491L743.262 446.483C743.951 455.644 744.3 462.918 744.61 471.981L790.367 471.853C798.295 455.331 823.722 467.924 813.796 484.647C811.833 487.979 808.568 490.339 804.788 491.159C798.057 492.615 793.307 488.745 789.988 483.346C787.271 482.747 758.121 482.982 753.906 482.988L662.932 483.201C653.513 492.993 641.332 479.294 650.825 470.509C650.366 457.186 650.608 442.713 650.589 429.318L650.47 359.643Z"/><path fill="#E0AAFF" d="M711.611 356.433C714.384 360.483 722.499 373.188 724.16 377.579L723.691 378.262C728.3 387.849 732.773 397.952 735.779 408.161C735.979 409.328 736.074 410.288 736.224 411.443L791.306 411.55C797.569 396.214 815.95 396.953 820.695 411.24C822.116 415.393 821.814 419.942 819.856 423.87C818.083 427.394 814.969 430.058 811.213 431.263C802.436 434.108 795.888 430.262 791.465 422.773C774.429 422.726 756.85 423.146 739.929 422.815C740.28 426.382 740.989 431.924 740.964 435.357C735.932 435.795 729.15 446.165 724.669 450.508L724.148 451.008C711.621 451.35 697.631 451.022 684.994 450.996L684.995 380.279C689.649 377.091 708.619 360.764 711.611 356.433Z"/><path fill="#9D4EDD" d="M791.306 411.55C797.569 396.214 815.95 396.953 820.695 411.24C822.116 415.393 821.814 419.942 819.856 423.87C818.083 427.394 814.969 430.058 811.213 431.263C802.436 434.108 795.888 430.262 791.465 422.773C774.429 422.726 756.85 423.146 739.929 422.815C737.816 422.545 722.786 422.991 719.507 423.02C719.311 442.846 696.033 440.365 694.341 424.067C693.411 415.11 701.582 411.603 709.631 411.336C717.176 411.78 728.305 411.369 736.224 411.443L791.306 411.55Z"/><path fill="#CAC8F9" d="M735.779 408.161C735.979 409.328 736.074 410.288 736.224 411.443C728.305 411.369 717.176 411.78 709.631 411.336C711.182 410.096 728.166 411.329 731.249 410.742C730.912 410.806 735.376 408.347 735.779 408.161Z"/><path fill="#9D4EDD" d="M703.613 373.69C710.398 373.113 716.369 378.136 716.964 384.918C717.559 391.701 712.553 397.686 705.772 398.299C698.965 398.915 692.952 393.885 692.355 387.077C691.758 380.268 696.803 374.269 703.613 373.69Z"/><path fill="#9D4EDD" d="M674.565 375.861C685.134 367.022 694.941 356.901 705.241 348.446C707.801 351.306 709.346 353.315 711.611 356.433C708.619 360.764 689.649 377.091 684.995 380.279L684.994 450.996C697.631 451.022 711.621 451.35 724.148 451.008L724.669 450.508C729.15 446.165 735.932 435.795 740.964 435.357C747.722 435.584 754.558 435.461 761.325 435.412C763.624 433.051 764.8 432.062 768.141 431.728C783.134 430.227 782.501 451.638 769.184 451.942C765.596 452.024 762.461 448.998 760.226 446.491L743.262 446.483C739.204 450.42 733.814 457.148 730.511 461.715L686.96 461.846C677.391 470.055 664.239 460.232 674.464 449.86C674.223 425.378 674.523 400.383 674.565 375.861Z"/><path fill="#E0AAFF" d="M696.877 338.024C698.788 340.241 703.764 346.203 705.639 347.838L705.241 348.446C694.941 356.901 685.134 367.022 674.565 375.861C674.523 400.383 674.223 425.378 674.464 449.86C664.239 460.232 677.391 470.055 686.96 461.846L730.511 461.715C733.814 457.148 739.204 450.42 743.262 446.483C743.951 455.644 744.3 462.918 744.61 471.981L662.025 472.008L661.944 369.74C668.282 365.072 691.438 343.952 696.487 338.122L696.877 338.024Z"/><path fill="#E0AAFF" d="M547.928 742.914C548.127 733.976 547.215 683.735 548.797 679.057C552.475 677.949 572.948 678.338 577.914 678.351L630.895 678.523C634.882 683.134 637.273 680.983 638.305 681.889C648.811 691.107 658.437 701.42 668.858 710.757C670.952 709.693 673.779 706.865 676.181 705.215C681.792 711.072 687.719 716.857 693.254 722.711C669.995 740.841 645.512 756.451 617.576 766.592L617.521 760.618L616.85 759.229C615.126 758.418 601.414 760.35 597.827 760.471C598.01 767.849 598.079 775.23 598.037 782.61C600.524 786.406 606.032 791.151 609.537 794.316C613.954 795.13 618.019 795.725 620.65 799.802C624.975 806.503 623.954 814.77 616.861 818.861C613.515 820.783 609.524 821.238 605.831 820.12C596.326 817.272 594.737 808.727 598.763 800.552C594.749 797.216 589.394 792.935 586.767 788.375C586.12 784.678 586.45 766.833 586.47 762.444C580.473 762.465 574.476 762.518 568.479 762.603C568.613 770.486 568.51 778.677 568.523 786.585C589.779 800.254 563.079 824.962 549.741 804.771C545.284 798.024 550.763 789.755 557.146 786.468L557.135 762.983L522.52 763.244C528.376 757.967 541.028 748.534 547.928 742.914Z"/><path fill="#9D4EDD" d="M556.978 702.922C549.189 692.818 559.591 684.48 569.356 691.208L615.652 691.131C619.516 691.12 623.817 691.182 627.605 691.067C637.625 690.762 647.072 690.236 648.433 702.932C649.364 711.612 641.696 718.138 633.307 716.735C629.996 716.196 627.07 714.276 625.257 711.454C623.011 707.933 623.318 705.815 623.434 701.824C605.628 701.697 586.106 701.196 568.416 701.628C568.414 721.726 568.12 742.567 568.479 762.603C568.613 770.486 568.51 778.677 568.523 786.585C589.779 800.254 563.079 824.962 549.741 804.771C545.284 798.024 550.763 789.755 557.146 786.468L557.135 762.983L556.978 702.922Z"/><path fill="#5A189A" d="M668.858 710.757C670.952 709.693 673.779 706.865 676.181 705.215C681.792 711.072 687.719 716.857 693.254 722.711C669.995 740.841 645.512 756.451 617.576 766.592L617.521 760.618C616.861 755.635 616.948 745.642 616.866 740.229C635.573 732.129 652.862 723.776 668.858 710.757Z"/><path fill="#9D4EDD" d="M586.831 734.354C581.513 730.453 579.394 725.212 581.639 719.048C587.272 703.574 611.394 712.714 606.309 727.941C605.104 731.549 600.898 733.671 597.525 735.021C597.53 742.061 597.189 753.785 597.827 760.471C598.01 767.849 598.079 775.23 598.037 782.61C600.524 786.406 606.032 791.151 609.537 794.316C613.954 795.13 618.019 795.725 620.65 799.802C624.975 806.503 623.954 814.77 616.861 818.861C613.515 820.783 609.524 821.238 605.831 820.12C596.326 817.272 594.737 808.727 598.763 800.552C594.749 797.216 589.394 792.935 586.767 788.375C587.254 784.316 587.036 774.802 587.001 770.319C586.793 758.332 586.737 746.343 586.831 734.354Z"/><path fill="#E0AAFF" d="M321.599 310.432C327.899 315.524 333.211 321.77 339.497 326.999C334.853 330.774 332.568 333.543 328.528 337.807C339.297 348.59 351.674 359.037 362.857 370.111C363.138 408.602 363.388 450.79 362.71 489.23L315.508 489.478C306.306 479.319 297.001 469.121 288.408 458.444C288.818 449.413 291.496 438.34 292.116 428.345C305 437.465 314.765 414.377 295.655 412.732C297.705 405.46 298.881 399.491 301.348 392.073C303.9 384.528 306.625 377.043 309.521 369.622C310.593 366.891 314.596 359.201 313.923 356.886C311.95 358.595 308.206 364.669 306.767 366.966C298.138 380.748 291.538 393.522 286.567 409.017C278.469 407.237 269.244 405.601 261.092 404.164C270.695 376.977 283.358 355.507 301.104 333.027C302.506 330.585 309.143 322.786 311.127 320.629C314.254 317.318 318.077 313.32 321.599 310.432Z"/><path fill="#9D4EDD" d="M320.156 349.122C328.637 354.972 342.026 368.942 351.037 376.407C350.969 406.121 350.39 437.427 350.876 467.054C360.609 476.033 347.891 488.189 339.148 478.892C335.07 478.823 331.382 478.75 327.315 478.964C322.797 473.868 318.805 468.332 314.549 463.04C311.747 459.557 305.791 455.741 306.175 450.906C306.472 447.154 311.278 444.061 314.173 442.353C314.309 438.068 314.498 429.555 312.893 425.827C308.711 416.117 321.236 410.234 326.748 417.375C327.942 418.949 328.447 420.94 328.148 422.893C327.844 424.931 326.61 426.442 325.422 428.088C325.383 437.801 325.544 448.026 324.878 457.673C327.607 462.228 329.182 464.626 332.822 468.542L340.441 468.419C340.971 439.541 340.596 409.612 340.506 380.661C331.687 373.703 321.984 364.453 314.119 356.464C316.2 353.666 317.836 351.736 320.156 349.122Z"/><path fill="#5A189A" d="M301.104 333.027C307.502 338.381 313.598 343.973 320.156 349.122C317.836 351.736 316.2 353.666 314.119 356.464L313.923 356.886C311.95 358.595 308.206 364.669 306.767 366.966C298.138 380.748 291.538 393.522 286.567 409.017C278.469 407.237 269.244 405.601 261.092 404.164C270.695 376.977 283.358 355.507 301.104 333.027Z"/><path fill="#5A189A" d="M321.599 310.432C327.899 315.524 333.211 321.77 339.497 326.999C334.853 330.774 332.568 333.543 328.528 337.807C323.055 332.192 316.112 326.367 311.127 320.629C314.254 317.318 318.077 313.32 321.599 310.432Z"/><path fill="#9D4EDD" d="M318.553 376.228C325.129 374.352 331.992 378.114 333.947 384.667C335.902 391.221 332.222 398.128 325.693 400.161C321.399 401.498 316.717 400.423 313.437 397.347C310.157 394.271 308.784 389.668 309.842 385.297C310.901 380.926 314.228 377.462 318.553 376.228Z"/><path fill="#E0AAFF" d="M662.434 531.495C676.921 531.454 693.266 531.194 707.617 531.723C715.549 540.728 723.153 550.226 731.217 559.154C734.115 562.362 737.637 566.345 740.164 569.824C739.505 571.747 735.339 592.877 735.288 594.667C726.964 584.893 716.446 598.487 722.585 606.608C724.743 609.463 730.235 609.178 733.234 607.982C731.726 616.127 729.356 622.863 726.98 630.403C724.924 636.927 714.128 657.661 714.225 662.476C724.43 646.96 731.644 633.843 737.802 616.146C746.674 616.645 755.124 617.631 763.751 618.182C752.422 645.977 743.032 667.399 723.573 691.184C718.786 687.849 711.049 679.282 705.425 675.158C704.435 675.891 697.407 682.96 696.9 683.895C693.217 681.408 686.249 674.52 682.847 671.24L662.172 651.187L662.434 531.495Z"/><path fill="#9D4EDD" d="M674.645 554.005C671.42 549.986 670.042 545.81 674.173 541.586C675.736 539.964 677.908 539.072 680.159 539.127C683.242 539.183 684.277 540.48 686.276 542.629L698.129 542.905C701.789 548.037 708.259 554.266 712.762 559.124C718.602 565.425 725.025 573.209 712.941 577.647C711.418 578.206 712.023 592.851 712.035 594.901C723.929 611.56 688.484 614.416 701.003 594.087C701.058 586.753 700.73 572.003 701.611 565.283C698.557 561.446 696.499 557.702 694.144 553.42L685 553.479L684.957 642.411C693.405 650.249 703.544 658.74 711.449 666.671C709.873 668.57 706.112 672.781 705.304 674.783C702.171 672.963 678.419 650.693 674.78 647.11L674.645 554.005Z"/><path fill="#5A189A" d="M737.802 616.146C746.674 616.645 755.124 617.631 763.751 618.182C752.422 645.977 743.032 667.399 723.573 691.184C718.786 687.849 711.049 679.282 705.425 675.158L705.304 674.783C706.112 672.781 709.873 668.57 711.449 666.671C712.843 664.904 713.175 664.447 714.225 662.476C724.43 646.96 731.644 633.843 737.802 616.146Z"/><path fill="#9D4EDD" d="M702.715 620.377C709.343 619.605 715.379 624.253 716.325 630.858C717.271 637.463 712.781 643.618 706.204 644.736C701.793 645.486 697.323 643.783 694.529 640.289C691.735 636.795 691.057 632.06 692.758 627.922C694.459 623.785 698.272 620.896 702.715 620.377Z"/><path fill="#5A189A" d="M545.766 505.693C554.221 486.396 560.483 465.012 586.796 469.39C593.545 470.514 597.087 472.839 602.192 477.043C586.526 478.438 579.667 483.335 562.687 480.145C570.268 492.768 581.622 496.929 591.558 483.948L592.872 481.889L593.353 481.932C593.309 483.446 593.313 483.697 592.986 485.162C587.887 504.459 585.546 507.289 569.817 518.296C581.235 518.948 586.055 517.428 592.265 507.027C594.592 519.667 596.137 534.999 598.805 547.073C599.136 548.972 599.712 551.745 599.888 553.588C602.29 567.135 603.763 581.133 606.252 594.524L606.857 599.475C604.159 599.881 601.462 600.305 598.769 600.746C595.631 606.663 593.638 606.464 587.243 607.004C585.986 608.401 582.534 612.278 581.191 613.056C568.051 620.663 585.147 626.78 568.858 632.801C568.568 639.186 568.461 645.579 568.539 651.971L563.065 651.96C557.677 651.953 530.21 651.22 526.516 652.28L525.911 653.039L525.185 653.779C522.506 654.26 518.557 654.061 515.708 654.025C516.052 647.811 516.223 640.643 515.908 634.45L515.947 609.759C530.734 607.516 544.986 600.72 551.544 586.62C554.72 579.791 553.016 573.697 552.255 566.644C569.247 542.008 561.749 527.328 545.766 505.693Z"/><path fill="#9D4EDD" d="M598.805 547.073C599.136 548.972 599.712 551.745 599.888 553.588C602.29 567.135 603.763 581.133 606.252 594.524L606.857 599.475C604.159 599.881 601.462 600.305 598.769 600.746C595.631 606.663 593.638 606.464 587.243 607.004C585.986 608.401 582.534 612.278 581.191 613.056C568.051 620.663 585.147 626.78 568.858 632.801C568.568 639.186 568.461 645.579 568.539 651.971L563.065 651.96L563.046 632.862C559.509 631.237 557 629.427 555.791 625.509C555.01 623.029 555.263 620.339 556.494 618.048C558.579 614.152 561.301 613.384 565.158 612.157C567.612 612.696 569.488 613.335 571.861 614.11C575.301 611.066 579.876 606.328 583.256 603.012C580.548 597.521 581.361 596.197 585.089 591.844C582.779 586.448 580.577 581.005 578.484 575.521C561.761 571.427 572.135 555.403 584.652 560.196C589.068 555.76 593.868 550.857 598.805 547.073Z"/><path fill="#5A189A" d="M586.769 564.604C588.65 562.99 598.467 553.922 599.888 553.588C602.29 567.135 603.763 581.133 606.252 594.524C604.028 594.857 601.283 595.255 599.059 595.448C594.823 590.743 595.81 591.376 590.071 590.204C588.169 584.842 586.212 579.5 584.201 574.178C585.743 572.354 586.11 571.8 587.414 569.741C587.266 567.943 586.996 566.385 586.769 564.604Z"/><path fill="#5A189A" d="M424.771 477.199C430.474 472.758 435.809 469.756 443.131 468.915C466.414 466.243 474.102 488.565 481.018 505.835C473.514 516.004 463.056 530.265 465.049 543.66C466.053 550.416 470.508 561.673 474.911 566.963C473.264 577.992 471.644 582.853 478.629 592.807C484.467 601.128 495.694 606.968 505.376 609.54C505.501 624.4 505.544 639.262 505.505 654.123C502.027 654.373 495.349 654.643 492.044 654.055L491.75 652.627C489.458 651.341 467.153 652.107 463.097 652.162C461.63 652.238 459.489 652.134 457.965 652.109L457.976 632.875C450.528 631.002 448.337 625.174 450.733 618.222C446.479 614.201 442.793 610.775 438.902 606.388L438.469 606.463L437.745 606.577C431.73 607.576 430.291 605.909 427.656 600.639C425.104 600.726 422.458 600.706 419.897 600.722L420.727 594.913C423.623 580.632 424.794 565.356 427.256 550.907L428.136 545.098C430.592 533.989 432.617 516.804 435.343 507.104C441.077 517.731 446.444 519.271 457.86 518.293C454.864 516.404 451.386 514.519 448.658 512.438C440.229 506.006 436.42 493.631 434.162 483.643L433.738 481.732C443.7 494.192 455.275 496.736 463.501 480.892C456.495 481.02 449.681 481.133 442.7 480.192C436.781 479.395 430.684 477.686 424.771 477.199Z"/><path fill="#9D4EDD" d="M427.256 550.907L428.136 545.098C430.043 547.611 439.524 556.193 443.213 560.505C446.002 559.653 449.963 558.455 452.217 559.989C455.66 562.331 458.528 566.512 455.797 570.335C453.794 573.137 450.751 573.999 447.956 575.78C445.247 580.071 443.866 586.454 441.545 591.139C443.118 593.729 443.853 594.85 444.927 597.759C444.357 599.384 443.713 601.416 443.046 602.963C446.998 606.704 450.849 610.467 455.082 613.889C459.04 613.318 460.843 613.386 464.857 613.581C474.137 619.471 472.871 628.786 462.518 632.612C462.844 639.248 463.186 645.513 463.097 652.162C461.63 652.238 459.489 652.134 457.965 652.109L457.976 632.875C450.528 631.002 448.337 625.174 450.733 618.222C446.479 614.201 442.793 610.775 438.902 606.388L438.469 606.463L437.745 606.577C431.73 607.576 430.291 605.909 427.656 600.639C425.104 600.726 422.458 600.706 419.897 600.722L420.727 594.913C423.623 580.632 424.794 565.356 427.256 550.907Z"/><path fill="#5A189A" d="M427.256 550.907C432.376 557.214 433.752 558.54 439.543 564.307C439.66 569.527 439.272 569.328 442.28 573.728C440.295 578.985 438.541 584.421 436.424 589.607C430.784 590.404 431.503 590.238 427.685 595.029C424.906 594.872 423.549 594.811 420.727 594.913C423.623 580.632 424.794 565.356 427.256 550.907Z"/><defs><linearGradient id="gradient_2" gradientUnits="userSpaceOnUse" x1="375.93781" y1="414.49661" x2="231.29599" y2="419.6398"><stop offset="0" stop-color="#6B4DD5"/><stop offset="1" stop-color="#8C6AEE"/></linearGradient></defs><path fill="url(#gradient_2)" d="M339.497 326.999C350.083 336.433 365.294 350.038 375.274 359.818L375.162 488.081C377.257 490.651 378.411 492.014 378.156 495.511C378.007 497.791 376.886 499.897 375.078 501.294C370.439 504.947 365.96 503.118 361.789 500.094L310.307 500.051L294.789 482.034C292.387 479.201 288.879 474.685 286.423 472.146C282.131 467.187 277.754 462.303 273.295 457.494L253.256 457.453C249.631 460.685 246.163 462.949 240.966 462.197C238.042 461.781 235.426 460.163 233.748 457.733C224.594 444.553 245.104 430.524 253.242 446.05C261.601 446.051 269.959 446.103 278.318 446.205C281.216 450.13 285.221 454.65 288.408 458.444C297.001 469.121 306.306 479.319 315.508 489.478L362.71 489.23C363.388 450.79 363.138 408.602 362.857 370.111C351.674 359.037 339.297 348.59 328.528 337.807C332.568 333.543 334.853 330.774 339.497 326.999Z"/><path fill="#9D4EDD" d="M650.401 531.96C647.227 528.475 646.129 524.672 649.611 520.714C651.288 518.797 653.721 517.713 656.268 517.747C659.304 517.78 660.818 518.951 662.753 521.047L712.339 521.07C720.928 529.711 732.952 544.455 741.165 553.904C744.33 557.525 747.859 561.41 750.913 565.08C759.365 565.127 783.225 566.437 789.323 563.768C791.975 562.606 793.778 562.475 796.463 563.68C798.465 564.579 800.143 566.209 800.889 568.297C801.775 570.78 801.442 573.571 800.194 575.869C799.043 577.986 796.994 579.8 794.605 580.337C792.417 580.83 790.011 580.249 788.18 578.985C787.19 578.302 786.514 577.436 785.782 576.497L746.165 576.642L740.164 569.824C737.637 566.345 734.115 562.362 731.217 559.154C723.153 550.226 715.549 540.728 707.617 531.723C693.266 531.194 676.921 531.454 662.434 531.495L662.172 651.187L682.847 671.24C686.249 674.52 693.217 681.408 696.9 683.895L696.95 684.273C694.747 685.428 688.858 692.87 687.05 695.219C674.769 684.066 661.764 673.761 650.509 661.299L650.401 531.96Z"/><path fill="#9D4EDD" d="M536.89 679.754C528.946 668.317 541.773 659.065 549.463 667.627C576.601 667.973 603.742 668.101 630.883 668.008C632.886 666.704 634.705 665.936 636.861 664.933C648.278 669.404 640.857 669.627 646.946 676.224C656.014 686.051 667.69 694.93 676.181 705.215C673.779 706.865 670.952 709.693 668.858 710.757C658.437 701.42 648.811 691.107 638.305 681.889C637.273 680.983 634.882 683.134 630.895 678.523L577.914 678.351C572.948 678.338 552.475 677.949 548.797 679.057C547.215 683.735 548.127 733.976 547.928 742.914C541.028 748.534 528.376 757.967 522.52 763.244C519.665 765.736 517.447 767.218 514.232 769.26L514.03 806.653C529.167 816.624 525.459 836.081 508.451 838.652C504.098 839.324 499.659 838.19 496.162 835.512C492.403 832.6 490.015 828.264 489.564 823.53C489.135 818.82 490.636 814.138 493.724 810.556C496.295 807.611 498.436 806.575 502.036 805.261C502.044 797.706 501.634 769.287 502.789 763.415C505.947 762.979 532.788 740.875 536.887 737.305C536.637 718.377 536.943 698.748 536.89 679.754Z"/><path fill="#9D4EDD" d="M593.394 220.296C589.468 214.563 586.167 209.677 587.752 202.148C588.649 197.98 591.209 194.36 594.839 192.126C598.822 189.593 603.672 188.815 608.247 189.977C612.946 191.154 616.94 194.241 619.264 198.492C625.901 210.861 617.389 221.217 604.9 223.94L604.961 262.477L605.029 289.058L607.74 292.94C607.783 295.106 607.554 297.795 607.427 299.999C601.456 306.276 597.489 302.916 590.057 302.082C587.494 301.795 584.441 301.797 581.861 301.827C575.095 306.739 567.719 313.142 561.205 318.545L561.14 339.714C564.396 343.55 565.59 350.01 560.907 352.59C551.389 357.835 543.854 348.241 550.887 339.517C550.937 330.661 550.91 321.806 550.806 312.95C558.767 306.344 568.873 297.467 577.092 291.555L593.348 291.557C593.462 281.171 593.504 270.784 593.476 260.397L593.394 220.296Z"/><defs><linearGradient id="gradient_3" gradientUnits="userSpaceOnUse" x1="372.73315" y1="484.19168" x2="197.96965" y2="507.27203"><stop offset="0" stop-color="#6C4BD7"/><stop offset="1" stop-color="#8F70EF"/></linearGradient></defs><path fill="url(#gradient_3)" d="M223.545 485.541C217.13 495.806 204.886 498.301 196.34 487.947C191.055 481.544 194.763 469.45 202.261 465.613C212.012 460.622 219.179 464.883 223.981 473.954C239.175 473.937 254.37 474.067 269.562 474.344C274.304 479.845 280.337 485.996 285.334 491.506C290.363 497.702 298.687 506.805 304.392 512.642C323.119 512.628 342.63 512.866 361.323 512.572C366.286 508.765 372.614 507.494 376.542 513.489C377.997 515.674 378.489 518.363 377.901 520.922C376.658 526.161 371.132 528.08 366.16 527.021C364.653 526.701 363.167 524.957 362.098 523.848L299.806 523.845C295.253 518.631 289.302 511.717 284.505 506.906C278.045 500.09 271.761 493.108 265.661 485.967L223.545 485.541Z"/><path fill="#9D4EDD" d="M663.326 508.985C656.874 513.428 648.428 513.605 647.5 504.226C647.248 501.564 648.126 498.918 649.919 496.934C653.966 492.381 658.758 494.088 662.726 497.613C684.8 497.899 706.875 497.91 728.949 497.645L743.757 514.939C749.01 521.258 756.887 530.607 762.589 536.467C776.086 536.459 789.866 536.587 803.34 536.374C810.859 524.029 826.974 527.456 829.312 539.082C830.103 542.959 829.245 546.991 826.944 550.21C824.636 553.437 821.094 555.563 817.161 556.082C810.757 556.95 805.835 553.509 803.435 547.726C788.221 547.756 773.006 547.691 757.792 547.531C753.035 541.629 747.98 535.973 742.648 530.585C736.185 523.536 730.405 515.818 723.927 509.013C703.727 508.804 683.526 508.795 663.326 508.985Z"/><path fill="#9D4EDD" d="M508.655 217.199C486.019 198.354 515.995 176.144 528.874 195.005C534.361 203.041 530.486 212.478 521.699 217.061L521.771 256.507C520.313 257.908 518.464 259.441 516.918 260.793C509.74 266.407 501.197 272.745 493.485 277.517L493.456 340.337C496.557 343.798 498.805 349.119 494.412 352.426C485.888 358.844 472.712 349.343 482.544 340.267L482.305 271.195C485.692 268.843 493.436 263.619 496.115 261.117C500.52 258.079 504.688 255.293 508.805 251.849C509.002 240.502 508.769 228.584 508.655 217.199Z"/><path fill="#9D4EDD" d="M505.505 654.123L505.525 716.084C490.07 727.711 475.852 740.972 461.086 752.146C461.125 759.288 460.008 781.731 461.252 787.248C467.483 790.035 470.456 795.016 469.024 801.961C468.359 805.33 466.311 808.265 463.378 810.052C448.182 819.448 432.093 796.155 449.746 787.065C450.179 784.533 450.014 776.478 450.011 773.573L449.965 747.02C456.926 741.816 463.257 735.968 469.938 730.422C477.202 724.392 484.592 718.657 491.643 712.368C492.064 693.123 491.343 673.102 492.044 654.055C495.349 654.643 502.027 654.373 505.505 654.123Z"/><path fill="#9D4EDD" d="M465.007 667.443C473.965 657.778 485.411 669.374 476.482 679.496L476.403 707.628C470.131 712.566 463.723 717.486 457.581 722.616C454.188 725.45 451.998 732.209 446.318 731.553C441.782 731.029 438.227 725.879 439.083 721.433C440.287 715.845 444.818 715.054 449.558 714.885C454.393 710.985 460.013 706.15 465.054 702.704C465.245 694.632 465.345 686.558 465.352 678.484C442.798 678.443 419.909 678.222 397.382 678.433C393.551 681.106 393.089 681.094 388.363 681.028C378.246 690.594 366.612 701.725 356.128 710.708C355.344 710.441 349.612 706.317 348.282 705.442L348.566 704.54C349.288 704.07 349.211 704.148 349.673 703.384C359.161 693.392 370.344 684.585 380.208 674.99C385.134 670.198 387.833 659.598 397.846 667.496C420.233 667.649 442.621 667.632 465.007 667.443Z"/><path fill="#9D4EDD" d="M563.966 234.814C559.77 232.608 556.592 230.223 555.167 225.278C554.107 221.696 554.653 217.83 556.663 214.681C558.754 211.38 562.092 209.065 565.917 208.263C578.859 205.588 588.768 222.214 575.444 233.734L575.437 260.451L575.418 276.394C562.614 286.117 549.294 297.416 536.566 307.542C536.302 317.941 536.322 328.345 536.626 338.744C536.744 342.9 542.786 345.314 537.899 351.062C536.232 352.997 533.858 354.183 531.31 354.352C523.178 354.84 518.513 346.559 525.448 340.544L525.475 302.108C538.119 291.427 551.153 281.531 563.913 270.573C563.995 262.768 564.189 254.694 563.916 246.917L563.966 234.814Z"/><path fill="#9D4EDD" d="M456.029 228.404C448.652 223.607 445.166 216.153 450.879 208.409C453.248 205.163 456.837 203.022 460.819 202.481C474.608 200.689 482.977 219.352 467.941 228.284L467.995 261.041L468.002 297.866L471.986 300.933L471.894 340.023C482.61 351.13 462.794 359.954 458.558 348.172C457.486 345.189 459.495 341.554 461.045 338.97L460.993 307.551C459.183 306.437 457.696 305.07 456.072 303.695C456.025 289.464 456.245 275.333 456.071 261.076L456.029 228.404Z"/><path fill="#5A189A" d="M333.629 299.349C336.674 297.237 339.917 294.577 342.925 292.312C365.245 275.512 388.347 264.141 414.288 254.248C414.445 256.99 414.773 259.639 415.081 262.365C415.796 268.018 416.491 273.265 417.458 278.889C395.275 288.635 379.04 295.311 359.349 310.373C356.182 312.285 353.759 315.461 350.39 317.11C345.104 311.105 339.444 304.814 333.629 299.349Z"/><path fill="#9D4EDD" d="M417.423 783.572C418.385 765.796 416.884 746.582 417.346 728.697C417.46 724.268 413.718 721.799 415.789 716.234C416.605 714.088 418.311 712.401 420.465 711.61C428.781 708.485 434.684 717.017 428.784 725.655C428.873 737.675 428.037 757.69 428.92 768.66L428.98 802.364C433.067 805.318 436.314 808.562 437.147 813.751C440.812 836.585 405.69 841.127 403.806 818.139C403.013 808.462 408.941 803.595 417.49 800.57L417.423 783.572Z"/><path fill="#5A189A" d="M348.282 705.442C349.612 706.317 355.344 710.441 356.128 710.708C373.87 723.627 386.651 731.81 407.337 740.24C407.31 744.225 406.937 760.573 407.396 763.572C407.454 765.054 407.666 764.379 406.978 765.673C404.932 765.478 397.542 762.3 395.292 761.367C371.796 751.83 350.068 738.416 331.013 721.685C336.324 717.776 344.089 710.326 348.282 705.442Z"/><path fill="#5A189A" d="M616.258 258.223L616.791 257.046C618.317 256.98 624.227 259.485 625.911 260.206C648.163 269.745 675.26 284.292 692.78 301.06C688.181 305.109 679.121 312.809 675.18 317.39L674.782 317.082C671.932 314.921 669.395 312.558 666.492 310.404C649.104 298.553 636.182 290.298 616.209 282.652C615.941 274.36 616.473 266.364 616.258 258.223Z"/><path fill="#5A189A" d="M598.769 600.746C601.462 600.305 604.159 599.881 606.857 599.475L611.004 628.211C611.912 634.33 613.237 641.495 613.572 647.559C611.868 649.448 611.165 650.335 609.055 651.859C595.811 652.203 581.843 651.993 568.539 651.971C568.461 645.579 568.568 639.186 568.858 632.801C585.147 626.78 568.051 620.663 581.191 613.056C582.534 612.278 585.986 608.401 587.243 607.004C593.638 606.464 595.631 606.663 598.769 600.746Z"/><path fill="#5A189A" d="M427.656 600.639C430.291 605.909 431.73 607.576 437.745 606.577L438.469 606.463L438.902 606.388C442.793 610.775 446.479 614.201 450.733 618.222C448.337 625.174 450.528 631.002 457.976 632.875L457.965 652.109C444.867 651.816 431.269 652.129 418.038 651.947C415.326 650.053 413.314 649.122 413.525 645.467C413.838 640.03 414.814 634.628 415.62 629.241L419.897 600.722C422.458 600.706 425.104 600.726 427.656 600.639Z"/><path fill="#9D4EDD" d="M418.155 226.54C404.257 225.471 397.216 211.393 407.541 202.726C410.618 200.177 414.572 198.935 418.554 199.266C430.15 200.313 431.463 211.133 428.834 220.353C433.574 225.29 440.346 231.155 444.431 235.729C443.654 242.512 443.989 253.856 444.024 261.032C443.982 270.069 443.715 280.271 444.325 289.293C444.386 291.095 446.281 294.106 446.393 295.702C447.495 311.418 421.148 305.249 432.268 290.5L432.66 289.99C432.638 277.47 433.269 264.36 432.929 251.961L433.058 241.234C428.033 236.394 423.065 231.496 418.155 226.54Z"/><path fill="#9D4EDD" d="M515.908 634.45C516.223 640.643 516.052 647.811 515.708 654.025C518.557 654.061 522.506 654.26 525.185 653.779L525.911 653.039C525.001 679.25 526.102 707.609 525.872 733.944C518.327 741.536 500.476 752.168 492.708 760.814C492.576 761.657 492.464 762.371 492.372 762.955C489.486 773.002 478.96 772.575 475.057 762.963C474.811 759.571 474.911 757.348 477.639 754.955C480.04 752.848 484.564 752.244 486.99 750.423C496.635 743.185 506.193 735.766 515.52 728.119C515.629 709.768 515.635 691.416 515.538 673.065C515.5 660.499 515.232 646.936 515.908 634.45Z"/><path fill="#9D4EDD" d="M535.967 260.787C535.816 258.22 534.064 255.944 535.339 253.103C539.884 242.973 555.52 248.055 550.113 260.574L549.989 261.309C549.839 262.226 549.741 263.02 549.637 263.939C547.045 267.46 519.039 288.592 514.458 291.16L514.488 340.332C516.008 342.16 518.22 345.338 517.702 347.783C514.791 361.53 490.615 352.363 503.632 340.473C503.841 323.264 504.06 303.073 503.519 285.913C514.082 278.07 525.826 269.156 535.967 260.787Z"/><path fill="#9D4EDD" d="M350.39 317.11C353.759 315.461 356.182 312.285 359.349 310.373C367.361 320.488 378.987 330.186 388.218 339.509C391.254 339.384 394.19 339.01 396.599 341.398C402.052 346.803 397.514 355.726 389.998 355.608C382.516 355.49 384.148 350.417 381.228 347.565C370.895 337.473 359.981 327.965 350.39 317.11Z"/><path fill="#9D4EDD" d="M666.492 310.404C669.395 312.558 671.932 314.921 674.782 317.082L675.18 317.39C673.262 319.887 670.187 322.645 667.922 324.949C660.636 332.364 652.773 339.194 644.913 345.956C643.875 347.427 643.54 349.825 642.406 351.196C631.961 363.825 619.655 339.346 637 339.029C636.964 339.03 637.794 339.114 637.994 339.007L638 338.957C644.023 332.766 662.798 315.963 666.492 310.404Z"/><path fill="#5A189A" d="M327.559 684.366C329.742 686.288 336.495 692.718 338.327 694.726C333.612 698.811 324.491 708.511 319.971 711.664C316.142 707.922 313.188 704.495 309.554 700.714C315.23 695.349 321.703 689.623 327.559 684.366Z"/><path fill="#CAC8F9" d="M348.566 704.54C348.017 703.671 344.382 700.052 344.302 699.759C343.343 696.232 348.883 702.894 349.673 703.384C349.211 704.148 349.288 704.07 348.566 704.54Z"/><path fill="#5A189A" d="M572.518 394.388C594.676 362.229 576.481 327.839 581.191 320.537C581.939 319.377 582.958 318.651 584.331 318.443C588.094 317.874 592.319 320.748 595.223 322.88C609.764 333.554 616.732 349.147 619.307 366.593C619.659 369.045 619.536 371.109 619.494 373.576C619.474 401.213 605.324 424.258 588.932 445.484L585.401 450.491C584.04 452.338 582.711 454.295 581.393 456.18C554.181 464.274 549.941 468.999 539.164 496.232C527.246 493.43 499.217 492.14 488.662 496.35C476.647 471.007 474.552 463.679 445.923 456.47L441.468 450.299C444.683 446.843 449.669 443.204 453.211 439.855C457.63 435.674 461.957 431.404 466.332 427.178C471.651 427.554 474.699 427.376 476.704 422.047C476.428 419.759 476.36 418.171 476.431 415.876C474.549 410.959 470.537 410.968 466.003 411.414C463.34 409.61 461.602 408.167 459.139 406.115L459.788 401.711C499.367 393.475 525.54 392.37 565.596 401.397C567.232 400.641 571.11 395.962 572.518 394.388Z"/><path fill="#5A189A" d="M572.518 394.388C594.676 362.229 576.481 327.839 581.191 320.537C581.939 319.377 582.958 318.651 584.331 318.443C588.094 317.874 592.319 320.748 595.223 322.88C609.764 333.554 616.732 349.147 619.307 366.593C619.659 369.045 619.536 371.109 619.494 373.576C619.474 401.213 605.324 424.258 588.932 445.484C583.673 442.447 570.479 429.23 565.001 424.213C566.024 420.404 566.222 418.927 565.666 415.042C567.763 413.502 569.351 411.912 571.231 410.13C576.249 411.009 579.252 410.411 582.54 406.401C582.074 403.227 581.931 403.588 582.18 400.319C579.491 395.437 577.934 394.679 572.518 394.388Z"/><path fill="#5A189A" d="M597.135 396.386C598.036 393.864 600.98 382.142 602.046 381.062C606.349 376.699 606.375 381.088 610.44 373.251L619.494 373.576C619.474 401.213 605.324 424.258 588.932 445.484C583.673 442.447 570.479 429.23 565.001 424.213C566.024 420.404 566.222 418.927 565.666 415.042C567.763 413.502 569.351 411.912 571.231 410.13C576.249 411.009 579.252 410.411 582.54 406.401L582.907 406.358C589.635 421.455 611.246 406.156 597.135 396.386Z"/><path fill="#9D4EDD" d="M596.18 379.246C593.857 377.586 592.419 376.355 591.289 373.629C590.197 371.05 590.215 368.136 591.338 365.571C592.443 363.01 594.537 361.005 597.143 360.01C599.706 359.043 602.56 359.216 604.988 360.486C607.941 362.005 609.422 364.178 610.459 367.22C612.751 367.511 617.167 368.716 619.037 367.944L619.307 366.593C619.659 369.045 619.536 371.109 619.494 373.576L610.44 373.251C606.375 381.088 606.349 376.699 602.046 381.062C600.98 382.142 598.036 393.864 597.135 396.386C611.246 406.156 589.635 421.455 582.907 406.358L582.54 406.401C582.074 403.227 581.931 403.588 582.18 400.319L582.983 400.163C585.815 395.792 587.228 395.684 592.179 394.957C592.652 389.917 594.682 384.166 596.18 379.246Z"/><path fill="#9D4EDD" d="M582.18 400.319L582.983 400.163C583.014 402.452 582.936 404.136 582.907 406.358L582.54 406.401C582.074 403.227 581.931 403.588 582.18 400.319Z"/><path fill="#9D4EDD" d="M565.596 401.397C567.232 400.641 571.11 395.962 572.518 394.388C577.934 394.679 579.491 395.437 582.18 400.319C581.931 403.588 582.074 403.227 582.54 406.401C579.252 410.411 576.249 411.009 571.231 410.13C569.351 411.912 567.763 413.502 565.666 415.042C566.222 418.927 566.024 420.404 565.001 424.213C570.479 429.23 583.673 442.447 588.932 445.484L585.401 450.491C583.49 448.763 581.497 447.085 579.517 445.436C572.728 439.78 566.697 432.938 559.594 427.701C552.935 428.355 551.533 427.727 548.966 421.486C540.479 422.088 531.648 422.014 523.113 422.066C521.907 423.603 520.916 424.322 519.608 425.638C516.876 428.39 517.926 434.672 518.088 438.219C524.153 441.246 531.242 445.866 537.257 449.316C539.047 449.451 543.193 448.915 544.757 449.688C550.431 452.493 550.106 460.822 543.626 462.765C541.73 463.329 539.686 463.104 537.958 462.142C535.386 460.689 535.045 457.84 534.308 455.075C531.079 451.78 518.13 444.843 513.524 442.573C505.627 447.189 497.165 451.313 489.491 456.057C489.034 460.549 485.075 465.812 480.839 463.922C470.966 459.517 473.541 445.933 487.135 450.609C493.902 445.801 501.465 441.569 508.746 437.587C508.508 434.145 508.559 429.704 508.498 426.186C505.125 424.811 504.476 424.745 502.956 421.557C502.4 419.159 502.429 418.006 501.149 415.891C493.085 416.045 484.814 415.718 476.431 415.876C474.549 410.959 470.537 410.968 466.003 411.414C463.34 409.61 461.602 408.167 459.139 406.115L459.788 401.711C499.367 393.475 525.54 392.37 565.596 401.397Z"/><path fill="#5A189A" d="M459.788 401.711C499.367 393.475 525.54 392.37 565.596 401.397C566.891 402.437 566.766 402.431 567.339 404.024C567.164 407.401 563.952 409.539 561.435 411.85C555.567 408.841 552.854 410.59 549.292 415.763L525.57 415.962C525.597 411.718 525.408 409.017 522.164 405.657C519.77 403.223 516.492 401.862 513.078 401.885C505.281 401.874 499.682 408.112 501.149 415.891C493.085 416.045 484.814 415.718 476.431 415.876C474.549 410.959 470.537 410.968 466.003 411.414C463.34 409.61 461.602 408.167 459.139 406.115L459.788 401.711Z"/><path fill="#9D4EDD" d="M501.149 415.891C502.429 418.006 502.4 419.159 502.956 421.557C499.762 421.513 479.247 421.551 476.704 422.047C476.428 419.759 476.36 418.171 476.431 415.876C484.814 415.718 493.085 416.045 501.149 415.891Z"/><path fill="#5A189A" d="M407.92 368.108C409.705 352.259 415.899 335.122 428.695 325.354C450.616 308.62 447.075 324.873 444.285 340.325C441.188 357.478 443.423 381.777 455.248 395.389C457.26 397.004 459.087 399.185 459.788 401.711L459.139 406.115C461.602 408.167 463.34 409.61 466.003 411.414C470.537 410.968 474.549 410.959 476.431 415.876C476.36 418.171 476.428 419.759 476.704 422.047C474.699 427.376 471.651 427.554 466.332 427.178C461.957 431.404 457.63 435.674 453.211 439.855C449.669 443.204 444.683 446.843 441.468 450.299C440.586 449.259 439.112 446.992 438.275 445.789C423.092 425.315 410.191 407.9 407.944 381.548C407.081 378.008 407.662 371.907 407.92 368.108Z"/><path fill="#5A189A" d="M407.92 368.108C409.705 352.259 415.899 335.122 428.695 325.354C450.616 308.62 447.075 324.873 444.285 340.325C441.188 357.478 443.423 381.777 455.248 395.389C448.395 393.879 447.093 395.841 443.836 401.464C441.357 396.188 440.335 395.146 434.492 394.801C433.501 389.817 432.065 384.187 430.912 379.16C434.718 376.693 437.585 373.844 437.019 368.878C436.322 362.76 429.828 358.403 423.873 359.746C419.314 360.773 417.625 363.374 415.396 367.083C412.886 367.521 410.444 367.802 407.92 368.108Z"/><path fill="#9D4EDD" d="M415.396 367.083C417.625 363.374 419.314 360.773 423.873 359.746C429.828 358.403 436.322 362.76 437.019 368.878C437.585 373.844 434.718 376.693 430.912 379.16C432.065 384.187 433.501 389.817 434.492 394.801C440.335 395.146 441.357 396.188 443.836 401.464C447.093 395.841 448.395 393.879 455.248 395.389C457.26 397.004 459.087 399.185 459.788 401.711L459.139 406.115C461.602 408.167 463.34 409.61 466.003 411.414C470.537 410.968 474.549 410.959 476.431 415.876C476.36 418.171 476.428 419.759 476.704 422.047C474.699 427.376 471.651 427.554 466.332 427.178C461.957 431.404 457.63 435.674 453.211 439.855C449.669 443.204 444.683 446.843 441.468 450.299C440.586 449.259 439.112 446.992 438.275 445.789C445.955 438.358 454.227 430.943 462.11 423.685C457.803 415.886 464.412 418.41 455.181 410.002C448.07 412.304 448.804 409.373 444.472 406.472C441.876 409.379 438.991 413.14 434.74 412.717C425.316 411.779 420.862 403.08 429.221 396.483L425.129 380.551C419.879 378.96 418.736 377.761 415.658 373.529L407.904 373.385L407.944 381.548C407.081 378.008 407.662 371.907 407.92 368.108C410.444 367.802 412.886 367.521 415.396 367.083Z"/><path fill="#5A189A" d="M506.219 504.202C512.36 503.567 526.894 504.245 532.841 505.672C536.913 512.866 544.163 520.207 547.479 527.745C533.741 531.269 531.42 529.899 518.513 537.978L513.738 541.732C505.1 534.188 491.106 529.504 479.89 528.269C482.081 523.581 491.891 509.652 495.254 505.249C498.54 504.678 502.814 504.46 506.219 504.202Z"/><path fill="#9D4EDD" d="M442.099 688.511C446.982 688.307 452 690.089 452.873 695.521C453.229 697.841 452.623 700.206 451.196 702.07C449.777 703.973 447.653 705.227 445.301 705.549C441.116 706.1 440.103 702.846 438.438 702.739C426.926 702.002 415.16 702.239 403.602 702.216C403.026 710.268 401.313 714.251 392.912 716.485C375.142 716.896 373.542 694.335 388.873 691.424C393.628 690.521 402.222 690.952 407.304 690.996L437.83 691.216C439.209 690.257 440.666 689.394 442.099 688.511Z"/><path fill="#5A189A" d="M474.691 538.333C485.601 538.973 500.648 542.966 508.468 551.007L508.502 576.48C505.662 578.975 503.937 580.387 500.723 582.521C500.377 582.735 500.035 582.955 499.697 583.182C496.734 585.141 493.037 587.436 489.941 589.146C487.857 586.606 486.048 584.566 484.294 581.763C484.821 575.382 485.782 569.389 486.195 562.903C478.846 555.752 476.396 548.351 474.691 538.333Z"/><path fill="#5A189A" d="M548.994 538.712C550.173 538.63 551.948 538.464 551.753 540.214C550.943 547.452 546.703 557.421 541.557 562.395L540.985 562.969C541.95 569.039 542.499 575.168 542.63 581.313L542.429 581.653C540.623 584.745 539.19 586.511 536.788 589.119L536.314 588.839C533.567 587.248 530.932 585.336 528.252 583.602C526.119 581.894 521.416 578.868 518.959 577.15C519.127 568.379 518.895 559.565 519.091 550.782C527.847 542.117 537.276 539.964 548.994 538.712Z"/><path fill="#9D4EDD" d="M393.684 303.028C401.62 302.806 408.252 309.021 408.546 316.954C408.839 324.888 402.684 331.576 394.753 331.941C386.721 332.31 379.929 326.059 379.632 318.024C379.335 309.989 385.647 303.253 393.684 303.028Z"/><path fill="#9D4EDD" d="M630.668 303.764C638.293 302.928 645.181 308.359 646.148 315.968C647.115 323.578 641.804 330.559 634.213 331.657C629.183 332.385 624.153 330.343 621.054 326.315C617.955 322.288 617.271 316.902 619.264 312.227C621.256 307.553 625.616 304.317 630.668 303.764Z"/><path fill="#5A189A" d="M513.406 586.391C514.378 586.691 525.576 594.139 527.649 595.42C521.081 597.687 519.611 597.857 512.693 598.28C509.866 598.185 508.443 598.049 505.746 597.592C503.9 597.279 502.081 596.822 500.306 596.225C500.06 596.14 499.813 596.055 499.567 595.97L498.658 595.668C503.287 592.441 508.578 589.372 513.406 586.391Z"/><path fill="#5A189A" d="M261.5 618.127C270.184 616.877 278.176 616.519 286.915 616.177C293.69 634.143 300.142 647.382 311.231 663.363C311.972 664.6 312.234 665.147 313.202 666.225C314.837 669.092 318.906 673.314 319.54 674.967C320.065 674.623 320.595 674.286 321.129 673.956C321.809 675.088 328.295 681.637 329.348 682.415C328.659 683.132 328.467 683.306 327.69 683.916L327.559 684.366C321.703 689.623 315.23 695.349 309.554 700.714C308.859 700.074 301.613 691.785 301.188 690.996C285.734 673.078 268.12 640.719 261.5 618.127Z"/><path fill="#E0AAFF" d="M321.129 673.956C321.809 675.088 328.295 681.637 329.348 682.415C328.659 683.132 328.467 683.306 327.69 683.916L327.559 684.366C321.703 689.623 315.23 695.349 309.554 700.714C308.859 700.074 301.613 691.785 301.188 690.996L301.643 690.607C306.672 686.383 314.356 678.916 319.512 675.323L319.54 674.967C320.065 674.623 320.595 674.286 321.129 673.956Z"/><path fill="#CAC8F9" d="M321.129 673.956C321.809 675.088 328.295 681.637 329.348 682.415C328.659 683.132 328.467 683.306 327.69 683.916C326.383 681.748 321.56 677.39 319.512 675.323L319.54 674.967C320.065 674.623 320.595 674.286 321.129 673.956Z"/><defs><linearGradient id="gradient_4" gradientUnits="userSpaceOnUse" x1="292.46838" y1="395.14481" x2="204.26926" y2="440.5813"><stop offset="0" stop-color="#7A58E2"/><stop offset="1" stop-color="#9576F2"/></linearGradient></defs><path fill="url(#gradient_4)" d="M225.708 426.851C220.494 434.295 213.234 437.827 204.408 434.147C200.034 432.276 196.633 428.672 195.019 424.197C187.262 403.135 219.797 388.334 227.595 414.983L292.272 415.317C293.741 413.702 293.707 413.778 295.655 412.732C314.765 414.377 305 437.465 292.116 428.345L291.296 427.302C287.29 426.734 275.314 427.037 270.515 427.019L225.708 426.851Z"/><path fill="#5A189A" d="M723.806 333.099C737.444 347.782 758.212 385.26 763.12 404.386C755.288 406.11 746.255 407.052 738.232 407.994C734.186 397.57 729.486 387.411 724.16 377.579C722.499 373.188 714.384 360.483 711.611 356.433C709.346 353.315 707.801 351.306 705.241 348.446L705.639 347.838C708.837 345.485 712.295 342.436 715.468 339.921C718.278 337.686 721.058 335.411 723.806 333.099Z"/><path fill="#9D4EDD" d="M798.061 594.665C799.534 592.473 800.881 590.402 802.966 588.735C813.169 580.576 828.599 586.308 830.656 599.228C831.381 603.971 830.186 608.807 827.336 612.666C824.758 616.158 820.844 618.422 816.531 618.916C806.846 620.084 801.179 614.902 797.678 606.457C792.432 606.455 735.554 605.774 733.888 607.254C733.644 607.471 733.452 607.739 733.234 607.982C730.235 609.178 724.743 609.463 722.585 606.608C716.446 598.487 726.964 584.893 735.288 594.667C738.748 595.482 754.221 595.114 758.826 595.035C771.789 594.816 785.138 594.981 798.061 594.665Z"/><path fill="#5A189A" d="M703.585 310.819C706.796 313.941 711.803 318.537 714.527 321.939L715.861 323.617C718.343 327.091 721.664 329.954 723.806 333.099C721.058 335.411 718.278 337.686 715.468 339.921C712.295 342.436 708.837 345.485 705.639 347.838C703.764 346.203 698.788 340.241 696.877 338.024L696.487 338.122C692.75 334.107 689.681 330.84 685.627 327.059L703.585 310.819Z"/><path fill="#CAC8F9" d="M714.527 321.939L715.861 323.617C718.343 327.091 721.664 329.954 723.806 333.099C721.058 335.411 718.278 337.686 715.468 339.921C712.295 342.436 708.837 345.485 705.639 347.838C703.764 346.203 698.788 340.241 696.877 338.024C700.326 334.162 710.074 326.267 714.527 321.939Z"/><path fill="#5A189A" d="M705.425 675.158C711.049 679.282 718.786 687.849 723.573 691.184C722.106 693.795 717.238 699.172 714.965 701.312C711.589 704.906 708.172 708.461 704.714 711.977C699.612 706.981 692.283 699.894 687.05 695.219C688.858 692.87 694.747 685.428 696.95 684.273L696.9 683.895C697.407 682.96 704.435 675.891 705.425 675.158Z"/><path fill="#CAC8F9" d="M705.425 675.158C711.049 679.282 718.786 687.849 723.573 691.184C722.106 693.795 717.238 699.172 714.965 701.312C710.73 696.518 701.905 688.197 696.95 684.273L696.9 683.895C697.407 682.96 704.435 675.891 705.425 675.158Z"/></svg>