<?xml version="1.0" encoding="UTF-8"?>
<svg id="katman_1" xmlns="http://www.w3.org/2000/svg" version="1.1" viewBox="0 0 860 296">
  <!-- Generator: Adobe Illustrator 29.4.0, SVG Export Plug-In . SVG Version: 2.1.0 Build 152)  -->
  <defs>
    <style>
      .st0 {
        fill: #226db4;
      }
    </style>
  </defs>
  <path d="M382.2,140.8h45.3c21,0,38.2,6.7,38.2,30.5s-6.4,20.9-18.5,24.4c15.6,3.1,23.3,11.8,23.3,27.7,0,24.5-18.4,32.2-39.9,32.2h-48.3v-114.9h0ZM424.7,189c12.5,0,19.5-3.7,19.5-17.2s-9-15.4-19.9-15.4h-20.5v32.6h20.8ZM427.8,240.1c12.7,0,20.8-4.9,20.8-18.1s-10-18.2-22.3-18.2h-22.4v36.3h23.9ZM525.8,169.8c25.5,0,45.1,17.9,45.1,43.6s-20.6,43.8-46,43.8-46.1-17.7-46.1-43.4,21.7-44,47-44ZM549.3,213.6c0-15.5-7.8-28.3-24.3-28.3s-23.7,13.5-23.7,28.9,7.9,27.6,24.2,27.6,23.9-13.5,23.9-28.2h0ZM624.3,169.8c25.5,0,45.1,17.9,45.1,43.6s-20.6,43.8-46,43.8-46.1-17.7-46.1-43.4c0-26.4,21.7-44,47-44ZM647.9,213.6c0-15.5-7.8-28.3-24.3-28.3s-23.7,13.5-23.7,28.9,7.9,27.6,24.2,27.6,23.9-13.5,23.9-28.2h0ZM684.1,133.6h20.1v74.7l30.5-36.6h22l-33.3,38.5,35.9,45.5h-23.2l-31.9-41v41h-20.1v-122.1ZM779.8,230.6c3.1,8.2,11.7,12.2,20.8,12.2s14.6-2,14.6-10-9.1-10.4-19.5-12.6c-13.5-2.8-28.6-6.1-28.6-25s16.1-25.5,31.3-25.5,28.6,5,34.1,18.3l-14.9,6.4c-3.3-7.5-11.5-10.3-18.4-10.3s-13.1,2.7-13.1,9.5,8.2,9.3,18.4,11.3c13.7,2.7,30.1,5.8,30.1,25.4s-16.6,26.8-34.1,26.8-30.8-5-36-20.1l15.5-6.5h0ZM382.3,104.4l37-53.4h-33.2v-10.5h50.6v5.2l-36.1,53.4h35v10.5h-53.3v-5.2h0ZM468.4,58c15.4,0,27.2,10.8,27.2,26.3s-12.4,26.4-27.7,26.4-27.8-10.7-27.8-26.1,13.1-26.5,28.3-26.5ZM482.5,84.3c0-9.3-4.7-17.1-14.6-17.1s-14.3,8.1-14.3,17.4,4.8,16.6,14.6,16.6c10.1,0,14.4-8.1,14.4-17ZM504.4,36.1h12.1v31c3.3-6.3,9.9-9.1,16.9-9.1,12.1,0,18.2,8.5,18.2,20v31.7h-12.2v-30.5c0-7.3-3.8-11.2-10.8-11.2s-12,4.8-12,12v29.7h-12.1V36.1h0ZM587.7,58c15.4,0,27.2,10.8,27.2,26.3s-12.4,26.4-27.7,26.4-27.8-10.7-27.8-26.1c0-15.9,13.1-26.5,28.3-26.5ZM601.9,84.3c0-9.3-4.7-17.1-14.7-17.1s-14.3,8.1-14.3,17.4,4.8,16.6,14.6,16.6c10.1,0,14.4-8.1,14.4-17h0Z"/>
  <path class="st0" d="M234.3,293H36.2c-4.7,0-8.5-3.8-8.5-8.5v-72c0-15.7,10-29.7,24.9-34.8l219.6-75.4c17.1-5.9,28.6-22,28.6-40s-19-42.3-42.3-42.3H44.7v140.2c0,4.7-3.8,8.5-8.5,8.5s-8.5-3.8-8.5-8.5V11.5c0-4.7,3.8-8.5,8.5-8.5h222.2c32.7,0,59.3,26.6,59.3,59.3s-16.1,47.9-40.1,56.1L58.1,193.8c-8,2.7-13.4,10.3-13.4,18.8v63.5h189.6c17.7,0,34.4-6.9,47-19.5,12.5-12.5,19.5-29.2,19.5-46.9s-3.5-24.8-10.2-35.4c-6.6-10.5-16-18.9-27.2-24.3-4.2-2-6-7.1-3.9-11.3,0,0,0,0,0,0,2-4.2,7.1-6,11.3-3.9,0,0,0,0,0,0,14,6.8,25.8,17.4,34.1,30.6,8.4,13.3,12.9,28.7,12.9,44.5,0,22.3-8.7,43.2-24.4,59-15.7,15.7-36.7,24.4-58.9,24.4h0Z"/>
  <path class="st0" d="M123.3,121.9c-18.7,0-34-15.2-34-34s15.2-34,34-34,34,15.2,34,34-15.2,34-34,34ZM123.3,70.9c-9.4,0-17,7.6-17,17s7.6,17,17,17,17-7.6,17-17-7.6-17-17-17ZM208.5,241.9c-18.7,0-34-15.2-34-34s15.2-34,34-34,34,15.2,34,34-15.2,34-34,34ZM208.5,190.9c-9.4,0-17,7.6-17,17s7.6,17,17,17,17-7.6,17-17-7.6-17-17-17Z"/>
</svg>